<?xml version="1.0" encoding="utf-8"?>
<!-- Generator: Adobe Illustrator 21.1.0, SVG Export Plug-In . SVG Version: 6.00 Build 0)  -->
<svg version="1.1" id="Layer_1" xmlns="http://www.w3.org/2000/svg" xmlns:xlink="http://www.w3.org/1999/xlink" x="0px" y="0px"
	 viewBox="0 0 682 705" style="enable-background:new 0 0 682 705;" xml:space="preserve">
<style type="text/css">
	.st0{opacity:0.68;fill:#A764BF;}
	.st1{fill:none;stroke:#000000;stroke-width:6;stroke-miterlimit:10;}
	.st2{fill:none;stroke:#000000;stroke-width:6;stroke-linejoin:round;stroke-miterlimit:10;}
</style>
<circle class="st0" cx="336" cy="313.7" r="293.9"/>
<g>
	<path class="st1" d="M264.2,642.9c0,0-86.7-99.8-167.9-366.7c0,0,51.4-61.9,125.7,127.2c0,0,83.1,32.6,98.1,83.6"/>
	<path class="st2" d="M460.6,677.5c0,0,1-6.2,2.2-13.7s9.4-28.1,18.3-45.8c0,0,18.6-37,34.4-221.6L572.9,245
		c7-18.4,1.9-39.4-11.4-46.6s-30.4,1.8-38.1,20l-36.8,86.9c-7.7,18.2-18.3,31.5-23.5,29.7c-5.2-1.8-6.9-19.3-3.8-38.8l26.7-167.2
		c3.1-19.5-6.3-37.7-20.8-40.6c-14.6-2.8-29.8,10.7-33.9,30l-35.1,167c-4.1,19.3-11.1,35.3-15.7,35.5s-8.6-15.7-9-35.5l-4.1-204.2
		c-0.4-19.7-13-36.6-28-37.5c-15-0.9-27.6,14.6-27.9,34.3l-3.5,211.3c-0.3,19.7-4.5,35.9-9.3,35.9c-4.8,0-11.8-15.8-15.6-35.2
		l-34.3-173.9c-3.8-19.4-19.9-32.7-35.8-29.7S186.7,108,190,127.4L237,410"/>
</g>
</svg>
