<?xml version="1.0" encoding="utf-8"?>
<!-- Generator: Adobe Illustrator 21.1.0, SVG Export Plug-In . SVG Version: 6.00 Build 0)  -->
<svg version="1.1" id="Layer_1" xmlns="http://www.w3.org/2000/svg" xmlns:xlink="http://www.w3.org/1999/xlink" x="0px" y="0px"
	 viewBox="0 0 1000 705" style="enable-background:new 0 0 1000 705;" xml:space="preserve">
<style type="text/css">
	.st0{opacity:0.68;fill:#A764BF;}
	.st1{fill:none;stroke:#000000;stroke-width:7;stroke-miterlimit:10;}
	.st2{fill:none;stroke:#000000;stroke-width:7;stroke-linecap:round;stroke-miterlimit:10;}
	.st3{stroke:#000000;stroke-width:4;stroke-miterlimit:10;}
</style>
<circle class="st0" cx="500" cy="352.5" r="284.5"/>
<g>
	<rect x="112.5" y="119" class="st1" width="775" height="408.5"/>
	<rect x="39.2" y="562" class="st1" width="921.6" height="24"/>
	<g>
		<line class="st2" x1="493.1" y1="147.8" x2="506.9" y2="147.8"/>
		<circle class="st3" cx="524.1" cy="147.8" r="2.4"/>
	</g>
	<path d="M602.6,250.3c-1.5-1-3.4-1.2-5-0.5L500,290.4l-97.6-40.6c-1.6-0.7-3.5-0.5-5,0.5c-1.5,1-2.4,2.6-2.4,4.4v171.6
		c0,2.1,1.3,4.1,3.3,4.9l99.7,41.5c0.1,0,0.2,0.1,0.3,0.1c0.1,0,0.2,0.1,0.4,0.1c0.4,0.1,0.9,0.2,1.4,0.2s0.9-0.1,1.4-0.2
		c0.1,0,0.2-0.1,0.3-0.1c0.1,0,0.2-0.1,0.3-0.1l99.7-41.5c2-0.8,3.3-2.8,3.3-4.9V254.7C605,253,604.1,251.3,602.6,250.3z
		 M494.7,459.9l-89.1-37V262.7l89.1,37V459.9z M594.4,422.8l-89.1,37V299.7l89.1-37V422.8z M526.4,336.5c0.7,0,1.4-0.1,2-0.4
		l47-19.5c2.7-1.1,4-4.2,2.9-6.9c-1.1-2.7-4.2-4-6.9-2.9l-47,19.5c-2.7,1.1-4,4.2-2.9,6.9C522.3,335.2,524.3,336.5,526.4,336.5z
		 M526.4,363.1c0.7,0,1.4-0.1,2-0.4l47-19.5c2.7-1.1,4-4.2,2.9-6.9c-1.1-2.7-4.2-4-6.9-2.9l-47,19.5c-2.7,1.1-4,4.2-2.9,6.9
		C522.3,361.8,524.3,363.1,526.4,363.1z M526.4,389.7c0.7,0,1.4-0.1,2-0.4l47-19.5c2.7-1.1,4-4.2,2.9-6.9c-1.1-2.7-4.2-4-6.9-2.9
		l-47,19.5c-2.7,1.1-4,4.2-2.9,6.9C522.3,388.4,524.3,389.7,526.4,389.7z M526.4,416.2c0.7,0,1.4-0.1,2-0.4l47-19.5
		c2.7-1.1,4-4.2,2.9-6.9c-1.1-2.7-4.2-4-6.9-2.9l-47,19.5c-2.7,1.1-4,4.2-2.9,6.9C522.3,415,524.3,416.2,526.4,416.2z M424.6,316.6
		l47,19.5c0.7,0.3,1.4,0.4,2,0.4c2.1,0,4.1-1.2,4.9-3.3c1.1-2.7-0.2-5.8-2.9-6.9l-47-19.5c-2.7-1.1-5.8,0.2-6.9,2.9
		C420.6,312.4,421.9,315.5,424.6,316.6z M424.6,343.2l47,19.5c0.7,0.3,1.4,0.4,2,0.4c2.1,0,4.1-1.2,4.9-3.3c1.1-2.7-0.2-5.8-2.9-6.9
		l-47-19.5c-2.7-1.1-5.8,0.2-6.9,2.9C420.6,338.9,421.9,342,424.6,343.2z M424.6,369.8l47,19.5c0.7,0.3,1.4,0.4,2,0.4
		c2.1,0,4.1-1.2,4.9-3.3c1.1-2.7-0.2-5.8-2.9-6.9l-47-19.5c-2.7-1.1-5.8,0.2-6.9,2.9C420.6,365.5,421.9,368.6,424.6,369.8z
		 M424.6,396.3l47,19.5c0.7,0.3,1.4,0.4,2,0.4c2.1,0,4.1-1.2,4.9-3.3c1.1-2.7-0.2-5.8-2.9-6.9l-47-19.5c-2.7-1.1-5.8,0.2-6.9,2.9
		C420.6,392.1,421.9,395.2,424.6,396.3z"/>
</g>
</svg>
