<?xml version="1.0" encoding="utf-8"?>
<!-- Generator: Adobe Illustrator 21.1.0, SVG Export Plug-In . SVG Version: 6.00 Build 0)  -->
<svg version="1.1" id="Layer_1" xmlns="http://www.w3.org/2000/svg" xmlns:xlink="http://www.w3.org/1999/xlink" x="0px" y="0px"
	 viewBox="0 0 1000 705" style="enable-background:new 0 0 1000 705;" xml:space="preserve">
<style type="text/css">
	.st0{opacity:0.68;fill:#A764BF;}
	.st1{fill:none;}
	.st2{stroke:#000000;stroke-width:0.75;stroke-miterlimit:10;}
	.st3{opacity:0.42;fill:#A764BF;}
</style>
<circle class="st0" cx="440.4" cy="352.4" r="311.4"/>
<g>
	<path class="st1" d="M375.9,199.4c-17.3-14.9-39.8-24-64.4-24c-54.5,0-98.9,44.3-98.9,98.9s44.3,98.9,98.9,98.9
		c44.5,0,82.2-29.5,94.6-70c-19.8-22.2-31.8-51.4-31.8-83.3C374.3,212.9,374.9,206.1,375.9,199.4z"/>
	<path class="st1" d="M593,303.3c12.4,40.4,50.1,69.9,94.5,69.9c54.5,0,98.9-44.3,98.9-98.9s-44.3-98.9-98.9-98.9
		c-24.5,0-47,9-64.3,23.9c1.1,6.7,1.7,13.5,1.7,20.5C625,251.8,612.9,281.1,593,303.3z"/>
	<path class="st1" d="M370.1,419.2c-1.6-1-3.1-1.9-4.6-2.8c-33.8-19.9-74.1-19.9-107.8,0C202,449.2,135,517.3,129,655.6h150
		c2.9-74.1,21.2-138,54.6-190.2C344.3,448.7,356.5,433.2,370.1,419.2z"/>
	<path class="st1" d="M720.3,655.6h149.8c-6-138.3-73-206.4-128.6-239.2c-33.8-19.9-74.1-19.9-107.8,0c-1.5,0.9-3,1.8-4.5,2.7
		c13.6,14,25.8,29.5,36.6,46.3C699,517.6,717.3,581.5,720.3,655.6z"/>
	<path d="M687.6,163.5c-25.2,0-48.5,8.5-67.2,22.8c-14.7-52.9-63.3-91.8-120.8-91.8c-57.5,0-106.1,39-120.8,91.9
		c-18.7-14.3-42-22.9-67.3-22.9c-61.1,0-110.8,49.7-110.8,110.8c0,61.1,49.7,110.8,110.8,110.8c47.6,0,88.3-30.2,104-72.5
		c22.3,20.2,51.8,32.5,84.2,32.5c32.3,0,61.8-12.3,84-32.4c15.7,42.2,56.3,72.4,103.9,72.4c61.1,0,110.8-49.7,110.8-110.8
		C798.4,213.2,748.7,163.5,687.6,163.5z M311.5,373.2c-54.5,0-98.9-44.3-98.9-98.9s44.3-98.9,98.9-98.9c24.6,0,47.1,9.1,64.4,24
		c-1.1,6.6-1.7,13.4-1.7,20.4c0,32,12,61.1,31.8,83.3C393.7,343.6,356,373.2,311.5,373.2z M579.8,300
		c-20.5,20.5-48.9,33.3-80.2,33.3c-31.3,0-59.8-12.8-80.3-33.4c-3.6-3.6-6.9-7.4-10-11.4c-14.5-19.1-23.1-42.8-23.1-68.5
		c0-3.2,0.2-6.5,0.4-9.6c0.4-5.1,1.2-10.1,2.3-15c11.3-50.7,56.6-88.8,110.7-88.8c54,0,99.3,38,110.7,88.6c1.1,4.9,1.9,9.9,2.3,15
		c0.3,3.2,0.5,6.5,0.5,9.8c0,25.8-8.7,49.7-23.3,68.7C586.7,292.6,583.4,296.4,579.8,300z M687.6,373.2c-44.4,0-82.1-29.5-94.5-69.9
		c19.8-22.2,31.9-51.4,31.9-83.5c0-7-0.6-13.8-1.7-20.5c17.3-14.8,39.8-23.9,64.3-23.9c54.5,0,98.9,44.3,98.9,98.9
		S742.1,373.2,687.6,373.2z"/>
	<path class="st2" d="M882.2,661.4c-2-67.1-18.2-124.9-48.2-171.8c-22.1-34.6-51.2-62.7-86.4-83.5c-37.6-22.2-82.4-22.2-120,0
		c-2.4,1.4-4.8,2.9-7.2,4.4c-15.9-15.1-33.6-28.5-52.9-39.9c-42.5-25.1-93.3-25.1-135.8,0c-19.3,11.4-37,24.8-53,40
		c-2.4-1.5-4.8-3-7.3-4.5c-37.6-22.2-82.4-22.2-120,0c-35.2,20.8-64.3,48.9-86.4,83.5c-30,46.9-46.2,104.7-48.2,171.8l-0.2,6.1
		h376.1h13.6h376.1L882.2,661.4z M129,655.6c6-138.3,73-206.4,128.6-239.2c33.8-19.9,74.1-19.9,107.8,0c1.5,0.9,3.1,1.9,4.6,2.8
		c-13.6,14-25.8,29.5-36.5,46.3c-33.3,52.1-51.7,116.1-54.6,190.2H129z M505.9,654.9h-0.8H494h-0.8H290.9
		c4.6-111.6,44.1-183.3,89.2-229.1c2.9-2.9,5.8-5.7,8.7-8.5c16.3-15.1,33-27,48.9-36.4c38.7-22.9,84.9-22.9,123.6,0
		c15.9,9.4,32.6,21.3,48.8,36.4c2.9,2.7,5.8,5.5,8.7,8.5c45.2,45.8,84.7,117.5,89.3,229.2H505.9z M720.3,655.6
		c-2.9-74.1-21.2-138-54.6-190.2c-10.8-16.8-23-32.3-36.6-46.3c1.5-0.9,3-1.9,4.5-2.7c33.8-19.9,74.1-19.9,107.8,0
		c55.6,32.9,122.6,101,128.6,239.2H720.3z"/>
</g>
<rect x="430" y="497" class="st3" width="452" height="188"/>
</svg>
