<svg xmlns="http://www.w3.org/2000/svg" viewBox="76 169 37 35.356">
  <defs>
    <style>
      .cls-1 {
        fill: #fff;
      }
    </style>
  </defs>
  <g id="linkedin-logo" transform="translate(76 159.442)">
    <path id="LinkedIn" class="cls-1" d="M37,31.235V44.914H29.07V32.151c0-3.206-1.147-5.394-4.018-5.394a4.339,4.339,0,0,0-4.069,2.9,5.426,5.426,0,0,0-.263,1.934V44.914H12.787s.107-21.616,0-23.856h7.932v3.381c-.016.025-.037.053-.052.077h.052v-.077A7.876,7.876,0,0,1,27.868,20.5C33.087,20.5,37,23.907,37,31.235ZM4.489,9.558C1.775,9.558,0,11.338,0,13.679A4.109,4.109,0,0,0,4.384,17.8h.053a4.135,4.135,0,1,0,.052-8.245ZM.471,44.914H8.4V21.058H.471Z" transform="translate(0)"/>
  </g>
</svg>
