<?xml version="1.0" encoding="utf-8"?>
<!-- Generator: Adobe Illustrator 22.0.1, SVG Export Plug-In . SVG Version: 6.00 Build 0)  -->
<svg version="1.1" id="Capa_1" xmlns="http://www.w3.org/2000/svg" xmlns:xlink="http://www.w3.org/1999/xlink" x="0px" y="0px"
	 viewBox="0 0 30.3 29.8" style="enable-background:new 0 0 30.3 29.8;" xml:space="preserve">
<style type="text/css">
	.st0{fill:#FFFFFF;}
</style>
<g id="linkedin-logo_1_" transform="translate(76 159.442)">
	<path id="LinkedIn_1_" class="st0" d="M-45.7-140.7v11.2h-6.5V-140c0-2.6-0.9-4.4-3.3-4.4c-1.5,0-2.8,1-3.3,2.4
		c-0.2,0.5-0.2,1-0.2,1.6v10.9h-6.5c0,0,0.1-17.7,0-19.5h6.5v2.8c0,0,0,0,0,0.1h0v-0.1c1.2-2.1,3.5-3.3,5.9-3.2
		C-48.9-149.5-45.7-146.7-45.7-140.7z M-72.3-158.5c-2.2,0-3.7,1.5-3.7,3.4c0,1.9,1.5,3.4,3.3,3.4c0.1,0,0.2,0,0.2,0h0
		c1.9,0.2,3.5-1.2,3.7-3.1c0.2-1.9-1.2-3.5-3.1-3.7C-72-158.5-72.1-158.5-72.3-158.5L-72.3-158.5z M-75.6-129.5h6.5v-19.5h-6.5
		V-129.5z"/>
</g>
</svg>
