<?xml version="1.0" encoding="UTF-8"?>
<svg width="136px" height="35px" viewBox="0 0 136 35" version="1.1" xmlns="http://www.w3.org/2000/svg" xmlns:xlink="http://www.w3.org/1999/xlink">
    <!-- Generator: Sketch 46.1 (44463) - http://www.bohemiancoding.com/sketch -->
    <title>Page 1</title>
    <desc>Created with Sketch.</desc>
    <defs>
        <polygon id="path-1" points="0 34.6053182 135.256364 34.6053182 135.256364 -0.000136363636 0 -0.000136363636"></polygon>
    </defs>
    <g id="Mobile-" stroke="none" stroke-width="1" fill="none" fill-rule="evenodd">
        <g id="iPhone-7-Plus" transform="translate(-32.000000, -30.000000)">
            <g id="Page-1" transform="translate(32.000000, 30.000000)">
                <path d="M50.3413636,10.1438636 L50.3413636,10.7188636 C50.3413636,11.3334091 50.3186364,11.8729545 50.2718182,12.3325 C50.2259091,12.7934091 50.1177273,13.2461364 49.9490909,13.6911364 C49.7777273,14.1338636 49.5240909,14.5284091 49.1904545,14.8679545 C48.4754545,15.5838636 47.4931818,15.9415909 46.2445455,15.9415909 L42.2518182,15.9415909 L42.2518182,4.50295455 L46.2445455,4.50295455 C47.4931818,4.50295455 48.4754545,4.86068182 49.1904545,5.57704545 C49.5240909,5.91795455 49.7777273,6.29840909 49.9490909,6.72340909 C50.1177273,7.14568182 50.2259091,7.57795455 50.2718182,8.01704545 C50.3186364,8.4575 50.3413636,8.97204545 50.3413636,9.56431818 L50.3413636,10.1438636 Z M48.62,10.1484091 C48.62,9.49022727 48.6077273,8.98204545 48.5890909,8.6225 C48.5663636,8.26477273 48.5113636,7.92977273 48.4218182,7.61568182 C48.3286364,7.3025 48.1927273,7.04522727 48.0104545,6.83977273 C47.5427273,6.32295455 46.8986364,6.06295455 46.0786364,6.06295455 L43.9895455,6.06295455 L43.9895455,14.3806818 L46.0786364,14.3806818 C46.9040909,14.3806818 47.5486364,14.1252273 48.0104545,13.6120455 C48.28,13.3161364 48.4513636,12.9115909 48.5190909,12.3988636 C48.5859091,11.8852273 48.62,11.1370455 48.62,10.1484091 Z" id="Fill-1" fill="#58585B"></path>
                <polygon id="Fill-3" fill="#58585B" points="59.2455909 15.9415455 51.9737727 15.9415455 51.9737727 4.50290909 59.2455909 4.50290909 59.2455909 6.06336364 53.7119545 6.06336364 53.7119545 9.39790909 58.4355909 9.39790909 58.4355909 10.9451818 53.7119545 10.9451818 53.7119545 14.3806364 59.2455909 14.3806364"></polygon>
                <polygon id="Fill-5" fill="#58585B" points="71.1823182 15.9415455 69.4459545 15.9415455 69.4459545 8.29290909 66.8373182 13.8706364 65.5609545 13.8706364 62.8814091 8.29290909 62.8814091 15.9415455 61.1445909 15.9415455 61.1445909 4.50290909 62.8814091 4.50290909 66.1991364 11.6206364 69.4459545 4.50290909 71.1823182 4.50290909"></polygon>
                <path d="M80.9825455,10.218 C80.9825455,11.1239091 80.9657273,11.8143636 80.933,12.293 C80.8989091,12.7720909 80.8057273,13.2202727 80.6498182,13.6411818 C80.4934545,14.0620909 80.2448182,14.4534545 79.9002727,14.8139091 C79.0825455,15.6270909 78.0848182,16.0357273 76.8998182,16.0357273 C75.7143636,16.0357273 74.7193636,15.6307273 73.913,14.8211818 C73.5589091,14.4543636 73.3057273,14.063 73.1507273,13.6511818 C72.9934545,13.2384545 72.8984545,12.7893636 72.8620909,12.3061818 C72.8257273,11.8220909 72.8061818,11.1275455 72.8061818,10.2220909 C72.8061818,9.52754545 72.8157273,8.97527273 72.8352727,8.56709091 C72.8520909,8.15845455 72.8948182,7.78527273 72.9589091,7.44527273 C73.0216364,7.10481818 73.1293636,6.78663636 73.2766364,6.49209091 C73.4266364,6.19436364 73.638,5.90890909 73.913,5.62481818 C74.7193636,4.813 75.7143636,4.40845455 76.8998182,4.40845455 C78.0848182,4.40845455 79.0825455,4.813 79.9002727,5.62481818 C80.2484545,5.98936364 80.4989091,6.38072727 80.653,6.79754545 C80.8066364,7.21163636 80.8989091,7.66027273 80.933,8.14163636 C80.9657273,8.62163636 80.9825455,9.31436364 80.9825455,10.218 M79.2611818,10.2220909 C79.2611818,9.08481818 79.2166364,8.28527273 79.1316364,7.818 C79.0452727,7.35481818 78.8670909,6.97390909 78.5898182,6.67481818 C78.3920909,6.46027273 78.1407273,6.28936364 77.8389091,6.16118182 C77.5361818,6.03390909 77.2211818,5.96981818 76.8998182,5.96981818 C76.5720909,5.96981818 76.2570909,6.03390909 75.9525455,6.16118182 C75.6470909,6.28936364 75.3966364,6.46027273 75.1993636,6.67481818 C74.9243636,6.98163636 74.7439091,7.36663636 74.658,7.82527273 C74.5725455,8.28663636 74.5284545,9.08481818 74.5284545,10.2220909 C74.5284545,10.8270909 74.5389091,11.313 74.5548182,11.6761818 C74.5734545,12.038 74.6084545,12.3548182 74.6616364,12.628 C74.713,12.8989091 74.7770909,13.1111818 74.8489091,13.2607273 C74.9225455,13.4148182 75.0370909,13.5811818 75.1993636,13.7702727 C75.4070909,13.9916364 75.6611818,14.163 75.9584545,14.288 C76.2575455,14.4134545 76.5720909,14.4757273 76.8998182,14.4757273 C77.5848182,14.4757273 78.1489091,14.2393636 78.5898182,13.7702727 C78.7770909,13.5657273 78.9193636,13.3339091 79.0143636,13.0739091 C79.1111818,12.8111818 79.1775455,12.4561818 79.2107273,12.0084545 C79.2434545,11.5589091 79.2611818,10.9634545 79.2611818,10.2220909" id="Fill-7" fill="#58585B"></path>
                <path d="M90.8094091,12.5173636 C90.7180455,13.0828182 90.5521364,13.5873636 90.3071364,14.0296364 C90.0644091,14.4714545 89.7698636,14.8423636 89.4198636,15.1378182 C89.0685,15.4337273 88.6635,15.6564545 88.2107727,15.8091818 C87.7562273,15.9619091 87.2725909,16.0355455 86.7575909,16.0355455 C86.3625909,16.0355455 85.9880455,15.9905455 85.6380455,15.8987273 C85.2866818,15.8064545 84.9507727,15.6691818 84.6275909,15.4800909 C84.3062273,15.291 84.0203182,15.0719091 83.7721364,14.8205455 C83.4175909,14.4546364 83.1639545,14.0628182 83.0085,13.651 C82.8521364,13.2382727 82.7553182,12.7896364 82.7198636,12.306 C82.6825909,11.8223636 82.6639545,11.1273636 82.6639545,10.2219091 C82.6639545,9.52781818 82.6753182,8.97509091 82.6939545,8.56736364 C82.7103182,8.15827273 82.7525909,7.78554545 82.8185,7.44554545 C82.8825909,7.10509091 82.9880455,6.78690909 83.1371364,6.49190909 C83.2853182,6.19463636 83.4957727,5.90872727 83.7721364,5.62463636 C84.1653182,5.22781818 84.6162273,4.92463636 85.1212273,4.71736364 C85.6221364,4.51236364 86.1689545,4.40827273 86.7575909,4.40827273 C87.8194091,4.40827273 88.7135,4.711 89.4344091,5.32009091 C90.1553182,5.92645455 90.6130455,6.79736364 90.8094091,7.92872727 L89.0489545,7.92872727 C88.9130455,7.32963636 88.6494091,6.85145455 88.2580455,6.49827273 C87.8644091,6.14554545 87.3657727,5.97190909 86.7575909,5.97190909 C86.4230455,5.97190909 86.1112273,6.02963636 85.8166818,6.15145455 C85.5244091,6.271 85.2757727,6.43872727 85.0744091,6.65918182 C84.9216818,6.82645455 84.8044091,6.99463636 84.7225909,7.16372727 C84.6394091,7.33463636 84.5716818,7.55918182 84.5203182,7.83918182 C84.4689545,8.116 84.4325909,8.43009091 84.4148636,8.78145455 C84.3962273,9.13236364 84.3871364,9.61236364 84.3871364,10.2219091 C84.3871364,10.8269091 84.3962273,11.3046364 84.4148636,11.6505455 C84.4325909,11.9982727 84.4689545,12.3155455 84.5203182,12.5973636 C84.5716818,12.8782727 84.6394091,13.0982727 84.7225909,13.2655455 C84.8044091,13.4291818 84.9216818,13.6041818 85.0744091,13.7850909 C85.2757727,14.0000909 85.5244091,14.1687273 85.8166818,14.291 C86.1112273,14.4137273 86.4230455,14.476 86.7575909,14.476 C87.1648636,14.476 87.5271364,14.3941818 87.8416818,14.2332727 C88.1512273,14.0719091 88.4125909,13.8414545 88.6194091,13.5423636 C88.8289545,13.2455455 88.9753182,12.9037273 89.0648636,12.5173636 L90.8094091,12.5173636 Z" id="Fill-9" fill="#58585B"></path>
                <path d="M100.932818,15.9415455 L98.9200909,15.9415455 L96.5319091,11.1324545 L94.3773636,11.1324545 L94.3773636,15.9415455 L92.6382727,15.9415455 L92.6382727,4.50290909 L97.0550909,4.50290909 C97.7528182,4.50290909 98.3705455,4.64609091 98.9078182,4.92927273 C99.4482727,5.21609091 99.8596364,5.61109091 100.148727,6.11654545 C100.435545,6.62245455 100.582364,7.20018182 100.582364,7.85018182 C100.582364,8.632 100.373727,9.29018182 99.9537273,9.81654545 C99.5364545,10.342 98.9928182,10.6992727 98.3200909,10.8874545 L100.932818,15.9415455 Z M98.8591818,7.86609091 C98.8591818,7.30609091 98.6850909,6.86518182 98.3332727,6.54609091 C97.9828182,6.22245455 97.5132727,6.06336364 96.9255455,6.06336364 L94.3773636,6.06336364 L94.3773636,9.642 L96.9255455,9.642 C97.5087273,9.642 97.9764545,9.48336364 98.3287273,9.16381818 C98.6832727,8.84609091 98.8591818,8.41336364 98.8591818,7.86609091 L98.8591818,7.86609091 Z" id="Fill-11" fill="#58585B"></path>
                <path d="M111.470818,15.9415455 L109.634,15.9415455 L108.855364,13.6438182 L104.368545,13.6438182 L103.588091,15.9415455 L101.751273,15.9415455 L105.917636,4.50290909 L107.304455,4.50290909 L111.470818,15.9415455 Z M108.370818,12.1683636 L106.650364,7.09109091 L104.880818,12.1683636 L108.370818,12.1683636 Z" id="Fill-13" fill="#58585B"></path>
                <path d="M120.355773,12.5173636 C120.262591,13.0828182 120.095773,13.5873636 119.8535,14.0296364 C119.609864,14.4714545 119.315318,14.8423636 118.9635,15.1378182 C118.613045,15.4337273 118.208045,15.6564545 117.754409,15.8091818 C117.300773,15.9619091 116.815318,16.0355455 116.301227,16.0355455 C115.907136,16.0355455 115.5335,15.9905455 115.1835,15.8987273 C114.832136,15.8064545 114.495318,15.6691818 114.172136,15.4800909 C113.851682,15.291 113.564409,15.0719091 113.316682,14.8205455 C112.963045,14.4546364 112.707591,14.0628182 112.552136,13.651 C112.396682,13.2382727 112.299864,12.7896364 112.262591,12.306 C112.227136,11.8223636 112.209409,11.1273636 112.209409,10.2219091 C112.209409,9.52781818 112.2185,8.97509091 112.236227,8.56736364 C112.253045,8.15827273 112.297136,7.78554545 112.362136,7.44554545 C112.426227,7.10509091 112.5335,6.78690909 112.679864,6.49190909 C112.828045,6.19463636 113.039409,5.90872727 113.316682,5.62463636 C113.711682,5.22781818 114.158955,4.92463636 114.665773,4.71736364 C115.167591,4.51236364 115.7135,4.40827273 116.301227,4.40827273 C117.366682,4.40827273 118.259864,4.711 118.979864,5.32009091 C119.699864,5.92645455 120.156227,6.79736364 120.355773,7.92872727 L118.5935,7.92872727 C118.456682,7.32963636 118.194864,6.85145455 117.800773,6.49827273 C117.409409,6.14554545 116.911227,5.97190909 116.301227,5.97190909 C115.9685,5.97190909 115.655773,6.02963636 115.362136,6.15145455 C115.068955,6.271 114.822136,6.43872727 114.618045,6.65918182 C114.466227,6.82645455 114.350773,6.99463636 114.266682,7.16372727 C114.184864,7.33463636 114.117136,7.55918182 114.063955,7.83918182 C114.012591,8.116 113.977136,8.43009091 113.9585,8.78145455 C113.938955,9.13236364 113.931682,9.61236364 113.931682,10.2219091 C113.931682,10.8269091 113.938955,11.3046364 113.9585,11.6505455 C113.977136,11.9982727 114.012591,12.3155455 114.063955,12.5973636 C114.117136,12.8782727 114.184864,13.0982727 114.266682,13.2655455 C114.350773,13.4291818 114.466227,13.6041818 114.618045,13.7850909 C114.822136,14.0000909 115.068955,14.1687273 115.362136,14.291 C115.655773,14.4137273 115.9685,14.476 116.301227,14.476 C116.712136,14.476 117.072591,14.3941818 117.384409,14.2332727 C117.696682,14.0719091 117.957136,13.8414545 118.163955,13.5423636 C118.372591,13.2455455 118.519864,12.9037273 118.6085,12.5173636 L120.355773,12.5173636 Z" id="Fill-15" fill="#58585B"></path>
                <mask id="mask-2" fill="white">
                    <use xlink:href="#path-1"></use>
                </mask>
                <g id="Clip-18"></g>
                <polygon id="Fill-17" fill="#58585B" mask="url(#mask-2)" points="122.184545 15.9416818 123.921818 15.9416818 123.921818 4.50304545 122.184545 4.50304545"></polygon>
                <path d="M135.256364,15.9415455 L133.418636,15.9415455 L132.64,13.6438182 L128.154091,13.6438182 L127.373636,15.9415455 L125.535,15.9415455 L129.702273,4.50290909 L131.09,4.50290909 L135.256364,15.9415455 Z M132.155455,12.1683636 L130.436364,7.09109091 L128.666364,12.1683636 L132.155455,12.1683636 Z" id="Fill-19" fill="#58585B" mask="url(#mask-2)"></path>
                <polygon id="Fill-20" fill="#58585B" mask="url(#mask-2)" points="49.5232727 30.3134545 42.2519091 30.3134545 42.2519091 18.8739091 49.5232727 18.8739091 49.5232727 20.4348182 43.9896364 20.4348182 43.9896364 23.7698182 48.7128182 23.7698182 48.7128182 25.3152727 43.9896364 25.3152727 43.9896364 28.7507273 49.5232727 28.7507273"></polygon>
                <polygon id="Fill-21" fill="#58585B" mask="url(#mask-2)" points="59.9891364 30.3134545 58.4082273 30.3134545 53.1627727 22.2616364 53.1627727 30.3134545 51.4227727 30.3134545 51.4227727 18.8739091 53.0123182 18.8739091 58.2659545 26.9093636 58.2659545 18.8739091 59.9891364 18.8739091"></polygon>
                <path d="M75.077,30.3134545 L73.0679091,30.3134545 L70.6733636,25.5039091 L68.5233636,25.5039091 L68.5233636,30.3134545 L66.7847273,30.3134545 L66.7847273,18.8739091 L71.1992727,18.8739091 C71.8951818,18.8739091 72.5138182,19.0152727 73.0510909,19.3011818 C73.5901818,19.5875455 74.0038182,19.9825455 74.2938182,20.4884545 C74.5806364,20.9911818 74.7265455,21.5707273 74.7265455,22.2207273 C74.7265455,23.0052727 74.5179091,23.6607273 74.0988182,24.1857273 C73.6797273,24.7134545 73.1347273,25.0716364 72.4660909,25.2589091 L75.077,30.3134545 Z M73.0038182,22.2366364 C73.0038182,21.6775455 72.8292727,21.2370909 72.4765455,20.9166364 C72.127,20.5952727 71.6588182,20.4348182 71.072,20.4348182 L68.5233636,20.4348182 L68.5233636,24.013 L71.072,24.013 C71.652,24.013 72.1197273,23.8534545 72.4729091,23.5357273 C72.8265455,23.2170909 73.0038182,22.7852727 73.0038182,22.2366364 L73.0038182,22.2366364 Z" id="Fill-22" fill="#58585B" mask="url(#mask-2)"></path>
                <polygon id="Fill-23" fill="#58585B" mask="url(#mask-2)" points="84.0551818 30.3134545 76.7824545 30.3134545 76.7824545 18.8739091 84.0551818 18.8739091 84.0551818 20.4348182 78.5188182 20.4348182 78.5188182 23.7698182 83.2429091 23.7698182 83.2429091 25.3152727 78.5188182 25.3152727 78.5188182 28.7507273 84.0551818 28.7507273"></polygon>
                <path d="M94.0418636,24.5153182 L94.0418636,25.0866818 C94.0418636,25.7053182 94.0205,26.2435 93.9745909,26.7044091 C93.9273182,27.1639545 93.8191364,27.6175909 93.6486818,28.0616818 C93.4809545,28.5062273 93.2268636,28.9003182 92.8877727,29.2394091 C92.1773182,29.9562273 91.1964091,30.3135 89.9491364,30.3135 L85.9523182,30.3135 L85.9523182,18.8739545 L89.9491364,18.8739545 C91.1964091,18.8739545 92.1773182,19.2330455 92.8877727,19.9498636 C93.2268636,20.2889545 93.4809545,20.6694091 93.6486818,21.0944091 C93.8191364,21.5194091 93.9273182,21.9489545 93.9745909,22.3885 C94.0205,22.8271364 94.0418636,23.3421364 94.0418636,23.9362273 L94.0418636,24.5153182 Z M92.3214091,24.5194091 C92.3214091,23.8603182 92.3105,23.3507727 92.2900455,22.9939545 C92.2700455,22.6362273 92.2141364,22.3016818 92.1232273,21.9871364 C92.0318636,21.6739545 91.8950455,21.4148636 91.7141364,21.2103182 C91.2464091,20.6939545 90.6018636,20.4344091 89.7805,20.4344091 L87.6895909,20.4344091 L87.6895909,28.7507727 L89.7805,28.7507727 C90.6068636,28.7507727 91.2495909,28.4966818 91.7141364,27.9825909 C91.9832273,27.6853182 92.1536818,27.2812273 92.2209545,26.7698636 C92.2886818,26.2580455 92.3214091,25.5071364 92.3214091,24.5194091 L92.3214091,24.5194091 Z" id="Fill-24" fill="#58585B" mask="url(#mask-2)"></path>
                <path d="M10.4199091,13.713 C10.4199091,12.8793636 10.9008182,12.0466364 11.6221818,11.6298182 L14.7317273,9.83436364 L11.2521818,3.808 L5.634,7.05163636 C4.32990909,7.80481818 3.46127273,9.30981818 3.46127273,10.8157273 L3.46127273,17.303 L10.4199091,17.3025455 L10.4199091,13.713 Z" id="Fill-25" fill="#F4CD46" mask="url(#mask-2)"></path>
                <path d="M17.8406818,8.03959091 C18.5629545,7.62277273 19.5238636,7.62322727 20.2461364,8.03959091 L23.3547727,9.83459091 L26.8343182,3.80777273 L21.2165909,0.564590909 C19.9120455,-0.187681818 18.1752273,-0.188590909 16.8706818,0.564136364 L11.2520455,3.80777273 L14.7315909,9.83459091 L17.8406818,8.03959091 Z" id="Fill-26" fill="#53C1B4" mask="url(#mask-2)"></path>
                <path d="M26.4641818,11.6298182 C27.1855455,12.0461818 27.6669091,12.8793636 27.6669091,13.713 L27.6669091,17.3025455 L34.6255455,17.3025455 L34.6255455,10.8157273 C34.6255455,9.30981818 33.7564545,7.80390909 32.4528182,7.05163636 L26.8341818,3.808 L23.3550909,9.83481818 L26.4641818,11.6298182 Z" id="Fill-27" fill="#3CA2DA" mask="url(#mask-2)"></path>
                <path d="M11.6226364,22.9750455 C10.9008182,22.5586818 10.4199091,21.7264091 10.4199091,20.8927727 L10.4199091,17.3027727 L3.46127273,17.3027727 L3.46127273,23.7900455 C3.46127273,25.2964091 4.33036364,26.8005 5.63445455,27.5532273 L11.2526364,30.7968636 L14.7317273,24.7705 L11.6226364,22.9750455 Z" id="Fill-28" fill="#F06F56" mask="url(#mask-2)"></path>
                <path d="M20.2459091,26.5656818 C19.5240909,26.9825 18.5627273,26.9825 17.8404545,26.5656818 L14.7318182,24.7706818 L11.2527273,30.7970455 L16.8704545,34.0402273 C18.1754545,34.7943182 19.9118182,34.7934091 21.2163636,34.0402273 L26.8345455,30.7975 L23.355,24.7706818 L20.2459091,26.5656818 Z" id="Fill-29" fill="#ED4E61" mask="url(#mask-2)"></path>
                <path d="M27.6666818,17.3027273 L27.6666818,20.8931818 C27.6666818,21.7263636 27.1857727,22.5586364 26.4639545,22.9759091 L23.3548636,24.7704545 L26.8344091,30.7972727 L32.4521364,27.5531818 C33.7566818,26.8004545 34.6257727,25.2963636 34.6257727,23.79 L34.6257727,17.3027273 L27.6666818,17.3027273 Z" id="Fill-30" fill="#77549E" mask="url(#mask-2)"></path>
                <polygon id="Fill-31" fill="#FEFEFE" mask="url(#mask-2)" points="9.86727273 33.9941818 9.17636364 33.5946364 28.2195455 0.611454545 28.9109091 1.011"></polygon>
                <polygon id="Fill-32" fill="#FEFEFE" mask="url(#mask-2)" points="28.9106818 33.5955909 28.2193182 33.9942273 9.17613636 1.01059091 9.8675 0.6115"></polygon>
                <polygon id="Fill-33" fill="#FEFEFE" mask="url(#mask-2)" points="38.0868182 16.9039091 38.0863636 17.7020909 0 17.7020909 0 16.9034545"></polygon>
            </g>
        </g>
    </g>
</svg>