<?xml version="1.0" encoding="utf-8"?>
<!-- Generator: Adobe Illustrator 21.1.0, SVG Export Plug-In . SVG Version: 6.00 Build 0)  -->
<svg version="1.1" id="Layer_1" xmlns="http://www.w3.org/2000/svg" xmlns:xlink="http://www.w3.org/1999/xlink" x="0px" y="0px"
	 viewBox="0 0 1000 705" style="enable-background:new 0 0 1000 705;" xml:space="preserve">
<style type="text/css">
	.st0{opacity:0.51;}
	.st1{fill:#A764BF;}
	.st2{opacity:0.68;}
</style>
<g>
	<g class="st0">
		<polygon class="st1" points="464.4,8.2 49.1,207.8 133.4,207.8 133.4,543.7 49.1,543.7 49.1,593.3 878.4,593.3 878.4,543.7 
			795.4,543.7 795.4,207.8 889.6,207.8 		"/>
	</g>
	<g class="st2">
		<circle class="st1" cx="813.9" cy="518.7" r="173.3"/>
	</g>
	<g>
		<path d="M990.5,216H111.7L551.1,4.6L990.5,216z M142.4,209h817.4L551.1,12.3L142.4,209z"/>
	</g>
	<g>
		<path d="M978,610.3H122.9v-57.7H978V610.3z M129.9,603.3H971v-43.7H129.9V603.3z"/>
	</g>
	<g>
		<g>
			<path d="M260.5,559.6h-51.4V209h51.4V559.6z M216.1,552.6h37.4V216h-37.4V552.6z"/>
		</g>
		<g>
			<path d="M418.6,559.6h-51.4V209h51.4V559.6z M374.3,552.6h37.4V216h-37.4V552.6z"/>
		</g>
		<g>
			<path d="M576.8,559.6h-51.4V209h51.4V559.6z M532.4,552.6h37.4V216h-37.4V552.6z"/>
		</g>
		<g>
			<path d="M734.9,559.6h-51.4V209h51.4V559.6z M690.6,552.6h37.4V216h-37.4V552.6z"/>
		</g>
		<g>
			<path d="M893.1,559.6h-51.4V209h51.4V559.6z M848.7,552.6h37.4V216h-37.4V552.6z"/>
		</g>
	</g>
</g>
</svg>
