<svg xmlns="http://www.w3.org/2000/svg" width="88.294" height="67.9" viewBox="0 0 88.294 67.9">
  <g id="Group_17" data-name="Group 17" transform="translate(-602.778 -443.713)">
    <circle id="Ellipse_39" data-name="Ellipse 39" cx="30.621" cy="30.621" r="30.621" transform="translate(615.954 445)" fill="#8a509f" opacity="0.29"/>
    <path id="Path_40" data-name="Path 40" d="M0,0H83.92" transform="translate(603.856 511.362)" stroke="#000" stroke-width="0.5"/>
    <g id="Group_16" data-name="Group 16" transform="translate(603 443.713)">
      <g id="Group_15" data-name="Group 15" transform="translate(0 1.282)">
        <path id="Path_37" data-name="Path 37" d="M488.15,548.454l18.569-20.4,22.227,7.737L548.5,512.722s27.291-1.547,27.432-.985" transform="translate(-488.15 -493.168)" fill="none" stroke="#000" stroke-width="0.6"/>
        <path id="Path_38" data-name="Path 38" d="M501.829,549.338c-.141,1.125,17.866-33.481,17.866-33.481l32.074,14.49L561.9,495.6" transform="translate(-486.073 -495.6)" fill="none" stroke="#000" stroke-width="0.6"/>
        <g id="Ellipse_35" data-name="Ellipse 35" transform="translate(29.775 17.738)" fill="#d9c6e0" stroke="#000" stroke-width="0.6">
          <circle cx="3.456" cy="3.456" r="3.456" stroke="none"/>
          <circle cx="3.456" cy="3.456" r="3.156" fill="none"/>
        </g>
        <g id="Ellipse_38" data-name="Ellipse 38" transform="translate(62.027 29.257)" fill="#ddcce3" stroke="#000" stroke-width="0.6">
          <circle cx="3.456" cy="3.456" r="3.456" stroke="none"/>
          <circle cx="3.456" cy="3.456" r="3.156" fill="none"/>
        </g>
      </g>
      <g id="Path_47" data-name="Path 47" transform="translate(71.242)" fill="#fff">
        <path d="M 3.455566644668579 6.611136436462402 C 1.715576648712158 6.611136436462402 0.2999966442584991 5.195556640625 0.2999966442584991 3.455566644668579 C 0.2999966442584991 1.715576648712158 1.715576648712158 0.2999966442584991 3.455566644668579 0.2999966442584991 C 5.195556640625 0.2999966442584991 6.611136436462402 1.715576648712158 6.611136436462402 3.455566644668579 C 6.611136436462402 5.195556640625 5.195556640625 6.611136436462402 3.455566644668579 6.611136436462402 Z" stroke="none"/>
        <path d="M 3.455566644668579 0.5999965667724609 C 1.880996704101563 0.5999965667724609 0.5999965667724609 1.880996704101563 0.5999965667724609 3.455566644668579 C 0.5999965667724609 5.030136585235596 1.880996704101563 6.311136722564697 3.455566644668579 6.311136722564697 C 5.030136585235596 6.311136722564697 6.311136722564697 5.030136585235596 6.311136722564697 3.455566644668579 C 6.311136722564697 1.880996704101563 5.030136585235596 0.5999965667724609 3.455566644668579 0.5999965667724609 M 3.455566644668579 -3.337860107421875e-06 C 5.364026546478271 -3.337860107421875e-06 6.911136627197266 1.547106742858887 6.911136627197266 3.455566644668579 C 6.911136627197266 5.364026546478271 5.364026546478271 6.911136627197266 3.455566644668579 6.911136627197266 C 1.547106742858887 6.911136627197266 -3.337860107421875e-06 5.364026546478271 -3.337860107421875e-06 3.455566644668579 C -3.337860107421875e-06 1.547106742858887 1.547106742858887 -3.337860107421875e-06 3.455566644668579 -3.337860107421875e-06 Z" stroke="none"/>
      </g>
      <g id="Ellipse_36" data-name="Ellipse 36" transform="translate(13.649 51.273)" fill="#fff" stroke="#000" stroke-width="0.6">
        <circle cx="3.456" cy="3.456" r="3.456" stroke="none"/>
        <circle cx="3.456" cy="3.456" r="3.156" fill="none"/>
      </g>
    </g>
  </g>
</svg>
