<?xml version="1.0" encoding="utf-8"?>
<!-- Generator: Adobe Illustrator 21.1.0, SVG Export Plug-In . SVG Version: 6.00 Build 0)  -->
<svg version="1.1" id="Layer_1" xmlns="http://www.w3.org/2000/svg" xmlns:xlink="http://www.w3.org/1999/xlink" x="0px" y="0px"
	 viewBox="0 0 1000 705" style="enable-background:new 0 0 1000 705;" xml:space="preserve">
<style type="text/css">
	.st0{opacity:0.68;fill:#A764BF;}
	.st1{fill:none;}
	.st2{fill:#FFFFFF;}
	.st3{fill:#231F20;}
</style>
<circle class="st0" cx="320.5" cy="369.5" r="312.5"/>
<path class="st1" d="M617.8,316.1c0-0.1,0-0.2,0-0.3c-3.4-26.6-10.8-52.3-21.9-76.3c-0.8-1.7-1.6-3.3-2.4-5c-0.8-1.7-1.7-3.3-2.5-5
	c-12.3-23.9-28.4-46-48-65.6c-5.5-5.5-11.3-10.8-17.2-15.7C478.7,108.5,419.6,87,357.3,87S236,108.5,188.8,148.2
	c-5.9,5-11.7,10.2-17.2,15.7c-0.2,0.2-0.3,0.3-0.5,0.5c-49.3,49.5-76.5,115.3-76.5,185.2c0,50.9,14.4,99.6,41.2,141.4
	c1.7,2.6,3.4,5.2,5.2,7.8c9,12.9,19.1,25.1,30.5,36.5c20.2,20.2,43.1,36.7,67.9,49.2c0.5,0.2,1,0.5,1.4,0.7
	c35.7,17.7,75.3,27,116.3,27s80.6-9.4,116.3-27c6.2-3.1,12.4-6.4,18.3-10c18.4-11,35.5-24.3,51-39.9c11.3-11.3,21.5-23.5,30.5-36.5
	c2.3-3.3,4.5-6.6,6.6-10c14.8-23.6,25.7-49.3,32.3-76.3c0.8-3.3,1.6-6.6,2.2-10c3.5-17.2,5.3-34.9,5.3-52.9c0-7.9-0.4-15.7-1-23.4
	c0-0.1,0-0.2,0-0.3C618.6,322.6,618.2,319.3,617.8,316.1z M403.1,402.5c-1,3.6-2.2,7-3.9,10c-1.5,2.8-3.3,5.3-5.3,7.6
	c-7.5,8.2-17.7,13.1-30.8,14.6v10.3c0,1.2-0.5,2.3-1.6,3.2c-1.1,0.9-2.3,1.4-3.8,1.4c-1.6,0-3-0.5-4-1.4c-1.1-0.9-1.6-2-1.6-3.2
	v-9.7c-14.5,0-26.5-3.2-36-9.5c-7.1-4.7-11.6-9.1-13.3-13.2c-0.6-1.4-0.9-2.7-0.9-4c0-1.7,0.6-3.3,1.9-4.9c0.4-0.5,0.8-0.8,1.2-1.2
	c0.9-0.8,1.9-1.1,2.8-1.1c0.6,0,1.3,0.4,2.2,1.1c0.6,0.5,1.4,1.3,2.2,2.2c1.9,2.2,4.2,4.7,6.7,7.3c0.2,0.2,0.4,0.3,0.5,0.5
	c2.6,2.5,6.7,4.8,12.2,6.9c5.9,2.3,12.7,3.5,20.5,3.5v-10.4v-10v-60.3c-6.3-2.1-10.9-3.6-13.7-4.7c-2.8-1.1-6.7-3-11.7-5.6
	c-3.4-1.8-6.1-3.7-8.3-5.6c-0.1-0.1-0.2-0.2-0.4-0.3c-0.9-0.8-1.6-1.6-2.3-2.4c-1.6-2-3-4.4-4.4-7.3c-0.1-0.1-0.1-0.2-0.2-0.3
	c-0.6-1.3-1.2-2.7-1.8-4.2c-2-5-2.9-10.6-2.9-16.9c0-7.7,1.3-14.4,4-20c2.6-5.6,6.3-10,10.9-13.1c4.6-3.1,9.4-5.4,14.5-6.9
	c5-1.5,10.5-2.5,16.3-2.8V244c0-1.2,0.5-2.3,1.6-3.2c0.8-0.7,1.6-1.1,2.7-1.3c0.4-0.1,0.9-0.1,1.4-0.1c0.4,0,0.8,0.1,1.2,0.1
	c0.9,0.2,1.8,0.6,2.5,1.3c1.1,0.9,1.6,2,1.6,3.2v7.7c9.4,0.3,18,2,25.7,4.9c7.7,2.9,11.5,6.1,11.5,9.5c0,1.5-0.6,3.2-1.7,4.9
	c-1.1,1.7-2.5,2.6-3.9,2.6c-0.8,0-2.5-0.7-5.1-2.2c-2.5-1.4-6.1-2.9-10.8-4.5c-4.7-1.5-9.9-2.5-15.6-2.8v51.9v0.3v9.7v0.3v6
	c6.3,2.2,11.5,4.4,15.7,6.7c4.2,2.2,8.4,5.3,12.9,9.4c4.4,4,7.8,9.1,10.1,15.4c2.3,6.2,3.4,13.5,3.4,21.9
	C405.1,391.7,404.5,397.4,403.1,402.5z"/>
<path class="st1" d="M362.8,346v56.5v10v9.6c9.1-1.3,16-4.5,21-9.6c2.7-2.8,4.8-6.1,6.2-10c1.7-4.6,2.6-9.9,2.6-16
	c0-11.3-2.6-19.9-7.8-25.8S372.3,349.9,362.8,346z"/>
<path class="st1" d="M665.5,412.5c0.7-3.3,1.3-6.7,1.8-10c2.9-17.3,4.4-35,4.4-52.9c0-7.9-0.3-15.7-0.9-23.4c0-0.1,0-0.2,0-0.3
	c-0.2-3.2-0.5-6.5-0.9-9.7c0-0.1,0-0.2,0-0.3c-2.8-26.3-8.8-51.9-17.9-76.3c-0.6-1.7-1.3-3.3-1.9-5c-0.7-1.7-1.3-3.3-2-5
	c-12.1-29.2-28.6-56.6-49.3-81.3c-6-7.2-12.4-14.2-19.1-20.9c-59.4-59.4-138.4-92.1-222.3-92.1s-163,32.7-222.3,92.1
	c-59.4,59.4-92.1,138.4-92.1,222.3s32.7,163,92.1,222.3c59.4,59.4,138.4,92.1,222.3,92.1c77.5,0,150.8-27.9,208.3-78.9
	c3.7-3.2,7.2-6.6,10.8-10c1.1-1.1,2.2-2.1,3.3-3.2c21.9-21.9,40.2-46.6,54.6-73.1c1.8-3.3,3.5-6.6,5.2-10
	C651.4,464.6,660.1,439,665.5,412.5z M624.8,402.5c-0.7,3.4-1.4,6.7-2.2,10c-6.3,26.9-16.7,52.6-30.8,76.3c-2,3.4-4.1,6.7-6.3,10
	c-10.2,15.5-22,30.1-35.5,43.5c-12.3,12.3-25.5,23.2-39.6,32.8c-5.2,3.5-10.4,6.9-15.8,10c-41.2,24.1-88.3,37-137.4,37
	c-72.8,0-141.3-28.4-192.8-79.8c-51.5-51.5-79.8-119.9-79.8-192.8s28.4-141.3,79.8-192.8c2.2-2.2,4.4-4.3,6.6-6.4v-2.3h2.4
	c50.3-46,115.1-71.2,183.7-71.2s133.4,25.2,183.7,71.2c3.1,2.8,6.1,5.7,9.1,8.7c21.6,21.6,39,46.1,52.1,72.7c0.8,1.7,1.6,3.3,2.4,5
	c0.8,1.7,1.5,3.3,2.3,5c10.7,24.1,17.7,49.8,21,76.3c0,0.1,0,0.2,0,0.3c0.4,3.2,0.7,6.4,1,9.7c0,0.1,0,0.2,0,0.3
	c0.7,7.8,1,15.6,1,23.4C629.9,367.5,628.2,385.2,624.8,402.5z"/>
<path class="st1" d="M318.5,293.4c0,5.3,0.9,9.9,2.6,13.8c1.4,3.3,3.6,6.2,6.4,8.6c0.1,0.1,0.2,0.2,0.4,0.3c0.4,0.3,0.8,0.7,1.3,1
	c3.6,2.7,7.1,4.7,10.3,6.3c1.6,0.8,3.5,1.6,5.7,2.4c0.3,0.1,0.5,0.2,0.8,0.3h6.7v-0.3v-9.7v-0.3v-51.9
	C329.9,265.7,318.5,275.5,318.5,293.4z"/>
<path class="st1" d="M886.4,224.5v-71.3H616.9c16.4,22.1,30,46,40.4,71.3H886.4z"/>
<path class="st1" d="M964.7,575.1v-76.3h-93.6H645.6c-14.4,27.7-32.8,53.4-55.1,76.3H964.7z"/>
<path class="st1" d="M977.7,315.8v-76.3h-315c8.8,24.5,14.6,50.1,17.3,76.3H977.7z"/>
<path class="st1" d="M650.5,488.8h210.6v-76.3H675.7C670.5,439,662.1,464.6,650.5,488.8z"/>
<path class="st1" d="M677.5,402.5h193.7h50.4v-76.3H680.9c0.6,7.8,0.8,15.6,0.8,23.4C681.8,367.5,680.3,385.1,677.5,402.5z"/>
<path d="M658.9,229.5h237.5v-86.3H607.6c1.4,1.7,2.8,3.3,4.1,5C631.5,173,647.3,200.4,658.9,229.5z M886.4,153.2v71.3H657.3
	c-10.4-25.3-24-49.3-40.4-71.3H886.4z"/>
<path d="M896.4,234.5L896.4,234.5l-235.5,0c0.6,1.7,1.3,3.3,1.9,5h315v76.3H680c0,0.1,0,0.2,0,0.3h251.5v9.7h56.1v-96.3h-91.3
	L896.4,234.5L896.4,234.5z"/>
<polygon points="896.4,234.5 896.4,234.5 660.8,234.5 660.8,234.5 "/>
<rect x="896.4" y="229.5" width="0" height="5"/>
<path d="M660.8,234.5h235.5v-5H658.9C659.5,231.1,660.2,232.8,660.8,234.5z"/>
<path d="M680.9,326.1h240.6v76.3h-50.4v10h60.4v-86.6H680.9C680.9,325.9,680.9,326,680.9,326.1z"/>
<path d="M680.1,316.1c0.3,3.2,0.6,6.4,0.8,9.7h250.7v-9.7H680.1z"/>
<rect x="861.1" y="412.5" width="10" height="76.3"/>
<path d="M677.5,402.5c-0.5,3.3-1.1,6.7-1.8,10h185.4h10v-10H677.5z"/>
<path d="M964.7,498.8v76.3H590.5c-1.2,1.3-2.5,2.6-3.8,3.9c-2.1,2.1-4.2,4.1-6.3,6.1h394.3v-96.3H871.1v10H964.7z"/>
<path d="M650.5,488.8c-1.6,3.4-3.3,6.7-5,10h225.6v-10h-10H650.5z"/>
<path class="st2" d="M171.2,148.2v2.3c0.8-0.8,1.6-1.5,2.4-2.3H171.2z"/>
<path class="st3" d="M670.5,412.5c-5.4,26.8-14.1,52.4-25.7,76.3h5.7c11.5-24.2,20-49.8,25.1-76.3H670.5z"/>
<path class="st3" d="M583.5,575.1h7c22.2-23,40.7-48.7,55.1-76.3h-5.7C624.9,527,605.8,552.7,583.5,575.1z"/>
<path class="st3" d="M357.3,669C180.9,669,37.9,526,37.9,349.6s143-319.4,319.4-319.4c97.7,0,185.2,43.9,243.8,113h6.5
	c-6.6-7.9-13.5-15.6-20.9-23c-61.3-61.3-142.8-95-229.4-95s-168.1,33.7-229.4,95s-95,142.8-95,229.4s33.7,168.1,95,229.4
	c61.3,61.3,142.8,95,229.4,95c83.7,0,162.6-31.5,223.1-88.9h-7.3C516.2,637.2,440.5,669,357.3,669z"/>
<path class="st3" d="M605.2,148.2h6.4c-1.3-1.7-2.7-3.3-4.1-5h-6.5C602.5,144.8,603.9,146.5,605.2,148.2z"/>
<path class="st3" d="M676.8,349.6c0,18-1.5,35.7-4.4,52.9h5.1c2.8-17.3,4.3-35,4.3-52.9c0-7.9-0.3-15.7-0.8-23.4h-5
	C676.5,333.9,676.8,341.7,676.8,349.6z"/>
<path class="st3" d="M675,315.8h5c-2.7-26.3-8.5-51.9-17.3-76.3h-5.4C666.2,263.7,672.2,289.3,675,315.8z"/>
<path class="st3" d="M658.9,229.5c-11.6-29.1-27.4-56.5-47.2-81.3h-6.4c19.8,24.4,36.1,51.8,48.1,81.3H658.9z"/>
<path class="st3" d="M657.3,239.5h5.4c-0.6-1.7-1.2-3.3-1.9-5h-5.4C656,236.1,656.7,237.8,657.3,239.5z"/>
<polygon class="st3" points="655.4,234.5 660.8,234.5 660.8,234.5 655.4,234.5 "/>
<path class="st3" d="M675,316.1h5c0-0.1,0-0.2,0-0.3h-5C675,315.9,675,316,675,316.1z"/>
<path class="st3" d="M655.4,234.5h5.4c-0.6-1.7-1.3-3.3-1.9-5h-5.5C654.1,231.1,654.7,232.8,655.4,234.5z"/>
<path class="st3" d="M675.9,326.1h5c0-0.1,0-0.2,0-0.3h-5C675.9,325.9,675.9,326,675.9,326.1z"/>
<path class="st3" d="M675.9,325.8h5c-0.2-3.2-0.5-6.5-0.8-9.7h-5C675.4,319.3,675.6,322.6,675.9,325.8z"/>
<path class="st3" d="M670.5,412.5h5.1c0.6-3.3,1.2-6.7,1.8-10h-5.1C671.8,405.8,671.2,409.1,670.5,412.5z"/>
<path class="st3" d="M590.5,575.1h-7c-3.4,3.4-6.9,6.7-10.4,10h7.3c2.1-2,4.2-4.1,6.3-6.1C588,577.7,589.2,576.4,590.5,575.1z"/>
<path class="st3" d="M639.8,498.8h5.7c1.7-3.3,3.4-6.6,5-10h-5.7C643.3,492.2,641.6,495.5,639.8,498.8z"/>
<path class="st3" d="M639.4,488.8h5.5c11.6-23.9,20.3-49.5,25.7-76.3h-5.1C660.1,439,651.4,464.6,639.4,488.8z"/>
<path class="st3" d="M670,315.8h5c-2.8-26.5-8.8-52.1-17.7-76.3H652C661.1,263.9,667.2,289.5,670,315.8z"/>
<path class="st3" d="M671.8,349.6c0,17.9-1.5,35.6-4.4,52.9h5c2.9-17.2,4.4-34.9,4.4-52.9c0-7.9-0.3-15.7-0.9-23.4h-5
	C671.5,333.9,671.8,341.7,671.8,349.6z"/>
<path class="st3" d="M634.2,498.8c-14.4,26.6-32.6,51.2-54.6,73.1c-1.1,1.1-2.2,2.1-3.3,3.2h7.1c22.3-22.4,41.4-48.1,56.3-76.3
	H634.2z"/>
<path class="st3" d="M357.3,664c-84,0-163-32.7-222.3-92.1c-59.4-59.4-92.1-138.4-92.1-222.3s32.7-163,92.1-222.3
	c59.4-59.4,138.4-92.1,222.3-92.1s163,32.7,222.3,92.1c6.7,6.7,13.1,13.7,19.1,20.9h1.5l-4-5h4.8c-58.6-69.1-146-113-243.8-113
	c-176.4,0-319.4,143-319.4,319.4S180.9,669,357.3,669c83.2,0,158.9-31.8,215.7-83.9h-7.5C508.1,636.1,434.8,664,357.3,664z"/>
<path class="st3" d="M600.3,148.2h4.9c-1.4-1.7-2.8-3.3-4.2-5h-4.8L600.3,148.2z"/>
<path class="st3" d="M648.5,229.5c-11.4-28.1-26.7-54.4-45.7-78.2l-2.5-3.1h-1.5c20.7,24.7,37.2,52.1,49.3,81.3H648.5z"/>
<path class="st3" d="M602.8,151.3c19,23.9,34.3,50.2,45.7,78.2h4.9c-12-29.6-28.3-56.9-48.1-81.3h-4.9L602.8,151.3z"/>
<path class="st3" d="M650.5,234.5h-0.4c0.7,1.7,1.3,3.3,1.9,5h5.3c-0.6-1.7-1.3-3.3-1.9-5L650.5,234.5L650.5,234.5z"/>
<polygon class="st3" points="650.5,234.5 655.4,234.5 655.4,234.5 650.5,234.5 "/>
<path class="st3" d="M670,316.1h5c0-0.1,0-0.2,0-0.3h-5C670,315.9,670,316,670,316.1z"/>
<path class="st3" d="M650.1,234.5h0.4l-1.3-3.2c-0.2-0.6-0.5-1.2-0.8-1.8h-0.4C648.8,231.1,649.4,232.8,650.1,234.5z"/>
<path class="st3" d="M650.5,234.5h4.9c-0.6-1.7-1.3-3.3-2-5h-4.9c0.3,0.6,0.5,1.2,0.8,1.8L650.5,234.5z"/>
<path class="st3" d="M670.9,326.1h5c0-0.1,0-0.2,0-0.3h-5C670.9,325.9,670.9,326,670.9,326.1z"/>
<path class="st3" d="M670.9,325.8h5c-0.2-3.2-0.5-6.5-0.9-9.7h-5C670.3,319.3,670.6,322.6,670.9,325.8z"/>
<path class="st3" d="M667.3,402.5c-0.6,3.3-1.2,6.7-1.8,10h5.1c0.7-3.3,1.3-6.6,1.8-10H667.3z"/>
<path class="st3" d="M565.6,585.1h7.5c3.6-3.3,7-6.6,10.4-10h-7.1C572.8,578.5,569.2,581.9,565.6,585.1z"/>
<path class="st3" d="M634.2,498.8h5.6c1.7-3.3,3.5-6.6,5.1-10h-5.5C637.7,492.2,636,495.5,634.2,498.8z"/>
<path class="st3" d="M580.1,488.8h11.7c14.1-23.7,24.5-49.4,30.8-76.3h-10.3C605.8,439.5,594.9,465.2,580.1,488.8z"/>
<path class="st3" d="M543,535.2c-15.5,15.5-32.7,28.9-51,39.9h18.5c14-9.6,27.3-20.5,39.6-32.8c13.4-13.4,25.3-28,35.5-43.5h-12.1
	C564.5,511.7,554.3,523.9,543,535.2z"/>
<path class="st3" d="M357.3,612.2c-41,0-80.6-9.4-116.3-27h-1.4v-0.7c-24.8-12.5-47.7-29-67.9-49.2c-11.3-11.3-21.5-23.5-30.5-36.5
	H136V491c-26.8-41.8-41.2-90.5-41.2-141.4c0-69.9,27.2-135.7,76.5-185.2v-13.9c-2.2,2.1-4.4,4.2-6.6,6.4
	c-51.5,51.5-79.8,119.9-79.8,192.8s28.4,141.3,79.8,192.8c51.5,51.5,119.9,79.8,192.8,79.8c49.1,0,96.1-12.9,137.4-37h-21.1
	C437.9,602.8,398.3,612.2,357.3,612.2z"/>
<path class="st3" d="M357.3,87c62.3,0,121.3,21.6,168.5,61.2H541C490.7,102.2,425.9,77,357.3,77s-133.4,25.2-183.7,71.2h15.2
	C236,108.5,295,87,357.3,87z"/>
<path class="st3" d="M617.8,315.8h10.1c-3.3-26.5-10.4-52.2-21-76.3h-11C607,263.5,614.4,289.2,617.8,315.8z"/>
<path class="st3" d="M618.9,326.1c0.7,7.7,1,15.6,1,23.4c0,18-1.8,35.7-5.3,52.9h10.2c3.4-17.2,5.1-34.9,5.1-52.9
	c0-7.9-0.4-15.7-1-23.4H618.9z"/>
<path class="st3" d="M543,163.9c19.6,19.6,35.7,41.7,48,65.6h11.2c-13.1-26.6-30.5-51.1-52.1-72.7c-3-3-6-5.8-9.1-8.7h-15.2
	C531.7,153.1,537.5,158.3,543,163.9z"/>
<path class="st3" d="M171.6,163.9c5.5-5.5,11.3-10.8,17.2-15.7h-15.2c-0.8,0.8-1.6,1.5-2.4,2.3v13.9
	C171.3,164.2,171.5,164,171.6,163.9z"/>
<path class="st3" d="M595.9,239.5h11c-0.7-1.7-1.5-3.3-2.3-5h-11.1C594.3,236.1,595.1,237.8,595.9,239.5z"/>
<path class="st3" d="M617.8,316.1h10.1c0-0.1,0-0.2,0-0.3h-10.1C617.8,315.9,617.8,316,617.8,316.1z"/>
<path class="st3" d="M593.5,234.5h11.1c-0.8-1.7-1.6-3.3-2.4-5H591C591.8,231.1,592.7,232.8,593.5,234.5z"/>
<path class="st3" d="M618.9,326.1h10c0-0.1,0-0.2,0-0.3h-10C618.9,325.9,618.9,326,618.9,326.1z"/>
<path class="st3" d="M618.8,325.8h10c-0.3-3.2-0.6-6.5-1-9.7h-10.1C618.2,319.3,618.6,322.6,618.8,325.8z"/>
<path class="st3" d="M136,498.8h5.2c-1.8-2.6-3.5-5.2-5.2-7.8V498.8z"/>
<path class="st3" d="M612.4,412.5h10.3c0.8-3.3,1.5-6.6,2.2-10h-10.2C613.9,405.8,613.2,409.1,612.4,412.5z"/>
<path class="st3" d="M239.6,585.1h1.4c-0.5-0.2-1-0.5-1.4-0.7V585.1z"/>
<path class="st3" d="M473.6,585.1h21.1c5.4-3.1,10.6-6.5,15.8-10H492C486,578.7,479.9,582,473.6,585.1z"/>
<path class="st3" d="M573.5,498.8h12.1c2.2-3.3,4.3-6.6,6.3-10h-11.7C577.9,492.2,575.7,495.5,573.5,498.8z"/>
<path d="M391.6,348.1c-4.4-4-8.7-7.1-12.9-9.4c-4.2-2.2-9.4-4.4-15.7-6.7v-6v-0.3v-9.7v-0.3v-51.9c5.8,0.3,11,1.3,15.6,2.8
	c4.7,1.5,8.3,3,10.8,4.5c2.5,1.5,4.2,2.2,5.1,2.2c1.5,0,2.8-0.9,3.9-2.6c1.1-1.7,1.7-3.3,1.7-4.9c0-3.4-3.8-6.6-11.5-9.5
	c-7.7-2.9-16.2-4.5-25.7-4.9V244c0-1.2-0.5-2.3-1.6-3.2c-0.8-0.7-1.6-1.1-2.5-1.3c-0.4-0.1-0.8-0.1-1.2-0.1c-0.5,0-0.9,0.1-1.4,0.1
	c-1,0.2-1.9,0.6-2.7,1.3c-1.1,0.9-1.6,2-1.6,3.2v7.9c-5.8,0.3-11.2,1.3-16.3,2.8c-5,1.5-9.9,3.8-14.5,6.9
	c-4.6,3.1-8.2,7.4-10.9,13.1c-2.7,5.6-4,12.3-4,20c0,6.3,1,12,2.9,16.9c0.6,1.5,1.2,2.9,1.8,4.2c0.1,0.1,0.1,0.2,0.2,0.3
	c1.4,2.9,2.9,5.3,4.4,7.3c0.6,0.8,1.4,1.6,2.3,2.4c0.1,0.1,0.2,0.2,0.4,0.3c2.1,1.9,4.9,3.8,8.3,5.6c5,2.7,8.8,4.5,11.7,5.6
	c2.8,1.1,7.4,2.7,13.7,4.7v60.3v10v10.4c-7.7,0-14.6-1.2-20.5-3.5c-5.5-2.2-9.6-4.5-12.2-6.9c-0.2-0.2-0.4-0.3-0.5-0.5
	c-2.6-2.6-4.8-5.1-6.7-7.3c-0.8-0.9-1.5-1.6-2.2-2.2c-0.9-0.8-1.6-1.1-2.2-1.1c-1,0-1.9,0.4-2.8,1.1c-0.4,0.3-0.8,0.7-1.2,1.2
	c-1.3,1.5-1.9,3.2-1.9,4.9c0,1.3,0.3,2.6,0.9,4c1.8,4.1,6.2,8.5,13.3,13.2c9.5,6.3,21.5,9.5,36,9.5v9.7c0,1.2,0.5,2.3,1.6,3.2
	c1.1,0.9,2.4,1.4,4,1.4c1.4,0,2.7-0.5,3.8-1.4c1.1-0.9,1.6-2,1.6-3.2v-10.3c13.1-1.5,23.4-6.4,30.8-14.6c2.1-2.3,3.8-4.8,5.3-7.6
	c1.6-3,2.9-6.4,3.9-10c1.3-5.1,2-10.8,2-17c0-8.4-1.1-15.7-3.4-21.9C399.4,357.3,396,352.2,391.6,348.1z M352.6,315.8v0.3v9.7v0.3
	h-6.7c-0.3-0.1-0.6-0.2-0.8-0.3c-2.2-0.8-4.1-1.6-5.7-2.4c-3.3-1.5-6.7-3.6-10.3-6.3c-0.4-0.3-0.9-0.7-1.3-1
	c-0.1-0.1-0.2-0.2-0.4-0.3c-2.8-2.4-4.9-5.2-6.4-8.6c-1.7-3.9-2.6-8.5-2.6-13.8c0-17.9,11.4-27.8,34.1-29.5V315.8z M390,402.5
	c-1.5,3.9-3.5,7.2-6.2,10c-4.9,5.1-11.9,8.3-21,9.6v-9.6v-10V346c9.5,3.9,16.8,8.8,22,14.7s7.8,14.5,7.8,25.8
	C392.6,392.6,391.7,397.9,390,402.5z"/>
</svg>
