<?xml version="1.0" encoding="UTF-8"?>
<svg width="37px" height="30px" viewBox="0 0 37 30" version="1.1" xmlns="http://www.w3.org/2000/svg" xmlns:xlink="http://www.w3.org/1999/xlink">
    <!-- Generator: Sketch 46.1 (44463) - http://www.bohemiancoding.com/sketch -->
    <title>Logo__x2014__FIXED</title>
    <desc>Created with Sketch.</desc>
    <defs></defs>
    <g id="Page-1" stroke="none" stroke-width="1" fill="none" fill-rule="evenodd">
        <g id="Mobile" transform="translate(-115.000000, -4627.000000)" fill-rule="nonzero" fill="#FFFFFF">
            <g id="Group-17" transform="translate(50.000000, 4627.000000)">
                <g id="Logo__x2014__FIXED" transform="translate(65.000000, 0.000000)">
                    <path d="M11.6226491,30 C25.5846339,30 33.2244898,18.4547244 33.2244898,8.45964567 C33.2244898,8.13484252 33.2244898,7.81003937 33.2096839,7.48523622 C34.6902761,6.42224409 35.9783914,5.07874016 37,3.55807087 C35.6378551,4.16338583 34.1720688,4.56200787 32.6322529,4.75393701 C34.2016807,3.8238189 35.4009604,2.33267717 35.9783914,0.561023622 C34.512605,1.43208661 32.8839536,2.05216535 31.1516607,2.39173228 C29.759904,0.915354331 27.7907163,0 25.6142457,0 C21.4241697,0 18.0188075,3.39566929 18.0188075,7.5738189 C18.0188075,8.16437008 18.0928371,8.74015748 18.2112845,9.3011811 C11.9039616,8.99114173 6.30732293,5.96456693 2.56142457,1.38779528 C1.90996399,2.50984252 1.53981593,3.80905512 1.53981593,5.19685039 C1.53981593,7.82480315 2.88715486,10.1427165 4.91556623,11.5009843 C3.67186875,11.4566929 2.50220088,11.117126 1.48059224,10.5561024 C1.48059224,10.5856299 1.48059224,10.6151575 1.48059224,10.6594488 C1.48059224,14.3208661 4.1012405,17.3917323 7.56582633,18.0856299 C6.92917167,18.2627953 6.26290516,18.351378 5.56702681,18.351378 C5.07843137,18.351378 4.60464186,18.3070866 4.14565826,18.2185039 C5.10804322,21.230315 7.92116847,23.4153543 11.2376951,23.4744094 C8.63185274,25.511811 5.3597439,26.7224409 1.80632253,26.7224409 C1.19927971,26.7224409 0.592236895,26.6929134 0,26.6190945 C3.34613846,28.7450787 7.34373749,30 11.6226491,30" id="Shape"></path>
                </g>
            </g>
        </g>
    </g>
</svg>