<?xml version="1.0" encoding="UTF-8"?>
<svg width="300px" height="86px" viewBox="0 0 300 86" version="1.1" xmlns="http://www.w3.org/2000/svg" xmlns:xlink="http://www.w3.org/1999/xlink">
    <!-- Generator: Sketch 46.1 (44463) - http://www.bohemiancoding.com/sketch -->
    <title>BBC</title>
    <desc>Created with Sketch.</desc>
    <defs></defs>
    <g id="Web" stroke="none" stroke-width="1" fill="none" fill-rule="evenodd">
        <g id="Artboard" transform="translate(-125.000000, -298.000000)" fill-rule="nonzero" fill="#828282">
            <g id="BBC" transform="translate(124.000000, 298.000000)">
                <g id="Group" transform="translate(151.066325, 43.024897) scale(-1, 1) rotate(-180.000000) translate(-151.066325, -43.024897) translate(105.066325, 0.024897)">
                    <path d="M58.4346053,30.4518366 C58.4346053,21.1928322 46.9122888,21.7417883 46.9122888,21.7417883 L35.3899722,21.7417883 L35.3899722,38.476307 L46.9122888,38.476307 C58.7778057,38.5446179 58.4346053,30.4518366 58.4346053,30.4518366 L58.4346053,30.4518366 Z M35.3899722,63.9900079 L44.1691544,63.9900079 C53.290714,63.5093627 52.9475136,56.7202492 52.9475136,56.7202492 C52.9475136,48.2842675 42.8654866,48.1468227 42.8654866,48.1468227 L35.3899722,48.1468227 L35.3899722,63.9900079 Z M56.3087379,44.8547322 C56.3087379,44.8547322 64.1957636,48.2151336 64.1274527,57.1317605 C64.1274527,57.1317605 65.3265966,71.7395888 45.9691049,73.5230788 L24.4849226,73.5230788 L24.4849226,12.2770283 L49.1072901,12.2770283 C49.1072901,12.2770283 69.6828553,12.2078944 69.6828553,29.5605031 C69.6828553,29.5605031 70.1626775,41.3568862 56.3087379,44.8547322 L56.3087379,44.8547322 Z M0.717675716,85.5248883 L91.1497541,85.5248883 L91.1497541,0.305835202 L0.717675716,0.305835202 L0.717675716,85.5248883 Z" id="Shape"></path>
                </g>
                <g id="Group" transform="translate(46.782324, 43.024897) scale(-1, 1) rotate(-180.000000) translate(-46.782324, -43.024897) translate(0.782324, 0.024897)">
                    <path d="M58.4346053,30.4518366 C58.4346053,21.1928322 46.9122888,21.7417883 46.9122888,21.7417883 L35.3899722,21.7417883 L35.3899722,38.476307 L46.9122888,38.476307 C58.7778057,38.5446179 58.4346053,30.4518366 58.4346053,30.4518366 L58.4346053,30.4518366 Z M35.3899722,63.9900079 L44.1691544,63.9900079 C53.290714,63.5093627 52.9475136,56.7202492 52.9475136,56.7202492 C52.9475136,48.2842675 42.8654866,48.1468227 42.8654866,48.1468227 L35.3899722,48.1468227 L35.3899722,63.9900079 Z M56.3087379,44.8547322 C56.3087379,44.8547322 64.1957636,48.2151336 64.1274527,57.1317605 C64.1274527,57.1317605 65.3265966,71.7395888 45.9691049,73.5230788 L24.4849226,73.5230788 L24.4849226,12.2770283 L49.1072901,12.2770283 C49.1072901,12.2770283 69.6828553,12.2078944 69.6828553,29.5605031 C69.6828553,29.5605031 70.1626775,41.3568862 56.3087379,44.8547322 L56.3087379,44.8547322 Z M0.717675716,85.5248883 L91.1497541,85.5248883 L91.1497541,0.305835202 L0.717675716,0.305835202 L0.717675716,85.5248883 Z" id="Shape"></path>
                </g>
                <g id="Group" transform="translate(255.124310, 43.026049) scale(-1, 1) rotate(-180.000000) translate(-255.124310, -43.026049) translate(209.624310, 0.026049)">
                    <path d="M72.4259897,69.1338992 L72.4259897,57.8173384 C72.4259897,57.8173384 61.3834953,64.6072749 49.1756009,64.7447197 C49.1756009,64.7447197 26.4058574,65.1891519 25.3770792,42.916514 C25.3770792,42.916514 24.5540565,22.4273661 48.9015344,21.2611431 C48.9015344,21.2611431 59.1210062,20.0266092 72.9749458,28.8741022 L72.9749458,17.14603 C72.9749458,17.14603 54.3886262,6.1043587 32.8525935,14.6086513 C32.8525935,14.6086513 14.7460961,21.2257531 14.0596952,42.916514 C14.0596952,42.916514 13.3049835,65.2245418 37.4475288,72.6317453 C37.4475288,72.6317453 43.8950879,75.1008132 55.4857153,74.003724 C55.4857153,74.003724 62.4122736,73.3173232 72.4259897,69.1338992 L72.4259897,69.1338992 Z M0.443609187,0.306987434 L90.8756875,0.306987434 L90.8756875,85.5260406 L0.443609187,85.5260406 L0.443609187,0.306987434 Z" id="Shape"></path>
                </g>
            </g>
        </g>
    </g>
</svg>