<?xml version="1.0" encoding="UTF-8"?>
<svg width="574px" height="126px" viewBox="0 0 574 126" version="1.1" xmlns="http://www.w3.org/2000/svg" xmlns:xlink="http://www.w3.org/1999/xlink">
    <!-- Generator: Sketch 46.1 (44463) - http://www.bohemiancoding.com/sketch -->
    <title>El_Pais_logo_2007</title>
    <desc>Created with Sketch.</desc>
    <defs></defs>
    <g id="Web" stroke="none" stroke-width="1" fill="none" fill-rule="evenodd">
        <g id="Artboard" transform="translate(-88.000000, -448.000000)" fill-rule="nonzero" fill="#828282">
            <g id="El_Pais_logo_2007" transform="translate(88.000000, 448.000000)">
                <polyline id="accent" points="420.010962 12.1513441 475.608462 12.1513441 475.608462 0.62384512 420.010962 12.1513441"></polyline>
                <path d="M556.124702,57.7163371 L567.297205,57.7163371 L567.297205,18.1500891 L558.29595,18.1500891 L553.1747,26.0000871 C545.415952,20.5050921 535.483452,15.0088381 523.688442,15.0088381 C504.910962,15.0088381 485.202212,24.4300921 485.202212,46.5688381 C485.202212,91.4763311 554.417204,71.2188411 554.417204,98.0700911 C554.417204,105.607591 547.898462,112.045081 534.240952,112.045081 C512.204702,112.045081 499.479712,100.738841 497.307202,79.7000911 L485.823452,79.7000911 L485.823452,122.250081 L496.375962,122.250081 L499.789712,112.986341 C508.792202,120.365091 520.429702,125.390101 532.068462,125.390101 C553.795962,125.390101 573.038458,117.225081 573.038458,92.2600811 C573.038458,48.4525931 503.824702,66.0388411 503.824702,42.4863311 C503.824702,32.1238401 509.723452,28.3563481 524.154702,28.3563481 C542.620962,28.3563481 552.399712,40.6025951 556.124702,57.7163371 L556.124702,57.7163371 Z M429.179702,122.250081 L475.425942,122.250081 L475.425942,110.631341 L466.427212,110.631341 C461.149712,110.631341 458.822212,107.961341 458.822212,102.937591 L458.822212,37.3050951 C458.822212,31.3388321 463.632202,29.7688361 468.598452,29.7688361 L475.425942,29.7688361 L475.425942,18.1500891 L420.488452,18.1500891 L420.488452,29.7688361 L429.179702,29.7688361 C435.232192,29.7688361 437.094702,32.9088461 437.094702,36.8338461 L437.094702,104.978831 C437.094702,108.966341 434.665962,110.530101 428.623462,110.602591 C420.744702,110.546351 415.608462,109.348841 412.884712,102.152581 L381.848442,18.1500891 L360.120962,18.1500891 L330.479712,102.152581 C327.840952,109.532591 322.409702,110.631341 314.184702,110.631341 L314.184702,122.250081 L362.604712,122.250081 L362.604712,110.631341 L350.499702,110.631341 C347.550962,110.631341 345.532202,110.002581 345.532202,107.806341 C345.532202,106.392581 345.844702,105.448841 346.154702,104.507581 L351.274692,88.8063311 L386.503462,88.8063311 L391.623452,104.507581 C391.934692,105.448841 392.245952,106.862591 392.245952,108.276331 C392.245952,109.847591 391.004712,110.631341 387.433452,110.631341 L375.174712,110.631341 L375.174712,122.250081 L429.179702,122.250081 Z M382.002192,77.1875811 L355.777202,77.1875811 L368.190952,39.3463381 L368.500952,39.3463381 L382.002192,77.1875811 Z M333.737202,46.7263471 C333.737202,28.9838471 320.392202,18.1500891 297.112212,18.1500891 L236.278452,18.1500891 L236.278452,29.7688361 L246.210952,29.7688361 C249.780952,29.7688361 252.884712,31.0250921 252.884712,35.1075811 L252.884712,105.292591 C252.884712,109.376341 249.780952,110.631341 246.210952,110.631341 L236.278452,110.631341 L236.278452,122.250081 L291.992202,122.250081 L291.992202,110.631341 L282.060962,110.631341 C278.490962,110.631341 274.610952,109.376341 274.610952,105.292591 L274.610952,75.1463411 L298.975962,75.1463411 C319.770962,75.1463411 333.737202,66.0388411 333.737202,46.7263471 L333.737202,46.7263471 Z M311.080952,46.8825971 C311.080952,58.9738321 303.319702,63.5263311 288.732202,63.5263311 L274.610952,63.5263311 L274.610952,29.7688361 L288.732202,29.7688361 C304.873462,29.7688361 311.080952,34.7925821 311.080952,46.8825971 L311.080952,46.8825971 Z M108.405952,122.250081 L205.398462,122.250081 L205.398462,77.5013411 L193.915952,77.5013411 C192.518462,101.837581 188.639712,110.787591 172.654702,110.787591 L147.358452,110.787591 L147.358452,36.8338461 C147.358452,31.3388321 149.685952,29.7688361 156.514702,29.7688361 L165.204712,29.7688361 L165.204712,18.1500891 L108.405952,18.1500891 L108.405952,29.7688361 L117.407202,29.7688361 C123.614712,29.7688361 125.632202,31.8100801 125.632202,36.5200871 L125.632202,103.722601 C125.632202,109.061341 122.682202,110.631341 118.337212,110.631341 L108.405952,110.631341 L108.405952,122.250081 Z M0.860952117,122.250081 L103.287192,122.250081 L103.287192,78.2863511 L91.8022121,78.2863511 C90.4059521,101.681331 84.8184521,110.631341 70.5409621,110.631341 L39.5034521,110.631341 L39.5034521,74.0463311 L47.7284621,74.0463311 C57.0396921,74.0463311 61.2297021,78.9138511 61.2297021,91.6338411 L61.2297021,95.4000911 L72.7134521,95.4000911 L72.7134521,42.9575981 L61.2297021,42.9575981 L61.2297021,44.9988431 C61.2297021,57.7163371 57.0396921,62.4275841 47.7284621,62.4275841 L39.5034521,62.4275841 L39.5034521,29.7688361 L66.8159621,29.7688361 C87.6122021,29.7688361 89.4734521,38.2475921 91.8022121,59.6013311 L103.287192,59.6013311 L103.287192,18.1500891 L0.860952117,18.1500891 L0.860952117,29.7688361 L7.84471212,29.7688361 C15.9134621,29.7688361 17.7772121,31.8100801 17.7772121,38.5613311 L17.7772121,99.6400911 C17.7772121,109.061341 14.8272121,110.631341 9.55095212,110.631341 L0.860952117,110.631341 L0.860952117,122.250081 L0.860952117,122.250081 Z" id="elpaistext"></path>
            </g>
        </g>
    </g>
</svg>