<?xml version="1.0" encoding="UTF-8"?>
<svg width="193px" height="193px" viewBox="0 0 193 193" version="1.1" xmlns="http://www.w3.org/2000/svg" xmlns:xlink="http://www.w3.org/1999/xlink">
    <!-- Generator: Sketch 46.1 (44463) - http://www.bohemiancoding.com/sketch -->
    <title>fast-company</title>
    <desc>Created with Sketch.</desc>
    <defs></defs>
    <g id="Web" stroke="none" stroke-width="1" fill="none" fill-rule="evenodd">
        <g id="Artboard" transform="translate(-1023.000000, -112.000000)" fill-rule="nonzero">
            <g id="fast-company" transform="translate(275.000000, 112.000000)">
                <polygon id="Shape" fill="#FFFFFF" points="748 0 940.756 0 940.756 192.756 748 192.756"></polygon>
                <path d="M840.02,90.371 C840.02,93.905 839.667,104.86 839.667,104.86 C839.667,106.98 840.373,107.922 842.376,107.922 L842.376,108.864 L834.484,108.864 L834.484,107.922 C836.486,107.922 837.546,106.98 837.546,104.86 L838.253,86.955 C837.664,85.541 837.075,85.07 835.544,84.953 L835.544,84.129 L841.551,84.129 L847.912,100.856 L854.391,84.129 L859.809,84.129 L859.809,84.953 C858.278,84.953 857.454,85.66 857.454,87.309 L858.161,104.625 C858.161,107.217 858.632,107.923 860.753,107.923 L860.753,108.865 L851.683,108.865 L851.683,107.923 C853.449,107.923 854.275,107.334 854.156,104.625 C854.156,104.625 853.802,92.492 853.685,90.372 L849.328,102.387 C848.673593,104.079675 848.122579,105.810527 847.678,107.57 L846.266,107.688 C845.912,106.392 844.97,104.037 844.97,104.037 C844.97,104.037 841.315,93.787 840.02,90.371 L840.02,90.371 Z M832.599,108.982 C832.128,108.864 831.657,108.864 831.185,108.864 C830.243,108.864 828.593,109.335 826.591,109.335 C818.934,109.335 813.28,104.741 813.28,96.26 C813.28,89.075 818.581,83.539 826.708,83.539 C828.592,83.539 830.713,83.893 832.48,84.599 C832.833,84.245 832.951,84.01 833.304,83.657 L834.011,83.657 C833.893,84.953 833.422,89.193 833.422,89.193 L832.715,89.193 C832.244,86.72 830.948,85.07 826.825,85.07 C821.878,85.07 817.402,88.957 817.402,96.143 C817.402,104.271 821.996,107.804 827.061,107.804 C830.36,107.804 832.362,105.92 833.658,103.564 L834.483,103.918 L832.599,108.982 Z M810.335,88.722 L809.511,88.722 C809.393,86.484 808.686,85.777 806.919,85.777 L803.503,85.777 L803.503,104.271 C803.503,107.333 804.092,107.922 806.095,107.922 L806.095,108.864 L797.26,108.864 L797.26,107.922 C799.263,107.922 799.852,107.333 799.852,104.152 L799.852,85.777 L796.436,85.777 C794.198,85.777 793.844,86.366 793.255,88.722 L792.431,88.722 L793.02,83.421 L793.609,83.539 C793.844,84.128 794.316,84.128 795.729,84.128 L807.155,84.128 C809.276,84.128 809.747,84.128 810.218,83.421 L810.925,83.421 L810.335,88.722 Z" id="Shape" fill="#828282"></path>
                <path d="M785.363,109.453 C783.714,109.453 782.418,109.218 781.476,108.864 C780.534,108.629 779.827,108.275 779.474,108.04 C779.003,108.511 778.649,109.1 778.649,109.1 L777.942,108.865 L778.531,103.329 L779.356,103.447 C779.827,106.038 781.594,107.923 785.246,107.923 C788.073,107.923 789.958,105.568 789.958,102.976 C789.958,100.856 789.133,99.795 786.306,97.675 C785.364,97.086 784.539,96.615 783.832,96.026 C781.241,94.378 779.591,92.493 779.591,89.43 C779.591,85.896 782.536,83.54 786.423,83.54 C788.661,83.54 790.075,84.247 790.546,84.482 L791.37,83.54 L791.959,83.658 L791.37,88.723 L790.546,88.605 C790.546,86.25 789.132,85.189 786.776,85.189 C784.538,85.189 782.889,86.367 782.889,88.605 C782.889,90.608 784.42,91.903 786.187,93.082 C787.129,93.671 787.836,94.142 788.542,94.613 C792.665,97.557 793.607,99.442 793.607,102.269 C793.609,106.391 790.428,109.453 785.363,109.453 L785.363,109.453 Z M771.935,88.722 L770.993,88.722 C770.993,86.601 770.051,85.777 768.166,85.777 L762.865,85.777 L762.865,95.083 L766.281,95.083 C768.048,95.083 768.402,94.141 768.637,92.609 L769.461,92.609 L769.461,99.206 L768.637,99.206 C768.402,97.439 768.048,96.732 766.163,96.732 L762.865,96.732 L762.865,104.625 C762.865,107.569 763.572,107.923 765.457,107.923 L765.457,108.865 L756.504,108.865 L756.504,107.923 C758.742,107.923 759.095,107.334 759.095,104.625 L759.095,87.308 C759.095,85.659 758.388,84.952 756.504,84.952 L756.504,84.128 L768.754,84.128 C770.874,84.128 771.345,84.01 771.699,83.303 L772.524,83.303 L771.935,88.722 L771.935,88.722 Z M899.035,90.135 L899.035,104.27 C899.035,107.332 899.74,107.921 901.625,107.921 L901.625,108.863 L887.727,108.863 L887.727,107.921 C888.788,107.921 889.729,107.567 889.729,106.861 C889.729,106.389 889.612,105.565 889.375,104.74 L888.314,101.324 L880.541,101.324 C880.422,101.796 879.01,105.682 879.01,106.743 C879.01,107.685 880.071,107.921 880.776,107.921 L880.776,108.863 L874.297,108.863 L874.297,107.921 C875.475,107.921 876.418,107.803 877.242,105.33 L883.25,86.129 C882.896,85.305 882.426,85.069 881.602,84.951 L881.602,84.127 L886.903,84.127 L893.262,104.27 C893.852,106.39 894.44,107.451 895.383,107.921 C896.797,107.45 897.151,106.979 897.151,104.27 L897.151,87.308 C896.09,85.894 895.971,84.952 893.969,84.952 L893.969,84.128 L899.977,84.128 L909.872,100.972 L909.872,88.133 C909.872,85.541 909.284,84.952 907.28,84.952 L907.28,84.128 L920.473,84.128 L920.473,84.952 C919.649,84.952 918.942,85.306 918.942,86.13 C918.942,86.719 919.178,87.308 919.413,88.015 L923.183,96.143 L926.835,88.251 C927.423,87.191 927.542,86.602 927.542,86.013 C927.542,85.306 927.069,84.952 926.011,84.952 L926.011,84.128 L932.253,84.128 L932.253,84.952 C930.722,84.952 929.778,86.366 929.073,88.014 L924.243,97.909 L924.243,104.388 C924.243,107.216 924.95,107.922 926.835,107.922 L926.835,108.864 L917.882,108.864 L917.882,107.922 C919.767,107.922 920.474,107.216 920.474,104.388 L920.474,98.852 L915.29,87.897 C914.349,85.777 913.995,85.306 913.405,84.952 C912.227,85.423 911.874,86.248 911.874,88.133 L911.874,106.273 C911.874,106.273 911.993,107.687 912.11,109.335 L910.579,109.453 L899.035,90.135 L899.035,90.135 Z M884.311,88.957 L881.012,99.677 L887.844,99.677 L884.311,88.957 Z" id="Shape" fill="#828282"></path>
                <path d="M869.703,99.677 L867.937,99.677 L867.937,104.741 C867.937,107.333 868.642,107.922 870.646,107.922 L870.646,108.864 L861.576,108.864 L861.576,107.922 C863.461,107.922 864.168,107.216 864.168,104.624 L864.168,88.015 C864.168,85.424 863.461,84.953 861.576,84.953 L861.576,84.129 L868.408,84.129 C875.004,84.129 878.89,86.131 878.89,91.549 C878.891,97.203 874.18,99.677 869.703,99.677 L869.703,99.677 Z M868.525,85.777 L867.937,85.777 L867.937,97.909 L868.996,97.909 C872.885,97.909 874.887,96.142 874.887,91.666 C874.887,87.19 873.119,85.777 868.525,85.777 L868.525,85.777 Z M828.593,104.152 C824.117,104.152 821.054,100.971 821.054,96.378 C821.054,92.02 824.235,88.604 828.593,88.604 C832.834,88.604 836.014,91.902 836.014,96.378 C836.015,100.736 832.716,104.152 828.593,104.152 Z M828.593,90.017 C825.531,90.017 824.47,92.962 824.47,96.378 C824.47,99.559 825.413,102.739 828.593,102.739 C831.656,102.739 832.598,99.558 832.598,96.26 C832.599,93.08 831.421,90.017 828.593,90.017 L828.593,90.017 Z M776.765,102.739 L776.765,101.914 C777.943,101.914 778.179,101.561 778.179,101.208 C778.179,100.736 778.061,100.383 777.943,100.03 C777.943,100.03 777.707,99.087 777.472,98.381 L772.878,98.381 L772.407,99.912 C772.29,100.266 772.172,100.619 772.172,101.09 C772.172,101.562 772.643,101.914 773.35,101.914 L773.35,102.739 L768.756,102.739 L768.756,101.914 C769.934,101.914 770.405,101.561 770.876,100.266 L774.41,89.664 C774.292,89.192 773.938,88.839 773.232,88.839 L773.232,88.014 L777,88.014 C778.285395,91.7871893 779.581066,95.55687 780.887,99.323 C781.476,101.325 782.065,101.914 783.007,101.914 L783.007,102.739 L776.765,102.739 L776.765,102.739 Z M775.115,91.313 L773.348,97.085 L777,97.085 L775.115,91.313 L775.115,91.313 Z" id="Shape" fill="#828282"></path>
            </g>
        </g>
    </g>
</svg>