<?xml version="1.0" encoding="utf-8"?>
<!-- Generator: Adobe Illustrator 21.1.0, SVG Export Plug-In . SVG Version: 6.00 Build 0)  -->
<svg version="1.1" id="Layer_1" xmlns="http://www.w3.org/2000/svg" xmlns:xlink="http://www.w3.org/1999/xlink" x="0px" y="0px"
	 viewBox="0 0 192.8 40.4" style="enable-background:new 0 0 192.8 40.4;" xml:space="preserve">
<style type="text/css">
	.st0{fill:#828282;}
</style>
<g>
	<path id="Shape_1_" class="st0" d="M92,14.1c0,3.5-0.4,14.5-0.4,14.5c0,2.1,0.7,3.1,2.7,3.1v0.9h-7.9v-0.9c2,0,3.1-0.9,3.1-3.1
		l0.7-17.9c-0.6-1.4-1.2-1.9-2.7-2V7.8h6l6.4,16.7l6.5-16.7h5.4v0.8c-1.5,0-2.4,0.7-2.4,2.4l0.7,17.3c0,2.6,0.5,3.3,2.6,3.3v0.9
		h-9.1v-0.9c1.8,0,2.6-0.6,2.5-3.3c0,0-0.4-12.1-0.5-14.3l-4.4,12c-0.7,1.7-1.2,3.4-1.7,5.2l-1.4,0.1c-0.4-1.3-1.3-3.7-1.3-3.7
		S93.3,17.5,92,14.1L92,14.1z M84.6,32.7c-0.5-0.1-0.9-0.1-1.4-0.1c-0.9,0-2.6,0.5-4.6,0.5c-7.7,0-13.3-4.6-13.3-13.1
		c0-7.2,5.3-12.7,13.4-12.7c1.9,0,4,0.4,5.8,1.1c0.4-0.4,0.5-0.6,0.8-0.9H86c-0.1,1.3-0.6,5.5-0.6,5.5h-0.7
		c-0.5-2.5-1.8-4.1-5.9-4.1c-4.9,0-9.4,3.9-9.4,11.1c0,8.1,4.6,11.7,9.7,11.7c3.3,0,5.3-1.9,6.6-4.2l0.8,0.4L84.6,32.7z M62.3,12.4
		h-0.8c-0.1-2.2-0.8-2.9-2.6-2.9h-3.4V28c0,3.1,0.6,3.7,2.6,3.7v0.9h-8.8v-0.9c2,0,2.6-0.6,2.6-3.8V9.5h-3.4c-2.2,0-2.6,0.6-3.2,2.9
		h-0.8L45,7.1l0.6,0.1c0.2,0.6,0.7,0.6,2.1,0.6h11.4c2.1,0,2.6,0,3.1-0.7h0.7L62.3,12.4z"/>
	<path id="Shape_2_" class="st0" d="M37.3,33.2c-1.6,0-2.9-0.2-3.9-0.6c-0.9-0.2-1.6-0.6-2-0.8c-0.5,0.5-0.8,1.1-0.8,1.1l-0.7-0.2
		l0.6-5.5l0.8,0.1c0.5,2.6,2.2,4.5,5.9,4.5c2.8,0,4.7-2.4,4.7-4.9c0-2.1-0.8-3.2-3.7-5.3c-0.9-0.6-1.8-1.1-2.5-1.6
		c-2.6-1.6-4.2-3.5-4.2-6.6c0-3.5,2.9-5.9,6.8-5.9c2.2,0,3.7,0.7,4.1,0.9l0.8-0.9l0.6,0.1l-0.6,5.1l-0.8-0.1c0-2.4-1.4-3.4-3.8-3.4
		c-2.2,0-3.9,1.2-3.9,3.4c0,2,1.5,3.3,3.3,4.5c0.9,0.6,1.6,1.1,2.4,1.5c4.1,2.9,5.1,4.8,5.1,7.7C45.6,30.1,42.4,33.2,37.3,33.2
		L37.3,33.2z M23.9,12.4H23c0-2.1-0.9-2.9-2.8-2.9h-5.3v9.3h3.4c1.8,0,2.1-0.9,2.4-2.5h0.8v6.6h-0.8c-0.2-1.8-0.6-2.5-2.5-2.5h-3.3
		v7.9c0,2.9,0.7,3.3,2.6,3.3v0.9h-9v-0.9c2.2,0,2.6-0.6,2.6-3.3V11c0-1.6-0.7-2.4-2.6-2.4V7.8h12.2c2.1,0,2.6-0.1,2.9-0.8h0.8
		L23.9,12.4L23.9,12.4z M151,13.8V28c0,3.1,0.7,3.7,2.6,3.7v0.9h-13.9v-0.9c1.1,0,2-0.4,2-1.1c0-0.5-0.1-1.3-0.4-2.1l-1.1-3.4h-7.8
		c-0.1,0.5-1.5,4.4-1.5,5.4c0,0.9,1.1,1.2,1.8,1.2v0.9h-6.5v-0.9c1.2,0,2.1-0.1,2.9-2.6l6-19.2c-0.4-0.8-0.8-1.1-1.6-1.2V7.8h5.3
		l6.4,20.1c0.6,2.1,1.2,3.2,2.1,3.7c1.4-0.5,1.8-0.9,1.8-3.7V11c-1.1-1.4-1.2-2.4-3.2-2.4V7.8h6l9.9,16.8V11.8
		c0-2.6-0.6-3.2-2.6-3.2V7.8h13.2v0.8c-0.8,0-1.5,0.4-1.5,1.2c0,0.6,0.2,1.2,0.5,1.9l3.8,8.1l3.7-7.9c0.6-1.1,0.7-1.6,0.7-2.2
		c0-0.7-0.5-1.1-1.5-1.1V7.8h6.2v0.8c-1.5,0-2.5,1.4-3.2,3.1l-4.8,9.9v6.5c0,2.8,0.7,3.5,2.6,3.5v0.9h-9v-0.9c1.9,0,2.6-0.7,2.6-3.5
		v-5.5l-5.2-11c-0.9-2.1-1.3-2.6-1.9-2.9c-1.2,0.5-1.5,1.3-1.5,3.2V30c0,0,0.1,1.4,0.2,3.1l-1.5,0.1L151,13.8L151,13.8z M136.3,12.7
		L133,23.4h6.8L136.3,12.7z"/>
	<path id="Shape_3_" class="st0" d="M121.7,23.4h-1.8v5.1c0,2.6,0.7,3.2,2.7,3.2v0.9h-9.1v-0.9c1.9,0,2.6-0.7,2.6-3.3V11.7
		c0-2.6-0.7-3.1-2.6-3.1V7.8h6.8c6.6,0,10.5,2,10.5,7.4C130.9,20.9,126.2,23.4,121.7,23.4L121.7,23.4z M120.5,9.5h-0.6v12.1h1.1
		c3.9,0,5.9-1.8,5.9-6.2S125.1,9.5,120.5,9.5L120.5,9.5z M80.6,27.8c-4.5,0-7.5-3.2-7.5-7.8c0-4.4,3.2-7.8,7.5-7.8
		c4.2,0,7.4,3.3,7.4,7.8C88,24.4,84.7,27.8,80.6,27.8z M80.6,13.7c-3.1,0-4.1,2.9-4.1,6.4c0,3.2,0.9,6.4,4.1,6.4c3.1,0,4-3.2,4-6.5
		C84.6,16.8,83.4,13.7,80.6,13.7L80.6,13.7z M28.7,26.4v-0.8c1.2,0,1.4-0.4,1.4-0.7c0-0.5-0.1-0.8-0.2-1.2c0,0-0.2-0.9-0.5-1.6h-4.6
		l-0.5,1.5c-0.1,0.4-0.2,0.7-0.2,1.2c0,0.5,0.5,0.8,1.2,0.8v0.8h-4.6v-0.8c1.2,0,1.6-0.4,2.1-1.6l3.5-10.6c-0.1-0.5-0.5-0.8-1.2-0.8
		v-0.8H29c1.3,3.8,2.6,7.5,3.9,11.3c0.6,2,1.2,2.6,2.1,2.6v0.8H28.7L28.7,26.4z M27.1,15l-1.8,5.8H29L27.1,15L27.1,15z"/>
</g>
</svg>
