<?xml version="1.0" encoding="UTF-8"?>
<svg width="710px" height="76px" viewBox="0 0 710 76" version="1.1" xmlns="http://www.w3.org/2000/svg" xmlns:xlink="http://www.w3.org/1999/xlink">
    <!-- Generator: Sketch 46.1 (44463) - http://www.bohemiancoding.com/sketch -->
    <title>La_Nacion_Logo</title>
    <desc>Created with Sketch.</desc>
    <defs></defs>
    <g id="Web" stroke="none" stroke-width="1" fill="none" fill-rule="evenodd">
        <g id="Artboard" transform="translate(-276.000000, -621.000000)" fill-rule="nonzero" fill="#828282">
            <g id="La_Nacion_Logo" transform="translate(276.000000, 621.000000)">
                <path d="M429.351039,74.95085 C428.778199,74.83421 427.723649,74.57334 427.007599,74.36921 C426.291569,74.16508 424.883529,73.90474 423.878639,73.79056 C422.873719,73.67569 421.233309,73.27785 420.233299,72.90494 C416.062119,71.34893 413.988609,70.43007 413.988609,70.13775 C413.988609,69.96632 413.637089,69.82704 413.207469,69.82704 C412.777849,69.82704 411.996339,69.50149 411.470839,69.10365 C410.945299,68.706 409.380409,67.63655 407.993289,66.72706 C397.198019,59.6503 390.205279,46.92076 391.266489,36.27725 C392.052629,28.39296 393.272159,24.83046 397.008119,19.50482 C398.184489,17.82793 399.468869,15.95645 399.862319,15.346 C400.694489,14.0551 411.684099,5.35007 412.481679,5.35007 C412.777629,5.35007 413.999409,4.83346 415.196679,4.20197 C420.457339,1.42754 423.476539,0.82681 433.647309,0.52953 C437.931099,0.40228 440.026619,0.48713 440.026619,0.77998 C440.026619,1.02033 440.823479,1.21687 441.797409,1.21687 C443.508679,1.21687 450.413659,3.58798 453.967139,5.39584 C456.309899,6.58775 457.959039,6.18798 459.299009,4.10353 C460.283719,2.57156 461.928589,1.90543 462.599589,2.76721 C463.029539,3.31934 463.189099,26.61852 462.766609,27.15227 C462.330839,27.70316 460.791729,27.81009 458.949089,27.4179 C458.023119,27.22066 457.716289,26.68745 457.227439,24.4268 C456.622269,21.62815 454.794929,17.03597 454.002839,16.32337 C453.762759,16.10774 453.566339,15.65618 453.566339,15.32055 C453.566339,14.33029 448.897469,9.14992 446.856259,7.87529 C442.982609,5.45663 440.995399,4.93491 435.751029,4.95929 C429.834319,4.98579 427.426229,5.67014 424.019089,8.28939 C420.389289,11.07955 417.802459,15.41617 416.403489,21.05587 C412.718599,35.91087 414.732499,56.37835 420.605509,63.76246 C422.613809,66.28716 426.221759,68.76149 429.088849,69.57961 C433.042029,70.7079 440.370439,70.37953 444.195219,68.90306 C447.818349,67.50417 449.863909,66.15796 452.522999,63.42259 C454.875059,61.00287 457.410549,55.9289 457.997279,52.46785 C458.649869,48.61797 458.953149,48.2675 461.506489,48.41419 L463.721169,48.54144 L463.693369,51.43835 C463.677469,53.03182 463.349299,55.26366 462.962349,56.39832 C462.110659,58.89457 459.765179,63.75398 459.273529,64.04064 C459.078499,64.15376 458.537539,64.80539 458.071339,65.48742 C457.605159,66.16928 456.459329,67.39973 455.525099,68.22156 C453.654359,69.86734 446.794239,73.54685 445.596799,73.54685 C445.180709,73.54685 443.963789,73.83758 442.892559,74.19264 C440.944999,74.83845 431.430499,75.37131 429.350659,74.95085 L429.351039,74.95085 Z M564.748659,74.56203 C554.371819,71.98731 549.790709,69.84984 543.529369,64.66082 C536.035609,58.45078 531.891159,51.61226 530.127849,42.54826 C528.413789,33.73734 531.630769,23.34463 538.520689,15.4342 C541.415579,12.11063 548.549539,6.53986 551.024179,5.67048 C551.841849,5.38312 552.510819,5.00772 552.510819,4.83576 C552.510819,4.66432 552.767539,4.52328 553.081339,4.52328 C553.395179,4.52328 554.273929,4.18465 555.034189,3.77074 C560.225969,0.94363 573.669909,-0.61308 579.692979,0.91535 C581.038299,1.25699 582.278069,1.42577 582.447999,1.29092 C582.618029,1.1566 583.743449,1.43938 584.949159,1.92046 C586.154889,2.40154 588.261759,3.23062 589.631209,3.7626 C594.069539,5.48704 601.821269,10.60165 605.096019,13.96586 C609.573359,18.56546 613.460719,25.72511 614.459809,31.21105 C616.793009,44.02367 612.251789,55.56695 601.248279,64.79284 C596.423179,68.83855 588.283749,72.73898 581.673359,74.17303 C577.246799,75.13342 567.915869,75.34798 564.748659,74.56203 L564.748659,74.56203 Z M579.074679,69.47374 C588.097249,66.08727 591.755549,56.97537 591.710119,38.00186 C591.663319,18.40516 587.934309,8.82667 579.151809,5.7433 C576.237879,4.72034 568.383999,4.59327 566.801039,5.54341 C566.245059,5.87727 565.396759,6.15617 564.915929,6.1634 C563.534339,6.1864 559.620999,9.44243 558.012369,11.91163 C554.903279,16.68338 553.063019,26.42199 553.043219,38.20864 C553.032619,44.62793 554.116419,53.91109 555.291849,57.46529 C557.701779,64.75272 562.321759,69.18672 568.654369,70.28957 C571.633639,70.80847 576.542639,70.42388 579.074679,69.47374 L579.074679,69.47374 Z M1.415618,73.17481 C1.058035,73.08291 0.593292,72.80508 0.38286,72.55482 C-0.235975,71.81941 -0.070813,69.55098 0.635274,69.0881 C0.993292,68.85357 3.414285,68.67525 6.015244,68.69168 C8.616214,68.70938 11.018218,68.5874 11.353033,68.42357 C12.096688,68.05878 12.224003,7.97197 11.483077,7.04321 C11.144421,6.6185 9.715056,6.45078 6.153262,6.41755 C3.476378,6.39285 0.993279,6.22421 0.635263,6.04323 C-0.087966,5.67809 -0.232473,3.36776 0.417084,2.55565 C0.744111,2.14686 5.651134,2.05779 23.192369,2.14227 L45.550834,2.25008 L45.708484,4.19048 C45.865604,6.12524 45.860478,6.13177 43.974208,6.41278 C42.933699,6.56832 40.354581,6.60632 38.242846,6.49768 C35.926272,6.37927 34.187119,6.47298 33.858191,6.73486 C33.221652,7.23998 33.068544,68.55759 33.703723,68.6313 C37.208365,69.03743 41.493568,68.86476 45.264819,68.16595 C50.710255,67.15659 51.487124,66.86586 55.521643,64.32614 C60.608176,61.12453 63.338936,55.78704 63.571205,48.59293 C63.668235,45.58467 64.114956,45.02689 66.426847,45.02689 C69.275703,45.02689 69.114747,43.60044 68.816184,66.20327 L68.724804,73.12043 L35.395363,73.23002 C17.064186,73.29012 1.77336,73.26532 1.415775,73.17352 L1.415618,73.17481 Z M75.189175,73.13061 C73.800263,72.93955 73.658678,72.7607 73.515962,71.01541 L73.360079,69.10894 L76.026224,68.90533 C81.223869,68.50909 84.088459,65.97467 87.422829,58.82279 C90.307839,52.63467 92.679059,47.70704 93.663599,45.85412 C94.207129,44.83133 95.008329,43.25042 95.444039,42.34092 C96.449819,40.24217 100.881439,31.12726 104.285849,24.15512 C105.728879,21.19989 107.222929,18.19588 107.605999,17.47957 C107.989039,16.76325 108.302429,16.05434 108.302429,15.90394 C108.302429,15.75372 108.848129,14.66607 109.515099,13.4867 C110.182039,12.30733 111.156359,10.31938 111.680259,9.06913 C112.204149,7.81889 113.168779,5.81945 113.823899,4.62595 L115.014999,2.45614 L119.145989,2.45614 C123.603099,2.45614 123.814889,2.54624 124.971759,4.93612 C125.356899,5.73162 126.188039,7.31253 126.818729,8.44914 C127.449409,9.58592 128.822569,12.28276 129.870199,14.44214 C130.917819,16.60188 131.988329,18.74077 132.249089,19.19533 C132.509849,19.64991 133.455939,21.50989 134.351489,23.32853 C135.247039,25.14698 136.290369,27.09993 136.669969,27.66832 C137.049589,28.23654 139.008209,31.95652 141.022459,35.93453 C149.644459,52.96304 155.555049,64.3432 156.511639,65.75692 C156.919889,66.36031 157.253879,67.14432 157.253879,67.49903 C157.253879,68.5895 159.129199,69.02145 163.358249,68.90481 L167.408719,68.79346 L167.408719,70.86005 L167.408719,72.92683 L164.544539,73.13325 C162.969219,73.24637 152.837029,73.28879 142.028519,73.22695 L122.376709,73.11384 L122.052999,72.08999 C121.874979,71.52708 121.869289,70.62377 122.040599,70.0826 C122.331919,69.16144 122.664199,69.08033 127.266489,68.80656 C130.210269,68.63159 132.272209,68.32159 132.407979,68.03368 C132.717889,67.37693 126.619389,55.07986 125.354349,53.81052 C124.964969,53.41994 121.377749,53.29393 110.639979,53.29393 C94.162829,53.29393 95.117759,53.05603 93.235619,57.63372 C92.581399,59.22507 91.599289,61.31358 91.053149,62.27468 C90.329009,63.54931 90.152349,64.48002 90.400689,65.71259 C90.871829,68.05101 92.307669,68.71201 97.014319,68.75742 L100.751619,68.79272 L100.910509,70.75999 C101.018319,72.09631 100.851309,72.79124 100.389739,72.92627 C99.439569,73.20393 77.042428,73.38543 75.189332,73.1304 L75.189175,73.13061 Z M122.431269,48.22243 C122.711199,47.82548 122.161959,46.32444 120.865279,43.94272 C119.766839,41.92526 117.271049,36.92658 115.319029,32.83475 C113.367009,28.74308 111.546879,25.16255 111.274299,24.87853 C110.377689,23.94377 109.434719,24.33702 108.797299,25.91174 C108.010119,27.85621 102.739679,38.60877 101.757269,40.27435 C100.130709,43.03216 98.407989,46.8778 98.407989,47.75072 C98.407989,48.26113 98.700909,48.77438 99.058929,48.89138 C99.416969,49.0098 104.725169,49.04337 110.854979,48.96908 C120.026209,48.85773 122.076449,48.72571 122.431269,48.22254 L122.431269,48.22243 Z M297.832629,72.947 C297.128489,72.38744 297.220299,69.67204 297.963239,69.08244 C298.306939,68.80956 299.537229,68.57856 300.697209,68.56903 C303.211519,68.54783 305.587799,67.59697 307.362949,65.89992 C308.705699,64.61628 309.262819,63.63397 312.988699,55.98034 C314.205989,53.47985 315.400809,51.25719 315.643829,51.04122 C315.886839,50.82525 316.085669,50.3113 316.085669,49.89896 C316.085669,49.48681 316.314129,48.82652 316.593359,48.43169 C317.343269,47.37161 319.348019,43.37433 321.824969,38.00114 C323.029999,35.38702 324.457909,32.46783 324.998039,31.51416 C325.538179,30.56048 325.980119,29.65117 325.980119,29.49351 C325.980119,29.33621 327.417239,26.30304 329.173729,22.75432 C333.112759,14.79617 332.923309,15.1728 334.497079,12.16896 C335.211679,10.80508 336.548069,8.06175 337.466839,6.07256 L339.137359,2.45616 L343.430959,2.45616 C347.944779,2.45616 348.442119,2.63572 349.158129,4.52258 C349.373779,5.09097 349.979719,6.30003 350.504679,7.20917 C351.029669,8.11866 352.971029,11.83829 354.818819,15.47555 C356.666619,19.11264 358.813489,23.29744 359.589539,24.77515 C361.691879,28.77773 361.675609,28.74592 364.243969,33.86796 C365.554819,36.48226 366.848909,38.99317 367.119739,39.44775 C367.390599,39.90231 368.072429,41.22767 368.634859,42.39255 C369.197309,43.55797 370.105939,45.32481 370.653929,46.31914 C371.201979,47.31365 372.186399,49.24326 372.841489,50.60733 C373.496599,51.97121 374.336229,53.64493 374.707329,54.32713 C375.078349,55.00899 376.342879,57.42693 377.517359,59.70014 C378.691769,61.97334 379.996479,64.44396 380.416669,65.19051 C380.836879,65.93704 381.180689,66.81631 381.180689,67.14434 C381.180689,68.33962 383.373079,68.94388 387.429829,68.867 L391.335499,68.7927 L391.493149,70.96711 L391.650799,73.14151 L369.100489,73.03371 L346.550229,72.9259 L346.386389,71.34709 C346.133689,68.91129 346.892929,68.49296 351.203999,68.69249 C357.222139,68.97121 357.578529,68.67479 355.629839,65.022 C354.276999,62.48582 353.923029,61.79654 352.790929,59.49311 C351.182849,56.22169 350.417069,54.75565 349.984109,54.12027 C349.627199,53.59607 347.320489,53.48313 335.087259,53.39017 C319.071889,53.26822 319.118789,53.26115 318.393989,55.91964 C318.198959,56.63472 317.609599,57.96398 317.084279,58.87312 C314.136649,63.97536 313.970329,66.6107 316.495669,68.19869 C317.679249,68.94328 318.382589,69.05392 320.832089,68.8809 C322.440139,68.76778 324.060709,68.8244 324.433349,69.00638 C325.178289,69.3717 325.240939,72.23079 324.516649,72.80554 C323.890329,73.3027 298.450219,73.43667 297.832679,72.94693 L297.832629,72.947 Z M346.712469,48.04888 C346.801669,47.55083 345.688629,44.86264 344.238869,42.07477 C342.789119,39.28692 341.602969,36.83945 341.602969,36.63602 C341.602969,36.43259 341.268239,35.68023 340.859129,34.96373 C340.450049,34.24741 339.102569,31.5746 337.864759,29.02427 C336.626959,26.47377 335.348699,24.38137 335.024229,24.3743 C334.488089,24.3566 331.708509,28.46631 331.708509,29.26941 C331.708509,29.45552 331.380799,30.14798 330.980289,30.80791 C330.579769,31.46803 328.457789,35.60352 326.264819,39.99811 C323.040129,46.45982 322.398269,48.1033 322.908739,48.59163 C323.434629,49.09445 325.459619,49.17505 335.045069,49.07466 C346.432629,48.95624 346.551829,48.94564 346.712469,48.04888 L346.712469,48.04888 Z M212.163319,72.14956 C211.992409,71.60856 211.929239,70.63226 212.023169,69.97974 C212.189829,68.82158 212.270039,68.79242 215.347029,68.76998 C219.097509,68.74168 220.783079,67.9363 222.185789,65.49961 C223.065179,63.97189 223.129999,62.09971 223.129999,38.22066 L223.129999,12.58235 L221.963109,10.84979 C220.497149,8.67291 217.830639,7.03526 215.236809,6.7189 C214.136109,6.58635 212.966069,6.3071 212.636679,6.10226 C211.964989,5.68462 211.826819,3.26208 212.430479,2.48673 C212.726179,2.1071 216.796559,1.98621 228.912539,1.99717 L245.001929,2.01487 L246.724339,3.57317 C247.671679,4.43035 249.285329,6.15778 250.310249,7.41173 C254.419869,12.44063 255.966989,14.2575 256.579479,14.77446 C257.207789,15.30485 260.636619,19.21394 261.666259,20.57376 C261.952679,20.95198 262.801359,21.91326 263.552289,22.70981 C264.303189,23.50619 266.646629,26.17865 268.759879,28.64856 C270.873169,31.11848 273.305229,33.92684 274.164469,34.88953 C275.023739,35.8524 276.175859,37.17935 276.724749,37.83876 C280.637059,42.53769 281.446049,43.37719 282.062449,43.37719 C283.166349,43.37719 283.073929,11.17078 281.965049,9.46897 C280.852349,7.76115 277.417729,6.46195 273.904019,6.41989 L271.039819,6.38629 L270.882359,4.21648 L270.724879,2.04648 L282.469199,2.00938 C288.928579,1.98818 294.916549,1.97228 295.775789,1.97228 C296.635039,1.97228 297.572419,1.98998 297.858849,2.00938 C298.145269,2.03058 298.379619,2.95704 298.379619,4.06943 C298.379619,6.2334 297.920859,6.62859 295.742799,6.34051 C293.958329,6.10456 290.007969,7.8419 288.615339,9.47478 L287.443629,10.84874 L287.443629,41.99296 L287.443629,73.13682 L283.320139,73.13682 C281.052219,73.13682 278.821699,73.02195 278.363419,72.8832 C277.905139,72.74358 275.753599,70.55822 273.582289,68.02698 C271.410939,65.49539 268.955349,62.68012 268.125379,61.77082 C265.618709,59.02466 261.926389,54.58129 261.926389,54.3107 C261.926389,54.17109 261.133529,53.28174 260.164449,52.33424 C259.195419,51.38658 256.587049,48.47252 254.368089,45.8584 C252.149159,43.24408 250.188489,41.01224 250.011099,40.89859 C249.833689,40.78549 248.282469,39.01793 246.563969,36.97219 C240.671499,29.95764 233.131889,21.26602 232.760169,21.05941 C232.555699,20.94631 232.011629,20.29485 231.551139,19.61264 C231.090649,18.93096 230.239459,17.908 229.659639,17.33979 C228.765679,16.46352 228.526869,16.40043 228.088799,16.92623 C227.762819,17.31735 227.569229,26.0869 227.564199,40.68757 C227.557199,61.68651 227.639499,63.98869 228.456589,65.55654 C229.644159,67.83521 231.604019,68.71308 235.828019,68.85818 C239.426189,68.98189 240.076319,69.3382 239.814709,71.04495 C239.725509,71.6273 239.625749,72.33638 239.593089,72.62039 C239.547289,73.01912 236.448889,73.13682 226.003859,73.13682 L212.474019,73.13682 L212.163069,72.15363 L212.163319,72.14956 Z M475.440499,72.10536 C474.866769,70.90778 475.564209,69.01793 476.597109,68.97074 C476.962249,68.95304 478.947429,68.95304 481.008679,68.99904 C487.592479,69.09804 486.895019,72.81976 486.895019,37.59094 C486.895019,2.21333 487.745379,6.17915 480.159359,6.17915 C476.338959,6.17915 475.425909,6.05897 475.373209,5.55916 C475.337109,5.21822 475.265219,4.70675 475.212559,4.42255 C475.160059,4.13836 475.274459,3.53391 475.467219,3.07917 C475.808089,2.27483 476.399749,2.24691 497.522869,2.04596 L519.228239,1.83918 L519.506289,2.71933 C519.659159,3.20342 519.707419,4.13341 519.613389,4.78575 L519.442489,5.97236 L514.388719,6.17915 C511.609099,6.29227 509.108779,6.57168 508.832389,6.79915 C508.521729,7.05471 508.271879,18.75458 508.177959,37.44337 C508.055479,61.83338 508.157659,67.80005 508.705499,68.32408 C509.219239,68.8154 510.610699,69.00257 514.413659,69.09165 L519.442489,69.21006 L519.442489,71.07005 L519.442489,72.93021 L497.690009,73.03803 L475.937609,73.14584 L475.440439,72.10803 L475.440499,72.10536 Z M622.648289,72.86533 C622.054169,72.3938 622.251209,69.48363 622.898719,69.16586 C623.232069,69.00326 624.590399,68.83836 625.917299,68.80125 C627.244189,68.76415 629.053689,68.39439 629.938349,67.97995 C633.296579,66.40521 633.212879,67.15422 633.236329,38.4702 C633.248729,23.42044 633.053949,12.06609 632.773589,11.48091 C631.548059,8.92263 628.042519,6.78056 624.636069,6.50857 C623.112139,6.38662 623.073799,6.32918 623.073799,4.14805 L623.073799,1.91215 L639.477719,1.98645 C654.352999,2.05535 655.944119,2.12783 656.551709,2.77593 C658.293059,4.63309 668.091359,15.98409 669.927609,18.27125 C671.065279,19.68833 672.471309,21.28092 673.052179,21.81025 C673.633049,22.33958 675.983059,24.97827 678.274389,27.67423 C680.565749,30.37002 684.512639,35.00567 687.045259,37.97558 C689.577879,40.94531 691.979869,43.37527 692.383039,43.37527 C693.000989,43.37527 693.115759,40.79578 693.114139,26.94625 C693.114139,11.60099 693.047539,10.43293 692.134079,9.24384 C690.911519,7.65267 688.013039,6.53479 684.609149,6.34233 C683.170389,6.26103 681.764909,6.01271 681.485949,5.79143 C680.932539,5.35224 680.871699,3.13436 681.394749,2.46275 C681.601369,2.1973 686.648949,2.04388 695.174169,2.04388 C709.890839,2.04388 709.259679,1.93254 709.259679,4.50691 C709.259679,5.73506 708.087719,6.83048 707.226169,6.40808 C706.216089,5.91268 701.981949,7.11396 700.037709,8.44745 L698.063339,9.80197 L697.785469,41.3647 C697.632589,58.72408 697.456859,72.97392 697.394889,73.03065 C697.332989,73.08715 695.318099,73.13493 692.917559,73.13493 C688.557489,73.13493 688.551459,73.13493 687.189189,71.71573 C686.439139,70.93543 685.825449,70.17068 685.825449,70.01674 C685.825449,69.86298 684.939599,68.87378 683.856899,67.81918 C682.062459,66.07142 678.126189,61.5533 677.493329,60.51496 C677.349989,60.27972 675.987749,58.69898 674.465809,57.00177 C672.943959,55.30456 670.952069,53.02569 670.039369,51.93787 C666.381869,47.57793 659.895069,40.12012 657.313819,37.30681 C655.810119,35.66809 654.579829,34.2047 654.579829,34.05483 C654.579829,33.9046 653.911739,33.10451 653.095199,32.27614 C651.496259,30.65422 644.882539,23.01861 642.357889,19.87992 C640.485349,17.55192 639.068109,16.28489 638.680619,16.59242 C638.522609,16.71966 638.393259,27.6258 638.393259,40.83202 C638.393259,68.03587 638.206569,66.76583 642.423159,68.24619 C644.053959,68.81881 645.597389,69.02913 647.463599,68.93317 L650.153369,68.79531 L650.153369,70.8619 L650.153369,72.9285 L636.578669,73.03985 C629.112589,73.10175 622.843949,73.02215 622.648329,72.86841 L622.648289,72.86533 Z" id="path4175"></path>
            </g>
        </g>
    </g>
</svg>