<?xml version="1.0" encoding="UTF-8"?>
<svg width="280px" height="53px" viewBox="0 0 280 53" version="1.1" xmlns="http://www.w3.org/2000/svg" xmlns:xlink="http://www.w3.org/1999/xlink">
    <!-- Generator: Sketch 46.1 (44463) - http://www.bohemiancoding.com/sketch -->
    <title>20100507141137!TED_wordmark</title>
    <desc>Created with Sketch.</desc>
    <defs></defs>
    <g id="Web" stroke="none" stroke-width="1" fill="none" fill-rule="evenodd">
        <g id="Artboard" transform="translate(-544.000000, -148.000000)" fill-rule="nonzero">
            <g id="20100507141137!TED_wordmark" transform="translate(544.000000, 148.000000)">
                <g id="g3" transform="translate(-0.000004, 0.000000)" fill="#828282">
                    <polygon id="path5" points="0 0.256 42.695 0.256 42.695 12.276 28.371 12.276 28.371 48.932 14.325 48.932 14.325 12.275 0 12.275"></polygon>
                    <polygon id="path7" points="49.02 0.256 86.661 0.256 86.661 10.649 63.097 10.649 63.097 18.385 84.956 18.385 84.956 28.313 63.097 28.313 63.097 37.909 87.344 37.909 87.344 48.932 49.02 48.932"></polygon>
                    <path d="M95.095,0.256 L115.962,0.256 C120.075,0.256 123.398,0.854 125.931,2.049 C128.463,3.244 130.556,4.96 132.209,7.195 C133.863,9.431 135.062,12.032 135.806,14.998 C136.55,17.965 136.922,21.107 136.922,24.428 C136.922,29.63 136.369,33.664 135.263,36.531 C134.157,39.398 132.622,41.8 130.659,43.736 C128.695,45.674 126.587,46.963 124.334,47.604 C121.254,48.49 118.463,48.932 115.962,48.932 L95.095,48.932 L95.095,0.256 Z M109.141,11.279 L109.141,37.875 L112.583,37.875 C115.518,37.875 117.606,37.526 118.846,36.829 C120.086,36.132 121.057,34.915 121.761,33.177 C122.464,31.44 122.815,28.623 122.815,24.727 C122.815,19.57 122.029,16.039 120.459,14.135 C118.888,12.232 116.283,11.28 112.646,11.28 L109.141,11.28 L109.141,11.279 Z" id="path9"></path>
                </g>
                <g id="g11" transform="translate(146.999996, 0.000000)" fill="#858585">
                    <polygon id="path13" points="2.095 0.06 4.647 0.06 4.647 17.58 2.095 17.58"></polygon>
                    <path d="M15.912,5.199 C16.317,5.437 16.776,5.855 17.291,6.452 L17.291,0 L19.487,0 L19.487,17.579 L17.43,17.579 L17.43,15.803 C16.899,16.59 16.271,17.158 15.545,17.508 C14.82,17.858 13.989,18.032 13.054,18.032 C11.545,18.032 10.239,17.433 9.133,16.237 C8.029,15.041 7.477,13.449 7.477,11.461 C7.477,9.601 7.981,7.988 8.988,6.625 C9.996,5.262 11.435,4.58 13.307,4.58 C14.345,4.58 15.213,4.786 15.912,5.199 L15.912,5.199 Z M10.812,14.776 C11.427,15.699 12.413,16.16 13.768,16.16 C14.821,16.16 15.685,15.732 16.364,14.878 C17.042,14.024 17.381,12.797 17.381,11.199 C17.381,9.584 17.031,8.39 16.332,7.615 C15.634,6.84 14.77,6.452 13.743,6.452 C12.597,6.452 11.669,6.865 10.958,7.692 C10.246,8.519 9.891,9.736 9.891,11.341 C9.89,12.709 10.197,13.854 10.812,14.776 L10.812,14.776 Z" id="path15"></path>
                    <path d="M31.301,5.158 C32.2,5.584 32.886,6.134 33.358,6.809 C33.812,7.453 34.115,8.205 34.266,9.064 C34.401,9.652 34.468,10.589 34.468,11.878 L24.578,11.878 C24.62,13.177 24.943,14.22 25.548,15.005 C26.153,15.79 27.089,16.183 28.358,16.183 C29.542,16.183 30.486,15.812 31.192,15.069 C31.587,14.638 31.866,14.138 32.031,13.572 L34.278,13.572 C34.218,14.041 34.022,14.564 33.688,15.14 C33.353,15.716 32.98,16.187 32.569,16.552 C31.88,17.189 31.027,17.618 30.011,17.841 C29.465,17.968 28.847,18.031 28.158,18.031 C26.476,18.031 25.051,17.453 23.882,16.296 C22.712,15.14 22.128,13.52 22.128,11.437 C22.128,9.385 22.717,7.72 23.895,6.439 C25.073,5.16 26.612,4.519 28.513,4.519 C29.471,4.52 30.4,4.732 31.301,5.158 L31.301,5.158 Z M32.119,10.173 C32.026,9.242 31.812,8.5 31.476,7.944 C30.855,6.91 29.819,6.393 28.367,6.393 C27.327,6.393 26.454,6.748 25.749,7.459 C25.044,8.172 24.671,9.076 24.629,10.173 L32.119,10.173 Z" id="path17"></path>
                    <path d="M44.649,9.85 C45.173,9.786 45.525,9.579 45.703,9.231 C45.805,9.04 45.855,8.764 45.855,8.405 C45.855,7.671 45.579,7.137 45.025,6.806 C44.472,6.475 43.68,6.309 42.65,6.309 C41.459,6.309 40.614,6.614 40.116,7.22 C39.837,7.556 39.656,8.055 39.571,8.718 L37.438,8.718 C37.48,7.139 38.023,6.041 39.067,5.423 C40.112,4.805 41.323,4.496 42.7,4.496 C44.298,4.496 45.596,4.782 46.594,5.354 C47.583,5.927 48.077,6.818 48.077,8.026 L48.077,15.384 C48.077,15.607 48.126,15.786 48.223,15.921 C48.32,16.056 48.525,16.123 48.838,16.123 C48.94,16.123 49.054,16.117 49.181,16.105 C49.308,16.092 49.444,16.075 49.587,16.051 L49.587,17.637 C49.232,17.733 48.961,17.792 48.775,17.816 C48.588,17.84 48.335,17.852 48.013,17.852 C47.226,17.852 46.655,17.589 46.299,17.065 C46.112,16.787 45.982,16.393 45.905,15.884 C45.439,16.457 44.771,16.953 43.899,17.375 C43.027,17.796 42.067,18.006 41.017,18.006 C39.756,18.006 38.726,17.647 37.925,16.929 C37.126,16.21 36.726,15.311 36.726,14.231 C36.726,13.047 37.12,12.131 37.907,11.479 C38.694,10.829 39.726,10.427 41.005,10.276 L44.649,9.85 L44.649,9.85 Z M39.838,15.648 C40.32,16.005 40.892,16.183 41.552,16.183 C42.356,16.183 43.135,16.009 43.888,15.66 C45.158,15.08 45.792,14.132 45.792,12.814 L45.792,11.087 C45.513,11.254 45.154,11.394 44.715,11.505 C44.277,11.617 43.845,11.696 43.423,11.744 L42.042,11.911 C41.214,12.015 40.592,12.177 40.175,12.399 C39.468,12.772 39.114,13.366 39.114,14.183 C39.114,14.803 39.355,15.291 39.838,15.648 Z" id="path19"></path>
                    <path d="M53.181,13.572 C53.25,14.287 53.445,14.836 53.764,15.218 C54.351,15.91 55.37,16.256 56.822,16.256 C57.686,16.256 58.446,16.082 59.102,15.736 C59.759,15.39 60.087,14.855 60.087,14.132 C60.087,13.583 59.824,13.165 59.3,12.88 C58.964,12.704 58.302,12.501 57.313,12.271 L55.468,11.842 C54.29,11.571 53.421,11.269 52.863,10.935 C51.865,10.355 51.366,9.552 51.366,8.527 C51.366,7.318 51.836,6.34 52.775,5.593 C53.713,4.845 54.976,4.472 56.563,4.472 C58.639,4.472 60.136,5.036 61.053,6.165 C61.628,6.88 61.907,7.651 61.89,8.478 L59.732,8.478 C59.689,7.996 59.503,7.557 59.173,7.161 C58.636,6.6 57.704,6.319 56.379,6.319 C55.495,6.319 54.825,6.473 54.371,6.783 C53.916,7.093 53.688,7.501 53.688,8.007 C53.688,8.562 53.987,9.005 54.584,9.339 C54.929,9.536 55.438,9.711 56.11,9.862 L57.649,10.208 C59.322,10.581 60.443,10.943 61.012,11.293 C61.901,11.842 62.345,12.704 62.345,13.881 C62.345,15.019 61.88,16 60.95,16.827 C60.02,17.653 58.604,18.067 56.702,18.067 C54.654,18.067 53.204,17.635 52.351,16.772 C51.498,15.911 51.041,14.842 50.982,13.571 L53.181,13.571 L53.181,13.572 Z" id="path21"></path>
                    <polygon id="path23" points="73.106 4.807 75.721 14.872 78.373 4.807 80.937 4.807 83.603 14.813 86.384 4.807 88.669 4.807 84.72 17.579 82.347 17.579 79.579 7.692 76.899 17.579 74.526 17.579 70.602 4.807"></polygon>
                    <path d="M100.674,6.081 C101.876,7.178 102.477,8.789 102.477,10.918 C102.477,12.977 101.948,14.676 100.888,16.019 C99.829,17.362 98.187,18.033 95.959,18.033 C94.102,18.033 92.627,17.439 91.534,16.252 C90.441,15.065 89.895,13.47 89.895,11.468 C89.895,9.323 90.47,7.614 91.622,6.344 C92.774,5.074 94.32,4.438 96.262,4.438 C98.001,4.437 99.472,4.984 100.674,6.081 L100.674,6.081 Z M99.255,14.57 C99.812,13.494 100.09,12.297 100.09,10.978 C100.09,9.787 99.889,8.818 99.487,8.072 C98.851,6.896 97.755,6.308 96.198,6.308 C94.817,6.308 93.813,6.808 93.185,7.81 C92.557,8.81 92.244,10.017 92.244,11.431 C92.244,12.788 92.557,13.919 93.185,14.826 C93.813,15.73 94.808,16.183 96.173,16.183 C97.671,16.184 98.698,15.646 99.255,14.57 Z" id="path25"></path>
                    <path d="M105.346,4.807 L107.517,4.807 L107.517,7.013 C107.695,6.583 108.13,6.061 108.825,5.445 C109.52,4.829 110.319,4.52 111.224,4.52 C111.266,4.52 111.338,4.524 111.44,4.532 C111.542,4.541 111.715,4.556 111.961,4.581 L111.961,6.847 C111.825,6.824 111.701,6.807 111.586,6.799 C111.473,6.791 111.348,6.786 111.212,6.786 C110.061,6.786 109.177,7.135 108.559,7.831 C107.941,8.526 107.632,9.327 107.632,10.233 L107.632,17.58 L105.347,17.58 L105.347,4.807 L105.346,4.807 Z" id="path27"></path>
                    <path d="M114.397,1.24 L116.708,1.24 L116.708,4.806 L118.879,4.806 L118.879,6.558 L116.708,6.558 L116.708,14.895 C116.708,15.341 116.869,15.638 117.19,15.79 C117.368,15.878 117.664,15.922 118.079,15.922 C118.189,15.922 118.308,15.919 118.434,15.914 C118.561,15.908 118.709,15.894 118.878,15.873 L118.878,17.579 C118.615,17.65 118.343,17.702 118.059,17.734 C117.776,17.765 117.469,17.781 117.139,17.781 C116.073,17.781 115.349,17.525 114.968,17.012 C114.587,16.499 114.397,15.833 114.397,15.015 L114.397,6.559 L112.556,6.559 L112.556,4.807 L114.397,4.807 L114.397,1.24 Z" id="path29"></path>
                    <path d="M121.164,0 L123.449,0 L123.449,6.535 C123.991,5.891 124.477,5.437 124.909,5.176 C125.645,4.723 126.563,4.496 127.664,4.496 C129.636,4.496 130.974,5.144 131.676,6.439 C132.057,7.148 132.247,8.128 132.247,9.385 L132.247,17.578 L129.898,17.578 L129.898,9.528 C129.898,8.59 129.771,7.901 129.517,7.465 C129.102,6.765 128.324,6.415 127.181,6.415 C126.233,6.415 125.374,6.722 124.604,7.333 C123.833,7.946 123.449,9.103 123.449,10.804 L123.449,17.578 L121.164,17.578 L121.164,0 L121.164,0 Z" id="path31"></path>
                    <path d="M2.577,42.882 C2.646,43.597 2.841,44.146 3.16,44.528 C3.747,45.219 4.766,45.565 6.218,45.565 C7.082,45.565 7.842,45.392 8.498,45.046 C9.155,44.7 9.483,44.166 9.483,43.442 C9.483,42.893 9.22,42.475 8.696,42.189 C8.36,42.014 7.698,41.812 6.709,41.581 L4.864,41.152 C3.686,40.881 2.817,40.58 2.259,40.246 C1.261,39.665 0.762,38.862 0.762,37.837 C0.762,36.628 1.232,35.65 2.171,34.902 C3.109,34.155 4.372,33.781 5.959,33.781 C8.035,33.781 9.532,34.346 10.449,35.475 C11.024,36.19 11.303,36.961 11.286,37.788 L9.128,37.788 C9.085,37.306 8.899,36.867 8.569,36.472 C8.032,35.91 7.1,35.629 5.775,35.629 C4.891,35.629 4.221,35.784 3.767,36.093 C3.312,36.402 3.084,36.81 3.084,37.317 C3.084,37.872 3.383,38.316 3.98,38.648 C4.325,38.846 4.834,39.021 5.506,39.172 L7.045,39.518 C8.718,39.891 9.839,40.253 10.408,40.603 C11.297,41.152 11.741,42.014 11.741,43.191 C11.741,44.329 11.276,45.31 10.346,46.137 C9.416,46.963 8,47.377 6.098,47.377 C4.05,47.377 2.6,46.945 1.747,46.083 C0.894,45.22 0.437,44.152 0.378,42.881 L2.577,42.881 L2.577,42.882 Z" id="path33"></path>
                    <path d="M14.028,34.176 L16.262,34.176 L16.262,35.869 C16.72,35.288 17.221,34.839 17.764,34.521 C18.536,34.043 19.444,33.805 20.488,33.805 C22.033,33.805 23.343,34.36 24.422,35.469 C25.499,36.577 26.038,38.162 26.038,40.221 C26.038,43.004 25.261,44.992 23.706,46.184 C22.72,46.94 21.573,47.318 20.265,47.318 C19.237,47.318 18.374,47.107 17.677,46.685 C17.27,46.447 16.815,46.038 16.314,45.457 L16.314,51.98 L14.029,51.98 L14.029,34.176 L14.028,34.176 Z M22.626,44.188 C23.335,43.349 23.689,42.095 23.689,40.425 C23.689,39.407 23.532,38.532 23.217,37.801 C22.623,36.394 21.535,35.69 19.956,35.69 C18.368,35.69 17.281,36.434 16.695,37.92 C16.381,38.715 16.223,39.726 16.223,40.949 C16.223,41.935 16.38,42.774 16.695,43.466 C17.289,44.786 18.376,45.445 19.956,45.445 C21.027,45.445 21.917,45.026 22.626,44.188 L22.626,44.188 Z" id="path35"></path>
                    <path d="M28.742,34.115 L30.913,34.115 L30.913,36.322 C31.091,35.892 31.526,35.37 32.221,34.754 C32.916,34.138 33.715,33.829 34.62,33.829 C34.662,33.829 34.734,33.834 34.836,33.842 C34.938,33.85 35.111,33.865 35.357,33.889 L35.357,36.156 C35.221,36.132 35.097,36.116 34.982,36.108 C34.869,36.1 34.744,36.096 34.608,36.096 C33.457,36.096 32.573,36.444 31.955,37.139 C31.337,37.835 31.028,38.636 31.028,39.542 L31.028,46.889 L28.743,46.889 L28.743,34.115 L28.742,34.115 Z" id="path37"></path>
                    <path d="M45.735,34.468 C46.634,34.893 47.32,35.444 47.792,36.119 C48.246,36.764 48.549,37.515 48.7,38.373 C48.835,38.962 48.902,39.899 48.902,41.187 L39.012,41.187 C39.054,42.487 39.377,43.53 39.982,44.315 C40.587,45.1 41.523,45.493 42.792,45.493 C43.976,45.493 44.92,45.122 45.626,44.379 C46.021,43.948 46.3,43.448 46.465,42.882 L48.712,42.882 C48.652,43.351 48.456,43.873 48.122,44.45 C47.787,45.026 47.414,45.497 47.003,45.863 C46.314,46.499 45.461,46.928 44.445,47.151 C43.899,47.278 43.281,47.341 42.592,47.341 C40.91,47.341 39.485,46.763 38.316,45.606 C37.146,44.45 36.562,42.83 36.562,40.747 C36.562,38.695 37.151,37.029 38.329,35.75 C39.507,34.47 41.046,33.829 42.947,33.829 C43.905,33.829 44.835,34.042 45.735,34.468 L45.735,34.468 Z M46.554,39.482 C46.461,38.551 46.247,37.808 45.911,37.252 C45.29,36.219 44.254,35.702 42.802,35.702 C41.762,35.702 40.889,36.057 40.184,36.769 C39.479,37.48 39.106,38.385 39.064,39.482 L46.554,39.482 L46.554,39.482 Z" id="path39"></path>
                    <path d="M59.084,39.158 C59.608,39.096 59.96,38.888 60.138,38.54 C60.24,38.348 60.29,38.073 60.29,37.714 C60.29,36.98 60.014,36.446 59.46,36.115 C58.907,35.784 58.115,35.618 57.085,35.618 C55.894,35.618 55.049,35.922 54.551,36.529 C54.272,36.865 54.091,37.364 54.006,38.027 L51.873,38.027 C51.915,36.449 52.458,35.35 53.502,34.732 C54.547,34.114 55.758,33.805 57.135,33.805 C58.733,33.805 60.031,34.091 61.029,34.663 C62.018,35.235 62.512,36.126 62.512,37.335 L62.512,44.693 C62.512,44.917 62.561,45.095 62.658,45.23 C62.755,45.365 62.96,45.432 63.273,45.432 C63.375,45.432 63.489,45.426 63.616,45.414 C63.743,45.402 63.879,45.384 64.022,45.36 L64.022,46.946 C63.667,47.042 63.396,47.101 63.21,47.125 C63.023,47.149 62.77,47.161 62.448,47.161 C61.661,47.161 61.09,46.898 60.734,46.374 C60.547,46.096 60.417,45.702 60.34,45.193 C59.874,45.765 59.206,46.262 58.334,46.684 C57.462,47.105 56.502,47.316 55.452,47.316 C54.191,47.316 53.161,46.957 52.36,46.238 C51.561,45.519 51.161,44.62 51.161,43.54 C51.161,42.357 51.555,41.439 52.342,40.789 C53.129,40.138 54.161,39.736 55.44,39.585 L59.084,39.158 L59.084,39.158 Z M54.272,44.958 C54.754,45.315 55.326,45.493 55.986,45.493 C56.79,45.493 57.569,45.318 58.322,44.97 C59.592,44.39 60.226,43.442 60.226,42.124 L60.226,40.397 C59.947,40.564 59.588,40.704 59.149,40.815 C58.711,40.927 58.279,41.006 57.857,41.054 L56.476,41.221 C55.648,41.325 55.026,41.487 54.609,41.709 C53.902,42.081 53.548,42.677 53.548,43.493 C53.549,44.113 53.79,44.601 54.272,44.958 Z" id="path41"></path>
                    <path d="M73.727,34.509 C74.132,34.748 74.591,35.165 75.106,35.762 L75.106,29.31 L77.302,29.31 L77.302,46.889 L75.245,46.889 L75.245,45.112 C74.714,45.899 74.086,46.468 73.36,46.818 C72.635,47.168 71.804,47.342 70.869,47.342 C69.36,47.342 68.054,46.744 66.948,45.547 C65.844,44.351 65.292,42.758 65.292,40.771 C65.292,38.911 65.796,37.298 66.803,35.935 C67.811,34.572 69.25,33.889 71.122,33.889 C72.159,33.889 73.027,34.096 73.727,34.509 L73.727,34.509 Z M68.626,44.086 C69.241,45.009 70.227,45.47 71.582,45.47 C72.635,45.47 73.499,45.042 74.178,44.188 C74.856,43.334 75.195,42.107 75.195,40.508 C75.195,38.895 74.845,37.699 74.146,36.924 C73.448,36.15 72.584,35.762 71.557,35.762 C70.411,35.762 69.483,36.175 68.772,37.002 C68.06,37.829 67.705,39.045 67.705,40.651 C67.704,42.019 68.012,43.164 68.626,44.086 L68.626,44.086 Z" id="path43"></path>
                    <path d="M80.717,29.369 L83.04,29.369 L83.04,31.802 L80.717,31.802 L80.717,29.369 Z M80.717,34.176 L83.04,34.176 L83.04,46.889 L80.717,46.889 L80.717,34.176 Z" id="path45"></path>
                    <path d="M86.493,34.115 L88.664,34.115 L88.664,35.928 C89.308,35.181 89.988,34.644 90.708,34.318 C91.428,33.992 92.228,33.829 93.107,33.829 C95.037,33.829 96.34,34.462 97.017,35.725 C97.389,36.416 97.576,37.407 97.576,38.695 L97.576,46.888 L95.253,46.888 L95.253,38.838 C95.253,38.059 95.13,37.431 94.885,36.953 C94.479,36.158 93.742,35.761 92.676,35.761 C92.134,35.761 91.69,35.813 91.343,35.916 C90.717,36.091 90.166,36.44 89.693,36.965 C89.312,37.387 89.064,37.822 88.951,38.271 C88.836,38.721 88.779,39.363 88.779,40.198 L88.779,46.888 L86.494,46.888 L86.494,34.115 L86.493,34.115 Z" id="path47"></path>
                    <path d="M108.512,34.629 C108.942,34.907 109.38,35.313 109.827,35.845 L109.827,34.236 L111.934,34.236 L111.934,45.852 C111.934,47.473 111.681,48.753 111.175,49.692 C110.23,51.425 108.446,52.292 105.822,52.292 C104.363,52.292 103.135,51.984 102.14,51.368 C101.144,50.752 100.587,49.788 100.469,48.475 L102.792,48.475 C102.901,49.047 103.12,49.489 103.448,49.799 C103.962,50.276 104.77,50.515 105.873,50.515 C107.615,50.515 108.756,49.934 109.294,48.774 C109.614,48.089 109.762,46.87 109.736,45.112 C109.281,45.764 108.733,46.25 108.092,46.567 C107.451,46.885 106.604,47.045 105.55,47.045 C104.083,47.045 102.799,46.554 101.699,45.572 C100.598,44.59 100.049,42.966 100.049,40.7 C100.049,38.561 100.604,36.891 101.712,35.69 C102.82,34.49 104.159,33.889 105.727,33.889 C106.792,33.889 107.72,34.136 108.512,34.629 L108.512,34.629 Z M108.791,36.931 C108.101,36.167 107.221,35.785 106.151,35.785 C104.551,35.785 103.457,36.493 102.868,37.908 C102.556,38.664 102.4,39.653 102.4,40.878 C102.4,42.317 102.71,43.412 103.329,44.163 C103.947,44.915 104.779,45.291 105.823,45.291 C107.457,45.291 108.606,44.595 109.271,43.203 C109.641,42.416 109.827,41.498 109.827,40.448 C109.827,38.866 109.481,37.693 108.791,36.931 L108.791,36.931 Z" id="path49"></path>
                </g>
            </g>
        </g>
    </g>
</svg>