<?xml version="1.0" encoding="UTF-8"?>
<svg width="401px" height="82px" viewBox="0 0 401 82" version="1.1" xmlns="http://www.w3.org/2000/svg" xmlns:xlink="http://www.w3.org/1999/xlink">
    <!-- Generator: Sketch 46.1 (44463) - http://www.bohemiancoding.com/sketch -->
    <title>Wired_logo</title>
    <desc>Created with Sketch.</desc>
    <defs></defs>
    <g id="Web" stroke="none" stroke-width="1" fill="none" fill-rule="evenodd">
        <g id="Artboard" transform="translate(-662.000000, -385.000000)" fill-rule="nonzero">
            <g id="Wired_logo" transform="translate(662.000000, 385.000000)">
                <path d="M0,0 L80.25,0 C80.25,27.33 80.25,54.67 80.25,82 L0,82 L0,0 L0,0 Z M5.91,12.87 C9.49,29.54 12.7,46.3 16.15,63 C16.78,65 16.39,67.64 18.33,68.98 C21.83,69.54 25.42,69.4 28.95,69.16 C30.87,69.22 31.33,66.96 31.68,65.51 C34.09,53.62 36.71,41.77 39.11,29.88 C39.3,28.78 39.64,27.71 40.16,26.72 C43.15,39.48 45.62,52.35 48.4,65.15 C48.78,66.51 48.86,68.19 50.2,69.02 C54.02,69.48 57.94,69.52 61.75,68.99 C63.12,68.18 63.19,66.51 63.54,65.13 C67.07,47.72 70.36,30.24 74.09,12.87 C70.72,12.89 67.36,12.88 64,12.88 C61.32,28.03 59.17,43.28 56.21,58.38 C52.88,45.57 50.65,32.45 47.75,19.52 C47.09,17.31 47.39,14.09 44.97,12.97 C42.01,12.79 39.03,12.78 36.07,12.97 C34.39,13.11 34.01,15.1 33.68,16.42 C31,29.24 28.19,42.03 25.57,54.85 C25.3,56.04 24.9,57.18 24.45,58.31 C21.76,43.2 19.21,28.05 16.89,12.88 C13.23,12.87 9.57,12.89 5.91,12.87 Z" id="Shape" fill="#828282"></path>
                <path d="M80.25,0 L159.75,0 C159.75,27.33 159.75,54.67 159.75,82 L80.25,82 C80.25,54.67 80.25,27.33 80.25,0 L80.25,0 Z M100.61,12.33 C100.57,15.69 100.57,19.04 100.61,22.4 C105.18,22.43 109.75,22.41 114.32,22.41 C114.3,34.8 114.3,47.2 114.32,59.59 C109.75,59.59 105.18,59.57 100.61,59.6 C100.57,62.96 100.57,66.31 100.62,69.67 C113.54,69.7 126.46,69.7 139.38,69.67 C139.43,66.32 139.42,62.96 139.4,59.61 C134.82,59.57 130.25,59.59 125.68,59.59 C125.7,47.2 125.7,34.8 125.68,22.41 C130.25,22.41 134.82,22.43 139.39,22.4 C139.43,19.04 139.43,15.68 139.38,12.33 C126.46,12.3 113.54,12.3 100.61,12.33 Z" id="Shape" fill="#FFFFFF"></path>
                <path d="M159.75,0 L240,0 C240,27.33 240,54.67 240,82 L159.75,82 C159.75,54.67 159.75,27.33 159.75,0 L159.75,0 Z M177.88,12.88 C177.88,31.63 177.88,50.37 177.88,69.12 C181.58,69.12 185.29,69.12 189,69.12 C189,61.79 189,54.45 189,47.12 C195.03,47.14 201.06,47.09 207.09,47.13 C209.29,46.92 211.91,48.49 211.86,50.91 C212.14,56.99 212.66,63.05 213.04,69.12 C216.57,69.12 220.09,69.12 223.62,69.13 C222.62,62.25 223.85,55.14 221.91,48.4 C220.91,44.87 217.01,44.08 213.97,43.2 C216.23,42 219.13,41.89 220.77,39.69 C223.15,36.67 223.32,32.64 223.33,28.96 C223.29,24.66 223.39,19.93 220.66,16.32 C218.48,13.32 214.4,12.88 210.98,12.88 C199.95,12.87 188.91,12.88 177.88,12.88 Z" id="Shape" fill="#828282"></path>
                <path d="M240,0 L319.75,0 C319.75,27.33 319.75,54.67 319.75,82 L240,82 C240,54.67 240,27.33 240,0 L240,0 Z M254.34,12.34 C254.3,15.68 254.3,19.03 254.32,22.37 C256.87,22.42 259.42,22.42 261.97,22.4 C262.02,34.8 262.02,47.2 261.97,59.6 C259.42,59.58 256.88,59.58 254.33,59.61 C254.3,62.96 254.29,66.31 254.34,69.66 C270.42,69.71 286.49,69.71 302.57,69.66 C302.65,63.03 302.6,56.4 302.6,49.77 C299.11,49.74 295.62,49.74 292.13,49.78 C292.12,53.05 292.12,56.32 292.13,59.59 C285.77,59.6 279.41,59.55 273.05,59.62 C272.95,54.71 273.02,49.79 273,44.88 C278,44.88 283,44.88 288,44.88 C288,41.69 288,38.5 288,35.31 C283,35.31 278,35.31 273,35.31 C273,31.01 272.99,26.71 273.01,22.41 C279.21,22.42 285.4,22.42 291.6,22.41 C291.58,25.27 291.58,28.13 291.59,31 C295.02,31 298.45,31 301.88,31 C301.87,24.78 301.89,18.56 301.87,12.34 C286.02,12.29 270.18,12.29 254.34,12.34 Z" id="Shape" fill="#FFFFFFF"></path>
                <path d="M319.75,0 L401,0 L401,82 L319.75,82 C319.75,54.67 319.75,27.33 319.75,0 L319.75,0 Z M337.88,12.88 C337.88,31.63 337.88,50.37 337.88,69.12 C347.23,69.1 356.57,69.16 365.92,69.09 C371.68,68.98 378.39,67.91 381.86,62.75 C385.91,56.27 385.3,48.34 386.01,41.03 C385.29,33.71 385.93,25.75 381.86,19.25 C378.63,14.42 372.45,13.15 367.02,12.95 C357.31,12.79 347.59,12.92 337.88,12.88 Z" id="Shape" fill="#828282"></path>
                <path d="M100.61,12.33 C113.54,12.3 126.46,12.3 139.38,12.33 C139.43,15.68 139.43,19.04 139.39,22.4 C134.82,22.43 130.25,22.41 125.68,22.41 C125.7,34.8 125.7,47.2 125.68,59.59 C130.25,59.59 134.82,59.57 139.4,59.61 C139.42,62.96 139.43,66.32 139.38,69.67 C126.46,69.7 113.54,69.7 100.62,69.67 C100.57,66.31 100.57,62.96 100.61,59.6 C105.18,59.57 109.75,59.59 114.32,59.59 C114.3,47.2 114.3,34.8 114.32,22.41 C109.75,22.41 105.18,22.43 100.61,22.4 C100.57,19.04 100.57,15.69 100.61,12.33 Z" id="Shape" fill="#828282"></path>
                <path d="M254.34,12.34 C270.18,12.29 286.02,12.29 301.87,12.34 C301.89,18.56 301.87,24.78 301.88,31 C298.45,31 295.02,31 291.59,31 C291.58,28.13 291.58,25.27 291.6,22.41 C285.4,22.42 279.21,22.42 273.01,22.41 C272.99,26.71 273,31.01 273,35.31 C278,35.31 283,35.31 288,35.31 C288,38.5 288,41.69 288,44.88 C283,44.88 278,44.88 273,44.88 C273.02,49.79 272.95,54.71 273.05,59.62 C279.41,59.55 285.77,59.6 292.13,59.59 C292.12,56.32 292.12,53.05 292.13,49.78 C295.62,49.74 299.11,49.74 302.6,49.77 C302.6,56.4 302.65,63.03 302.57,69.66 C286.49,69.71 270.42,69.71 254.34,69.66 C254.29,66.31 254.3,62.96 254.33,59.61 C256.88,59.58 259.42,59.58 261.97,59.6 C262.02,47.2 262.02,34.8 261.97,22.4 C259.42,22.42 256.87,22.42 254.32,22.37 C254.3,19.03 254.3,15.68 254.34,12.34 Z" id="Shape" fill="#828282"></path>
                <path d="M5.91,12.87 C9.57,12.89 13.23,12.87 16.89,12.88 C19.21,28.05 21.76,43.2 24.45,58.31 C24.9,57.18 25.3,56.04 25.57,54.85 C28.19,42.03 31,29.24 33.68,16.42 C34.01,15.1 34.39,13.11 36.07,12.97 C39.03,12.78 42.01,12.79 44.97,12.97 C47.39,14.09 47.09,17.31 47.75,19.52 C50.65,32.45 52.88,45.57 56.21,58.38 C59.17,43.28 61.32,28.03 64,12.88 C67.36,12.88 70.72,12.89 74.09,12.87 C70.36,30.24 67.07,47.72 63.54,65.13 C63.19,66.51 63.12,68.18 61.75,68.99 C57.94,69.52 54.02,69.48 50.2,69.02 C48.86,68.19 48.78,66.51 48.4,65.15 C45.62,52.35 43.15,39.48 40.16,26.72 C39.64,27.71 39.3,28.78 39.11,29.88 C36.71,41.77 34.09,53.62 31.68,65.51 C31.33,66.96 30.87,69.22 28.95,69.16 C25.42,69.4 21.83,69.54 18.33,68.98 C16.39,67.64 16.78,65 16.15,63 C12.7,46.3 9.49,29.54 5.91,12.87 Z" id="Shape" fill="#FFFFFF"></path>
                <path d="M177.88,12.88 C188.91,12.88 199.95,12.87 210.98,12.88 C214.4,12.88 218.48,13.32 220.66,16.32 C223.39,19.93 223.29,24.66 223.33,28.96 C223.32,32.64 223.15,36.67 220.77,39.69 C219.13,41.89 216.23,42 213.97,43.2 C217.01,44.08 220.91,44.87 221.91,48.4 C223.85,55.14 222.62,62.25 223.62,69.13 C220.09,69.12 216.57,69.12 213.04,69.12 C212.66,63.05 212.14,56.99 211.86,50.91 C211.91,48.49 209.29,46.92 207.09,47.13 C201.06,47.09 195.03,47.14 189,47.12 C189,54.45 189,61.79 189,69.12 C185.29,69.12 181.58,69.12 177.88,69.12 C177.88,50.37 177.88,31.63 177.88,12.88 L177.88,12.88 Z M189,22.12 C189,27.55 189,32.98 189,38.41 C195.65,38.32 202.32,38.61 208.96,38.27 C212.53,38.06 212.58,33.77 212.72,31.09 C212.61,28.14 213.16,24.22 210.41,22.27 C203.29,21.9 196.14,22.23 189,22.12 Z" id="Shape" fill="#FFFFFF"></path>
                <path d="M337.88,12.88 C347.59,12.92 357.31,12.79 367.02,12.95 C372.45,13.15 378.63,14.42 381.86,19.25 C385.93,25.75 385.29,33.71 386.01,41.03 C385.3,48.34 385.91,56.27 381.86,62.75 C378.39,67.91 371.68,68.98 365.92,69.09 C356.57,69.16 347.23,69.1 337.88,69.12 C337.88,50.37 337.88,31.63 337.88,12.88 L337.88,12.88 Z M349,22.12 C349,34.71 349,47.29 349,59.88 C354.69,59.87 360.38,59.89 366.08,59.89 C368.81,59.94 372.12,59.22 373.4,56.5 C375.31,52.29 374.84,47.55 375,43.06 C374.79,37.44 375.59,31.58 373.7,26.18 C372.85,23.42 369.78,22.11 367.09,22.14 C361.06,22.08 355.03,22.15 349,22.12 Z" id="Shape" fill="#FFFFFF"></path>
                <path d="M189,22.12 C196.14,22.23 203.29,21.9 210.41,22.27 C213.16,24.22 212.61,28.14 212.72,31.09 C212.58,33.77 212.53,38.06 208.96,38.27 C202.32,38.61 195.65,38.32 189,38.41 C189,32.98 189,27.55 189,22.12 Z" id="Shape" fill="#828282"></path>
                <path d="M349,22.12 C355.03,22.15 361.06,22.08 367.09,22.14 C369.78,22.11 372.85,23.42 373.7,26.18 C375.59,31.58 374.79,37.44 375,43.06 C374.84,47.55 375.31,52.29 373.4,56.5 C372.12,59.22 368.81,59.94 366.08,59.89 C360.38,59.89 354.69,59.87 349,59.88 C349,47.29 349,34.71 349,22.12 Z" id="Shape" fill="#828282"></path>
            </g>
        </g>
    </g>
</svg>