<svg id="Layer_1" data-name="Layer 1" xmlns="http://www.w3.org/2000/svg" viewBox="0 0 2377.33 655.47"><defs><style>.cls-1{fill:#fff;}.cls-2{fill:#f4cd45;}.cls-3{fill:#53c1b4;}.cls-4{fill:#3ca2da;}.cls-5{fill:#f27057;}.cls-6{fill:#ea1b3b;}.cls-7{fill:#77549e;}</style></defs><title>der_black</title><path class="cls-1" d="M549.23,522,336.39,644.81C311.61,659,278.81,659,254,644.81L41.18,522C16.4,507.78,0,479.35,0,450.56V204.91c0-28.42,16.4-57.21,41.18-71.43L254,10.66c24.79-14.21,57.59-14.21,82.37,0L549.23,133.48c24.79,14.22,41.19,42.64,41.19,71.43V450.56c-.37,28.42-16.77,56.85-41.19,71.43"/><path d="M831,199.81c0-11.66-.37-20.77-.73-27.33a87.34,87.34,0,0,0-2.92-17.86c-1.82-5.47-4-10.2-7.29-13.85-8.38-9.11-19.68-13.85-34.62-13.85H748.22V275.25H785.4c14.58,0,26.24-4.73,34.62-13.84,4.74-5.11,8-12.4,9.11-21.51S831,217.67,831,199.81m30.61,0V210c0,10.93-.36,20.77-1.09,28.79a95.74,95.74,0,0,1-5.83,24.42,61.59,61.59,0,0,1-13.49,21.13c-12.75,12.76-30.25,19.32-52.48,19.32H717.25V99.59h71.07c22.23,0,39.72,6.56,52.48,19.31,5.83,6.2,10.57,12.76,13.48,20.41a88.59,88.59,0,0,1,5.83,23c.73,8,1.1,17.13,1.1,27.7v9.84Z"/><polygon points="1020.47 303.32 890.73 303.32 890.73 99.22 1020.47 99.22 1020.47 126.92 921.71 126.92 921.71 186.33 1005.89 186.33 1005.89 214.03 921.71 214.03 921.71 275.62 1020.47 275.62 1020.47 303.32"/><polygon points="1233.68 303.32 1202.7 303.32 1202.7 166.65 1156.05 266.51 1133.09 266.51 1085.35 166.65 1085.35 303.32 1054.37 303.32 1054.37 99.22 1085.35 99.22 1144.75 226.05 1202.7 99.22 1233.68 99.22 1233.68 303.32"/><path d="M1377.64,201.27c0-20.41-.73-34.62-2.19-43a38.48,38.48,0,0,0-9.84-20.41,35.49,35.49,0,0,0-13.48-9.11,44.49,44.49,0,0,0-33.53,0,40.16,40.16,0,0,0-13.49,9.11,46.49,46.49,0,0,0-9.84,20.41q-2.19,12.59-2.19,42.65c0,10.93.37,19.31.37,25.87.36,6.56,1.09,12,1.82,17.13a74.36,74.36,0,0,0,3.28,11.3,40.48,40.48,0,0,0,6.2,9.11,38.24,38.24,0,0,0,13.48,9.11,44.25,44.25,0,0,0,16.77,3.28c12.39,0,22.23-4.37,30.25-12.75a39.33,39.33,0,0,0,7.65-12.4c1.82-4.73,2.92-10.93,3.64-18.95,1.1-7.65,1.1-18.22,1.1-31.34m31,0c0,16-.37,28.43-.73,37.17a88.34,88.34,0,0,1-5.11,24.06,58.14,58.14,0,0,1-13.48,20.77q-21.87,21.87-53.57,21.87c-21.14,0-39-7.29-53.21-21.5-6.2-6.56-10.94-13.49-13.49-20.78-2.92-7.29-4.37-15.3-5.1-24.05s-1.09-21.14-1.09-37.18c0-12.39,0-22.23.36-29.52a160.21,160.21,0,0,1,2.19-20,60.55,60.55,0,0,1,17.13-32.44c14.21-14.58,32.07-21.86,53.21-21.86s39,7.28,53.57,21.86a65.49,65.49,0,0,1,13.49,20.78c2.91,7.29,4.37,15.3,5.1,24.05.36,8,.73,20.41.73,36.81"/><path d="M1583.92,242.09a78.77,78.77,0,0,1-9.11,27,65.74,65.74,0,0,1-15.67,19.68c-6.2,5.47-13.49,9.11-21.51,12a85.49,85.49,0,0,1-25.87,4,71.72,71.72,0,0,1-20-2.56c-6.2-1.82-12.39-4-17.86-7.65a70.71,70.71,0,0,1-15.3-11.66c-6.2-6.56-10.94-13.49-13.49-20.78-2.92-7.29-4.37-15.3-5.1-24s-1.09-21.14-1.09-37.17c0-12.39.36-22.24.36-29.52a160.59,160.59,0,0,1,2.19-20,60.55,60.55,0,0,1,17.13-32.44,71.34,71.34,0,0,1,24-16,76.77,76.77,0,0,1,29.16-5.47c19,0,35,5.47,47.74,16.4s21.14,26.24,24.42,46.65h-31.34c-2.56-10.57-7.29-19.32-14.22-25.51s-16-9.48-26.6-9.48a43.12,43.12,0,0,0-16.77,3.28,37.19,37.19,0,0,0-13.12,9.11,36.6,36.6,0,0,0-6.19,9.12c-1.46,2.91-2.56,6.92-3.65,12a112.25,112.25,0,0,0-1.82,16.77c-.37,6.19-.37,14.94-.37,25.87s0,19.32.37,25.52,1.09,12,1.82,16.76c1.09,5.1,2.19,9.11,3.65,12a44.81,44.81,0,0,0,6.19,9.11,37.06,37.06,0,0,0,13.12,9.11,42.94,42.94,0,0,0,16.77,3.28,40.83,40.83,0,0,0,19.31-4.37,37.55,37.55,0,0,0,13.85-12.39,58.82,58.82,0,0,0,8-18.23h31v-.36Z"/><path d="M1727.51,159c0-9.84-3.28-17.85-9.47-23.69s-14.58-8.74-25.15-8.74h-45.56v63.78h45.56c10.57,0,18.59-2.92,25.15-8.39s9.47-13.12,9.47-23m37.18,144.33h-36.08l-42.64-86h-38.64v86h-31V99.22h78.73c12.39,0,23.32,2.56,33.16,7.66,9.48,5.1,17.13,12,22.23,21.14s7.66,19.31,7.66,31c0,13.84-3.65,25.87-11.3,35-7.29,9.48-17.13,15.68-29.16,19Z"/><path d="M1897.35,235.89l-30.62-90.74L1835,235.89Zm55.4,67.43H1920l-13.85-41.19h-80.18l-13.85,41.19h-32.8l74.34-204.1h24.79Z"/><path d="M2111.28,242.09a87,87,0,0,1-9.11,27c-4.37,8-9.47,14.58-16,19.68-6.2,5.47-13.49,9.11-21.51,12a85.45,85.45,0,0,1-25.87,4,76.08,76.08,0,0,1-53.58-21.87c-6.19-6.56-10.93-13.49-13.48-20.78-2.92-7.29-4.38-15.3-5.1-24s-1.1-21.14-1.1-37.17c0-12.39,0-22.24.37-29.52a160.67,160.67,0,0,1,2.18-20,56.12,56.12,0,0,1,5.84-17.13,55.5,55.5,0,0,1,11.29-15.31,71.48,71.48,0,0,1,24.06-16,76.72,76.72,0,0,1,29.15-5.47c19,0,35,5.47,47.75,16.4s21.13,26.24,24.41,46.65h-31.34c-2.55-10.57-7.29-19.32-14.21-25.51s-16-9.48-26.61-9.48a43.07,43.07,0,0,0-16.76,3.28A37,37,0,0,0,2002.31,147c-1.46,2.91-2.55,6.92-3.64,12a112.19,112.19,0,0,0-1.83,16.77c-.36,6.19-.36,14.94-.36,25.87s0,19.32.36,25.52,1.1,12,1.83,16.76c1.09,5.1,2.18,9.11,3.64,12a45.29,45.29,0,0,0,6.2,9.11,37,37,0,0,0,13.12,9.11,42.89,42.89,0,0,0,16.76,3.28,40.9,40.9,0,0,0,19.32-4.37,37.63,37.63,0,0,0,13.85-12.39,59.29,59.29,0,0,0,8-18.23h31.7v-.36Z"/><rect x="2144.08" y="99.22" width="30.98" height="204.09"/><path d="M2321.94,235.89l-30.62-90.74-31.7,90.74Zm55.39,67.43h-32.8l-13.85-41.19H2250.5l-13.84,41.19h-32.81l74.35-204.1H2303Z"/><polygon points="846.99 559.89 717.25 559.89 717.25 355.8 846.99 355.8 846.99 383.5 748.23 383.5 748.23 442.9 832.41 442.9 832.41 470.6 748.23 470.6 748.23 531.83 846.99 531.83 846.99 559.89"/><polygon points="1033.59 559.89 1005.53 559.89 911.87 416.3 911.87 559.89 880.89 559.89 880.89 355.8 909.31 355.8 1002.98 499.03 1002.98 355.8 1033.59 355.8 1033.59 559.89"/><path d="M1266.11,415.57c0-9.84-3.28-17.86-9.47-23.69s-14.58-8.75-25.15-8.75h-45.56v64.15h45.56c10.21,0,18.59-2.92,25.15-8.39,6.19-5.83,9.47-13.48,9.47-23.32m36.81,144.32h-35.71l-42.64-86H1186.3v86h-31V355.8H1234c12.39,0,23.33,2.55,33.17,7.65,9.47,5.11,17.13,12,22.23,21.14s7.65,19.32,7.65,31c0,13.85-3.64,25.88-11.29,35-7.66,9.47-17.13,15.67-29.16,19.31Z"/><polygon points="1463.28 559.89 1333.54 559.89 1333.54 355.8 1463.28 355.8 1463.28 383.5 1364.52 383.5 1364.52 442.9 1448.71 442.9 1448.71 470.6 1364.52 470.6 1364.52 531.83 1463.28 531.83 1463.28 559.89"/><path d="M1610.89,456.39c0-11.67-.37-20.78-.73-27.34a87.12,87.12,0,0,0-2.92-17.85,33.57,33.57,0,0,0-7.29-13.85c-8.38-9.11-19.68-13.85-34.62-13.85h-37.17V531.83h37.17c14.58,0,26.24-4.37,34.62-13.85,4.74-5.47,8-12.39,9.12-21.5s1.82-22.6,1.82-40.09m30.61,0v10.2c0,10.94-.36,20.78-1.09,28.79a89.61,89.61,0,0,1-5.83,24.06,61.72,61.72,0,0,1-13.49,21.14c-12.75,12.75-30.25,19.31-52.48,19.31h-71.43V355.8h71.43c22.23,0,39.73,6.56,52.48,19.31a57.07,57.07,0,0,1,13.49,20.41,89,89,0,0,1,5.83,23c.73,7.66,1.09,17.13,1.09,27.7Z"/><path class="cls-2" d="M141,263.59c0-14.94,8.75-29.88,21.51-37.17l55.39-32.07L156,86.83l-100.23,58c-23.32,13.12-39,40.09-39,67.06v115.9H141V263.59Z"/><path class="cls-3" d="M273.71,162.27c12.75-7.28,29.88-7.28,43,0l55.4,32.08,62-107.52L333.84,28.88c-23.33-13.48-54.3-13.48-77.63,0L156,86.83l61.95,107.52Z"/><path class="cls-4" d="M427.5,226.42c12.76,7.29,21.51,22.23,21.51,37.17v64.15H573.29V211.84c0-27-15.67-53.94-38.64-67.06L434.43,86.83l-62,107.52Z"/><path class="cls-5" d="M162.55,429.05C149.79,421.76,141,406.82,141,391.88V327.74H16.76V443.63c0,27,15.68,53.58,38.64,67.06l100.22,57.95,62-107.51Z"/><path class="cls-6" d="M316.35,492.83c-12.76,7.29-29.89,7.29-43,0l-55.4-32.07L156,568.28l100.22,57.94c23.33,13.49,54.3,13.49,77.63,0l100.22-57.94L372.11,460.76Z"/><path class="cls-7" d="M449,327.74v64.14c0,14.94-8.75,29.89-21.5,37.17l-55.4,32.08,62,107.51,100.22-57.95c23.33-13.48,38.63-40.45,38.63-67.06V327.74Z"/><rect class="cls-1" y="320.45" width="590.42" height="14.21"/><rect class="cls-1" x="-0.15" y="320.32" width="590.42" height="14.21" transform="translate(-136.07 419.04) rotate(-59.97)"/><rect class="cls-1" x="288.01" y="32.6" width="14.21" height="590.37" transform="translate(-124.33 191.39) rotate(-29.99)"/></svg>