<?xml version="1.0" encoding="UTF-8"?>
<svg width="21px" height="20px" viewBox="0 0 21 20" version="1.1" xmlns="http://www.w3.org/2000/svg" xmlns:xlink="http://www.w3.org/1999/xlink">
    <!-- Generator: Sketch 46.1 (44463) - http://www.bohemiancoding.com/sketch -->
    <title>like</title>
    <desc>Created with Sketch.</desc>
    <defs></defs>
    <g id="Page-1" stroke="none" stroke-width="1" fill="none" fill-rule="evenodd">
        <g id="Desktop-HD-Copy" transform="translate(-350.000000, -2806.000000)" fill="#E84A5F">
            <g id="Group-4" transform="translate(92.000000, 2559.000000)">
                <path d="M278.9672,252.959432 C278.6592,249.502544 276.271325,246.995192 273.280625,246.995192 C271.2895,246.995192 269.4656,248.092664 268.43925,249.85208 C267.42205,248.069624 265.67295,246.99416 263.713725,246.99416 C260.72375,246.99416 258.3348,249.502544 258.02825,252.959432 C258.00405,253.111496 257.904675,253.915856 258.206825,255.226304 C258.6428,257.116448 259.648625,258.836288 261.115375,260.197304 L268.4341,266.99996 L275.878975,260.19764 C277.34645,258.836288 278.352275,257.116448 278.787525,255.226304 C279.089675,253.916192 278.98995,253.111832 278.9672,252.959432 Z" id="like"></path>
            </g>
        </g>
    </g>
</svg>