<svg xmlns="http://www.w3.org/2000/svg" xmlns:xlink="http://www.w3.org/1999/xlink" width="136" height="35" viewBox="0 0 136 35">
    <defs>
        <path id="a" d="M0 34.605h135.256V0H0z"/>
    </defs>
    <g fill="none" fill-rule="evenodd">
        <path fill="#58585B" d="M50.341 10.144v.575c0 .614-.022 1.154-.07 1.614-.045.46-.153.913-.322 1.358a3.434 3.434 0 0 1-.759 1.177c-.715.716-1.697 1.074-2.945 1.074h-3.993V4.503h3.993c1.248 0 2.23.358 2.945 1.074a3.5 3.5 0 0 1 .76 1.146c.168.423.276.855.322 1.294.047.44.07.955.07 1.547v.58zm-1.721.004c0-.658-.012-1.166-.03-1.525a4.763 4.763 0 0 0-.168-1.007 2.01 2.01 0 0 0-.412-.776c-.467-.517-1.111-.777-1.931-.777h-2.09v8.318h2.09c.825 0 1.47-.256 1.931-.769.27-.296.441-.7.51-1.213.066-.514.1-1.262.1-2.25zM59.246 15.942h-7.272V4.502h7.272v1.561h-5.534v3.335h4.724v1.547h-4.724v3.436h5.534zM71.182 15.942h-1.736v-7.65l-2.609 5.579h-1.276l-2.68-5.578v7.649h-1.736V4.502h1.736l3.318 7.119 3.247-7.118h1.736zM80.983 10.218c0 .906-.017 1.596-.05 2.075-.034.48-.127.927-.283 1.348-.157.421-.405.812-.75 1.173-.817.813-1.815 1.222-3 1.222-1.186 0-2.18-.405-2.987-1.215a3.427 3.427 0 0 1-.762-1.17 4.765 4.765 0 0 1-.289-1.345 29.72 29.72 0 0 1-.056-2.084c0-.694.01-1.247.03-1.655.016-.409.059-.782.123-1.122.063-.34.17-.658.318-.953.15-.298.361-.583.636-.867.806-.812 1.801-1.217 2.987-1.217 1.185 0 2.183.405 3 1.217.348.364.599.756.753 1.173.154.414.246.862.28 1.344.033.48.05 1.172.05 2.076m-1.722.004c0-1.137-.044-1.937-.13-2.404-.086-.463-.264-.844-.541-1.143a2.144 2.144 0 0 0-.751-.514 2.408 2.408 0 0 0-1.886 0c-.306.128-.556.3-.754.514-.275.307-.455.692-.541 1.15-.085.462-.13 1.26-.13 2.397 0 .605.01 1.091.027 1.454.018.362.053.679.107.952.051.27.115.483.187.633.074.154.188.32.35.51.208.22.462.392.76.517.299.125.613.188.94.188.686 0 1.25-.237 1.69-.706a2.08 2.08 0 0 0 .425-.696c.097-.263.164-.618.197-1.066.032-.45.05-1.045.05-1.786M90.81 12.517a4.614 4.614 0 0 1-.503 1.513 3.864 3.864 0 0 1-.887 1.108 3.688 3.688 0 0 1-1.21.671 4.529 4.529 0 0 1-1.452.227c-.395 0-.77-.045-1.12-.137a4.154 4.154 0 0 1-1.866-1.078 3.422 3.422 0 0 1-.764-1.17 4.762 4.762 0 0 1-.288-1.345 29.156 29.156 0 0 1-.056-2.084c0-.694.011-1.247.03-1.655.016-.409.059-.781.124-1.121.065-.34.17-.66.32-.954.147-.297.358-.583.634-.867.393-.397.844-.7 1.35-.908.5-.205 1.047-.309 1.636-.309 1.061 0 1.956.303 2.676.912.721.606 1.179 1.477 1.375 2.609h-1.76c-.136-.6-.4-1.078-.791-1.43-.394-.353-.892-.527-1.5-.527-.335 0-.647.058-.941.18-.293.119-.541.287-.743.507-.152.167-.27.336-.351.505-.084.17-.151.395-.203.675-.051.277-.087.591-.105.942-.019.351-.028.831-.028 1.44 0 .606.01 1.084.028 1.43.018.347.054.665.105.946.052.281.12.501.203.669.081.163.199.338.351.52.202.214.45.383.743.505.294.123.606.185.94.185.408 0 .77-.082 1.085-.243.31-.161.57-.392.777-.69.21-.297.356-.64.446-1.026h1.744zM100.933 15.942H98.92l-2.388-4.81h-2.155v4.81h-1.739V4.502h4.417c.698 0 1.316.144 1.853.427.54.287.952.682 1.24 1.188.288.505.434 1.083.434 1.733 0 .782-.208 1.44-.628 1.967-.418.525-.961.882-1.634 1.07l2.613 5.055zm-2.074-8.076c0-.56-.174-1-.526-1.32-.35-.324-.82-.483-1.407-.483h-2.549v3.579h2.549c.583 0 1.05-.159 1.403-.478.354-.318.53-.75.53-1.298zM111.47 15.942h-1.836l-.779-2.298h-4.486l-.78 2.298h-1.838l4.167-11.44h1.386l4.167 11.44zm-3.1-3.774l-1.72-5.077-1.77 5.077h3.49zM120.356 12.517a4.723 4.723 0 0 1-.502 1.513 3.857 3.857 0 0 1-.89 1.108 3.67 3.67 0 0 1-1.21.671c-.453.153-.939.227-1.453.227-.394 0-.767-.045-1.118-.137a4.003 4.003 0 0 1-1.01-.419 4.167 4.167 0 0 1-.856-.66 3.438 3.438 0 0 1-.765-1.169 4.858 4.858 0 0 1-.29-1.345 30.646 30.646 0 0 1-.053-2.084c0-.694.01-1.247.027-1.655.017-.409.061-.781.126-1.121a3.66 3.66 0 0 1 .318-.954c.148-.297.36-.583.637-.867.395-.397.842-.7 1.349-.908a4.287 4.287 0 0 1 1.635-.309c1.066 0 1.959.303 2.679.912.72.606 1.176 1.477 1.376 2.609h-1.762c-.137-.6-.4-1.078-.793-1.43-.392-.353-.89-.527-1.5-.527-.332 0-.645.058-.939.18a2.05 2.05 0 0 0-.744.507 2.232 2.232 0 0 0-.351.505c-.082.17-.15.395-.203.675-.051.277-.087.591-.105.942-.02.351-.027.831-.027 1.44 0 .606.007 1.084.026 1.43.02.347.055.665.106.946.053.281.12.501.203.669.084.163.2.338.351.52.204.214.451.383.744.505.294.123.607.185.94.185.41 0 .77-.082 1.082-.243.313-.161.573-.392.78-.69.209-.297.356-.64.445-1.026h1.747z"/>
        <mask id="b" fill="#fff">
            <use xlink:href="#a"/>
        </mask>
        <path fill="#58585B" d="M122.185 15.942h1.737V4.503h-1.737zM135.256 15.942h-1.837l-.779-2.298h-4.486l-.78 2.298h-1.839l4.167-11.44h1.388l4.166 11.44zm-3.1-3.774l-1.72-5.077-1.77 5.077h3.49zM49.523 30.313h-7.271v-11.44h7.271v1.562H43.99v3.335h4.723v1.545H43.99v3.436h5.533zM59.99 30.313h-1.582l-5.245-8.051v8.051h-1.74v-11.44h1.59l5.253 8.036v-8.035h1.723zM75.077 30.313h-2.01l-2.394-4.81h-2.15v4.81h-1.738v-11.44h4.414c.696 0 1.315.142 1.852.428.54.287.953.682 1.243 1.187.287.503.433 1.083.433 1.733 0 .784-.21 1.44-.628 1.965-.42.527-.964.886-1.633 1.073l2.611 5.054zm-2.073-8.076c0-.56-.175-1-.527-1.32-.35-.322-.818-.482-1.405-.482h-2.549v3.578h2.549c.58 0 1.048-.16 1.4-.477.355-.319.532-.75.532-1.3zM84.055 30.313h-7.273v-11.44h7.273v1.562H78.52v3.335h4.724v1.545h-4.724v3.436h5.536zM94.042 24.515v.572c0 .618-.022 1.157-.067 1.617-.048.46-.156.914-.326 1.358a3.295 3.295 0 0 1-.761 1.177c-.71.717-1.692 1.075-2.939 1.075h-3.997v-11.44h3.997c1.247 0 2.228.359 2.939 1.076.339.339.593.72.76 1.144.171.425.28.855.327 1.294.046.44.067.954.067 1.548v.58zm-1.72.004c0-.659-.011-1.168-.032-1.525a4.52 4.52 0 0 0-.167-1.007 1.999 1.999 0 0 0-.409-.777c-.468-.516-1.112-.776-1.933-.776H87.69v8.317h2.09c.827 0 1.47-.254 1.934-.768.27-.298.44-.702.507-1.213.068-.512.1-1.263.1-2.25z" mask="url(#b)"/>
        <path fill="#F4CD46" d="M10.42 13.713c0-.834.48-1.666 1.202-2.083l3.11-1.796-3.48-6.026-5.618 3.244c-1.304.753-2.173 2.258-2.173 3.764v6.487h6.959v-3.59z" mask="url(#b)"/>
        <path fill="#53C1B4" d="M17.84 8.04a2.471 2.471 0 0 1 2.406 0l3.109 1.795 3.48-6.027L21.216.565c-1.305-.753-3.042-.754-4.346 0l-5.619 3.243 3.48 6.027L17.84 8.04z" mask="url(#b)"/>
        <path fill="#3CA2DA" d="M26.464 11.63a2.47 2.47 0 0 1 1.203 2.083v3.59h6.959v-6.487c0-1.506-.87-3.012-2.173-3.764l-5.619-3.244-3.479 6.027 3.11 1.795z" mask="url(#b)"/>
        <path fill="#F06F56" d="M11.623 22.975a2.468 2.468 0 0 1-1.203-2.082v-3.59H3.46v6.487c0 1.506.87 3.01 2.173 3.763l5.619 3.244 3.479-6.027-3.11-1.795z" mask="url(#b)"/>
        <path fill="#ED4E61" d="M20.246 26.566a2.47 2.47 0 0 1-2.406 0l-3.108-1.795-3.48 6.026 5.618 3.243c1.305.754 3.042.753 4.346 0l5.619-3.242-3.48-6.027-3.11 1.795z" mask="url(#b)"/>
        <path fill="#77549E" d="M27.667 17.303v3.59a2.47 2.47 0 0 1-1.203 2.083l-3.11 1.794 3.48 6.027 5.618-3.244c1.305-.753 2.174-2.257 2.174-3.763v-6.487h-6.96z" mask="url(#b)"/>
        <path fill="#FEFEFE" d="M9.867 33.994l-.69-.4L28.22.612l.69.4z" mask="url(#b)"/>
        <path fill="#FEFEFE" d="M28.91 33.596l-.69.398L9.175 1.011l.691-.4z" mask="url(#b)"/>
        <path fill="#FEFEFE" d="M38.087 16.904v.798H0v-.799z" mask="url(#b)"/>
    </g>
</svg>
