<?xml version="1.0" encoding="UTF-8"?>
<svg class="logo-der-header" width="212px" height="59px" viewBox="0 0 212 59" version="1.1" xmlns="http://www.w3.org/2000/svg" xmlns:xlink="http://www.w3.org/1999/xlink">
    <!-- Generator: Sketch 46.1 (44463) - http://www.bohemiancoding.com/sketch -->
    <title>Page 1</title>
    <desc>Created with Sketch.</desc>
    <defs>
        <polygon id="path-1" points="0.000432653061 0.148939024 52.4646639 0.148939024 52.4646639 58.28038 0.000432653061 58.28038"></polygon>
        <polygon id="path-3" points="0 58.850989 211.286844 58.850989 211.286844 0.719440244 0 0.719440244"></polygon>
    </defs>
    <g id="Page-1" stroke="none" stroke-width="1" fill="none" fill-rule="evenodd">
        <g id="Desktop-HD-Copy" transform="translate(-72.000000, -21.000000)">
            <g id="Page-1" transform="translate(72.000000, 21.000000)">
                <g id="Group-3" transform="translate(0.000000, 0.570501)">
                    <mask id="mask-2" fill="black">
                        <use xlink:href="#path-1"></use>
                    </mask>
                    <g id="Clip-2"></g>
                    <path d="M48.8065823,46.4352305 L29.8909905,57.3322427 C27.6952762,58.5957061 24.7719837,58.5971451 22.5748272,57.3322427 L3.65995646,46.4352305 C1.46352109,45.170328 0.000432653061,42.6426817 0.000432653061,40.1135963 L0.000432653061,18.319572 C0.000432653061,15.788328 1.4628,13.2606817 3.65923537,11.9950598 L22.5748272,1.09876707 C24.7719837,-0.168293902 27.6952762,-0.16757439 29.8909905,1.09876707 L48.8073034,11.9950598 C51.0030177,13.2599622 52.4646639,15.7904866 52.4646639,18.3188524 L52.4646639,40.1135963 C52.4646639,42.6434012 51.0030177,45.170328 48.8065823,46.4352305" id="Fill-1" fill="#FEFEFE" mask="url(#mask-2)"></path>
                </g>
                <path d="M76.5780054,18.452178 L76.5780054,19.362361 C76.5780054,20.3351415 76.541951,21.1892024 76.4676789,21.9166293 C76.394849,22.6462146 76.2232299,23.3628488 75.9557061,24.0672512 C75.6838558,24.7680561 75.2814884,25.3925927 74.7522095,25.9300683 C73.6179374,27.0633 72.0596653,27.6295561 70.0788354,27.6295561 L63.7447946,27.6295561 L63.7447946,9.52303171 L70.0788354,9.52303171 C72.0596653,9.52303171 73.6179374,10.0892878 74.7522095,11.223239 C75.2814884,11.7628732 75.6838558,12.3651049 75.9557061,13.0378488 C76.2232299,13.7062756 76.394849,14.3905317 76.4676789,15.0855805 C76.541951,15.7827878 76.5780054,16.5972756 76.5780054,17.5348 L76.5780054,18.452178 Z M73.8472435,18.4593732 C73.8472435,17.4175195 73.8277741,16.6131049 73.7982095,16.0439707 C73.7621551,15.4777146 73.6749034,14.9474341 73.532849,14.4502512 C73.3850259,13.9545073 73.1694204,13.5472634 72.8802639,13.2220439 C72.1382639,12.4039585 71.1164816,11.9923976 69.8156381,11.9923976 L66.5015156,11.9923976 L66.5015156,25.1587512 L69.8156381,25.1587512 C71.1251347,25.1587512 72.1476381,24.7543854 72.8802639,23.9420561 C73.3078694,23.4736537 73.5797197,22.8332878 73.6871619,22.021678 C73.7931619,21.2086293 73.8472435,20.0243122 73.8472435,18.4593732 L73.8472435,18.4593732 Z" id="Fill-4" fill="#FEFEFE"></path>
                <polygon id="Fill-6" fill="#FEFEFE" points="90.7036231 27.6294841 79.1676503 27.6294841 79.1676503 9.52295976 90.7036231 9.52295976 90.7036231 11.9930451 81.9250925 11.9930451 81.9250925 17.2713866 89.4186435 17.2713866 89.4186435 19.7206061 81.9250925 19.7206061 81.9250925 25.1586793 90.7036231 25.1586793"></polygon>
                <polygon id="Fill-8" fill="#FEFEFE" points="109.639982 27.6294841 106.885424 27.6294841 106.885424 15.5222524 102.747098 24.3513866 100.722282 24.3513866 96.4714653 15.5222524 96.4714653 27.6294841 93.7161864 27.6294841 93.7161864 9.52295976 96.4714653 9.52295976 101.73469 20.7898012 106.885424 9.52295976 109.639982 9.52295976"></polygon>
                <path d="M125.18701,18.5695305 C125.18701,20.0035183 125.160329,21.0964573 125.108411,21.8541037 C125.054329,22.6124695 124.906506,23.3219085 124.659173,23.9881768 C124.411118,24.6544451 124.016683,25.2739451 123.470098,25.8445183 C122.17286,27.1317256 120.590071,27.7785671 118.710193,27.7785671 C116.829595,27.7785671 115.251132,27.1374817 113.971921,25.8560305 C113.410193,25.2753841 113.008547,24.6558841 112.762656,24.0040061 C112.513159,23.350689 112.362452,22.639811 112.304765,21.8749695 C112.247078,21.108689 112.216071,20.0092744 112.216071,18.5760061 C112.216071,17.4765915 112.231214,16.6023841 112.26222,15.9562622 C112.288901,15.3094207 112.356683,14.7187012 112.458356,14.1805061 C112.557867,13.6415915 112.728765,13.1379329 112.962397,12.671689 C113.200356,12.2004085 113.535663,11.7485549 113.971921,11.2988598 C115.251132,10.013811 116.829595,9.37344512 118.710193,9.37344512 C120.590071,9.37344512 122.17286,10.013811 123.470098,11.2988598 C124.022452,11.8759085 124.419771,12.4954085 124.66422,13.1552012 C124.907948,13.8106768 125.054329,14.5208354 125.108411,15.2827988 C125.160329,16.0426037 125.18701,17.1391402 125.18701,18.5695305 M122.456248,18.5760061 C122.456248,16.7757866 122.385581,15.5101646 122.250737,14.7705061 C122.113731,14.0373232 121.831064,13.434372 121.3912,12.9609329 C121.077527,12.6213232 120.678765,12.3507866 120.199962,12.1478841 C119.719717,11.9464207 119.220003,11.8449695 118.710193,11.8449695 C118.190288,11.8449695 117.690574,11.9464207 117.207445,12.1478841 C116.722873,12.3507866 116.325554,12.6213232 116.012601,12.9609329 C115.576343,13.4466037 115.290071,14.0560305 115.153785,14.7820183 C115.01822,15.5123232 114.948275,16.7757866 114.948275,18.5760061 C114.948275,19.5336768 114.96486,20.3028354 114.990098,20.8777256 C115.019663,21.4504573 115.075186,21.9519573 115.159554,22.3843841 C115.241037,22.8132134 115.34271,23.1492256 115.456642,23.3859451 C115.573459,23.6298598 115.755173,23.8932012 116.012601,24.1925183 C116.342139,24.5429207 116.745227,24.8141768 117.216819,25.0120427 C117.691295,25.210628 118.190288,25.3092012 118.710193,25.3092012 C119.796873,25.3092012 120.691744,24.9350549 121.3912,24.1925183 C121.688288,23.8687378 121.913989,23.5017866 122.064697,23.0902256 C122.218288,22.6743476 122.323567,22.1124085 122.376207,21.403689 C122.428125,20.6920915 122.456248,19.7495305 122.456248,18.5760061" id="Fill-10" fill="#FEFEFE"></path>
                <path d="M140.776365,22.2092549 C140.631426,23.104328 140.368229,23.9029866 139.979562,24.603072 C139.594501,25.3024378 139.127235,25.8895598 138.571997,26.3572427 C138.014596,26.8256451 137.372106,27.1782061 136.653902,27.4199622 C135.932814,27.6617183 135.165576,27.7782793 134.348582,27.7782793 C133.721956,27.7782793 133.12778,27.7070476 132.572541,27.5617061 C132.01514,27.4156451 131.482256,27.1983524 130.969562,26.8990354 C130.459752,26.5997183 130.006188,26.2529134 129.612473,25.8550232 C129.050024,25.2758159 128.647657,24.6555963 128.401045,24.0037183 C128.15299,23.3504012 127.999399,22.6402427 127.943154,21.8746817 C127.884024,21.1091207 127.85446,20.0089866 127.85446,18.5757183 C127.85446,17.4770232 127.872487,16.6020963 127.902052,15.9566939 C127.928011,15.3091329 127.995072,14.7191329 128.09963,14.1809378 C128.201303,13.6420232 128.368596,13.1383646 128.605113,12.6714012 C128.840188,12.2008402 129.174052,11.7482671 129.612473,11.298572 C130.236215,10.6704378 130.951535,10.1905232 131.752664,9.86242561 C132.547303,9.53792561 133.414773,9.37315732 134.348582,9.37315732 C136.033045,9.37315732 137.451426,9.85235244 138.595072,10.8164988 C139.738718,11.776328 140.464854,13.1549134 140.776365,14.9457793 L137.983589,14.9457793 C137.767984,13.9974622 137.349752,13.2405354 136.728895,12.6814744 C136.104433,12.1231329 135.313399,11.8482793 134.348582,11.8482793 C133.817861,11.8482793 133.323195,11.9396573 132.855929,12.1324866 C132.392269,12.3217183 131.997834,12.5872183 131.678392,12.9361817 C131.436106,13.2009622 131.250065,13.4671817 131.120269,13.7348402 C130.98831,14.0053768 130.880868,14.3608159 130.799385,14.8040354 C130.717902,15.2422183 130.660215,15.7394012 130.632093,16.2955841 C130.602528,16.8510476 130.588106,17.6108524 130.588106,18.5757183 C130.588106,19.533389 130.602528,20.2895963 130.632093,20.8371451 C130.660215,21.387572 130.717902,21.8897915 130.799385,22.335889 C130.880868,22.7805476 130.98831,23.1287915 131.120269,23.393572 C131.250065,23.6525963 131.436106,23.9296085 131.678392,24.2159744 C131.997834,24.5563037 132.392269,24.8232427 132.855929,25.0167915 C133.323195,25.2110598 133.817861,25.3096329 134.348582,25.3096329 C134.994678,25.3096329 135.569385,25.1801207 136.068378,24.9254134 C136.559439,24.6699866 136.974065,24.3051939 137.302161,23.8317549 C137.634582,23.3619134 137.866773,22.8208402 138.008827,22.2092549 L140.776365,22.2092549 Z" id="Fill-12" fill="#FEFEFE"></path>
                <path d="M156.836014,27.6294841 L153.643034,27.6294841 L149.854435,20.0170451 L146.436476,20.0170451 L146.436476,27.6294841 L143.677592,27.6294841 L143.677592,9.52295976 L150.684408,9.52295976 C151.791279,9.52295976 152.771238,9.7496061 153.623565,10.1978622 C154.480939,10.6518744 155.133524,11.2771305 155.592136,12.077228 C156.047143,12.8780451 156.280054,13.7925451 156.280054,14.8214476 C156.280054,16.0590085 155.949075,17.1008622 155.282789,17.9340573 C154.62083,18.7658134 153.758408,19.33135 152.691197,19.629228 L156.836014,27.6294841 Z M153.546408,14.8466305 C153.546408,13.9601915 153.270231,13.2622646 152.712109,12.7571671 C152.15615,12.2448744 151.411265,11.9930451 150.478898,11.9930451 L146.436476,11.9930451 L146.436476,17.6577646 L150.478898,17.6577646 C151.404054,17.6577646 152.146054,17.4066549 152.704898,16.9008378 C153.267347,16.3978988 153.546408,15.7129232 153.546408,14.8466305 L153.546408,14.8466305 Z" id="Fill-14" fill="#FEFEFE"></path>
                <path d="M173.553439,27.6294841 L170.639521,27.6294841 L169.404297,23.99235 L162.286433,23.99235 L161.048324,27.6294841 L158.134405,27.6294841 L164.743902,9.52295976 L166.943943,9.52295976 L173.553439,27.6294841 Z M168.635616,21.6568134 L165.906297,13.6198622 L163.099099,21.6568134 L168.635616,21.6568134 Z" id="Fill-16" fill="#FEFEFE"></path>
                <path d="M187.648483,22.2092549 C187.50066,23.104328 187.23602,23.9029866 186.85168,24.603072 C186.465177,25.3024378 185.997912,25.8895598 185.439789,26.3572427 C184.88383,26.8256451 184.24134,27.1782061 183.521694,27.4199622 C182.802048,27.6617183 182.031925,27.7782793 181.216374,27.7782793 C180.59119,27.7782793 179.998456,27.7070476 179.443218,27.5617061 C178.885816,27.4156451 178.35149,27.1983524 177.838796,26.8990354 C177.330429,26.5997183 176.874701,26.2529134 176.481707,25.8550232 C175.920701,25.2758159 175.515449,24.6555963 175.268837,24.0037183 C175.022224,23.3504012 174.868633,22.6402427 174.809503,21.8746817 C174.753259,21.1091207 174.725136,20.0089866 174.725136,18.5757183 C174.725136,17.4770232 174.739558,16.6020963 174.76768,15.9566939 C174.794361,15.3091329 174.864306,14.7191329 174.967422,14.1809378 C175.069095,13.6420232 175.239272,13.1383646 175.471463,12.6714012 C175.706537,12.2008402 176.041844,11.7482671 176.481707,11.298572 C177.108333,10.6704378 177.817884,10.1905232 178.621898,9.86242561 C179.41798,9.53792561 180.284007,9.37315732 181.216374,9.37315732 C182.906605,9.37315732 184.323544,9.85235244 185.465748,10.8164988 C186.607952,11.776328 187.331925,13.1549134 187.648483,14.9457793 L184.852823,14.9457793 C184.635776,13.9974622 184.220429,13.2405354 183.595245,12.6814744 C182.974388,12.1231329 182.184075,11.8482793 181.216374,11.8482793 C180.688537,11.8482793 180.192429,11.9396573 179.726605,12.1324866 C179.261503,12.3217183 178.869952,12.5872183 178.546184,12.9361817 C178.30534,13.2009622 178.122184,13.4671817 177.988782,13.7348402 C177.858986,14.0053768 177.751544,14.3608159 177.667177,14.8040354 C177.585694,15.2422183 177.529449,15.7394012 177.499884,16.2955841 C177.468878,16.8510476 177.45734,17.6108524 177.45734,18.5757183 C177.45734,19.533389 177.468878,20.2895963 177.499884,20.8371451 C177.529449,21.387572 177.585694,21.8897915 177.667177,22.335889 C177.751544,22.7805476 177.858986,23.1287915 177.988782,23.393572 C178.122184,23.6525963 178.30534,23.9296085 178.546184,24.2159744 C178.869952,24.5563037 179.261503,24.8232427 179.726605,25.0167915 C180.192429,25.2110598 180.688537,25.3096329 181.216374,25.3096329 C181.868238,25.3096329 182.440061,25.1801207 182.934728,24.9254134 C183.430116,24.6699866 183.843299,24.3051939 184.171395,23.8317549 C184.502374,23.3619134 184.736007,22.8208402 184.876619,22.2092549 L187.648483,22.2092549 Z" id="Fill-18" fill="#FEFEFE"></path>
                <mask id="mask-4" fill="white">
                    <use xlink:href="#path-3"></use>
                </mask>
                <g id="Clip-21"></g>
                <polygon id="Fill-20" fill="#FEFEFE" mask="url(#mask-4)" points="190.549782 27.6291963 193.305782 27.6291963 193.305782 9.52267195 190.549782 9.52267195"></polygon>
                <path d="M211.286627,27.6294841 L208.371267,27.6294841 L207.136042,23.99235 L200.01962,23.99235 L198.781512,27.6294841 L195.864709,27.6294841 L202.475648,9.52295976 L204.677131,9.52295976 L211.286627,27.6294841 Z M206.367362,21.6568134 L203.640205,13.6198622 L200.832287,21.6568134 L206.367362,21.6568134 Z" id="Fill-22" fill="#FEFEFE" mask="url(#mask-4)"></path>
                <polygon id="Fill-23" fill="#FEFEFE" mask="url(#mask-4)" points="75.2801905 50.3791646 63.7449388 50.3791646 63.7449388 32.2712012 75.2801905 32.2712012 75.2801905 34.7420061 66.5016599 34.7420061 66.5016599 40.0210671 73.9944898 40.0210671 73.9944898 42.4674085 66.5016599 42.4674085 66.5016599 47.9054817 75.2801905 47.9054817"></polygon>
                <polygon id="Fill-24" fill="#FEFEFE" mask="url(#mask-4)" points="91.8831796 50.3791646 89.375234 50.3791646 81.0538735 37.6337256 81.0538735 50.3791646 78.2935469 50.3791646 78.2935469 32.2712012 80.8151932 32.2712012 89.1495333 44.9907378 89.1495333 32.2712012 91.8831796 32.2712012"></polygon>
                <path d="M115.818484,50.3791646 L112.631273,50.3791646 L108.83258,42.7660061 L105.421831,42.7660061 L105.421831,50.3791646 L102.663668,50.3791646 L102.663668,32.2712012 L109.666879,32.2712012 C110.770865,32.2712012 111.752267,32.4949695 112.604593,32.9475427 C113.459804,33.4008354 114.115995,34.0260915 114.576049,34.8269085 C115.031056,35.622689 115.262525,36.5400671 115.262525,37.5689695 C115.262525,38.8108476 114.931546,39.8483841 114.266702,40.6794207 C113.601859,41.5147744 112.737273,42.08175 111.676552,42.378189 L115.818484,50.3791646 Z M112.5296,37.5941524 C112.5296,36.7091524 112.252702,36.0119451 111.693137,35.504689 C111.13862,34.9959939 110.395899,34.7420061 109.464974,34.7420061 L105.421831,34.7420061 L105.421831,40.4060061 L109.464974,40.4060061 C110.385083,40.4060061 111.127083,40.1534573 111.687369,39.6505183 C112.248376,39.1461402 112.5296,38.4626037 112.5296,37.5941524 L112.5296,37.5941524 Z" id="Fill-25" fill="#FEFEFE" mask="url(#mask-4)"></path>
                <polygon id="Fill-26" fill="#FEFEFE" mask="url(#mask-4)" points="130.061423 50.3791646 118.524008 50.3791646 118.524008 32.2712012 130.061423 32.2712012 130.061423 34.7420061 121.278566 34.7420061 121.278566 40.0210671 128.772838 40.0210671 128.772838 42.4674085 121.278566 42.4674085 121.278566 47.9054817 130.061423 47.9054817"></polygon>
                <path d="M145.904241,41.201139 L145.904241,42.1055659 C145.904241,43.084822 145.87035,43.9367244 145.79752,44.6663098 C145.722527,45.3937366 145.550907,46.1118098 145.280499,46.8147732 C145.014418,47.5184561 144.611329,48.1422732 144.073397,48.6790293 C142.946336,49.8137 141.390227,50.3792366 139.411561,50.3792366 L133.07103,50.3792366 L133.07103,32.2712732 L139.411561,32.2712732 C141.390227,32.2712732 142.946336,32.8396878 144.073397,33.9743585 C144.611329,34.5111146 145.014418,35.1133463 145.280499,35.7860902 C145.550907,36.4588341 145.722527,37.1387732 145.79752,37.8345415 C145.87035,38.5288707 145.904241,39.344078 145.904241,40.2844805 L145.904241,41.201139 Z M143.174921,41.2076146 C143.174921,40.164322 143.157615,39.3577488 143.125166,38.7929317 C143.093438,38.2266756 143.004744,37.6971146 142.860527,37.1992122 C142.715588,36.7034683 142.49854,36.2933463 142.211547,35.9695659 C141.469547,35.1522 140.447044,34.7413585 139.144037,34.7413585 L135.82703,34.7413585 L135.82703,47.9055537 L139.144037,47.9055537 C140.454976,47.9055537 141.474595,47.5033463 142.211547,46.689578 C142.638431,46.2190171 142.908839,45.5793707 143.015561,44.7699195 C143.123003,43.9597488 143.174921,42.7711146 143.174921,41.2076146 L143.174921,41.2076146 Z" id="Fill-27" fill="#FEFEFE" mask="url(#mask-4)"></path>
                <path d="M12.5524912,24.102939 C12.5524912,22.7833537 13.3154027,21.4652073 14.4597701,20.8054146 L19.3927361,17.9633415 L13.8728041,8.42404878 L4.96015102,13.5592073 C2.8913483,14.7507195 1.5133483,17.1323049 1.5133483,19.5174878 L1.5133483,29.7856463 L12.5524912,29.7849268 L12.5524912,24.102939 Z" id="Fill-28" fill="#F4CD46" mask="url(#mask-4)"></path>
                <path d="M24.3247646,15.1223476 C25.4705741,14.4625549 26.9949551,14.4639939 28.1407646,15.1230671 L33.0722884,17.9637012 L38.5922204,8.42368902 L29.6802884,3.29068902 C27.6107646,2.09845732 24.8554857,2.09701829 22.7859619,3.28925 L13.8725878,8.42368902 L19.3925197,17.9629817 L24.3247646,15.1223476 Z" id="Fill-29" fill="#53C1B4" mask="url(#mask-4)"></path>
                <path d="M38.0050381,20.8053427 C39.1494054,21.4644159 39.9130381,22.7832817 39.9130381,24.1028671 L39.9130381,29.7848549 L50.952181,29.7841354 L50.952181,19.5174159 C50.952181,17.1329524 49.5734599,14.7492085 47.5053782,13.5591354 L38.5920041,8.42397683 L33.0727932,17.963989 L38.0050381,20.8053427 Z" id="Fill-30" fill="#3CA2DA" mask="url(#mask-4)"></path>
                <path d="M14.4604912,38.7643671 C13.3154027,38.1052939 12.5524912,36.7878671 12.5524912,35.4682817 L12.5524912,29.7855744 L1.5133483,29.7855744 L1.5133483,40.0544524 C1.5133483,42.4389159 2.89206939,44.8197817 4.96087211,46.0112939 L13.8735252,51.1457329 L19.3927361,41.6064402 L14.4604912,38.7643671 Z" id="Fill-31" fill="#F06F56" mask="url(#mask-4)"></path>
                <path d="M28.1404041,44.4480817 C26.9953156,45.1078744 25.4702136,45.1078744 24.3244041,44.4480817 L19.3928803,41.606728 L13.8736694,51.1460207 L22.7856014,56.2797402 C24.8558463,57.473411 27.6104041,57.471972 29.6799279,56.2797402 L38.592581,51.1467402 L33.072649,41.606728 L28.1404041,44.4480817 Z" id="Fill-32" fill="#E91B3B" mask="url(#mask-4)"></path>
                <path d="M39.9126776,29.7852146 L39.9126776,35.4686415 C39.9126776,36.7875073 39.149766,38.1049341 38.0046776,38.7654463 L33.0724327,41.6068 L38.5923646,51.1460927 L47.5042966,46.0116537 C49.5738204,44.8201415 50.9525415,42.4392756 50.9525415,40.0540927 L50.9525415,29.7844951 L39.9126776,29.7852146 Z" id="Fill-33" fill="#77549E" mask="url(#mask-4)"></path>
                <polygon id="Fill-34" fill="#FEFEFE" mask="url(#mask-4)" points="52.4655293 29.1542744 52.4648082 30.4177378 -0.000144217687 30.4177378 -0.000144217687 29.1528354"></polygon>
                <polygon id="Fill-35" fill="#FEFEFE" mask="url(#mask-4)" points="38.8018408 6.80090122 39.8986163 7.43335244 13.6661401 52.7705354 12.5679224 52.1380841"></polygon>
                <polygon id="Fill-36" fill="#FEFEFE" mask="url(#mask-4)" points="12.5690762 7.43256098 13.6658517 6.80082927 39.899049 52.1380122 38.8015524 52.7704634"></polygon>
            </g>
        </g>
    </g>
</svg>