<svg xmlns="http://www.w3.org/2000/svg" xmlns:xlink="http://www.w3.org/1999/xlink" width="106" height="30" viewBox="0 0 106 30">
    <defs>
        <path id="a" d="M0 .076h25.737v29.558H0z"/>
        <path id="c" d="M0 29h106V0H0z"/>
    </defs>
    <g fill="none" fill-rule="evenodd">
        <mask id="b" fill="#fff">
            <use xlink:href="#a"/>
        </mask>
        <path fill="#FEFEFE" d="M23.943 23.611l-9.28 5.541a3.58 3.58 0 0 1-3.589 0l-9.279-5.54C.718 22.967 0 21.681 0 20.396V9.315c0-1.287.718-2.572 1.795-3.216l9.28-5.54a3.575 3.575 0 0 1 3.589 0l9.28 5.54c1.076.643 1.793 1.93 1.793 3.216v11.082c0 1.286-.717 2.571-1.794 3.214" mask="url(#b)"/>
        <path fill="#FEFEFE" d="M38 9.438v.453c0 .483-.017.908-.052 1.27a4.386 4.386 0 0 1-.239 1.068 2.726 2.726 0 0 1-.563.926c-.53.564-1.258.845-2.185.845H32V5h2.961c.927 0 1.655.281 2.185.845.248.268.436.568.563.902.125.332.205.672.24 1.018.034.346.051.751.051 1.217v.456zm-1.277.004c0-.518-.009-.918-.023-1.2a3.956 3.956 0 0 0-.124-.793 1.615 1.615 0 0 0-.305-.61c-.347-.407-.824-.612-1.433-.612h-1.55v6.545h1.55c.613 0 1.09-.201 1.433-.605.2-.233.327-.551.377-.954.05-.405.075-.993.075-1.771zM46 14h-6V5h6v1.228h-4.566V8.85h3.898v1.218h-3.898v2.703H46zM55 14h-1.384V7.982l-2.079 4.389H50.52l-2.136-4.389V14H47V5h1.384l2.644 5.6L53.616 5H55zM62 9.497c0 .701-.012 1.235-.036 1.606-.025.37-.094.718-.208 1.044a2.663 2.663 0 0 1-.55.907c-.6.63-1.332.946-2.202.946-.87 0-1.6-.313-2.192-.94a2.672 2.672 0 0 1-.56-.906 3.862 3.862 0 0 1-.211-1.04A24.262 24.262 0 0 1 56 9.5c0-.538.007-.965.021-1.281.013-.316.044-.605.091-.868.046-.264.125-.51.233-.738.11-.23.265-.452.467-.671.592-.629 1.322-.942 2.192-.942.87 0 1.602.313 2.202.942.255.282.44.585.552.907.113.32.18.668.206 1.04.024.372.036.908.036 1.608m-1.263.003c0-.88-.033-1.5-.095-1.86-.064-.36-.194-.654-.398-.886a1.688 1.688 0 0 0-1.935-.398c-.224.1-.408.232-.553.398a1.845 1.845 0 0 0-.397.89c-.063.358-.095.976-.095 1.856 0 .468.008.844.02 1.126.013.28.039.525.078.736.037.21.084.374.137.49.054.12.138.248.257.394a1.69 1.69 0 0 0 1.248.546c.503 0 .917-.182 1.24-.546.138-.158.242-.337.312-.539.07-.203.12-.478.144-.824.024-.348.037-.81.037-1.383M70 11.277c-.067.437-.19.828-.37 1.17a2.97 2.97 0 0 1-.654.858 2.683 2.683 0 0 1-.89.52 3.189 3.189 0 0 1-1.07.175c-.292 0-.567-.035-.825-.106a2.867 2.867 0 0 1-.745-.324 3.084 3.084 0 0 1-.63-.51 2.666 2.666 0 0 1-.562-.906 3.847 3.847 0 0 1-.213-1.04A23.711 23.711 0 0 1 64 9.5c0-.537.008-.965.022-1.28a6.06 6.06 0 0 1 .092-.869c.047-.264.125-.51.235-.738.109-.23.264-.452.467-.671a2.98 2.98 0 0 1 .994-.703c.369-.158.772-.239 1.205-.239.783 0 1.441.234 1.972.706.531.47.868 1.143 1.013 2.019h-1.297c-.1-.464-.294-.834-.582-1.107-.29-.273-.658-.408-1.106-.408-.246 0-.476.045-.693.14a1.493 1.493 0 0 0-.546.392c-.113.13-.2.26-.26.39a2.142 2.142 0 0 0-.149.524 5.82 5.82 0 0 0-.077.729c-.014.272-.02.643-.02 1.115 0 .468.006.838.02 1.106.013.269.04.515.077.733.038.217.088.387.15.517.06.127.146.262.259.402.148.166.331.297.546.392.217.095.447.143.693.143.3 0 .567-.063.799-.188.228-.125.42-.303.573-.535a2.29 2.29 0 0 0 .328-.793H70zM79 14h-1.699l-2.015-3.784h-1.818V14H72V5h3.727c.59 0 1.11.113 1.564.335.456.226.803.537 1.047.935.242.398.366.852.366 1.364 0 .615-.176 1.133-.53 1.547a2.63 2.63 0 0 1-1.379.842L79 14zm-1.75-6.354c0-.44-.147-.787-.444-1.038-.296-.255-.692-.38-1.188-.38h-2.15v2.815h2.15c.492 0 .887-.124 1.184-.376.3-.25.448-.59.448-1.02zM87 14h-1.512l-.64-1.808h-3.694L80.512 14H79l3.43-9h1.14L87 14zm-2.552-2.969l-1.416-3.995-1.456 3.995h2.872zM93 11.277a3.785 3.785 0 0 1-.37 1.17c-.18.342-.396.63-.655.858a2.669 2.669 0 0 1-.891.52 3.188 3.188 0 0 1-1.07.175 3.09 3.09 0 0 1-.824-.106 2.87 2.87 0 0 1-.744-.324 3.093 3.093 0 0 1-.63-.51 2.679 2.679 0 0 1-.564-.906 3.925 3.925 0 0 1-.213-1.04C87.013 10.738 87 10.2 87 9.5c0-.537.007-.965.02-1.28.012-.317.045-.606.092-.869.048-.264.127-.51.235-.738.109-.23.264-.452.469-.671.29-.308.62-.542.993-.703.37-.158.772-.239 1.205-.239.784 0 1.442.234 1.973.706.53.47.866 1.143 1.013 2.019h-1.298c-.1-.464-.294-.834-.584-1.107-.288-.273-.655-.408-1.104-.408a1.71 1.71 0 0 0-.692.14 1.51 1.51 0 0 0-.548.392c-.112.13-.197.26-.259.39a2.25 2.25 0 0 0-.15.524 5.949 5.949 0 0 0-.077.729c-.014.272-.02.643-.02 1.115 0 .468.006.838.02 1.106.014.269.04.515.078.733.04.217.089.387.15.517.061.127.146.262.258.402.15.166.332.297.548.392a1.7 1.7 0 0 0 .692.143c.302 0 .568-.063.798-.188.23-.125.421-.303.574-.535a2.29 2.29 0 0 0 .327-.793H93z"/>
        <mask id="d" fill="#fff">
            <use xlink:href="#c"/>
        </mask>
        <path fill="#FEFEFE" d="M95 14h1V5h-1zM106 14h-1.512l-.641-1.808h-3.692L99.513 14H98l3.43-9h1.141L106 14zm-2.552-2.969l-1.415-3.995-1.456 3.995h2.871zM38 25h-6v-9h6v1.228h-4.566v2.624h3.897v1.216h-3.897v2.703H38zM46 25h-1.292l-4.286-6.335V25H39v-9h1.299l4.293 6.322V16H46zM58 25h-1.696l-2.021-3.784h-1.815V25H51v-9h3.727c.587 0 1.11.111 1.563.336.455.225.804.536 1.049.934.242.396.365.852.365 1.363 0 .617-.176 1.133-.53 1.546a2.636 2.636 0 0 1-1.378.844L58 25zm-1.75-6.354c0-.44-.147-.787-.445-1.039-.295-.253-.69-.379-1.186-.379h-2.151v2.815h2.151c.49 0 .885-.125 1.183-.375.298-.251.448-.59.448-1.022zM65 25h-6v-9h6v1.228h-4.568v2.624h3.898v1.216h-3.898v2.703H65zM73 20.438v.45c0 .487-.016.91-.05 1.273a4.37 4.37 0 0 1-.242 1.067c-.124.35-.312.66-.564.927-.527.564-1.254.845-2.18.845H67v-9h2.964c.926 0 1.653.283 2.18.846.252.267.44.567.564.9.127.335.207.673.242 1.019.034.345.05.75.05 1.218v.455zm-1.276.004c0-.519-.008-.92-.023-1.2a3.754 3.754 0 0 0-.124-.793 1.606 1.606 0 0 0-.303-.61c-.347-.407-.825-.611-1.435-.611h-1.55v6.543h1.55c.613 0 1.09-.2 1.435-.605.2-.234.326-.552.375-.954.05-.403.075-.993.075-1.77z" mask="url(#d)"/>
        <path fill="#F4CD46" d="M6.557 12.074c0-.68.384-1.359.96-1.698L10 8.912 7.221 4 2.735 6.644C1.694 7.258 1 8.484 1 9.712V15h5.557v-2.926z" mask="url(#d)"/>
        <path fill="#53C1B4" d="M12.074 7.54a1.815 1.815 0 0 1 1.852 0L16.32 9 19 4.098 14.674 1.46a3.277 3.277 0 0 0-3.347 0L7 4.097 9.68 9l2.394-1.46z" mask="url(#d)"/>
        <path fill="#3CA2DA" d="M19.483 10.376c.576.34.96 1.018.96 1.698V15H26V9.713c0-1.228-.694-2.456-1.735-3.069L19.778 4 17 8.913l2.483 1.463z" mask="url(#d)"/>
        <path fill="#F06F56" d="M7.517 19.624a2.02 2.02 0 0 1-.96-1.698V15H1v5.288c0 1.228.694 2.454 1.735 3.068L7.222 26 10 21.087l-2.483-1.463z" mask="url(#d)"/>
        <path fill="#E91B3B" d="M13.926 22.46c-.556.34-1.296.34-1.853 0L9.68 21 7 25.902l4.326 2.638a3.275 3.275 0 0 0 3.347 0L19 25.902 16.32 21l-2.394 1.46z" mask="url(#d)"/>
        <path fill="#77549E" d="M20.443 15v2.927c0 .68-.384 1.358-.96 1.698L17 21.088 19.778 26l4.486-2.644c1.042-.614 1.736-1.84 1.736-3.068V15h-5.557z" mask="url(#d)"/>
        <path fill="#FEFEFE" d="M26 15.001V16H0v-1z" mask="url(#d)"/>
        <path fill="#FEFEFE" d="M19.438 3l.562.316L6.563 26 6 25.684z" mask="url(#d)"/>
        <path fill="#FEFEFE" d="M6 3.316L6.562 3 20 25.684l-.562.316z" mask="url(#d)"/>
    </g>
</svg>
