<?xml version="1.0" encoding="UTF-8"?>
<svg width="19px" height="14px" viewBox="0 0 19 14" version="1.1" xmlns="http://www.w3.org/2000/svg" xmlns:xlink="http://www.w3.org/1999/xlink">
    <!-- Generator: Sketch 46.1 (44463) - http://www.bohemiancoding.com/sketch -->
    <title>Menu</title>
    <desc>Created with Sketch.</desc>
    <defs></defs>
    <g id="Web" stroke="none" stroke-width="1" fill="none" fill-rule="evenodd">
        <g id="Mobile" transform="translate(-372.000000, -25.000000)" fill-rule="nonzero" fill="#FFFFFF">
            <g id="Menu" transform="translate(372.000000, 25.000000)">
                <path d="M0.903225806,0.324669032 C0.406451613,0.324669032 0,0.731120645 0,1.22789484 C0,1.72466903 0.406451613,2.13112065 0.903225806,2.13112065 L17.1612903,2.13112065 C17.6580645,2.13112065 18.0645161,1.72466903 18.0645161,1.22789484 C18.0645161,0.731120645 17.6580645,0.324669032 17.1612903,0.324669032 L0.903225806,0.324669032 Z M0.903225806,6.19563677 C0.406451613,6.19563677 0,6.60208839 0,7.09886258 C0,7.59563677 0.406451613,8.00208839 0.903225806,8.00208839 L17.1612903,8.00208839 C17.6580645,8.00208839 18.0645161,7.59563677 18.0645161,7.09886258 C18.0645161,6.60208839 17.6580645,6.19563677 17.1612903,6.19563677 L0.903225806,6.19563677 Z M0.903225806,12.0666045 C0.406451613,12.0666045 0,12.4730561 0,12.9698303 C0,13.4666045 0.406451613,13.8730561 0.903225806,13.8730561 L17.1612903,13.8730561 C17.6580645,13.8730561 18.0645161,13.4666045 18.0645161,12.9698303 C18.0645161,12.4730561 17.6580645,12.0666045 17.1612903,12.0666045 L0.903225806,12.0666045 Z" id="Shape"></path>
            </g>
        </g>
    </g>
</svg>