<?xml version="1.0" encoding="UTF-8"?>
<svg width="371px" height="305px" viewBox="0 0 371 305" version="1.1" xmlns="http://www.w3.org/2000/svg" xmlns:xlink="http://www.w3.org/1999/xlink">
    <!-- Generator: Sketch 46.1 (44463) - http://www.bohemiancoding.com/sketch -->
    <title>Group 4</title>
    <desc>Created with Sketch.</desc>
    <defs></defs>
    <g id="Page-1" stroke="none" stroke-width="1" fill="none" fill-rule="evenodd">
        <g id="Desktop-HD-Copy" transform="translate(-92.000000, -2559.000000)">
            <g id="Group-4" transform="translate(92.000000, 2559.000000)">
                <polygon id="Panel" fill="#FFFFFF" points="0.283485066 0.618434 370.721163 0.618434 370.721163 304.190324 0.283485066 304.190324"></polygon>
                <g id="Group" transform="translate(134.000000, 107.000000)">
                    <rect id="Rectangle-58" fill="#CACCCC" x="0" y="0" width="99" height="90"></rect>
                    <polygon id="Triangle-1" fill="#F0F2F2" points="27 58 51 90 3 90"></polygon>
                    <polygon id="Triangle-2" fill="#E3E5E6" points="62.5 43 98 90 27 90"></polygon>
                </g>
                <polygon id="Panel-Copy" fill-opacity="0.819999993" fill="#000000" points="0.283485066 0.618434 370.721163 0.618434 370.721163 304.190324 0.283485066 304.190324"></polygon>
                <text id="269" font-family="Dosis-Regular, Dosis" font-size="20" font-weight="normal" line-spacing="48" fill="#FFFFFF">
                    <tspan x="310" y="249">269</tspan>
                </text>
                <path d="M278.9672,252.959432 C278.6592,249.502544 276.271325,246.995192 273.280625,246.995192 C271.2895,246.995192 269.4656,248.092664 268.43925,249.85208 C267.42205,248.069624 265.67295,246.99416 263.713725,246.99416 C260.72375,246.99416 258.3348,249.502544 258.02825,252.959432 C258.00405,253.111496 257.904675,253.915856 258.206825,255.226304 C258.6428,257.116448 259.648625,258.836288 261.115375,260.197304 L268.4341,266.99996 L275.878975,260.19764 C277.34645,258.836288 278.352275,257.116448 278.787525,255.226304 C279.089675,253.916192 278.98995,253.111832 278.9672,252.959432 Z" id="like" fill="#E84A5F"></path>
                <text id="A-wonderful-serenity" font-family="Dosis-Regular, Dosis" font-size="24" font-weight="normal" line-spacing="32" fill="#FFFFFF">
                    <tspan x="29" y="83">A wonderful serenity </tspan>
                    <tspan x="29" y="116">has taken possession of my entire </tspan>
                    <tspan x="29" y="148">soul, like these.</tspan>
                </text>
                <text id="14:20-PM,-Tuesday" font-family="Dosis-Regular, Dosis" font-size="20" font-weight="normal" fill="#FFFFFF">
                    <tspan x="30" y="261">14:20 PM, Tuesday</tspan>
                </text>
            </g>
        </g>
    </g>
</svg>