<?xml version="1.0" encoding="UTF-8"?>
<svg width="347px" height="49px" viewBox="0 0 347 49" version="1.1" xmlns="http://www.w3.org/2000/svg" xmlns:xlink="http://www.w3.org/1999/xlink">
    <!-- Generator: Sketch 46.2 (44496) - http://www.bohemiancoding.com/sketch -->
    <title>Page 1</title>
    <desc>Created with Sketch.</desc>
    <defs>
        <polygon id="path-1" points="0.000792029304 0.499106871 22.7340131 0.499106871 22.7340131 23.4072001 0.000792029304 23.4072001"></polygon>
        <polygon id="path-3" points="0.838165011 0.499106871 23.5733662 0.499106871 23.5733662 23.4072001 0.838165011 23.4072001"></polygon>
        <polygon id="path-5" points="24.514891 32.8329279 0.417399443 32.8329279 0.417399443 0.0028694132 24.514891 0.0028694132 24.514891 32.8329279"></polygon>
        <polygon id="path-7" points="21.7808059 0.0932654302 21.7808059 31.4771397 0.576795341 31.4771397 0.576795341 0.0932654302 21.7808059 0.0932654302"></polygon>
    </defs>
    <g id="Web" stroke="none" stroke-width="1" fill="none" fill-rule="evenodd">
        <g id="AboutUs" transform="translate(-546.000000, -1699.000000)">
            <g id="Page-1" transform="translate(546.000000, 1699.000000)">
                <g id="Group-3" transform="translate(0.000000, 0.014965)">
                    <mask id="mask-2" fill="white">
                        <use xlink:href="#path-1"></use>
                    </mask>
                    <g id="Clip-2"></g>
                    <path d="M22.7340131,11.9522556 C22.7340131,18.2793117 17.6452248,23.4072001 11.3683926,23.4072001 C5.08958031,23.4072001 0.000792029304,18.2793117 0.000792029304,11.9522556 C0.000792029304,5.62719482 5.08958031,0.497311113 11.3683926,0.497311113 C17.6452248,0.497311113 22.7340131,5.62719482 22.7340131,11.9522556" id="Fill-1" fill="#F2A900" mask="url(#mask-2)"></path>
                </g>
                <g id="Group-6" transform="translate(21.780806, 0.014965)">
                    <mask id="mask-4" fill="white">
                        <use xlink:href="#path-3"></use>
                    </mask>
                    <g id="Clip-5"></g>
                    <path d="M23.5733662,11.9522556 C23.5733662,18.2793117 18.4845779,23.4072001 12.2057656,23.4072001 C5.92695329,23.4072001 0.838165011,18.2793117 0.838165011,11.9522556 C0.838165011,5.62719482 5.92695329,0.497311113 12.2057656,0.497311113 C18.4845779,0.497311113 23.5733662,5.62719482 23.5733662,11.9522556" id="Fill-4" fill="#DD0A4F" mask="url(#mask-4)"></path>
                </g>
                <path d="M22.7340131,34.7599859 C22.7340131,41.087042 17.6452248,46.2149304 11.3683926,46.2149304 C5.08958031,46.2149304 0.000792029304,41.087042 0.000792029304,34.7599859 C0.000792029304,28.4349251 5.08958031,23.3050414 11.3683926,23.3050414 C17.6452248,23.3050414 22.7340131,28.4349251 22.7340131,34.7599859" id="Fill-7" fill="#8156A6"></path>
                <path d="M45.354172,34.7599859 C45.354172,41.087042 40.2653838,46.2149304 33.9865715,46.2149304 C27.7077592,46.2149304 22.6189709,41.087042 22.6189709,34.7599859 C22.6189709,28.4349251 27.7077592,23.3050414 33.9865715,23.3050414 C40.2653838,23.3050414 45.354172,28.4349251 45.354172,34.7599859" id="Fill-9" fill="#20968E"></path>
                <path d="M14.3729558,34.7170873 L22.027919,34.7170873 C24.0159126,34.7170873 25.8276796,34.2541806 27.4652002,33.326372 C29.1027208,32.3985634 30.3917485,31.1036219 31.3283231,29.4455382 C32.2609376,27.7874544 32.730215,25.9078937 32.730215,23.8028656 C32.730215,21.7137998 32.2470771,19.8342391 31.2827814,18.1601931 C30.3204658,16.4881423 29.0037171,15.1772385 27.3364954,14.2254865 C25.6672937,13.2757297 23.8258255,12.8008513 21.812091,12.8008513 L14.3729558,12.8008513 L14.3729558,34.7170873 Z M30.2076016,10.0732936 C32.6569523,11.4241031 34.5736632,13.2956826 35.9597145,15.6820462 C37.3437857,18.0724004 38.0368113,20.764043 38.0368113,23.7589693 C38.0368113,26.7558908 37.3378455,29.4435429 35.9379337,31.8239206 C34.5380219,34.2062937 32.6054704,36.0778732 30.1422592,37.4346686 C27.677068,38.7934593 24.8871448,39.4738522 21.7665493,39.4738522 L9.11190113,39.4738522 L9.11190113,8.04608164 L21.8992142,8.04608164 C24.9861485,8.04608164 27.7562709,8.72248404 30.2076016,10.0732936 L30.2076016,10.0732936 Z" id="Fill-11" fill="#FFFFFF"></path>
                <path d="M63.5344127,34.7170873 L71.1893759,34.7170873 C73.1753894,34.7170873 74.9891365,34.2541806 76.6266571,33.326372 C78.2641777,32.3985634 79.5532054,31.1036219 80.4877999,29.4455382 C81.4223945,27.7874544 81.8916719,25.9078937 81.8916719,23.8028656 C81.8916719,21.7137998 81.408534,19.8342391 80.4442383,18.1601931 C79.4799427,16.4881423 78.165174,15.1772385 76.4979523,14.2254865 C74.8287506,13.2757297 72.9872824,12.8008513 70.9735479,12.8008513 L63.5344127,12.8008513 L63.5344127,34.7170873 Z M79.3670785,10.0732936 C81.8164291,11.4241031 83.7351201,13.2956826 85.1191913,15.6820462 C86.5052426,18.0724004 87.1962881,20.764043 87.1962881,23.7589693 C87.1962881,26.7558908 86.4973223,29.4435429 85.0993906,31.8239206 C83.6994788,34.2062937 81.7669273,36.0778732 79.3017361,37.4346686 C76.8365448,38.7934593 74.0466216,39.4738522 70.9280062,39.4738522 L58.271378,39.4738522 L58.271378,8.04608164 L71.0606712,8.04608164 C74.1476054,8.04608164 76.9177279,8.72248404 79.3670785,10.0732936 L79.3670785,10.0732936 Z" id="Fill-13" fill="#000000"></path>
                <path d="M105.496917,21.2059992 C104.306893,20.1026053 102.748576,19.551906 100.821964,19.551906 C98.950795,19.551906 97.3984176,20.1026053 96.166812,21.2059992 C94.9352065,22.3093931 94.164958,23.8178303 93.8620068,25.7333061 L107.411648,25.7333061 C107.324525,23.8178303 106.686941,22.3093931 105.496917,21.2059992 M109.171933,18.5981586 C111.029242,20.7231396 111.957896,23.7160706 111.957896,27.5709657 C111.957896,27.9680279 111.928195,28.6105104 111.870773,29.5004086 L93.94913,29.5004086 C94.3689055,31.3580211 95.2302374,32.8185714 96.5370857,33.8840548 C97.841954,34.9515335 99.4299728,35.4842752 101.299162,35.4842752 C102.574329,35.4842752 103.794054,35.2428455 104.954377,34.7619812 C106.1147,34.2791217 107.120577,33.5927429 107.975969,32.7028447 L110.69461,35.6159642 C109.504586,36.9009292 108.082893,37.8945823 106.421611,38.5969235 C104.76033,39.2972693 102.922822,39.6484399 100.909088,39.6484399 C98.5013184,39.6484399 96.38264,39.1396416 94.5589926,38.1240404 C92.7313849,37.1104344 91.3136525,35.6897898 90.3057952,33.8641019 C89.2959578,32.0364187 88.7930192,29.9393718 88.7930192,27.5709657 C88.7930192,25.2065502 89.2959578,23.1055127 90.3057952,21.2718436 C91.3136525,19.4381746 92.7313849,18.003563 94.5589926,16.9660136 C96.38264,15.9284642 98.4577568,15.4096895 100.776423,15.4096895 C104.518761,15.4096895 107.316605,16.4711824 109.171933,18.5981586" id="Fill-15" fill="#000000"></path>
                <path d="M152.423069,17.8858411 C153.967527,19.537939 154.739755,21.7806419 154.739755,24.6139499 L154.739755,39.4728546 L149.607405,39.4728546 L149.607405,26.0625285 C149.607405,24.2348453 149.110407,22.802229 148.11641,21.7646796 C147.124393,20.7271302 145.750223,20.2103508 143.995878,20.2103508 C142.009864,20.2682141 140.427786,20.9944987 139.255582,22.3892045 C138.081399,23.7859057 137.493317,25.5417585 137.493317,27.6587584 L137.493317,39.4728546 L132.382748,39.4728546 L132.382748,26.0625285 C132.382748,24.2348453 131.881789,22.802229 130.881852,21.7646796 C129.879935,20.7271302 128.525565,20.2103508 126.812802,20.2103508 C124.799067,20.2682141 123.195208,20.9944987 122.009144,22.3892045 C120.81912,23.7859057 120.225098,25.5417585 120.225098,27.6587584 L120.225098,39.4728546 L115.13631,39.4728546 L115.13631,15.5852748 L120.225098,15.5852748 L120.225098,20.2103508 C121.805197,17.0099099 124.668383,15.4096895 128.814656,15.4096895 C130.917494,15.4096895 132.675799,15.9105066 134.089571,16.9101456 C135.503343,17.9117798 136.49338,19.3264385 137.057701,21.1521264 C138.509095,17.32317 141.500985,15.4096895 146.039313,15.4096895 C148.752014,15.4096895 150.880592,16.2357384 152.423069,17.8858411" id="Fill-17" fill="#000000"></path>
                <path d="M164.59359,22.017682 C163.235259,23.4562842 162.560055,25.3079108 162.560055,27.5725619 C162.560055,29.8811094 163.235259,31.7546842 164.59359,33.1932863 C165.94994,34.6338838 167.690424,35.3521872 169.824943,35.3521872 C171.955502,35.3521872 173.692026,34.6338838 175.030556,33.1932863 C176.373046,31.7546842 177.04429,29.8811094 177.04429,27.5725619 C177.04429,25.2939438 176.365125,23.4383266 175.010755,22.0057103 C173.654405,20.5750893 171.925801,19.8587812 169.824943,19.8587812 C167.690424,19.8587812 165.94994,20.5790799 164.59359,22.017682 M176.238401,16.9436664 C178.10957,17.9672488 179.564924,19.3878934 180.600502,21.2056001 C181.63608,23.0253021 182.154859,25.1343208 182.154859,27.5286656 C182.154859,29.8970717 181.63608,31.9981092 180.600502,33.8397594 C179.564924,35.6814096 178.10957,37.1100353 176.238401,38.1256366 C174.369211,39.1412378 172.228752,39.6480408 169.824943,39.6480408 C167.387473,39.6480408 165.233153,39.1412378 163.363964,38.1256366 C161.494775,37.1100353 160.039421,35.6814096 159.003843,33.8397594 C157.966285,31.9981092 157.449485,29.8970717 157.449485,27.5286656 C157.449485,25.1343208 157.966285,23.0253021 159.003843,21.2056001 C160.039421,19.3878934 161.494775,17.9672488 163.363964,16.9436664 C165.233153,15.9220793 167.387473,15.4092904 169.824943,15.4092904 C172.228752,15.4092904 174.369211,15.9220793 176.238401,16.9436664" id="Fill-19" fill="#000000"></path>
                <path d="M201.226925,16.4175091 C202.888207,17.0899209 204.268318,18.0536447 205.371218,19.3106757 L202.565455,22.6428056 C200.840811,20.8450517 198.64293,19.9471724 195.975771,19.9471724 C193.872933,19.9471724 192.142349,20.6515088 190.787979,22.062177 C189.431629,23.4708498 188.754444,25.3085094 188.754444,27.5711652 C188.754444,29.8218493 189.413808,31.6575137 190.732537,33.0741677 C192.053246,34.4908217 193.742248,35.201144 195.801524,35.201144 C198.831036,35.201144 201.157623,34.2414108 202.781283,32.3279302 L205.632588,35.201144 C204.559388,36.631765 203.169377,37.7311683 201.466514,38.4973586 C199.763651,39.2655442 197.803378,39.6486394 195.581736,39.6486394 C193.265051,39.6486394 191.197854,39.1398411 189.386087,38.1242399 C187.57234,37.1106339 186.162528,35.6899894 185.15467,33.8643015 C184.146813,32.0366183 183.641895,29.9395713 183.641895,27.5711652 C183.641895,25.1768205 184.146813,23.0618159 185.15467,21.2281469 C186.162528,19.3944778 187.57234,17.9658521 189.386087,16.944265 C191.197854,15.9206826 193.265051,15.409889 195.581736,15.409889 C197.686554,15.409889 199.565644,15.7450973 201.226925,16.4175091" id="Fill-21" fill="#000000"></path>
                <path d="M216.673081,16.669913 C218.063092,15.829897 219.694672,15.4088914 221.565842,15.4088914 L221.565842,20.3631898 C219.215495,20.2454678 217.316604,20.7981624 215.867191,22.017283 C214.417777,23.2383988 213.590107,24.8984779 213.388139,27.003506 L213.388139,39.4740518 L208.255789,39.4740518 L208.255789,15.5844767 L213.388139,15.5844767 L213.388139,20.3631898 C214.186109,18.7410212 215.281089,17.5099289 216.673081,16.669913" id="Fill-23" fill="#000000"></path>
                <path d="M235.932263,34.3333935 C237.19357,33.4794105 237.896496,32.3939742 238.041041,31.0790799 L238.041041,28.8882544 L231.625604,28.8882544 C229.928681,28.8882544 228.689155,29.1336747 227.905046,29.6225201 C227.124897,30.1113655 226.732843,30.9254428 226.732843,32.0647518 C226.732843,33.1461976 227.142718,34.010157 227.960488,34.6506442 C228.780239,35.2931267 229.89898,35.6163633 231.320673,35.6163633 C233.13244,35.6163633 234.668976,35.1893718 235.932263,34.3333935 L235.932263,34.3333935 Z M238.084603,36.5581389 C236.38768,38.6472047 233.777943,39.6927353 230.255393,39.6927353 C228.588171,39.6927353 227.124897,39.371494 225.861611,38.7270162 C224.600304,38.0845337 223.628088,37.204612 222.946943,36.0872511 C222.265798,34.9698902 221.925225,33.7028827 221.925225,32.2862287 C221.925225,30.093408 222.711314,28.3595033 224.285472,27.0805241 C225.85765,25.8015449 228.057512,25.1470907 230.885056,25.1191567 L238.041041,25.1191567 L238.041041,24.3948674 C238.041041,22.8764537 237.557903,21.6972389 236.595588,20.8552277 C235.631292,20.0152117 234.22742,19.5962014 232.385952,19.5962014 C230.095007,19.5962014 227.768421,20.4003021 225.406194,22.0065084 L223.295436,18.412996 C225.107203,17.3315502 226.734823,16.559374 228.178296,16.100458 C229.61979,15.6395466 231.393935,15.4100886 233.496773,15.4100886 C236.526285,15.4100886 238.874652,16.1523354 240.541874,17.6348339 C242.209095,19.1173324 243.058547,21.1744736 243.086268,23.8042623 L243.129829,39.4732536 L238.084603,39.4732536 L238.084603,36.5581389 Z" id="Fill-25" fill="#000000"></path>
                <path d="M263.423204,16.4175091 C265.082506,17.0899209 266.462617,18.0536447 267.565518,19.3106757 L264.759754,22.6428056 C263.03511,20.8450517 260.837229,19.9471724 258.17205,19.9471724 C256.067232,19.9471724 254.338628,20.6515088 252.984258,22.062177 C251.627908,23.4708498 250.948743,25.3085094 250.948743,27.5711652 C250.948743,29.8218493 251.608107,31.6575137 252.928816,33.0741677 C254.247545,34.4908217 255.938527,35.201144 257.995824,35.201144 C261.027316,35.201144 263.353902,34.2414108 264.977562,32.3279302 L267.826887,35.201144 C266.753688,36.631765 265.363676,37.7311683 263.660813,38.4973586 C261.95795,39.2655442 259.997678,39.6486394 257.778015,39.6486394 C255.45935,39.6486394 253.394133,39.1398411 251.582366,38.1242399 C249.768619,37.1106339 248.358807,35.6899894 247.35095,33.8643015 C246.341112,32.0366183 245.838174,29.9395713 245.838174,27.5711652 C245.838174,25.1768205 246.341112,23.0618159 247.35095,21.2281469 C248.358807,19.3944778 249.768619,17.9658521 251.582366,16.944265 C253.394133,15.9206826 255.45935,15.409889 257.778015,15.409889 C259.880853,15.409889 261.761923,15.7450973 263.423204,16.4175091" id="Fill-27" fill="#000000"></path>
                <g id="Group-31" transform="translate(267.309890, 15.582006)">
                    <mask id="mask-6" fill="white">
                        <use xlink:href="#path-5"></use>
                    </mask>
                    <g id="Clip-30"></g>
                    <path d="M10.6622985,31.4186683 C9.35743021,32.3624392 7.81297307,32.833327 6.02892706,32.833327 C4.95572736,32.833327 3.98153131,32.6637276 3.10435886,32.3285193 C2.22520633,31.9913157 1.3757549,31.4805222 0.550064352,30.7961386 L2.72220472,26.805564 C3.28850567,27.2285649 3.81124501,27.5298533 4.28844267,27.7054386 C4.7676204,27.8810239 5.27451915,27.9688165 5.811119,27.9688165 C7.42091856,27.9688165 8.61688281,27.0908901 9.39901175,25.3370325 L10.2049016,23.5412739 L0.417399443,0.0028694132 L5.70221497,0.0028694132 L12.7928573,18.1061113 L19.3825411,0.0028694132 L24.514891,0.0028694132 L13.7274519,27.1786827 C12.9888846,29.062234 11.9671668,30.4768927 10.6622985,31.4186683" id="Fill-29" fill="#000000" mask="url(#mask-6)"></path>
                </g>
                <path d="M300.319493,10.9939191 C298.006768,12.3307616 296.1653,14.1265202 294.797069,16.3851855 C293.426858,18.6418554 292.741753,21.1000494 292.741753,23.7597674 C292.741753,26.4174901 293.426858,28.8876558 294.797069,31.1662739 C296.1653,33.4468874 298.006768,35.2506271 300.319493,36.5794884 C302.632219,37.9103451 305.146912,38.5747758 307.857632,38.5747758 C310.552512,38.5747758 313.059285,37.9103451 315.37201,36.5794884 C317.684736,35.2506271 319.524224,33.4468874 320.896415,31.1662739 C322.264645,28.8876558 322.949751,26.4174901 322.949751,23.7597674 C322.949751,21.1000494 322.264645,18.6418554 320.896415,16.3851855 C319.524224,14.1265202 317.684736,12.3307616 315.37201,10.9939191 C313.059285,9.65707662 310.552512,8.98865537 307.857632,8.98865537 C305.146912,8.98865537 302.632219,9.65707662 300.319493,10.9939191 M315.839308,10.2037853 C318.288658,11.6144535 320.23507,13.5259387 321.676564,15.9362458 C323.120037,18.3465529 323.840784,20.9543934 323.840784,23.7597674 C323.840784,26.5811037 323.120037,29.1909395 321.676564,31.5952607 C320.23507,33.9975867 318.288658,35.9110672 315.839308,37.3357023 C313.387977,38.7603375 310.726758,39.4726551 307.857632,39.4726551 C304.972666,39.4726551 302.303527,38.7603375 299.854176,37.3357023 C297.400865,35.9110672 295.456433,33.9975867 294.01296,31.5952607 C292.569487,29.1909395 291.85072,26.5811037 291.85072,23.7597674 C291.85072,20.9404264 292.569487,18.3285953 294.01296,15.9242741 C295.456433,13.5219482 297.400865,11.6144535 299.854176,10.2037853 C302.303527,8.7951125 304.972666,8.08878078 307.857632,8.08878078 C310.726758,8.08878078 313.387977,8.7951125 315.839308,10.2037853" id="Fill-32" fill="#000000"></path>
                <g id="Group-36" transform="translate(324.732015, 7.996114)">
                    <mask id="mask-8" fill="white">
                        <use xlink:href="#path-7"></use>
                    </mask>
                    <g id="Clip-35"></g>
                    <path d="M16.6371696,0.729762086 C18.1380651,1.152763 19.4171924,1.70745287 20.4745515,2.39383171 L20.0409155,3.11812101 C19.0251379,2.46167148 17.8153131,1.94289678 16.4094611,1.5617969 C15.001629,1.18269231 13.595777,0.991144725 12.189925,0.991144725 C9.46336413,0.991144725 7.27736325,1.54782989 5.63192237,2.65720964 C3.98648149,3.76858468 3.16277102,5.23711614 3.16277102,7.06280404 C3.16277102,8.65504333 3.56274582,9.94399894 4.36071534,10.9316662 C5.15670479,11.9173381 6.14278127,12.6695614 7.31894479,13.1883361 C8.49312823,13.7071108 10.0870872,14.2817536 12.1028018,14.9082738 C14.2333606,15.5367893 15.9401838,16.1433566 17.2252513,16.7279758 C18.5063587,17.312595 19.5874787,18.166578 20.4666312,19.29192 C21.3418236,20.4172621 21.7813999,21.9077417 21.7813999,23.7633589 C21.7813999,26.1018357 20.8230444,27.9694246 18.9083136,29.3721116 C16.9975429,30.7767939 14.4293879,31.4771397 11.2117688,31.4771397 C9.25347637,31.4771397 7.31894479,31.0800775 5.40421395,30.2839579 C3.48948311,29.485843 1.88166362,28.416369 0.576795341,27.0715453 L1.20645864,26.4589921 C2.39648267,27.7140278 3.89143798,28.7156621 5.69924486,29.4599042 C7.5030916,30.2061417 9.34059959,30.5792604 11.2117688,30.5792604 C14.1541577,30.5792604 16.5045046,29.9567308 18.2568695,28.7156621 C20.0112144,27.4725981 20.8883868,25.8224954 20.8883868,23.7633589 C20.8883868,22.1132563 20.4785117,20.7863902 19.6607414,19.784756 C18.8409911,18.7851171 17.8351139,18.020922 16.64905,17.4941662 C15.459026,16.9694056 13.8432862,16.3927676 11.7998506,15.7642521 C9.6653316,15.1058072 7.97830919,14.4912587 6.73086303,13.9226019 C5.48341688,13.3519497 4.42803783,12.5159243 3.56472589,11.4125304 C2.70339402,10.3111318 2.27173805,8.86055792 2.27173805,7.06280404 C2.27173805,4.97373822 3.1786116,3.28971572 4.99037864,2.01073655 C6.80214567,0.731757373 9.20199446,0.0932654302 12.189925,0.0932654302 C13.6531992,0.0932654302 15.136274,0.306761174 16.6371696,0.729762086" id="Fill-34" fill="#000000" mask="url(#mask-8)"></path>
                </g>
            </g>
        </g>
    </g>
</svg>