<?xml version="1.0" encoding="UTF-8"?>
<svg width="134px" height="50px" viewBox="0 0 134 50" version="1.1" xmlns="http://www.w3.org/2000/svg" xmlns:xlink="http://www.w3.org/1999/xlink">
    <!-- Generator: Sketch 46.2 (44496) - http://www.bohemiancoding.com/sketch -->
    <title>sole</title>
    <desc>Created with Sketch.</desc>
    <defs></defs>
    <g id="Web" stroke="none" stroke-width="1" fill="none" fill-rule="evenodd">
        <g id="AboutUs" transform="translate(-654.000000, -3844.000000)">
            <g id="sole" transform="translate(654.000000, 3844.000000)">
                <path d="M116.073983,9.81481481 C116.073983,10.7485185 116.082497,11.1303704 116.093232,10.6637037 C116.103597,10.1966667 116.103597,9.43296296 116.093232,8.96592593 C116.082497,8.49925926 116.073983,8.88111111 116.073983,9.81481481 M82.4470166,42.9011111 C82.4470166,43.2914815 82.457011,43.4514815 82.4692265,43.2562963 C82.481442,43.0611111 82.481442,42.7414815 82.4692265,42.5462963 C82.457011,42.3511111 82.4470166,42.5107407 82.4470166,42.9011111" id="path0" fill="#7F7F7F"></path>
                <path d="M116.071762,12.7777778 C116.071762,13.3040741 116.081387,13.5192593 116.092862,13.2562963 C116.104337,12.992963 116.104337,12.5625926 116.092862,12.2992593 C116.081387,12.0362963 116.071762,12.2514815 116.071762,12.7777778 M116.075834,23.4259259 C116.075834,25.2251852 116.083608,25.9525926 116.093232,25.0418519 C116.102856,24.1314815 116.102856,22.6592593 116.093232,21.7703704 C116.083608,20.8814815 116.075834,21.6266667 116.075834,23.4259259" id="path2" fill="#007F7F"></path>
                <path d="M12.9865249,0.18037037 C12.816989,0.206666667 12.6363481,0.222592593 12.5856354,0.215555556 C12.5345525,0.208518519 12.4790276,0.222962963 12.4623702,0.247407407 C12.4453425,0.272222222 12.278768,0.307037037 12.0922044,0.324814815 C11.5421381,0.377407407 10.7063039,0.513703704 10.672989,0.555925926 C10.6563315,0.577407407 10.3935138,0.643333333 10.0892376,0.702222222 C9.78496133,0.761111111 9.50733702,0.831851852 9.47217127,0.85962963 C9.43700552,0.887037037 9.26265746,0.944074074 9.08460773,0.985555556 C8.90618785,1.02740741 8.76071271,1.09 8.76071271,1.12444444 C8.76071271,1.15888889 8.70518785,1.17259259 8.63707735,1.15481481 C8.56933702,1.13703704 8.51381215,1.14111111 8.51381215,1.1637037 C8.51381215,1.18592593 8.39572928,1.24111111 8.25173481,1.28555556 C8.10737017,1.33 7.87823757,1.41925926 7.74275691,1.4837037 C7.60690608,1.54777778 7.39850276,1.64444444 7.28004972,1.69777778 C7.16122652,1.75111111 6.98058564,1.84259259 6.87879006,1.90074074 C6.77699448,1.95925926 6.55489503,2.0837037 6.38535912,2.17777778 C5.57432597,2.62777778 4.95170718,3.09481481 4.20767403,3.81222222 C3.82751381,4.17888889 3.51657459,4.49777778 3.51657459,4.52074074 C3.51657459,4.54333333 3.45401657,4.63037037 3.37776243,4.7137037 C3.16676796,4.94333333 3.06016022,5.07703704 2.99204972,5.19666667 C2.95836464,5.2562963 2.81844199,5.46592593 2.6811105,5.66185185 C2.54414917,5.85814815 2.39312155,6.11555556 2.34537017,6.23444444 C2.29798895,6.35333333 2.24061326,6.46444444 2.21803315,6.48148148 C2.1958232,6.49851852 2.12734254,6.66518519 2.06626519,6.85185185 C2.00518785,7.03851852 1.92153039,7.24703704 1.87970166,7.31481481 C1.83824309,7.38259259 1.77050276,7.61888889 1.72941436,7.83962963 C1.6879558,8.06 1.63058011,8.26925926 1.60207735,8.30407407 C1.39071271,8.56185185 1.38441989,11.5207407 1.59356354,12.2840741 C1.6631547,12.5385185 1.73385635,12.8240741 1.75088398,12.9181481 C1.76754144,13.0122222 1.82491713,13.1762963 1.87785083,13.2825926 C1.93078453,13.3888889 1.97409392,13.5018519 1.97409392,13.5337037 C1.97409392,13.6281481 2.47529834,14.597037 2.53563536,14.6192593 C2.56635912,14.6307407 2.59116022,14.6685185 2.59116022,14.7037037 C2.59116022,15.0225926 4.49418232,16.9896296 4.94023204,17.1311111 C5.00538122,17.1518519 5.05905525,17.1940741 5.05905525,17.2248148 C5.05905525,17.2555556 5.14900552,17.327037 5.25931492,17.3837037 C5.36962431,17.44 5.47364088,17.5033333 5.49066851,17.5240741 C5.52879558,17.5707407 5.71387845,17.6759259 6.231,17.9455556 C6.45161878,18.0607407 6.65854144,18.1811111 6.69074586,18.2133333 C6.72295028,18.2451852 6.78846961,18.2714815 6.83585083,18.2714815 C6.88360221,18.2714815 7.05276796,18.337037 7.21156906,18.4166667 C7.37074033,18.4966667 7.61060773,18.5974074 7.7449779,18.6411111 C7.87934807,18.6844444 8.01704972,18.7407407 8.05110497,18.7659259 C8.08516022,18.7914815 8.27949724,18.86 8.4830884,18.9181481 C8.68667956,18.9762963 8.88101657,19.0451852 8.91470166,19.0711111 C8.94875691,19.097037 9.17085635,19.1685185 9.40850276,19.2296296 C9.64577901,19.2911111 9.91637017,19.3788889 10.0092818,19.4248148 C10.1021934,19.4711111 10.1925138,19.507037 10.2102818,19.5051852 C10.3035635,19.4948148 10.9817072,19.66 10.9817072,19.6933333 C10.9817072,19.7148148 11.2593315,19.7833333 11.5984033,19.8455556 C11.9378453,19.9081481 12.2154696,19.9774074 12.2154696,20 C12.2154696,20.0225926 12.2502652,20.0425926 12.2924641,20.0444444 C12.3350331,20.0462963 12.6196906,20.1092593 12.9250773,20.1844444 C13.2304641,20.2596296 13.7716464,20.3851852 14.128116,20.462963 C14.4842155,20.5411111 14.854011,20.6355556 14.9495138,20.6725926 C15.2182541,20.7781481 15.3000608,20.7577778 15.3000608,20.5859259 C15.3000608,20.4977778 15.5058729,20.1133333 15.7783149,19.6914815 C16.0411326,19.2844444 16.3839061,18.75 16.5393757,18.5033333 C17.1257182,17.5755556 17.8782652,16.3985185 19.0350331,14.5988889 C19.2093812,14.327037 19.4518398,13.9481481 19.5732541,13.7559259 L19.7946133,13.4074074 L19.3826188,13.3314815 C19.1564475,13.2896296 18.943232,13.2340741 18.9091768,13.2085185 C18.8754917,13.1825926 18.7366796,13.1462963 18.6008287,13.127037 C18.2428785,13.077037 16.8362486,12.7437037 15.8245856,12.4692593 C15.5532541,12.3955556 15.3033923,12.3307407 15.269337,12.3248148 C15.2352818,12.3192593 15.1938232,12.2992593 15.1767956,12.28 C15.159768,12.2607407 14.9931934,12.2003704 14.8066298,12.1459259 C14.6200663,12.0911111 14.3146796,11.9866667 14.128116,11.9137037 C13.9415525,11.8407407 13.719453,11.7585185 13.6343149,11.7311111 C13.3607624,11.6433333 12.3753812,11.107037 12.2602597,10.9837037 C12.1991823,10.9181481 12.127,10.8640741 12.0999779,10.8640741 C12.0333481,10.8640741 11.5984033,10.4248148 11.5984033,10.3574074 C11.5984033,10.3277778 11.5391768,10.2233333 11.4662541,10.1248148 C11.331884,9.94296296 11.3352155,8.85 11.4706961,8.67333333 C11.4969779,8.63925926 11.5713812,8.45814815 11.6357901,8.27148148 C11.8419724,7.67333333 12.5649061,7.07185185 13.2641492,6.91666667 C13.8360552,6.78962963 16.0548287,6.87555556 16.2543481,7.03259259 C16.2895138,7.06 16.4290663,7.11740741 16.5649171,7.16 C16.9735801,7.28814815 17.4229613,7.50814815 17.625442,7.67851852 C17.7305691,7.76703704 17.8379171,7.83962963 17.8641989,7.83962963 C17.9326796,7.83962963 18.4905193,8.44407407 18.6904088,8.73444444 C19.0798232,9.30111111 19.4337017,10.2896296 19.4337017,10.8103704 C19.4337017,11.2240741 19.4607238,11.2344444 20.5049613,11.2344444 L21.4481436,11.2344444 L21.4214917,11.052963 C21.4026133,10.9233333 21.446663,10.7955556 21.5765912,10.6055556 C21.6765359,10.4592593 21.8283039,10.2285185 21.9141823,10.0925926 C22.4909006,9.17962963 22.6508122,8.92777778 22.981,8.41481481 C23.1845912,8.09888889 23.4881271,7.62481481 23.6558122,7.36148148 C24.2106906,6.48925926 24.4894254,6.05407407 24.7840773,5.60185185 C25.064663,5.17111111 25.1146354,5.09185185 25.3870773,4.64222222 C25.7202265,4.09296296 25.9600939,3.79481481 26.0826188,3.77703704 C26.199221,3.76 26.1762707,3.72111111 25.8938343,3.45814815 C25.3160055,2.92037037 24.906232,2.62037037 24.3006409,2.29148148 C24.1518343,2.21037037 23.9563867,2.09259259 23.8660663,2.02888889 C23.776116,1.96555556 23.6695083,1.9137037 23.6287901,1.9137037 C23.588442,1.9137037 23.4818343,1.8637037 23.3915138,1.80259259 C23.1938453,1.66851852 22.1270276,1.23444444 21.9952486,1.23444444 C21.9437956,1.23444444 21.9015967,1.21222222 21.9015967,1.18481481 C21.9015967,1.15740741 21.7002265,1.0837037 21.4540663,1.02111111 C21.2082762,0.958888889 20.9791436,0.887777778 20.9450884,0.863333333 C20.8732762,0.811851852 19.9208398,0.617407407 19.7409392,0.617407407 C19.6735691,0.617407407 19.6187845,0.595555556 19.6187845,0.568888889 C19.6187845,0.542592593 19.5562265,0.515185185 19.4799724,0.508518519 C19.4037182,0.502222222 19.0635359,0.454444444 18.7240939,0.402962963 C18.3850221,0.351481481 17.9915359,0.309259259 17.8501326,0.308888889 C17.7065083,0.308888889 17.5825028,0.276296296 17.5688066,0.235185185 C17.5399337,0.148518519 13.5006851,0.10037037 12.9865249,0.18037037 M74.5265801,3.82703704 C74.5265801,5.45407407 74.5506409,6.72851852 74.5809945,6.72851852 C74.6346685,6.72851852 75.3872155,5.59407407 77.7969945,1.88259259 C78.039453,1.50925926 78.2808011,1.14111111 78.3333646,1.06481481 L78.4284972,0.925925926 L76.4777238,0.925925926 L74.5265801,0.925925926 L74.5265801,3.82703704 M105.744138,2.87185185 L105.744138,4.81777778 L105.884061,4.72592593 C106.01658,4.63925926 106.055818,4.6562963 106.622171,5.04851852 C106.951249,5.27666667 107.526856,5.67148148 107.901464,5.92592593 C108.276072,6.18074074 109.192232,6.80555556 109.937376,7.31481481 C110.682519,7.82407407 111.882227,8.64333333 112.60368,9.13592593 C113.324762,9.62814815 114.394541,10.3581481 114.980884,10.7585185 L116.046961,11.4862963 L116.046961,9.81703704 L116.046961,8.14814815 L124.77658,8.14814815 L133.506569,8.14814815 L133.506569,4.53703704 L133.506569,0.925925926 L119.625354,0.925925926 L105.744138,0.925925926 L105.744138,2.87185185 M115.985144,11.6666667 C115.985144,11.7344444 116.012906,11.79 116.046961,11.79 C116.081017,11.79 116.108779,11.7344444 116.108779,11.6666667 C116.108779,11.5988889 116.081017,11.5433333 116.046961,11.5433333 C116.012906,11.5433333 115.985144,11.5988889 115.985144,11.6666667 M119.450265,13.7640741 C119.468773,13.8185185 119.971459,14.1692593 122.247238,15.7177778 C122.620365,15.9718519 123.217442,16.3803704 123.573541,16.6259259 C123.930011,16.8714815 124.66553,17.3748148 125.208564,17.7444444 C125.751597,18.1140741 126.403829,18.5592593 126.658503,18.7337037 C126.912807,18.9085185 127.343309,19.2007407 127.614641,19.3833333 C128.317215,19.8559259 128.39421,19.9307407 128.319436,20.0703704 C128.26021,20.1811111 128.323878,20.1851852 130.141762,20.1851852 L132.025906,20.1851852 L132.025906,16.9444444 L132.025906,13.7037037 L125.727906,13.7037037 C121.644238,13.7037037 119.436939,13.7248148 119.450265,13.7640741 M68.7804972,18.7892593 C68.6912873,18.8362963 68.4691878,18.922963 68.2870663,18.9822222 C68.1053149,19.0418519 67.9283757,19.1107407 67.8946906,19.1359259 C67.8606354,19.1607407 67.6803646,19.2303704 67.4934309,19.29 C67.3068674,19.35 67.1265967,19.4196296 67.0925414,19.4444444 C67.0584862,19.4696296 66.919674,19.5248148 66.7841934,19.567037 C66.6483425,19.6096296 66.4540055,19.6807407 66.3522099,19.7251852 C66.1641657,19.8074074 65.8287956,19.9381481 64.7790055,20.3385185 C64.0531105,20.6151852 63.4760221,20.8414815 63.1132597,20.9922222 C62.9607514,21.0555556 62.5717072,21.207037 62.249663,21.3288889 C61.9272486,21.4507407 61.5800331,21.587037 61.4782376,21.6318519 C61.376442,21.677037 61.182105,21.7485185 61.0466243,21.7907407 C60.9107735,21.8333333 60.7719613,21.8885185 60.7379061,21.9133333 C60.704221,21.9385185 60.5235801,22.0081481 60.3370166,22.0677778 C60.150453,22.1277778 59.9698122,22.1974074 59.9361271,22.2222222 C59.9020718,22.247037 59.7218011,22.3166667 59.5348674,22.3766667 C59.3483039,22.4362963 59.1680331,22.5059259 59.1339779,22.5307407 C59.0999227,22.5559259 58.9196519,22.6251852 58.7330884,22.6851852 C58.5461547,22.7451852 58.3588508,22.8214815 58.3166519,22.8551852 C58.2415083,22.9148148 58.091221,22.8392593 57.9783204,22.6851852 C57.9516685,22.6492593 57.9324199,22.662963 57.9320497,22.7185185 C57.9313094,22.7707407 57.8731934,22.9233333 57.8024917,23.0577778 C57.7321602,23.1925926 57.6373978,23.4033333 57.5922376,23.5266667 C57.5467072,23.65 57.3823536,23.932963 57.226884,24.1559259 C57.0710442,24.3785185 56.9437072,24.5781481 56.9437072,24.5992593 C56.9437072,24.6677778 56.1497017,25.4985185 55.7958232,25.8 C55.4101105,26.1285185 54.7364088,26.5355556 54.4139945,26.6340741 C54.3295967,26.66 54.218547,26.7151852 54.1674641,26.7562963 C54.1167514,26.7977778 53.9083481,26.8685185 53.7047569,26.9137037 C53.5011657,26.9588889 53.3068287,27.0111111 53.2731436,27.03 C53.2390884,27.0488889 53.1472873,27.0559259 53.0691823,27.0455556 C52.9910773,27.0355556 52.8940939,27.0537037 52.8533757,27.0855556 C52.5372541,27.3351852 49.6814254,27.1111111 49.1276575,26.7933333 C48.7519392,26.5777778 48.3758508,26.4840741 48.3399448,26.597037 C48.3010773,26.7192593 48.0208619,26.8581481 47.1343149,27.1937037 C46.1815083,27.5548148 45.7576685,27.7196296 45.5611105,27.8055556 C45.4593149,27.8503704 45.2649779,27.9214815 45.1294972,27.9637037 C44.9936464,28.0059259 44.8548343,28.0611111 44.820779,28.0862963 C44.7870939,28.1114815 44.606453,28.1807407 44.4198895,28.2407407 C44.233326,28.3007407 44.0526851,28.37 44.019,28.3951852 C43.9849448,28.4203704 43.8461326,28.4755556 43.7102818,28.5177778 C43.5748011,28.56 43.3804641,28.6314815 43.2786685,28.6766667 C43.1768729,28.7214815 42.8296575,28.8585185 42.5072431,28.9811111 C41.7428508,29.2714815 41.2009282,29.4859259 40.7722762,29.6677778 C40.5812707,29.7485185 40.3924862,29.8148148 40.3528785,29.8148148 C40.3129006,29.8148148 40.193337,29.8596296 40.0874696,29.9144444 C39.9816022,29.9692593 39.6765856,30.09 39.4100663,30.1822222 L38.9258895,30.3503704 L39.3697182,30.767037 C39.6136575,30.9959259 39.8838785,31.2296296 39.9697569,31.2859259 C40.1163425,31.3818519 40.2651492,31.5088889 40.5660939,31.7944444 C40.6353149,31.86 40.7186022,31.9148148 40.7511768,31.9159259 C40.7841215,31.9174074 40.9070166,32.0007407 41.0243591,32.1011111 C41.1417017,32.2018519 41.2601547,32.2840741 41.2871768,32.2840741 C41.3141989,32.2840741 41.4711492,32.3785185 41.6355028,32.4940741 C41.7998564,32.61 42.0426851,32.762963 42.1748343,32.8344444 C42.3066133,32.9059259 42.4565304,32.9911111 42.5072431,33.0240741 C42.7356354,33.1711111 44.1637348,33.827037 44.2559061,33.827037 C44.3121713,33.827037 44.3580718,33.85 44.3580718,33.8777778 C44.3580718,33.9051852 44.5179834,33.9762963 44.7130608,34.0351852 C44.9081381,34.0940741 45.1232044,34.1659259 45.1909448,34.1944444 C45.4252597,34.2937037 45.6854862,34.3751852 45.9005525,34.4166667 C46.0193757,34.44 46.1456022,34.4818519 46.1811381,34.5103704 C46.216674,34.5388889 46.5357569,34.6174074 46.8903757,34.6848148 C47.2453646,34.7518519 47.6403315,34.8340741 47.7684088,34.8666667 C47.8968564,34.8992593 48.3965801,34.9585185 48.8789061,34.9981481 C49.3616022,35.0381481 49.8631768,35.0940741 49.993105,35.1225926 C50.6249779,35.2618519 54.3854917,35.0885185 55.3705028,34.8748148 C55.5404088,34.8381481 55.9013204,34.767037 56.1726519,34.717037 C56.4439834,34.6666667 56.7079116,34.6085185 56.7586243,34.5874074 C56.8815193,34.5366667 56.8970663,34.5322222 57.4623094,34.3851852 C57.7306796,34.3155556 57.9805414,34.2333333 58.017558,34.202963 C58.0549448,34.1725926 58.2100442,34.1148148 58.3629227,34.0740741 C58.9740663,33.9114815 59.292779,33.7044444 59.0658674,33.617037 C58.906326,33.5559259 58.7967569,33.7214815 61.1391657,30.4937037 C61.6933039,29.73 62.5165525,28.5911111 62.9681547,27.962963 C63.4201271,27.3348148 64.2522597,26.1822222 64.8182431,25.4011111 C66.2104365,23.4792593 67.2894696,21.9844444 67.9898232,21.0066667 C68.6139227,20.1355556 68.6872155,20.0681481 68.8504586,20.2159259 C68.9637293,20.3181481 69.0359116,19.8577778 69.0359116,19.0340741 C69.0359116,18.6751852 69.0229558,18.662963 68.7804972,18.7892593 M0.288359116,23.0037037 C0.228762431,23.0633333 0.245790055,24.7259259 0.309458564,25.0925926 C0.511939227,26.2525926 0.612624309,26.7422222 0.661856354,26.8074074 C0.693320442,26.8488889 0.754027624,27.0077778 0.797707182,27.1603704 C0.945773481,27.682963 1.41810497,28.6651852 1.77161326,29.1859259 C1.9170884,29.4003704 2.0359116,29.5892593 2.0359116,29.6059259 C2.0359116,29.8296296 4.21396685,32.067037 4.40719337,32.0414815 C4.42644199,32.0392593 4.49307182,32.0855556 4.55525967,32.1451852 C4.61744751,32.2044444 4.72146409,32.287037 4.78661326,32.3285185 C4.85139227,32.37 5.0498011,32.5018519 5.2271105,32.6218519 C5.40441989,32.7414815 5.57580663,32.8396296 5.60838122,32.8396296 C5.64058564,32.8396296 5.70388398,32.8751852 5.74867403,32.9188889 C5.84232597,33.0103704 6.25024862,33.21 6.34316022,33.21 C6.37758564,33.21 6.41534254,33.2318519 6.42644751,33.2588889 C6.48530387,33.3996296 7.00168508,33.5696296 7.03314917,33.4585185 C7.06128177,33.3581481 7.5828453,32.512963 8.32946961,31.3581481 C8.80698343,30.6188889 9.59580663,29.3811111 10.166232,28.4751852 C11.1297735,26.9451852 11.3892597,26.5777778 11.5295525,26.5448148 L11.6765083,26.5103704 L11.515116,26.357037 C11.4266464,26.2725926 11.3533536,26.1733333 11.3529834,26.1359259 C11.3522431,26.0988889 11.2933867,26.0155556 11.2219448,25.9511111 C11.0931271,25.8344444 10.9113757,25.5318519 10.9239613,25.4551852 C10.927663,25.432963 10.9073039,25.3981481 10.8788011,25.3774074 C10.7555359,25.2866667 10.3028232,24.2611111 10.3028232,24.0718519 C10.3028232,24.0107407 10.2769116,23.9514815 10.2450773,23.9403704 C10.2132431,23.9288889 10.1643812,23.7114815 10.136989,23.4566667 L10.0870166,22.9937037 L5.20823204,22.9781481 C2.52527072,22.9692593 0.310939227,22.9807407 0.288359116,23.0037037 M116.417127,26.7248148 C116.417127,26.7566667 116.443779,26.7992593 116.475983,26.8192593 C116.615536,26.9055556 116.436006,27.0351852 115.935171,27.21 C115.640519,27.312963 114.41342,27.7444444 113.208901,28.1688889 C110.266453,29.2059259 106.919414,30.3814815 106.403773,30.5592593 C106.059519,30.6781481 105.962166,30.6907407 105.864072,30.6292593 C105.745989,30.5559259 105.744138,30.5888889 105.744138,32.4996296 L105.744138,34.4444444 L119.779343,34.4444444 L133.814917,34.4444444 L133.814917,30.5555556 L133.814917,26.6666667 L125.116022,26.6666667 C119.721597,26.6666667 116.417127,26.6888889 116.417127,26.7248148 M48.1467182,42.0414815 C47.8080166,42.0859259 46.8259669,42.4525926 46.8259669,42.5344444 C46.8259669,42.5618519 46.7652597,42.6037037 46.6912265,42.627037 C46.2077901,42.7807407 45.4049006,43.8937037 45.1217238,44.8025926 C44.952558,45.3455556 44.9266464,46.7425926 45.0835967,46.8444444 C45.1161713,46.8655556 45.162442,46.9918519 45.1868729,47.1251852 C45.3230939,47.8655556 46.5039227,49.2592593 46.9947624,49.2592593 C47.0377017,49.2592593 47.0728674,49.287037 47.0728674,49.3211111 C47.0728674,49.3548148 47.0935967,49.3781481 47.1191381,49.3725926 C47.1443094,49.3674074 47.2387017,49.3933333 47.3282818,49.4303704 C47.418232,49.4677778 47.5985028,49.5174074 47.7295414,49.5411111 C47.8602099,49.5648148 47.9949503,49.6044444 48.0290055,49.6288889 C48.125989,49.6996296 49.5770387,49.7074074 49.8013591,49.6381481 C49.9124088,49.6040741 50.1833702,49.5307407 50.4032486,49.4751852 C50.6231271,49.4196296 50.8174641,49.3551852 50.835232,49.3322222 C50.8526298,49.3088889 50.978116,49.2318519 51.1135967,49.1607407 C52.2333481,48.5737037 52.1367348,48.7962963 52.117116,46.8555556 L52.1008287,45.2159259 L50.4698785,45.1996296 C49.5729669,45.1903704 48.8233812,45.2044444 48.8041326,45.2303704 C48.7852541,45.2562963 48.7778508,45.6040741 48.7885856,46.002963 L48.8078343,46.7285185 L49.6059116,46.7285185 L50.4043591,46.7285185 L50.4043591,47.2166667 L50.4043591,47.7051852 L50.1333978,47.8362963 C49.8531823,47.9718519 49.8139448,47.9833333 49.2116851,48.1011111 C48.9370221,48.1551852 48.8244917,48.1544444 48.7345414,48.0981481 C48.6697624,48.0577778 48.5613039,48.0248148 48.4939337,48.0248148 C48.0175304,48.0248148 47.3230994,47.4714815 47.0221547,46.8518519 C46.7737735,46.3407407 46.7833978,45.0951852 47.0377017,44.8407407 C47.0910055,44.7877778 47.1346851,44.7114815 47.1346851,44.6714815 C47.1350552,44.5551852 47.634779,44.0433333 47.9238785,43.8637037 C48.3514199,43.5974074 49.564453,43.5503704 49.8468895,43.7888889 C49.8990829,43.8325926 50.035674,43.9059259 50.1507956,43.9514815 C50.2659171,43.9974074 50.4299006,44.0992593 50.5146685,44.1777778 C50.6879061,44.3385185 50.7637901,44.3511111 50.8977901,44.2411111 C51.0118011,44.1477778 51.5148564,43.5392593 51.5148564,43.4948148 C51.5148564,43.477037 51.5840773,43.392963 51.6688453,43.3081481 C51.7539834,43.2233333 51.8232044,43.1133333 51.8232044,43.0637037 C51.8232044,42.9762963 51.3923315,42.5925926 51.2946077,42.5925926 C51.268326,42.5925926 51.2031768,42.5555556 51.1495028,42.51 C51.0958287,42.4648148 50.9547956,42.3922222 50.8359724,42.3485185 C50.7171492,42.3051852 50.535768,42.2325926 50.4328619,42.1874074 C50.0264199,42.0096296 48.9251768,41.9392593 48.1467182,42.0414815 M26.677105,42.1914815 C26.6560055,42.2762963 26.6182486,42.3455556 26.5934475,42.3455556 C26.5682762,42.3455556 26.5127514,42.462963 26.4698122,42.6062963 C26.4268729,42.75 26.3117514,43.0374074 26.2132873,43.2451852 C26.1151934,43.452963 26.0352376,43.6481481 26.0352376,43.6788889 C26.0352376,43.7096296 25.9819337,43.8455556 25.9167845,43.9814815 C25.6876519,44.4574074 25.4181713,45.102963 25.4181713,45.1748148 C25.4181713,45.2144444 25.3959613,45.247037 25.3693094,45.247037 C25.3422873,45.247037 25.267884,45.4066667 25.2038453,45.6018519 C25.1398066,45.797037 25.0505967,46.0007407 25.0058066,46.0540741 C24.9610166,46.1077778 24.9236298,46.1911111 24.9225193,46.2392593 C24.9214088,46.2877778 24.8521878,46.4659259 24.7689006,46.6359259 C24.6856133,46.8055556 24.6167624,46.9651852 24.6167624,46.9907407 C24.6163923,47.0159259 24.5327348,47.212963 24.4309392,47.4285185 C24.3291436,47.6440741 24.2458564,47.8425926 24.2458564,47.8696296 C24.2458564,47.8966667 24.1921823,48.0325926 24.126663,48.1722222 C23.8060994,48.8551852 23.6302707,49.2640741 23.5936243,49.4085185 L23.5540166,49.5677778 L24.4457459,49.5677778 L25.3374751,49.5677778 L25.4463039,49.3055556 C25.5059006,49.1611111 25.6043646,48.9322222 25.6647017,48.7962963 C25.7250387,48.6603704 25.8094365,48.4381481 25.8520055,48.3025926 C25.9608343,47.9551852 25.913453,47.9648148 27.521453,47.9640741 L28.9769448,47.962963 L29.0739282,48.1637037 C29.218663,48.462963 29.4663039,49.0737037 29.5499613,49.3381481 L29.6239945,49.5711111 L30.5286796,49.5540741 C31.5344199,49.5351852 31.5162818,49.5451852 31.3334199,49.1007407 C31.2927017,49.0011111 31.2634586,48.8988889 31.269011,48.8733333 C31.2745635,48.8481481 31.2556851,48.827037 31.2271823,48.827037 C31.1986796,48.827037 31.1398232,48.7092593 31.096884,48.5648148 C31.0535746,48.4203704 30.9521492,48.1833333 30.8710829,48.0377778 C30.7900166,47.8925926 30.7237569,47.7425926 30.7237569,47.7044444 C30.7237569,47.6666667 30.6523149,47.4803704 30.5649558,47.29 C30.2958453,46.7051852 30.2440221,46.5840741 30.134453,46.2807407 C30.0759669,46.1196296 30.0067459,45.9877778 29.9800939,45.9877778 C29.953442,45.9877778 29.9119834,45.8974074 29.8875525,45.787037 C29.8634917,45.6766667 29.7779834,45.4422222 29.6976575,45.2662963 C29.6173315,45.0903704 29.551442,44.9307407 29.551442,44.9114815 C29.551442,44.8925926 29.4500166,44.6618519 29.3256409,44.3985185 C29.2012652,44.1351852 29.0953978,43.8918519 29.0905856,43.8581481 C29.0817017,43.7977778 29.0180331,43.6492593 28.7122762,42.9766667 C28.6312099,42.7974074 28.5645801,42.6359259 28.5645801,42.6181481 C28.5645801,42.6003704 28.5083149,42.4622222 28.4394641,42.3114815 L28.3147182,42.037037 L27.5151602,42.037037 L26.7159724,42.037037 L26.677105,42.1914815 M105.594221,42.3725926 C105.506862,42.5574074 105.43542,42.7233333 105.43542,42.7418519 C105.43542,42.76 105.338436,42.9825926 105.219613,43.2366667 C105.10079,43.4903704 105.003807,43.72 105.003807,43.747037 C105.003807,43.7740741 104.951243,43.9074074 104.886464,44.0433333 C104.651779,44.5351852 104.510006,44.86 104.510006,44.9051852 C104.510006,44.9303704 104.445227,45.0803704 104.366011,45.2377778 C104.287166,45.3955556 104.219425,45.5385185 104.216464,45.5555556 C104.213133,45.5725926 104.180558,45.6644444 104.144282,45.7603704 C104.108006,45.8559259 104.078392,45.96 104.078392,45.9918519 C104.078392,46.0233333 104.053591,46.0492593 104.023238,46.0492593 C103.992884,46.0492593 103.949575,46.1259259 103.926624,46.2192593 C103.903674,46.3125926 103.803729,46.5625926 103.704155,46.7748148 C103.60458,46.987037 103.523144,47.172963 103.523144,47.1874074 C103.523144,47.2022222 103.490569,47.2922222 103.450961,47.3877778 C103.411354,47.4837037 103.374337,47.5755556 103.368785,47.5925926 C103.331028,47.702963 103.237746,47.9203704 103.083387,48.2562963 C102.985663,48.4685185 102.905337,48.662963 102.904227,48.6885185 C102.903116,48.7137037 102.833895,48.8733333 102.750608,49.0433333 C102.484459,49.5844444 102.469652,49.5737037 103.47021,49.5540741 C104.168713,49.5403704 104.353055,49.5185185 104.394514,49.4444444 C104.423017,49.3933333 104.54147,49.1018519 104.658072,48.7962963 C104.775044,48.4907407 104.907193,48.1714815 104.952354,48.0862963 L105.03453,47.9322222 L106.528149,47.9485185 L108.021768,47.9651852 L108.150956,48.2574074 C108.222028,48.4177778 108.353436,48.7577778 108.442646,49.0122222 C108.648088,49.5966667 108.58442,49.5659259 109.584608,49.567037 C110.364177,49.5677778 110.432657,49.5588889 110.432657,49.4555556 C110.432657,49.2974074 110.245724,48.7655556 110.189829,48.7655556 C110.164657,48.7655556 110.093586,48.5988889 110.031768,48.3951852 C109.96995,48.1914815 109.900729,48.0248148 109.877409,48.0248148 C109.854459,48.0248148 109.801525,47.9111111 109.760066,47.7725926 C109.718238,47.6340741 109.630878,47.4325926 109.565359,47.3251852 C109.49984,47.2177778 109.446166,47.0911111 109.445796,47.0437037 C109.445796,46.9966667 109.391751,46.8437037 109.325862,46.7044444 C109.037873,46.0937037 108.723232,45.3266667 108.71842,45.222963 C108.716939,45.192963 108.689917,45.1511111 108.658083,45.1303704 C108.626249,45.1096296 108.552215,44.9466667 108.493729,44.7685185 C108.434873,44.5903704 108.368243,44.4444444 108.345293,44.4444444 C108.322343,44.4444444 108.267188,44.3262963 108.222768,44.1822222 C108.178348,44.0377778 108.07174,43.767037 107.985862,43.5803704 C107.684547,42.9240741 107.607552,42.7448148 107.527227,42.5155556 C107.482807,42.3881481 107.42432,42.2840741 107.397298,42.2840741 C107.370276,42.2840741 107.348066,42.2285185 107.348066,42.1603704 C107.348066,42.0433333 107.306978,42.037037 106.550359,42.037037 L105.753022,42.037037 L105.594221,42.3725926 M35.1039282,45.8333333 L35.1039282,49.5677778 L35.9986188,49.5677778 L36.8933094,49.5677778 L36.8933094,48.3951852 L36.8933094,47.2222222 L37.4470773,47.2222222 C37.9838177,47.2222222 38.0041768,47.2274074 38.1089337,47.3918519 C38.1681602,47.4851852 38.2333094,47.5755556 38.2536685,47.5925926 C38.2740276,47.6096296 38.3558343,47.7414815 38.4361602,47.8859259 C38.516116,48.03 38.5979227,48.1481481 38.6179116,48.1481481 C38.6379006,48.1481481 38.7067514,48.2451852 38.7704199,48.3640741 C38.8344586,48.482963 38.9103425,48.5803704 38.9388453,48.5803704 C38.9673481,48.5803704 38.9906685,48.6177778 38.9906685,48.6637037 C38.9906685,48.7092593 39.0806188,48.8692593 39.190558,49.0185185 C39.3004972,49.1677778 39.4193204,49.3455556 39.4548564,49.4137037 C39.5148232,49.5292593 39.581453,49.537037 40.535,49.537037 C41.6721492,49.537037 41.6936188,49.5259259 41.3593591,49.107037 C41.1305967,48.8203704 41.1254144,48.812963 40.9662431,48.5492593 C40.8844365,48.4137037 40.7989282,48.2885185 40.7763481,48.2714815 C40.753768,48.2544444 40.6893591,48.1503704 40.6327238,48.04 C40.5760884,47.9296296 40.5061271,47.8396296 40.476884,47.8396296 C40.448011,47.8396296 40.407663,47.7907407 40.3880442,47.7314815 C40.3680552,47.6722222 40.253674,47.4885185 40.1337403,47.3233333 C39.8587072,46.9444444 39.8612983,46.8955556 40.1615028,46.76 C40.4258011,46.6407407 40.8092928,46.277037 41.0469392,45.9203704 C41.4444972,45.3237037 41.4252486,43.6855556 41.0154751,43.2455556 C40.9540276,43.1792593 40.9033149,43.1066667 40.9033149,43.0840741 C40.9033149,42.9174074 40.1548398,42.3788889 39.8302044,42.3122222 C39.7250773,42.2903704 39.5196354,42.2337037 39.3741602,42.1855556 C39.1687182,42.1181481 38.663442,42.0988889 37.106895,42.0988889 L35.1039282,42.0988889 L35.1039282,45.8333333 M56.1704309,42.1751852 C56.1541436,42.2181481 56.1478508,43.8918519 56.1567348,45.8951852 L56.1726519,49.537037 L59.0277403,49.552963 L61.8831989,49.5692593 L61.8658011,48.7814815 L61.8484033,47.9937037 L59.8587624,47.9774074 L57.8691215,47.9611111 L57.8691215,47.282963 L57.8691215,46.6048148 L59.5966851,46.6048148 L61.3242486,46.6048148 L61.3242486,45.8333333 L61.3242486,45.0618519 L59.5966851,45.0618519 L57.8691215,45.0618519 L57.8691215,44.3518519 L57.8691215,43.6418519 L59.8454365,43.6418519 L61.8213812,43.6418519 L61.8039834,42.8859259 L61.7869558,42.1296296 L58.9933149,42.1137037 C56.7915691,42.1007407 56.1937514,42.1140741 56.1704309,42.1751852 M65.8276851,45.8333333 L65.8276851,49.5677778 L66.676105,49.5677778 L67.5245249,49.5677778 L67.5074972,47.3425926 C67.4904696,45.1251852 67.4908398,45.1177778 67.6155856,45.1844444 C67.6840663,45.2211111 67.7403315,45.2918519 67.7403315,45.3411111 C67.7403315,45.3907407 67.7958564,45.4659259 67.8635967,45.5081481 C67.9317072,45.5507407 67.987232,45.6096296 67.987232,45.6392593 C67.987232,45.6692593 68.0634862,45.7822222 68.156768,45.8903704 C68.2500497,45.9985185 68.395895,46.18 68.480663,46.2940741 C68.5654309,46.4077778 68.6716685,46.5381481 68.7164586,46.5837037 C68.7612486,46.6292593 68.7753149,46.667037 68.7471823,46.6677778 C68.7194199,46.6681481 68.7283039,46.6888889 68.7671713,46.7140741 C68.8060387,46.7388889 68.9507735,46.9118519 69.0892155,47.0988889 C69.2276575,47.2855556 69.3946022,47.5077778 69.4604917,47.5925926 C69.526011,47.6774074 69.7484807,47.9692593 69.9550331,48.2407407 C70.1612155,48.5122222 70.3788729,48.7988889 70.4388398,48.8774074 C70.4984365,48.9559259 70.5891271,49.0674074 70.6398398,49.1251852 C70.6909227,49.182963 70.7816133,49.3062963 70.8419503,49.3992593 L70.9511492,49.5677778 L71.7210939,49.5677778 L72.4906685,49.5677778 L72.4906685,45.9311111 C72.4906685,43.9307407 72.474011,42.25 72.4532818,42.1962963 C72.4218177,42.1140741 72.286337,42.0988889 71.5896851,42.0988889 L70.7634751,42.0988889 L70.7634751,44.2592593 C70.7634751,45.4474074 70.7423757,46.4185185 70.7172044,46.417037 C70.691663,46.4151852 70.5735801,46.2744444 70.4547569,46.1037037 C70.3359337,45.932963 70.1697293,45.7025926 70.0845912,45.5914815 C69.9998232,45.4803704 69.861011,45.297037 69.7762431,45.1844444 C69.6914751,45.0714815 69.5782044,44.9351852 69.5249006,44.8814815 C69.4712265,44.8277778 69.3686906,44.6866667 69.2961381,44.5677778 C69.2239558,44.4488889 69.1010608,44.2825926 69.023326,44.1974074 C68.9455912,44.1125926 68.7845691,43.9107407 68.6657459,43.7485185 C68.3999669,43.3855556 67.7247845,42.4985185 67.5393315,42.2685185 C67.4027403,42.0992593 67.399779,42.0988889 66.6150276,42.0988889 L65.8276851,42.0988889 L65.8276851,45.8333333 M76.192326,42.9011111 L76.192326,43.7037037 L77.3339171,43.7037037 L78.4751381,43.7037037 L78.4751381,46.6359259 L78.4751381,49.5677778 L79.3387348,49.5677778 L80.2027017,49.5677778 L80.2027017,46.6359259 L80.2027017,43.7037037 L81.3131989,43.7037037 L82.4236961,43.7037037 L82.4236961,42.9011111 L82.4236961,42.0988889 L79.308011,42.0988889 L76.192326,42.0988889 L76.192326,42.9011111 M86.2486188,45.8333333 L86.2486188,49.5677778 L87.0814917,49.5677778 L87.9143646,49.5677778 L87.9143646,45.8333333 L87.9143646,42.0988889 L87.0814917,42.0988889 L86.2486188,42.0988889 L86.2486188,45.8333333 M92.2830608,42.1451852 C92.272326,42.1703704 92.2712155,43.8511111 92.2800994,45.8796296 L92.2967569,49.5677778 L93.1592431,49.5677778 L94.0220994,49.5677778 L94.0220994,47.3366667 L94.0220994,45.1055556 L94.1609116,45.2644444 C94.2371657,45.3518519 94.4244696,45.5940741 94.5773481,45.8025926 C94.7298564,46.0111111 94.9175304,46.2503704 94.9937845,46.3344444 C95.0700387,46.4185185 95.1325967,46.5025926 95.1325967,46.5214815 C95.1325967,46.5403704 95.2991713,46.7681481 95.5027624,47.0277778 C95.7067238,47.2874074 95.9354862,47.5807407 96.0117403,47.6796296 C96.0879945,47.7785185 96.1990442,47.9103704 96.2586409,47.972963 C96.3178674,48.0351852 96.3663591,48.1033333 96.3663591,48.1237037 C96.3663591,48.1648148 96.801674,48.7377778 96.951221,48.8940741 C97.0030442,48.9477778 97.0452431,49.0140741 97.0452431,49.0411111 C97.0452431,49.0681481 97.0937348,49.1359259 97.1529613,49.1911111 C97.212558,49.2466667 97.2917735,49.347037 97.3295304,49.4144444 C97.3909779,49.5251852 97.4735249,49.5388889 98.1775801,49.5544444 L98.9575193,49.5714815 L98.9575193,45.8333333 L98.9575193,42.0955556 L98.0891105,42.1125926 L97.2210718,42.1296296 L97.2277348,44.3196296 L97.234768,46.5096296 L96.9904586,46.1714815 C96.8564586,45.9855556 96.7061713,45.7881481 96.6565691,45.7325926 C96.6069669,45.6774074 96.4470552,45.4692593 96.3012099,45.2696296 C96.1553646,45.0703704 96.0191436,44.8933333 95.9991547,44.8766667 C95.9791657,44.8596296 95.9129061,44.7674074 95.8518287,44.6718519 C95.7911215,44.5762963 95.6996906,44.4511111 95.6493481,44.3940741 C95.5986354,44.337037 95.4216961,44.1096296 95.2558619,43.8888889 C95.0903978,43.6681481 94.9182707,43.4451852 94.8738508,43.392963 C94.8294309,43.3411111 94.6961713,43.1659259 94.5773481,43.0040741 C94.4585249,42.8418519 94.271221,42.597037 94.1609116,42.46 C94.0506022,42.322963 93.9602818,42.1855556 93.9602818,42.1548148 C93.9602818,42.0877778 92.310453,42.0785185 92.2830608,42.1451852 M39.0258343,43.8355556 C39.8039227,44.2014815 39.7983702,45.1837037 39.0158398,45.53 C38.7100829,45.6651852 38.5960718,45.6788889 37.7861492,45.6788889 L36.8933094,45.6788889 L36.8933094,44.6914815 L36.8933094,43.7037037 L37.8190939,43.7037037 C38.6364199,43.7037037 38.7781934,43.7192593 39.0258343,43.8355556 M27.6587845,44.6296296 C27.7098674,44.7822222 27.7957459,44.9907407 27.8494199,45.0925926 C27.9030939,45.1944444 27.9467735,45.2977778 27.9471436,45.3222222 C27.9475138,45.3466667 28.014884,45.5137037 28.0970608,45.6937037 C28.1792376,45.8733333 28.2654862,46.0962963 28.2888066,46.1892593 L28.3310055,46.3581481 L27.4940608,46.3581481 L26.6574862,46.3581481 L26.7407735,46.1266667 C26.786674,45.9992593 26.8677403,45.8133333 26.920674,45.7133333 C26.9736077,45.6133333 27.0509724,45.3981481 27.0928011,45.2348148 C27.1346298,45.0718519 27.1897845,44.9381481 27.2156961,44.9381481 C27.2416077,44.9381481 27.3108287,44.7851852 27.3696851,44.5977778 C27.4885083,44.2207407 27.5225635,44.2244444 27.6587845,44.6296296 M106.793558,44.9692593 C106.902387,45.2407407 107.040829,45.5740741 107.101906,45.71 C107.234796,46.0059259 107.348066,46.2914815 107.348066,46.33 C107.348066,46.3455556 106.973088,46.3581481 106.515193,46.3581481 C106.01547,46.3581481 105.68232,46.3340741 105.68232,46.2977778 C105.68232,46.2648148 105.765608,46.0555556 105.867403,45.8333333 C105.969199,45.6111111 106.052486,45.3940741 106.052486,45.3518519 C106.052486,45.3092593 106.089133,45.2196296 106.133923,45.1525926 C106.203144,45.0488889 106.273105,44.8737037 106.465221,44.3211111 C106.490762,44.2477778 106.50779,44.2540741 106.547028,44.3518519 C106.57405,44.4196296 106.685099,44.6974074 106.793558,44.9692593" id="path3" fill="#6483B5"></path>
                <path d="M25.8997569,3.87333333 C25.7909282,4 25.7094917,4.13592593 25.7420663,4.13592593 C25.7546519,4.13592593 25.8264641,4.05259259 25.9019779,3.95074074 C26.0504144,3.74925926 26.0493039,3.69925926 25.8997569,3.87333333 M25.6188011,4.27481481 C25.531442,4.38481481 25.4089171,4.62962963 25.4407514,4.62962963 C25.455558,4.62962963 25.524779,4.53222222 25.5951105,4.4137037 C25.7224475,4.19777778 25.7339227,4.12925926 25.6188011,4.27481481 M25.2304972,4.88 C25.1564641,4.98407407 25.1064917,5.07925926 25.1190773,5.09185185 C25.131663,5.10444444 25.2042155,5.01925926 25.2804696,4.90296296 C25.4525967,4.64037037 25.4137293,4.62259259 25.2304972,4.88 M24.9480608,5.32407407 C24.7355856,5.68444444 24.7218895,5.71518519 24.8299779,5.5862963 C24.9550939,5.43703704 25.0631823,5.24703704 25.0228343,5.24703704 C25.006547,5.24703704 24.9728619,5.28148148 24.9480608,5.32407407 M24.6330497,5.81777778 C24.5127459,5.97407407 24.4712873,6.06962963 24.5445801,6.02444444 C24.6175028,5.97925926 24.7637182,5.74074074 24.7181878,5.74074074 C24.7041215,5.74074074 24.6659945,5.77555556 24.6330497,5.81777778 M24.0844641,6.68222222 C23.871989,7.04259259 23.8579227,7.07333333 23.9663812,6.94444444 C24.0914972,6.79518519 24.1995856,6.60481481 24.1592376,6.60481481 C24.1429503,6.60481481 24.1092652,6.63962963 24.0844641,6.68222222 M23.5292155,7.5462963 C23.3167403,7.90666667 23.302674,7.93740741 23.4111326,7.80851852 C23.5362486,7.65925926 23.644337,7.46925926 23.603989,7.46925926 C23.5877017,7.46925926 23.5540166,7.5037037 23.5292155,7.5462963 M23.097232,8.22518519 C22.8847569,8.58592593 22.8710608,8.61666667 22.9791492,8.48777778 C23.1042652,8.33814815 23.2123536,8.14814815 23.1720055,8.14814815 C23.1557182,8.14814815 23.1220331,8.18296296 23.097232,8.22518519 M22.782221,8.71925926 C22.6619171,8.87518519 22.6204586,8.97111111 22.6937514,8.92592593 C22.766674,8.88074074 22.9128895,8.64185185 22.8673591,8.64185185 C22.8532928,8.64185185 22.8151657,8.67666667 22.782221,8.71925926 M22.5419834,9.08962963 C22.3295083,9.45 22.3158122,9.48074074 22.4239006,9.35185185 C22.5490166,9.20259259 22.657105,9.01222222 22.6167569,9.01222222 C22.6004696,9.01222222 22.5667845,9.04703704 22.5419834,9.08962963 M22.2258619,9.58333333 C22.1921768,9.62592593 22.1314696,9.73 22.0914917,9.81481481 C22.0059834,9.99444444 22.1603425,9.82851852 22.2784254,9.61407407 C22.3469061,9.48925926 22.3150718,9.47037037 22.2258619,9.58333333 M21.502558,10.7151852 C21.4451823,10.802963 21.4085359,10.8855556 21.4214917,10.8985185 C21.4348177,10.9114815 21.4940442,10.8396296 21.5536409,10.7388889 C21.6865304,10.5137037 21.6465525,10.4951852 21.502558,10.7151852 M19.6972597,13.5611111 C19.5373481,13.7922222 19.4610939,13.9514815 19.5843591,13.7962963 C19.6387735,13.7285185 19.7257624,13.6214815 19.7786961,13.5588889 C19.8312597,13.4962963 19.8616133,13.4322222 19.8456961,13.4166667 C19.8301492,13.4007407 19.7631492,13.4659259 19.6972597,13.5611111 M18.840326,14.8918519 C18.6278508,15.2525926 18.6141547,15.2833333 18.7222431,15.1544444 C18.8473591,15.0048148 18.9554475,14.8148148 18.9150994,14.8148148 C18.8988122,14.8148148 18.8651271,14.8496296 18.840326,14.8918519 M18.2376961,15.8333333 C18.1829116,15.9181481 18.0933315,16.0640741 18.0381768,16.1574074 L17.938232,16.327037 L18.0626077,16.177037 C18.2091934,15.9992593 18.4035304,15.6788889 18.364663,15.6788889 C18.3494862,15.6788889 18.2924807,15.7485185 18.2376961,15.8333333 M17.8530939,16.4351852 C17.640989,16.7955556 17.6269227,16.8262963 17.735011,16.6974074 C17.8604972,16.5481481 17.9685856,16.3581481 17.9278674,16.3581481 C17.9119503,16.3581481 17.8782652,16.3925926 17.8530939,16.4351852 M17.2978453,17.2992593 C17.0857403,17.66 17.071674,17.6907407 17.1797624,17.5618519 C17.3052486,17.4122222 17.413337,17.2222222 17.3726188,17.2222222 C17.3567017,17.2222222 17.3230166,17.257037 17.2978453,17.2992593 M16.9817238,17.7933333 C16.9480387,17.8355556 16.8877017,17.94 16.8473536,18.0248148 C16.7622155,18.2040741 16.9165746,18.0385185 17.0342873,17.8240741 C17.1031381,17.6988889 17.0709337,17.6803704 16.9817238,17.7933333 M16.4342486,18.6574074 C16.2217735,19.0177778 16.2080773,19.0485185 16.3161657,18.9196296 C16.4412818,18.7703704 16.5493702,18.5803704 16.5090221,18.5803704 C16.4927348,18.5803704 16.4590497,18.6148148 16.4342486,18.6574074 M68.480663,18.862963 L68.3263039,18.9559259 L68.480663,18.9155556 C68.5654309,18.8933333 68.6613039,18.8503704 68.6935083,18.8203704 C68.7879006,18.7322222 68.6524199,18.7592593 68.480663,18.862963 M67.7096077,19.1688889 C67.5545083,19.2437037 67.549326,19.2518519 67.6785138,19.2207407 C67.7636519,19.2003704 67.8591547,19.1588889 67.8913591,19.1288889 C67.9713149,19.0540741 67.9276354,19.0637037 67.7096077,19.1688889 M16.0022652,19.3362963 C15.7901602,19.697037 15.7760939,19.7277778 15.8841823,19.5988889 C16.0096685,19.4492593 16.1177569,19.2592593 16.0770387,19.2592593 C16.0611215,19.2592593 16.0274365,19.2940741 16.0022652,19.3362963 M66.9074586,19.4774074 C66.7523591,19.5522222 66.747547,19.5607407 66.8767348,19.5296296 C66.9615028,19.5088889 67.0573757,19.4677778 67.0895801,19.4374074 C67.1695359,19.3625926 67.1254862,19.3722222 66.9074586,19.4774074 M66.1053094,19.7862963 C65.9505801,19.8607407 65.9453978,19.8692593 66.0745856,19.8381481 C66.1593536,19.8177778 66.2552265,19.7762963 66.2874309,19.7462963 C66.3673867,19.6714815 66.323337,19.6811111 66.1053094,19.7862963 M65.3035304,20.0948148 C65.1491713,20.1692593 65.143989,20.1777778 65.2724365,20.1462963 C65.4475249,20.1033333 65.6437127,20.0033333 65.5500608,20.0048148 C65.5163757,20.0051852 65.405326,20.0455556 65.3035304,20.0948148 M15.3948232,20.282963 C15.3374475,20.3711111 15.3008011,20.4533333 15.3137569,20.4662963 C15.3270829,20.4792593 15.3863094,20.4074074 15.4459061,20.3066667 C15.5787956,20.0814815 15.5388177,20.062963 15.3948232,20.282963 M64.5013812,20.4033333 C64.3470221,20.4777778 64.3418398,20.4862963 64.4706575,20.4548148 C64.6453757,20.4122222 64.8419337,20.3118519 64.7482818,20.3133333 C64.7142265,20.3137037 64.6031768,20.3544444 64.5013812,20.4033333 M63.6377845,20.7374074 C63.5019337,20.8014815 63.4186464,20.8544444 63.4527017,20.8544444 C63.5367293,20.8551852 64.0234972,20.627037 63.9461326,20.6233333 C63.9120773,20.6218519 63.7732652,20.672963 63.6377845,20.7374074 M62.8356354,21.0537037 C62.6997845,21.1192593 62.658326,21.1551852 62.7430939,21.1340741 C62.9178122,21.0907407 63.2383757,20.9296296 63.1439834,20.932963 C63.1102983,20.9340741 62.9714862,20.9885185 62.8356354,21.0537037 M62.0334862,21.3625926 C61.8980055,21.4277778 61.8561768,21.4640741 61.9409448,21.442963 C62.115663,21.3992593 62.4365967,21.2385185 62.3422044,21.2414815 C62.3081492,21.2425926 62.169337,21.297037 62.0334862,21.3625926 M61.2317072,21.6711111 C61.0958564,21.7362963 61.0543978,21.7722222 61.1391657,21.7507407 C61.374221,21.6914815 61.570779,21.6114815 61.570779,21.5755556 C61.570779,21.5233333 61.4937845,21.5451852 61.2317072,21.6711111 M60.5220994,21.9492593 L60.3677403,22.0422222 L60.5220994,22.0018519 C60.6068674,21.9796296 60.7027403,21.9366667 60.7349448,21.9066667 C60.829337,21.8185185 60.6938564,21.8455556 60.5220994,21.9492593 M59.7510442,22.2551852 C59.5959448,22.33 59.5907624,22.3385185 59.7199503,22.3074074 C59.8050884,22.2866667 59.9005912,22.2455556 59.9327956,22.2151852 C60.0127514,22.1403704 59.9690718,22.15 59.7510442,22.2551852 M58.948895,22.5640741 C58.7937956,22.6385185 58.7889834,22.647037 58.9181713,22.6159259 C59.0029392,22.5955556 59.0988122,22.5540741 59.1310166,22.5240741 C59.2109724,22.4492593 59.1669227,22.4588889 58.948895,22.5640741 M48.2855304,26.5559259 C48.2351878,26.7477778 48.2736851,26.7574074 48.3569724,26.5744444 C48.3958398,26.4892593 48.4036133,26.4196296 48.3743702,26.4196296 C48.3451271,26.4196296 48.3051492,26.4811111 48.2855304,26.5559259 M11.1430994,26.9444444 C11.0879448,27.0292593 10.9983646,27.1751852 10.9435801,27.2685185 L10.8436354,27.4381481 L10.9676409,27.2881481 C11.1142265,27.1103704 11.3085635,26.79 11.2696961,26.79 C11.2548895,26.79 11.197884,26.8596296 11.1430994,26.9444444 M47.7206575,26.9148148 C47.5829558,26.9822222 47.5418674,27.0192593 47.628116,26.9977778 C47.8083867,26.9533333 48.119326,26.7955556 48.0290055,26.7940741 C47.9949503,26.7937037 47.8561381,26.8477778 47.7206575,26.9148148 M46.9185083,27.2266667 C46.7826575,27.2918519 46.7411989,27.3281481 46.8259669,27.307037 C47.0006851,27.2633333 47.3212486,27.1025926 47.2268564,27.1059259 C47.1931713,27.107037 47.0543591,27.1614815 46.9185083,27.2266667 M46.1163591,27.5351852 C45.9808785,27.6007407 45.9390497,27.6366667 46.0238177,27.6155556 C46.1985359,27.5722222 46.5194696,27.4111111 46.4250773,27.4144444 C46.3910221,27.4155556 46.2522099,27.47 46.1163591,27.5351852 M10.7584972,27.5462963 C10.5460221,27.9066667 10.5319558,27.9374074 10.6404144,27.8085185 C10.7655304,27.6592593 10.8736188,27.4692593 10.8332707,27.4692593 C10.8169834,27.4692593 10.7832983,27.5037037 10.7584972,27.5462963 M45.4071215,27.8133333 L45.2527624,27.9062963 L45.4071215,27.8659259 C45.4918895,27.8437037 45.5877624,27.8011111 45.6199669,27.7707407 C45.713989,27.6825926 45.5788785,27.7096296 45.4071215,27.8133333 M44.6356961,28.1196296 C44.4809669,28.1940741 44.4757845,28.2025926 44.6049724,28.1714815 C44.6897403,28.1511111 44.7856133,28.1096296 44.8178177,28.0796296 C44.8977735,28.0048148 44.8537238,28.0144444 44.6356961,28.1196296 M10.2032486,28.4103704 C9.99077348,28.7711111 9.97670718,28.8018519 10.0851657,28.672963 C10.2102818,28.5233333 10.3183702,28.3333333 10.2780221,28.3333333 C10.2617348,28.3333333 10.2280497,28.3681481 10.2032486,28.4103704 M43.8339171,28.4281481 C43.6788177,28.502963 43.6736354,28.5111111 43.8028232,28.48 C43.8879613,28.4596296 43.9834641,28.4181481 44.0156685,28.3881481 C44.0956243,28.3133333 44.0519448,28.322963 43.8339171,28.4281481 M43.031768,28.7366667 C42.8766685,28.8114815 42.8718564,28.82 43.0010442,28.7888889 C43.0858122,28.7681481 43.1816851,28.727037 43.2138895,28.6966667 C43.2938453,28.6218519 43.2497956,28.6314815 43.031768,28.7366667 M9.88675691,28.9044444 C9.85307182,28.9466667 9.79273481,29.0511111 9.75238674,29.1359259 C9.66724862,29.3151852 9.82160773,29.1496296 9.93932044,28.9351852 C10.0081713,28.81 9.97633702,28.7914815 9.88675691,28.9044444 M42.2296188,29.0455556 C42.0756298,29.1196296 42.0704475,29.1281481 42.198895,29.097037 C42.3736133,29.0540741 42.5701713,28.9540741 42.4765193,28.9551852 C42.4424641,28.9559259 42.3314144,28.9962963 42.2296188,29.0455556 M41.3660221,29.3792593 C41.2301713,29.4437037 41.146884,29.4962963 41.1809392,29.4966667 C41.2649669,29.497037 41.752105,29.2692593 41.6743702,29.2655556 C41.6406851,29.2637037 41.5018729,29.3151852 41.3660221,29.3792593 M40.5638729,29.6925926 C40.4261713,29.76 40.385453,29.797037 40.4713315,29.7755556 C40.6516022,29.7311111 40.9629116,29.5733333 40.8725912,29.5718519 C40.8385359,29.5714815 40.6997238,29.6255556 40.5638729,29.6925926 M9.33928177,29.7685185 C9.1271768,30.1288889 9.1131105,30.1596296 9.2211989,30.0307407 C9.34668508,29.8814815 9.45477348,29.6914815 9.41405525,29.6914815 C9.39813812,29.6914815 9.36445304,29.7259259 9.33928177,29.7685185 M39.7620939,30.0044444 C39.6262431,30.0696296 39.5847845,30.1059259 39.6695525,30.0848148 C39.8442707,30.0411111 40.1648343,29.8803704 40.070442,29.8837037 C40.0363867,29.8848148 39.8975746,29.9392593 39.7620939,30.0044444 M8.90766851,30.4474074 C8.69519337,30.8081481 8.68112707,30.8388889 8.78958564,30.71 C8.91470166,30.5603704 9.02279006,30.3703704 8.98244199,30.3703704 C8.9661547,30.3703704 8.93246961,30.4051852 8.90766851,30.4474074 M8.35241989,31.3118519 C8.13994475,31.6722222 8.12587845,31.702963 8.23433702,31.5740741 C8.35945304,31.4248148 8.46754144,31.2344444 8.42719337,31.2344444 C8.41090608,31.2344444 8.37722099,31.2692593 8.35241989,31.3118519 M7.87971823,32.0525926 C7.59358011,32.502963 7.57766298,32.5307407 7.60727624,32.5307407 C7.63133702,32.5307407 7.72276796,32.3992593 8.04777348,31.8981481 C8.10848066,31.8048148 8.14179558,31.7285185 8.12180663,31.7285185 C8.10181768,31.7285185 7.99298895,31.8740741 7.87971823,32.0525926 M7.36518785,32.8548148 C7.15271271,33.2155556 7.13901657,33.2462963 7.24710497,33.1174074 C7.37222099,32.9677778 7.48030939,32.7777778 7.43996133,32.7777778 C7.42367403,32.7777778 7.38998895,32.8125926 7.36518785,32.8548148 M7.07423757,33.3125926 C7.01427072,33.3725926 7.02389503,33.6418519 7.08608287,33.6418519 C7.12383978,33.6418519 7.15826519,33.272963 7.12050829,33.2718519 C7.11754696,33.2718519 7.09681768,33.29 7.07423757,33.3125926 M92.2619613,45.8951852 C92.2619613,47.8981481 92.2697348,48.7085185 92.2793591,47.6962963 C92.2886133,46.6837037 92.2886133,45.0448148 92.2793591,44.0540741 C92.2697348,43.0637037 92.2619613,43.8918519 92.2619613,45.8951852 M97.1962707,44.3825926 C97.1962707,45.5540741 97.2044144,46.0333333 97.214779,45.4474074 C97.2247735,44.8618519 97.2247735,43.9037037 97.214779,43.3177778 C97.2044144,42.7322222 97.1962707,43.2114815 97.1962707,44.3825926 M67.5215635,47.3148148 C67.5215635,48.537037 67.5297072,49.0459259 67.5397017,48.4451852 C67.5496961,47.8448148 67.5496961,46.8448148 67.5397017,46.222963 C67.5297072,45.6014815 67.5215635,46.0925926 67.5215635,47.3148148 M48.7619337,46.0492593 C48.7619337,46.4396296 48.7719282,46.5996296 48.7841436,46.4044444 C48.7963591,46.2092593 48.7963591,45.8896296 48.7841436,45.6944444 C48.7719282,45.4992593 48.7619337,45.6588889 48.7619337,46.0492593" id="path4" fill="#6A7FBF"></path>
                <path d="M78.3437293,1.06481481 C78.269326,1.20481481 77.9398785,1.7162963 76.9023039,3.30259259 C76.5913646,3.77777778 76.1838122,4.40259259 75.9965083,4.69148148 C75.8095746,4.98 75.439779,5.54925926 75.1751105,5.95666667 C74.9100718,6.36407407 74.6561381,6.71962963 74.6102376,6.74703704 C74.4595801,6.83592593 74.4891934,16.5677778 74.6398508,16.487037 C74.7268398,16.4403704 74.8445525,16.4762963 75.1488287,16.6414815 C75.3664862,16.76 75.6411492,16.9003704 75.7588619,16.9533333 C75.8765746,17.0066667 76.1819613,17.1677778 76.4373757,17.3118519 C76.6927901,17.4559259 77.2350829,17.7488889 77.6422652,17.9625926 C78.0494475,18.1766667 78.591,18.4622222 78.8453039,18.5974074 C79.0999779,18.7325926 79.6270939,19.0096296 80.0176188,19.212963 C80.4077735,19.4166667 80.7546188,19.6033333 80.788674,19.6281481 C80.8227293,19.6533333 81.2391657,19.8759259 81.7140884,20.1237037 C82.189011,20.3711111 82.758326,20.6703704 82.9789448,20.7885185 C83.1991934,20.9062963 83.6644917,21.1548148 84.0120773,21.3403704 L84.6446906,21.6774074 L84.6446906,11.3014815 L84.6446906,0.925925926 L81.5312265,0.925925926 L78.4177624,0.925925926 L78.3437293,1.06481481 M105.843713,4.84333333 C105.724149,5.02592593 105.686392,30.4322222 105.805586,30.4322222 C105.839641,30.4322222 105.867403,30.4714815 105.867403,30.5196296 C105.867403,30.7014815 106.058409,30.672963 106.885359,30.3685185 C107.054895,30.3059259 108.040646,29.9585185 109.07563,29.5959259 C110.110243,29.2337037 111.095994,28.8866667 111.26553,28.8244444 C111.435436,28.7625926 112.379359,28.4307407 113.36326,28.087037 C114.34716,27.7433333 115.332912,27.3966667 115.55353,27.3166667 C115.773779,27.2366667 116.060657,27.1381481 116.190215,27.0977778 C116.547796,26.9866667 116.536691,26.6666667 116.174669,26.6666667 C116.046961,26.6666667 116.046961,26.6625926 116.046961,23.4259259 L116.046961,20.1851852 L122.111387,20.1851852 C128.293525,20.1851852 128.324249,20.1840741 128.324249,19.9659259 C128.324249,19.927037 128.095116,19.74 127.815271,19.5507407 C127.535055,19.3611111 126.792503,18.8548148 126.164702,18.4259259 C125.536901,17.9966667 124.718094,17.4377778 124.344967,17.1837037 C123.97147,16.9296296 123.041613,16.2944444 122.277961,15.7722222 C121.51468,15.2503704 120.529669,14.5781481 120.089171,14.2788889 L119.288133,13.7344444 L117.667547,13.712963 L116.046961,13.6918519 L116.046961,12.8422222 C116.046961,11.5892593 116.024751,11.4844444 115.716033,11.2881481 C115.482088,11.1392593 115.157083,10.9174074 113.455801,9.74518519 C113.133387,9.52333333 112.508917,9.09592593 112.06768,8.7962963 C111.298105,8.27259259 110.79616,7.92962963 109.553514,7.07777778 C109.239613,6.86296296 108.622177,6.44148148 108.180939,6.14185185 C107.739702,5.84222222 107.082287,5.39333333 106.719525,5.14444444 C105.976602,4.6337037 105.980304,4.63518519 105.843713,4.84333333 M67.8473094,21.25 C67.1084586,22.277037 66.5554309,23.0418519 64.6083591,25.73 C64.1082652,26.4203704 63.6437072,27.0637037 63.5759669,27.16 C63.3131492,27.5333333 62.5209945,28.6314815 62.2174586,29.0433333 C61.838779,29.5574074 60.3843978,31.5655556 60.1212099,31.9381481 C60.0194144,32.0822222 59.7299448,32.4859259 59.4778619,32.8351852 C58.9322376,33.5918519 58.9629613,33.9159259 59.5504144,33.6074074 C60.1441602,33.2955556 60.5805856,33.0862963 60.637221,33.0862963 C60.6723867,33.0862963 60.7230994,33.0507407 60.7504917,33.0074074 C60.7775138,32.9640741 60.9178066,32.8766667 61.0618011,32.812963 C61.2061657,32.7492593 61.3242486,32.68 61.3242486,32.6588889 C61.3242486,32.6377778 61.4464033,32.5655556 61.5963204,32.4988889 C61.7458674,32.4322222 61.8572873,32.36 61.8439613,32.3381481 C61.8302652,32.3162963 61.9002265,32.2648148 61.9990608,32.2237037 C62.097895,32.1825926 62.2267127,32.0962963 62.2855691,32.0314815 C62.3440552,31.9666667 62.4236409,31.9137037 62.4621381,31.9137037 C62.5006354,31.9137037 62.6979337,31.7614815 62.9000442,31.5759259 C63.1021547,31.3903704 63.2872376,31.2374074 63.3112983,31.2362963 C63.3353591,31.2355556 63.4741713,31.117037 63.6196464,30.9733333 C63.7654917,30.8292593 63.9006022,30.7114815 63.9205912,30.7107407 C63.9816685,30.7092593 64.4706575,30.1792593 64.4706575,30.1148148 C64.4706575,30.0814815 64.4984199,30.0714815 64.532105,30.0925926 C64.5661602,30.1137037 64.5939227,30.1003704 64.5939227,30.0637037 C64.5939227,30.0266667 64.6894254,29.892963 64.8063978,29.7666667 C65.2798398,29.2551852 65.5322928,28.9507407 65.4826906,28.9507407 C65.4538177,28.9507407 65.4919448,28.9074074 65.5674586,28.8544444 C65.6426022,28.8018519 65.7044199,28.7185185 65.7044199,28.6692593 C65.7044199,28.6203704 65.731442,28.5803704 65.7647569,28.5803704 C65.7980718,28.5803704 65.8806188,28.4718519 65.9483591,28.3388889 C66.0160994,28.2062963 66.0927238,28.0881481 66.1193757,28.0766667 C66.1845249,28.0477778 66.4018122,27.7314815 66.5361823,27.4692593 C66.5972597,27.3503704 66.6653702,27.2392593 66.6883204,27.2222222 C66.7109006,27.2051852 66.7904862,27.0662963 66.8648895,26.9137037 C66.939663,26.7607407 67.0277624,26.5940741 67.0610773,26.5433333 C67.0943923,26.4922222 67.2202486,26.2285185 67.3409227,25.9566667 C67.4615967,25.6851852 67.5970773,25.3937037 67.6422376,25.3085185 C67.6873978,25.2237037 67.7592099,25.0433333 67.8021492,24.9074074 C67.8447182,24.7714815 67.9009834,24.6325926 67.926895,24.5988889 C67.9528066,24.5648148 68.022768,24.3566667 68.0827348,24.1359259 C68.1423315,23.9151852 68.2111823,23.7066667 68.2352431,23.672963 C68.2589337,23.6388889 68.3263039,23.402963 68.3844199,23.1481481 C68.4425359,22.8937037 68.5154586,22.6296296 68.5465525,22.5618519 C68.6150331,22.4111111 68.789011,21.4092593 68.789011,21.1648148 C68.789011,21.0674074 68.8141823,20.9877778 68.8449061,20.9877778 C68.8756298,20.9877778 68.9100552,20.8488889 68.9219006,20.6788889 C68.9337459,20.5092593 68.9226409,20.3703704 68.8970994,20.3703704 C68.871558,20.3703704 68.8508287,20.3288889 68.8508287,20.2777778 C68.8508287,19.9718519 68.5750552,20.2388889 67.8473094,21.25 M74.5265801,29.1814815 C74.5265801,33.4351852 74.5410166,34.3177778 74.6109779,34.3759259 C74.6716851,34.4262963 75.4986354,34.4411111 77.5697127,34.4296296 L80.4447901,34.4137037 L80.0205801,33.672963 C79.7873757,33.2655556 79.2539669,32.3237037 78.8353094,31.58 C78.4166519,30.8362963 78.0046575,30.1074074 77.9198895,29.9607407 C77.8351215,29.8137037 77.4186851,29.0792593 76.9944751,28.3281481 C76.5702652,27.577037 76.1538287,26.842963 76.0690608,26.6966667 C75.9842928,26.5503704 75.654105,25.962963 75.3350221,25.3914815 C75.0163094,24.8196296 74.7038895,24.2855556 74.6409613,24.2048148 C74.5295414,24.0611111 74.5265801,24.1811111 74.5265801,29.1814815 M93.0348674,26.0977778 C93.0348674,26.1411111 93.3754199,26.3277778 95.3746851,27.3785185 C95.6996906,27.5492593 96.1738729,27.802963 96.4281768,27.9425926 C96.6828508,28.0818519 97.1685083,28.3422222 97.5079503,28.5211111 C97.8470221,28.7 98.3330497,28.9566667 98.5873536,29.0918519 C98.8420276,29.2266667 99.3695138,29.5040741 99.7596685,29.7085185 C100.149823,29.912963 100.572552,30.1451852 100.699149,30.2251852 C100.825746,30.3051852 100.936796,30.3703704 100.94605,30.3703704 C100.982696,30.3703704 100.935315,26.2537037 100.897558,26.1551852 C100.853878,26.0414815 93.0348674,25.9844444 93.0348674,26.0977778" id="path5" fill="#3595D2"></path>
                <path d="M118.94647,13.7281481 C118.94647,13.7414815 119.057519,13.762963 119.19337,13.7759259 C119.329221,13.7888889 119.440271,13.7781481 119.440271,13.7514815 C119.440271,13.7251852 119.329221,13.7037037 119.19337,13.7037037 C119.057519,13.7037037 118.94647,13.7148148 118.94647,13.7281481 M74.6098674,16.5174074 C74.5036298,16.6007407 74.5069613,16.6044444 74.657989,16.5703704 C74.7705193,16.5448148 74.9352431,16.5918519 75.1976906,16.7244444 C75.4053536,16.8296296 75.5756298,16.9014815 75.5756298,16.8848148 C75.5756298,16.8555556 75.0474033,16.5644444 74.825674,16.4711111 C74.7682983,16.447037 74.6739061,16.4674074 74.6098674,16.5174074 M75.7607127,17.0055556 C75.7607127,17.0222222 75.9828122,17.1474074 76.2541436,17.2840741 C76.8756519,17.5966667 76.8963812,17.5618519 76.2878287,17.2277778 C75.8317845,16.9774074 75.7607127,16.9474074 75.7607127,17.0055556 M76.9326575,17.6211111 C76.9326575,17.6377778 77.0437072,17.7085185 77.179558,17.7777778 C77.3154088,17.847037 77.4264586,17.89 77.4264586,17.872963 C77.4264586,17.8559259 77.3154088,17.7851852 77.179558,17.7159259 C77.0437072,17.6466667 76.9326575,17.6040741 76.9326575,17.6211111 M77.5497238,17.9666667 C77.7029724,18.0714815 78.5984033,18.5218519 78.5984033,18.4940741 C78.5984033,18.46 77.5649006,17.9011111 77.5041934,17.9022222 C77.4782818,17.9025926 77.4986409,17.9314815 77.5497238,17.9666667 M78.660221,18.5507407 C78.660221,18.5662963 78.8823204,18.6907407 79.1536519,18.827037 C79.7396243,19.1218519 79.810326,19.1125926 79.2617403,18.812963 C78.8486354,18.5874074 78.660221,18.5051852 78.660221,18.5507407 M79.8325359,19.1633333 C79.8325359,19.2040741 80.7731271,19.6966667 80.8001492,19.6696296 C80.8138453,19.6555556 80.6506022,19.5488889 80.4370166,19.4322222 C80.0350166,19.2125926 79.8325359,19.1225926 79.8325359,19.1633333 M80.8812155,19.72 C80.8812155,19.737037 81.0200276,19.8214815 81.1895635,19.9074074 C81.3594696,19.9933333 81.4982818,20.05 81.4982818,20.032963 C81.4982818,20.0159259 81.3594696,19.9318519 81.1895635,19.8455556 C81.0200276,19.7596296 80.8812155,19.7033333 80.8812155,19.72 M81.5597293,20.0918519 C81.5597293,20.1085185 81.8095912,20.2477778 82.1149779,20.4011111 C82.8175525,20.7540741 82.8371713,20.7188889 82.146442,20.3451852 C81.6241381,20.0625926 81.5597293,20.0348148 81.5597293,20.0918519 M82.7320442,20.7044444 C82.7320442,20.7466667 83.671895,21.2403704 83.6996575,21.212963 C83.7244586,21.1881481 82.8338398,20.6788889 82.7657293,20.6788889 C82.747221,20.6788889 82.7320442,20.6903704 82.7320442,20.7044444 M83.7807238,21.2603704 C83.7807238,21.3040741 84.6028619,21.7292593 84.6313646,21.7003704 C84.6454309,21.6862963 84.4599779,21.5751852 84.219,21.4537037 C83.9780221,21.3322222 83.7807238,21.2455556 83.7807238,21.2603704 M74.6043149,24.1359259 C74.6631713,24.2207407 74.767558,24.3944444 74.8364088,24.5214815 C74.9048895,24.6488889 74.9759613,24.752963 74.9944696,24.752963 C75.051105,24.752963 74.6972265,24.1385185 74.5943204,24.0574074 C74.5169558,23.9966667 74.5188066,24.0125926 74.6043149,24.1359259 M75.1902873,25.1388889 C75.290232,25.317037 75.4897514,25.6781481 75.6333757,25.9411111 C75.7773702,26.2040741 75.924326,26.4374074 75.9606022,26.46 C75.9968785,26.4822222 76.0116851,26.4755556 75.9939171,26.4448148 C75.9761492,26.4140741 75.7621934,26.0348148 75.5182541,25.6018519 C75.2743149,25.1688889 75.059989,24.8148148 75.0414807,24.8148148 C75.0233425,24.8148148 75.0903425,24.9607407 75.1902873,25.1388889 M92.9123425,26.0955556 C92.9138232,26.1581481 93.5334807,26.497037 93.5734586,26.457037 C93.5908564,26.4396296 93.4768453,26.362963 93.319895,26.2866667 C93.1633149,26.2107407 93.0348674,26.1259259 93.0348674,26.0988889 C93.0348674,26.0714815 93.007105,26.0492593 92.9734199,26.0492593 C92.9393646,26.0492593 92.9119724,26.0703704 92.9123425,26.0955556 M100.959376,28.3333333 C100.959376,29.4366667 100.96789,29.8881481 100.977884,29.3362963 C100.988249,28.7848148 100.988249,27.8818519 100.977884,27.3303704 C100.96789,26.7785185 100.959376,27.23 100.959376,28.3333333 M93.6826575,26.5255556 C93.7167127,26.56 94.1053867,26.7766667 94.5466243,27.007037 C94.9874917,27.237037 95.3206409,27.3962963 95.2869558,27.3603704 C95.2529006,27.3248148 94.8642265,27.1081481 94.422989,26.8788889 C93.9821215,26.65 93.6489724,26.4907407 93.6826575,26.5255556 M76.0072431,26.5822222 C76.0072431,26.6359259 76.2578453,27.037037 76.2911602,27.037037 C76.306337,27.037037 76.261547,26.9259259 76.192326,26.79 C76.0764641,26.562963 76.0072431,26.4851852 76.0072431,26.5822222 M76.5302873,27.5 C76.659105,27.7377778 76.7927348,27.96 76.8271602,27.9937037 C76.8619558,28.0277778 76.7849613,27.8611111 76.6565138,27.6233333 C76.5280663,27.3859259 76.3944365,27.1637037 76.3596409,27.1296296 C76.3248453,27.0955556 76.4018398,27.2622222 76.5302873,27.5 M95.5027624,27.4992593 C95.5027624,27.5159259 95.7248619,27.6411111 95.9961934,27.7777778 C96.6177017,28.0903704 96.6388011,28.0559259 96.0302486,27.7214815 C95.5738343,27.4711111 95.5027624,27.4411111 95.5027624,27.4992593 M77.0370442,28.3951852 C77.1392099,28.5818519 77.3405801,28.9496296 77.4842044,29.2125926 C77.6281989,29.4755556 77.7755249,29.7092593 77.8121713,29.7318519 C77.8488177,29.7544444 77.7940331,29.6225926 77.6903867,29.4388889 C77.5867403,29.2551852 77.3857403,28.8966667 77.2435967,28.6418519 C77.101453,28.3874074 76.9552376,28.1511111 76.918221,28.1174074 C76.8812044,28.0833333 76.9348785,28.2081481 77.0370442,28.3951852 M96.6750773,28.1148148 C96.6750773,28.1318519 96.7861271,28.2022222 96.9216077,28.2714815 C97.0574586,28.3407407 97.1685083,28.3837037 97.1685083,28.3666667 C97.1685083,28.3496296 97.0574586,28.2792593 96.9216077,28.21 C96.7861271,28.1407407 96.6750773,28.0977778 96.6750773,28.1148148 M97.2917735,28.4603704 C97.4450221,28.5651852 98.3408232,29.0155556 98.3408232,28.9877778 C98.3408232,28.9537037 97.3069503,28.3948148 97.2462431,28.3959259 C97.2203315,28.3966667 97.2410608,28.4255556 97.2917735,28.4603704 M98.4022707,29.0444444 C98.4022707,29.06 98.6243702,29.1844444 98.8960718,29.3211111 C99.481674,29.6155556 99.5523757,29.6062963 99.0037901,29.307037 C98.5906851,29.0814815 98.4022707,28.9992593 98.4022707,29.0444444 M99.5745856,29.657037 C99.5745856,29.6977778 100.515547,30.1903704 100.542199,30.1637037 C100.556265,30.1496296 100.392652,30.0425926 100.179066,29.9259259 C99.7770663,29.7062963 99.5745856,29.6162963 99.5745856,29.657037 M77.8980497,29.922963 C77.9135967,29.9822222 77.9820773,30.1003704 78.0501878,30.1851852 C78.1697514,30.3344444 78.1693812,30.3307407 78.0453757,30.077037 C77.9117459,29.8033333 77.849558,29.7381481 77.8980497,29.922963 M100.746901,30.302963 C100.831669,30.3725926 100.928652,30.4296296 100.962707,30.4296296 C101.028597,30.4303704 100.917177,30.3448148 100.715807,30.2407407 C100.634,30.1981481 100.644365,30.2192593 100.746901,30.302963 M78.2593315,30.5555556 C78.311895,30.6574074 78.3689006,30.7407407 78.3859282,30.7407407 C78.4025856,30.7407407 78.3737127,30.6574074 78.320779,30.5555556 C78.2682155,30.4537037 78.2112099,30.3703704 78.1941823,30.3703704 C78.1775249,30.3703704 78.2063978,30.4537037 78.2593315,30.5555556 M105.744138,30.4862963 C105.744138,30.5666667 105.92589,30.702963 105.97179,30.657037 C105.99363,30.6351852 105.978823,30.6174074 105.939215,30.6174074 C105.899608,30.6174074 105.867403,30.5755556 105.867403,30.5248148 C105.867403,30.4737037 105.839641,30.4322222 105.805586,30.4322222 C105.771901,30.4322222 105.744138,30.4562963 105.744138,30.4862963 M78.5835967,31.1266667 C78.6835414,31.3048148 78.9530221,31.7911111 79.1825249,32.2074074 C79.4120276,32.6237037 79.6285746,32.9822222 79.6641105,33.0040741 C79.6992762,33.0259259 79.7140829,33.0185185 79.6970552,32.9877778 C79.2065856,32.1007407 78.4555193,30.8025926 78.4325691,30.8025926 C78.4155414,30.8025926 78.4836519,30.9481481 78.5835967,31.1266667 M79.8325359,33.3333333 C79.9017569,33.4692593 79.9720884,33.5803704 79.989116,33.5803704 C80.0061436,33.5803704 79.9632044,33.4692593 79.8939834,33.3333333 C79.8247624,33.1974074 79.7544309,33.0862963 79.7374033,33.0862963 C79.7203757,33.0862963 79.7633149,33.1974074 79.8325359,33.3333333 M80.1101602,33.827037 C80.1627238,33.9288889 80.2197293,34.0122222 80.2367569,34.0122222 C80.2534144,34.0122222 80.2245414,33.9288889 80.1716077,33.827037 C80.1190442,33.7251852 80.0620387,33.6418519 80.045011,33.6418519 C80.0283536,33.6418519 80.0572265,33.7251852 80.1101602,33.827037 M80.3555801,34.2437037 C80.408884,34.3540741 80.4806961,34.4444444 80.5151215,34.4444444 C80.5554696,34.4444444 80.553989,34.417037 80.5114199,34.3674074 C80.4747735,34.3248148 80.4029613,34.2344444 80.3518785,34.1666667 C80.2730331,34.062963 80.2737735,34.0751852 80.3555801,34.2437037" id="path6" fill="#409FCF"></path>
                <path d="M74.6039448,16.5840741 C74.4821602,16.6333333 74.4921547,23.9333333 74.6143094,24.0692593 C74.7090718,24.1744444 74.7109227,24.1777778 76.0846077,26.6048148 C76.5939558,27.5048148 77.4279392,28.9766667 77.9376575,29.8766667 C78.4473757,30.7762963 79.2239834,32.1511111 79.6637403,32.9322222 C80.1034972,33.712963 80.4947624,34.3722222 80.5336298,34.397037 C80.652453,34.4740741 100.732094,34.4544444 100.855729,34.3774074 C100.995282,34.2903704 100.996392,30.5296296 100.85684,30.3955556 C100.81316,30.3537037 100.594392,30.2214815 100.370442,30.1014815 C99.8944088,29.8466667 97.7256077,28.6948148 95.5334862,27.5325926 C94.6854365,27.0825926 93.7552099,26.5888889 93.4668508,26.4355556 C93.1784917,26.2822222 92.9330718,26.1325926 92.9219669,26.102963 C92.9104917,26.0733333 91.050779,26.0492593 88.772779,26.0492593 L84.6446906,26.0492593 L84.6446906,23.8974074 L84.6446906,21.7455556 L84.2589779,21.5414815 C84.0468729,21.4288889 83.7318619,21.2611111 83.5589945,21.1681481 C83.3861271,21.0755556 82.7616575,20.7433333 82.1708729,20.43 C81.5804586,20.1166667 80.888989,19.7485185 80.6343149,19.6118519 C80.380011,19.4751852 79.5471381,19.0314815 78.7834862,18.6259259 C74.562116,16.3837037 74.8056851,16.5025926 74.6039448,16.5840741 M11.4803204,26.5655556 C11.4943867,26.5774074 11.5891492,26.6062963 11.6909448,26.6288889 C11.8260552,26.6592593 11.8512265,26.6533333 11.7834862,26.6077778 C11.7001989,26.5514815 11.4185028,26.5118519 11.4803204,26.5655556" id="path7" fill="#86D1F5"></path>
                <path d="M100.959006,32.3766667 C100.959006,33.3611111 100.967519,33.7551852 100.977884,33.2522222 C100.988249,32.7496296 100.988249,31.9440741 100.977884,31.4622222 C100.967519,30.9803704 100.959006,31.3918519 100.959006,32.3766667" id="path8" fill="#7FCFFF"></path>
                <path d="M49.4478508,0.188148148 C48.5024475,0.305185185 47.5859171,0.441481481 47.3560442,0.498888889 C47.217232,0.533703704 46.8537293,0.618888889 46.5483425,0.688518519 C46.2429558,0.758148148 45.9653315,0.836296296 45.9312762,0.862222222 C45.8975912,0.888518519 45.7169503,0.944444444 45.5303867,0.986666667 C45.3438232,1.02888889 45.1354199,1.09740741 45.0676796,1.13925926 C44.9999392,1.18074074 44.8611271,1.23481481 44.7593315,1.25925926 C44.6575359,1.2837037 44.4631989,1.35481481 44.3273481,1.41740741 C44.1914972,1.47962963 43.8168895,1.64777778 43.4944751,1.79074074 C43.1720608,1.93333333 42.8944365,2.06814815 42.8774088,2.09 C42.8603812,2.11185185 42.7215691,2.19185185 42.5690608,2.26814815 C42.1670608,2.46888889 41.8957293,2.63037037 41.7728343,2.74185185 C41.7132376,2.79555556 41.6447569,2.83962963 41.6199558,2.83962963 C41.5407403,2.83962963 40.5749779,3.52888889 40.1937072,3.85740741 C39.990116,4.03296296 39.7576519,4.23 39.6765856,4.29518519 C39.0162099,4.82777778 37.7420994,6.29518519 37.1342873,7.22333333 C36.6319724,7.99 36.5231436,8.17333333 36.5231436,8.25148148 C36.5231436,8.2962963 36.5009337,8.33333333 36.4739116,8.33333333 C36.4198674,8.33333333 35.9060773,9.32222222 35.9060773,9.4262963 C35.9060773,9.46185185 35.8646188,9.52555556 35.8135359,9.56777778 C35.762453,9.61 35.7209945,9.68222222 35.7209945,9.72777778 C35.7209945,9.7737037 35.6543646,9.95777778 35.5729282,10.137037 C35.4914917,10.3162963 35.3889558,10.5877778 35.3445359,10.7407407 C35.3004862,10.8933333 35.2453315,11.0322222 35.222011,11.0492593 C35.1990608,11.0662963 35.1309503,11.2607407 35.0706133,11.4814815 C35.0106464,11.7022222 34.9410552,11.9103704 34.915884,11.9444444 C34.8910829,11.9785185 34.8240829,12.2285185 34.7670773,12.5 C34.7100718,12.7714815 34.6393702,13.0492593 34.6101271,13.1174074 C34.5442376,13.2692593 34.3635967,14.3622222 34.3635967,14.6096296 C34.3635967,14.7088889 34.3380552,14.8166667 34.3065912,14.8488889 C34.0767182,15.0855556 34.0682044,20.1796296 34.2969669,20.71 C34.3265801,20.7777778 34.3969116,21.1662963 34.4539171,21.572963 C34.5109227,21.9796296 34.5801436,22.3407407 34.6079061,22.3755556 C34.6356685,22.41 34.6786077,22.5633333 34.7034088,22.7159259 C34.7826243,23.2059259 35.2586575,24.6348148 35.5385028,25.222963 C35.6051326,25.3622222 35.6591768,25.4951852 35.6591768,25.5177778 C35.6591768,25.5888889 36.0807956,26.4511111 36.3154807,26.8614815 C36.439116,27.0766667 36.570895,27.3085185 36.6086519,27.3766667 C36.8751713,27.8562963 37.7657901,29.082963 38.1774144,29.537037 C38.3003094,29.672963 38.4853923,29.8811111 38.5879282,30 C38.8537072,30.3074074 38.974011,30.297037 40.0419392,29.8766667 C41.0410166,29.4833333 41.6410552,29.2496296 43.1243094,28.6751852 C43.6162597,28.4848148 44.2966243,28.2207407 44.6356961,28.0888889 C44.9751381,27.9566667 45.5163204,27.747037 45.8387348,27.6233333 C48.3121823,26.6740741 48.2448122,26.7048148 48.2448122,26.5262963 C48.2448122,26.4185185 48.1659669,26.3274074 47.952011,26.187037 C47.4345193,25.8481481 46.7027017,25.1762963 46.3791768,24.7425926 C45.9338674,24.1459259 45.5015138,23.3918519 45.2871878,22.8396296 C45.2409171,22.7207407 45.166884,22.54 45.1224641,22.4381481 C44.9240552,21.9825926 44.5835028,20.5011111 44.5339006,19.8766667 C44.5246464,19.7577778 44.4887403,19.6411111 44.4543149,19.617037 C44.3602928,19.5525926 44.3684365,16.2103704 44.4631989,15.8951852 C44.5039171,15.7592593 44.5812818,15.32 44.6349558,14.9185185 C44.6886298,14.5174074 44.7571105,14.1425926 44.7867238,14.0851852 C44.8167072,14.0281481 44.8892597,13.787037 44.9477459,13.5492593 C45.0066022,13.3118519 45.0724917,13.0896296 45.0943315,13.0555556 C45.1165414,13.0214815 45.1716961,12.8825926 45.2168564,12.747037 C45.2623867,12.6111111 45.378989,12.3274074 45.4767127,12.1166667 C45.5740663,11.9059259 45.6536519,11.7044444 45.6536519,11.6692593 C45.6536519,11.6337037 45.676232,11.6048148 45.7039945,11.6048148 C45.7317569,11.6048148 45.8024586,11.5037037 45.8616851,11.38 C46.1663315,10.7407407 47.1328343,9.67444444 47.7976519,9.2437037 C47.9420166,9.15037037 48.1655967,9.00481481 48.2944144,8.91962963 C48.4236022,8.83481481 48.5476077,8.76555556 48.5701878,8.76555556 C48.592768,8.76555556 48.7578619,8.69888889 48.9370221,8.61777778 C49.1161823,8.53666667 49.4293425,8.43703704 49.6329337,8.3962963 C49.8365249,8.35592593 50.0586243,8.29222222 50.1267348,8.25518519 C50.6627348,7.96148148 53.4049227,8.20962963 54.3218232,8.63481481 C54.457674,8.69777778 54.6309116,8.76888889 54.7075359,8.79222222 C54.7837901,8.81592593 54.8463481,8.85703704 54.8463481,8.8837037 C54.8463481,8.91 54.9573978,8.98185185 55.0928785,9.04333333 C55.2287293,9.10444444 55.339779,9.1737037 55.339779,9.19703704 C55.339779,9.22037037 55.4093702,9.27111111 55.4941381,9.30962963 C55.696989,9.40222222 56.5542928,10.2274074 56.7897182,10.5566667 C56.8915138,10.6992593 57.0162597,10.8633333 57.0673425,10.9211111 C57.1180552,10.9792593 57.2150387,11.1359259 57.2824088,11.2692593 C57.3501492,11.402963 57.4208508,11.5262963 57.4397293,11.5433333 C57.4941436,11.5925926 57.9146519,12.4844444 57.9635138,12.6544444 C57.9879448,12.7392593 58.0290331,12.8362963 58.0549448,12.8703704 C58.0812265,12.9044444 58.1511878,13.1403704 58.2111547,13.3951852 C58.2711215,13.6496296 58.3410829,13.8859259 58.3666243,13.9196296 C58.3921657,13.9537037 58.4606464,14.287037 58.5191326,14.6603704 C58.5776188,15.0340741 58.6498011,15.3951852 58.6790442,15.462963 C58.8482099,15.8551852 58.8452486,19.6085185 58.6749724,20.0618519 C58.6431381,20.1466667 58.5705856,20.5077778 58.5132099,20.8640741 C58.4562044,21.2207407 58.3899448,21.5262963 58.365884,21.5433333 C58.3421934,21.56 58.2862983,21.712963 58.2415083,21.8825926 C58.1970884,22.0525926 58.1186133,22.2837037 58.0675304,22.3962963 C57.8406188,22.8959259 58.0915912,22.8874074 59.442326,22.3477778 C59.8835635,22.1718519 60.3832873,21.9759259 60.5528232,21.912963 C60.7227293,21.85 61.0836409,21.7118519 61.3549724,21.6059259 C61.6263039,21.5 62.0149779,21.35 62.2185691,21.2722222 C62.4221602,21.1944444 63.1439834,20.9137037 63.8228674,20.6485185 C64.5013812,20.382963 65.2509669,20.0911111 65.4886133,19.9996296 C65.7258895,19.9081481 66.4062541,19.6444444 67,19.4137037 C67.5937459,19.182963 68.2837348,18.9166667 68.5332265,18.8218519 C68.7830884,18.727037 69.0051878,18.6314815 69.0270276,18.6092593 C69.1488122,18.4862963 68.9914917,14.7285185 68.8526796,14.4507407 C68.8256575,14.3962963 68.7556961,14.0462963 68.6979503,13.672963 C68.6398343,13.2992593 68.5713536,12.9659259 68.545442,12.9322222 C68.5195304,12.8981481 68.4643757,12.6896296 68.422547,12.4692593 C68.3807182,12.2485185 68.3107569,11.9844444 68.2670773,11.8825926 C68.2233978,11.7807407 68.1538066,11.5725926 68.1123481,11.4196296 C68.0708895,11.267037 67.9998177,11.0585185 67.9546575,10.9566667 C67.9091271,10.8548148 67.8288011,10.64 67.7762376,10.4792593 C67.723674,10.3181481 67.6548232,10.1377778 67.6233591,10.0777778 C67.5922652,10.0181481 67.3786796,9.58037037 67.149547,9.10481481 C66.9200442,8.62962963 66.7131215,8.22666667 66.6898011,8.21 C66.6661105,8.19296296 66.5976298,8.08185185 66.5372928,7.96296296 C66.4769558,7.84407407 66.410326,7.73296296 66.3892265,7.71592593 C66.3681271,7.69925926 66.2963149,7.58111111 66.2296851,7.4537037 C66.1626851,7.3262963 66.0927238,7.22222222 66.0738453,7.22222222 C66.0549669,7.22222222 65.9864862,7.13185185 65.921337,7.02148148 C65.8561878,6.91111111 65.7795635,6.79333333 65.7506906,6.75925926 C65.7221878,6.72518519 65.595221,6.55851852 65.4693646,6.38888889 C65.0847624,5.87148148 65.0229448,5.80259259 64.1619392,4.93555556 C63.3368398,4.10444444 62.5169227,3.39518519 62.381442,3.39518519 C62.3429448,3.39518519 62.3111105,3.37259259 62.3111105,3.34518519 C62.3111105,3.11407407 59.2350331,1.45111111 58.4554641,1.26074074 C58.3536685,1.23592593 58.2563149,1.19444444 58.2392873,1.16888889 C58.2218895,1.14296296 58.0138564,1.07148148 57.7765801,1.00962963 C57.5389337,0.947777778 57.3309006,0.88 57.3138729,0.85962963 C57.2968453,0.839259259 57.0332873,0.771851852 56.7279006,0.71 C56.4225138,0.648148148 56.1215691,0.571851852 56.0586409,0.54037037 C55.9568453,0.489259259 54.955547,0.334074074 53.7665746,0.185185185 C53.2509337,0.120740741 49.9745967,0.122962963 49.4478508,0.188148148 M26.0215414,3.84259259 C25.9674972,3.88518519 25.4722155,4.62814815 24.9210387,5.4937037 C24.3694917,6.35962963 23.6691381,7.45666667 23.3644917,7.93222222 C23.0594751,8.40740741 22.6867182,8.99074074 22.5356906,9.22851852 C22.384663,9.46592593 22.0833481,9.93814815 21.8656906,10.2777778 C21.4425912,10.9381481 21.4015028,11.0703704 21.5888066,11.1707407 C21.7379834,11.2503704 28.9876796,11.2577778 29.1131657,11.1781481 C29.2157017,11.1133333 29.1797956,9.27703704 29.0705967,9.01222222 C29.0358011,8.92740741 28.961768,8.60888889 28.9058729,8.30444444 C28.8499779,8.00037037 28.7814972,7.72259259 28.7533646,7.68740741 C28.725232,7.65222222 28.6815525,7.5262963 28.656011,7.40740741 C28.6104807,7.19407407 28.3113867,6.47592593 28.1933039,6.2962963 C28.1596188,6.24518519 28.1026133,6.13444444 28.066337,6.04962963 C28.0304309,5.96481481 27.9330773,5.80703704 27.8509006,5.69888889 C27.7683536,5.59074074 27.7006133,5.48407407 27.7006133,5.46222222 C27.7006133,5.44 27.5965967,5.29296296 27.4692597,5.13555556 C26.5238564,3.96518519 26.2162486,3.69037037 26.0215414,3.84259259 M19.8568011,13.5196296 C19.8012762,13.5522222 19.2371436,14.3914815 18.6030497,15.3851852 C17.9689558,16.3785185 17.1042486,17.732963 16.6811492,18.3951852 C16.2584199,19.057037 15.7883094,19.792963 15.6369116,20.03 C15.2811823,20.5881481 15.2789613,20.712963 15.6239558,20.8077778 C15.7683204,20.8474074 15.9737624,20.9177778 16.0807403,20.9644444 C16.1877182,21.0111111 16.3050608,21.0492593 16.3417072,21.0492593 C16.5086519,21.0492593 17.6750442,21.6718519 18.0492818,21.9607407 C18.1492265,22.0377778 18.2947017,22.1488889 18.3731768,22.2077778 C18.5882431,22.3696296 19.5569669,23.367037 19.5569669,23.427037 C19.5569669,23.4425926 19.6384033,23.5874074 19.7376077,23.7488889 C19.8368122,23.9107407 19.950453,24.1822222 19.9896906,24.3518519 C20.0289282,24.5214815 20.088895,24.7188889 20.1233204,24.7903704 C20.2106796,24.9737037 20.1544144,25.6366667 20.0107901,26.1137037 C19.691337,27.1740741 18.7103978,27.9625926 17.4336961,28.1837037 C17.1257182,28.237037 16.7881271,28.3062963 16.6841105,28.3377778 C16.4416519,28.4111111 15.0242873,28.4125926 14.882884,28.34 C14.8240276,28.3096296 14.5960055,28.2518519 14.3764972,28.2111111 C13.665779,28.0803704 12.7081602,27.5503704 12.0389006,26.9177778 C11.4836519,26.392963 11.7849669,26.0637037 9.39776796,29.8003704 C7.52769061,32.7277778 7.16307735,33.3059259 7.12532044,33.4051852 C7.08090055,33.52 7.30929282,33.7651852 7.46106077,33.7659259 C7.51436464,33.7659259 7.64096133,33.8103704 7.74275691,33.8648148 C7.84455249,33.9188889 8.06665193,34.0037037 8.23618785,34.0533333 C8.40572376,34.102963 8.6278232,34.1811111 8.72961878,34.227037 C8.83141436,34.2725926 9.09534254,34.3444444 9.31596133,34.3862963 C9.53620994,34.4281481 9.74461326,34.4833333 9.77866851,34.5088889 C9.81235359,34.5348148 10.1318066,34.6022222 10.4879061,34.6588889 C10.8443757,34.7151852 11.191221,34.7859259 11.2593315,34.8159259 C11.385558,34.8714815 11.9452486,34.9455556 13.2027017,35.072963 C14.0748122,35.1614815 17.0398398,35.1596296 18.0455801,35.07 C19.1253536,34.9737037 19.879011,34.8777778 20.019674,34.8181481 C20.0877845,34.7896296 20.4346298,34.7185185 20.7910994,34.6603704 C21.1471989,34.6022222 21.4666519,34.532963 21.500337,34.5062963 C21.5343923,34.4796296 21.7154033,34.4262963 21.902337,34.3881481 C22.0896409,34.3496296 22.3169227,34.2796296 22.4072431,34.232963 C22.4979337,34.1859259 22.663768,34.1277778 22.7762983,34.1037037 C23.095011,34.0355556 23.834232,33.7248148 24.664884,33.3103704 C25.7416961,32.772963 25.8497845,32.7125926 25.8497845,32.6492593 C25.8497845,32.6181481 25.879768,32.5925926 25.9164144,32.5925926 C26.0885414,32.5925926 27.0850276,31.7914815 27.7209724,31.1418519 C28.5701326,30.2748148 29.1065028,29.4637037 29.6813702,28.1788889 C29.8427624,27.8185185 30.1107624,26.8914815 30.1710994,26.4840741 C30.2092265,26.2277778 30.272895,25.9518519 30.3125028,25.8703704 C30.411337,25.6666667 30.4124475,22.8548148 30.3136133,22.6481481 C30.2747459,22.5666667 30.2107072,22.2711111 30.1718398,21.9911111 C30.1326022,21.7114815 30.0489448,21.3085185 29.9856464,21.0962963 C29.9223481,20.8837037 29.8342486,20.5777778 29.7901989,20.4166667 C29.745779,20.2555556 29.6880331,20.1233333 29.6613812,20.1233333 C29.6350994,20.1233333 29.6132597,20.0807407 29.6132597,20.0288889 C29.6132597,19.897037 29.1090939,18.827037 29.0469061,18.827037 C29.0191436,18.827037 28.9961934,18.7896296 28.9961934,18.7437037 C28.9961934,18.6981481 28.9129061,18.5455556 28.8111105,18.4048148 C28.7093149,18.2640741 28.6260276,18.1337037 28.6260276,18.1144444 C28.6260276,18.0488889 27.9649116,17.2522222 27.6036298,16.8825926 C27.3030552,16.5751852 27.0035912,16.3240741 26.1892265,15.6959259 C25.980453,15.5344444 25.4240939,15.1955556 25.3086022,15.1588889 C25.2330884,15.1348148 25.1712707,15.0892593 25.1712707,15.0574074 C25.1712707,15.0259259 25.1438785,15 25.1105635,15 C25.055779,15 24.1329558,14.5848148 23.8516298,14.4337037 C23.7875912,14.3992593 23.5932541,14.3292593 23.4200166,14.2777778 C23.2464088,14.2266667 23.0768729,14.1625926 23.0428177,14.1351852 C22.925105,14.04 21.0061657,13.582963 20.7174365,13.5811111 C20.6260055,13.5807407 20.5342044,13.5525926 20.5134751,13.5185185 C20.4649834,13.4403704 19.9911713,13.4411111 19.8568011,13.5196296" id="path9" fill="#C9DCE6"></path>
            </g>
        </g>
    </g>
</svg>