<?xml version="1.0" encoding="UTF-8"?>
<svg width="136px" height="83px" viewBox="0 0 136 83" version="1.1" xmlns="http://www.w3.org/2000/svg" xmlns:xlink="http://www.w3.org/1999/xlink">
    <!-- Generator: Sketch 46.2 (44496) - http://www.bohemiancoding.com/sketch -->
    <title>Group 5</title>
    <desc>Created with Sketch.</desc>
    <defs></defs>
    <g id="Web" stroke="none" stroke-width="1" fill="none" fill-rule="evenodd">
        <g id="AboutUs" transform="translate(-652.000000, -2332.000000)" fill="#000000">
            <g id="Group-5" transform="translate(651.000000, 2332.000000)">
                <g id="Group-4">
                    <path d="M10.0742188,82.4335938 C7.37889277,82.4335938 5.29688234,81.642586 3.828125,80.0605469 C2.35936766,78.4785077 1.625,76.2382957 1.625,73.3398438 C1.625,70.4492043 2.37303939,68.2070392 3.86914062,66.6132812 C5.36524186,65.0195233 7.47264266,64.2226562 10.1914062,64.2226562 C11.7461015,64.2226562 13.5663958,64.47656 15.6523438,64.984375 L15.6523438,67.2929688 C13.2773319,66.4726521 11.4453189,66.0625 10.15625,66.0625 C8.27342809,66.0625 6.81641141,66.6992124 5.78515625,67.9726562 C4.75390109,69.2461001 4.23828125,71.0429571 4.23828125,73.3632812 C4.23828125,75.5742298 4.78905699,77.318353 5.890625,78.5957031 C6.99219301,79.8730533 8.49608422,80.5117188 10.4023438,80.5117188 C12.042977,80.5117188 13.8007719,80.0078175 15.6757812,79 L15.6757812,81.109375 C13.9648352,81.9921919 12.0976664,82.4335938 10.0742188,82.4335938 Z M20.5859375,82 L20.5859375,69.2734375 L22.8945312,69.2734375 L22.8945312,82 L20.5859375,82 Z M20.5859375,66.9648438 L20.5859375,64.65625 L22.8945312,64.65625 L22.8945312,66.9648438 L20.5859375,66.9648438 Z M31.4257812,82 L26.6914062,69.2734375 L29,69.2734375 L32.703125,79.1757812 L36.6054688,69.2734375 L38.7617188,69.2734375 L33.734375,82 L31.4257812,82 Z M42.4765625,82 L42.4765625,69.2734375 L44.7851562,69.2734375 L44.7851562,82 L42.4765625,82 Z M42.4765625,66.9648438 L42.4765625,64.65625 L44.7851562,64.65625 L44.7851562,66.9648438 L42.4765625,66.9648438 Z M55.6484375,82.2929688 C53.9296789,82.2929688 52.5039119,81.6562564 51.3710938,80.3828125 C50.2382756,79.1093686 49.671875,77.5039159 49.671875,75.5664062 C49.671875,73.4960834 50.2324163,71.8828183 51.3535156,70.7265625 C52.474615,69.5703067 54.0390525,68.9921875 56.046875,68.9921875 C57.0390675,68.9921875 58.1484314,69.1289049 59.375,69.4023438 L59.375,71.3359375 C58.070306,70.9531231 57.0078166,70.7617188 56.1875,70.7617188 C55.0078066,70.7617188 54.0605504,71.2050737 53.3457031,72.0917969 C52.6308558,72.9785201 52.2734375,74.1601489 52.2734375,75.6367188 C52.2734375,77.0664134 52.6406213,78.2226518 53.375,79.1054688 C54.1093787,79.9882857 55.0703066,80.4296875 56.2578125,80.4296875 C57.3125053,80.4296875 58.3984319,80.1601589 59.515625,79.6210938 L59.515625,81.6132812 C58.02343,82.0664085 56.7343804,82.2929688 55.6484375,82.2929688 Z M76.4257812,82.4335938 C75.2617129,82.4335938 73.7734466,82.17969 71.9609375,81.671875 L71.9609375,79.234375 C73.9140723,80.1406295 75.519525,80.59375 76.7773438,80.59375 C77.7460986,80.59375 78.5253877,80.3398463 79.1152344,79.8320312 C79.7050811,79.3242162 80,78.6562541 80,77.828125 C80,77.1484341 79.8066426,76.5703149 79.4199219,76.09375 C79.0332012,75.6171851 78.3203177,75.0859404 77.28125,74.5 L76.0859375,73.8085938 C74.6093676,72.9648395 73.5683624,72.1699256 72.9628906,71.4238281 C72.3574188,70.6777306 72.0546875,69.8085987 72.0546875,68.8164062 C72.0546875,67.4804621 72.5390577,66.3808637 73.5078125,65.5175781 C74.4765673,64.6542926 75.71093,64.2226562 77.2109375,64.2226562 C78.5468817,64.2226562 79.9570238,64.4453103 81.4414062,64.890625 L81.4414062,67.140625 C79.6132721,66.4218714 78.2500045,66.0625 77.3515625,66.0625 C76.4999957,66.0625 75.7968778,66.2890602 75.2421875,66.7421875 C74.6874972,67.1953148 74.4101562,67.7656216 74.4101562,68.453125 C74.4101562,69.0312529 74.6132792,69.5429665 75.0195312,69.9882812 C75.4257833,70.433596 76.1679634,70.9648407 77.2460938,71.5820312 L78.4882812,72.2851562 C79.9882887,73.136723 81.0351533,73.9414025 81.6289062,74.6992188 C82.2226592,75.457035 82.5195312,76.3671822 82.5195312,77.4296875 C82.5195312,78.9375075 81.9628962,80.1484329 80.8496094,81.0625 C79.7363226,81.9765671 78.2617279,82.4335938 76.4257812,82.4335938 Z M91.109375,82.2929688 C89.9374941,82.2929688 89.0234408,81.9570346 88.3671875,81.2851562 C87.7109342,80.6132779 87.3828125,79.6796935 87.3828125,78.484375 L87.3828125,71.0078125 L85.7890625,71.0078125 L85.7890625,69.2734375 L87.3828125,69.2734375 L87.3828125,66.9648438 L89.6914062,66.7421875 L89.6914062,69.2734375 L93.0195312,69.2734375 L93.0195312,71.0078125 L89.6914062,71.0078125 L89.6914062,78.0625 C89.6914062,79.7265708 90.4101491,80.5585938 91.8476562,80.5585938 C92.1523453,80.5585938 92.5234353,80.507813 92.9609375,80.40625 L92.9609375,82 C92.2499964,82.1953135 91.6328151,82.2929688 91.109375,82.2929688 Z M104.09375,80.3828125 C102.710931,81.6562564 101.378913,82.2929688 100.097656,82.2929688 C99.0429635,82.2929688 98.1679722,81.9628939 97.4726562,81.3027344 C96.7773403,80.6425748 96.4296875,79.8085988 96.4296875,78.8007812 C96.4296875,77.4101493 97.013666,76.3418006 98.1816406,75.5957031 C99.3496152,74.8496056 101.023427,74.4765625 103.203125,74.4765625 L103.753906,74.4765625 L103.753906,72.9414062 C103.753906,71.4648364 102.996101,70.7265625 101.480469,70.7265625 C100.261713,70.7265625 98.9453196,71.1015587 97.53125,71.8515625 L97.53125,69.9414062 C99.0859453,69.3085906 100.542962,68.9921875 101.902344,68.9921875 C103.324226,68.9921875 104.373043,69.3124968 105.048828,69.953125 C105.724613,70.5937532 106.0625,71.589837 106.0625,72.9414062 L106.0625,78.7070312 C106.0625,80.0273504 106.468746,80.6875 107.28125,80.6875 C107.382813,80.6875 107.531249,80.6718752 107.726562,80.640625 L107.890625,81.9179688 C107.367185,82.16797 106.789066,82.2929688 106.15625,82.2929688 C105.07812,82.2929688 104.390626,81.6562564 104.09375,80.3828125 Z M103.753906,79.1289062 L103.753906,75.8359375 L102.980469,75.8125 C101.714837,75.8125 100.69141,76.052732 99.9101562,76.5332031 C99.1289023,77.0136743 98.7382812,77.6445273 98.7382812,78.4257812 C98.7382812,78.9804715 98.9335918,79.4492168 99.3242188,79.8320312 C99.7148457,80.2148457 100.191403,80.40625 100.753906,80.40625 C101.714849,80.40625 102.714839,79.980473 103.753906,79.1289062 Z M117.019531,82.2929688 C115.300773,82.2929688 113.875006,81.6562564 112.742188,80.3828125 C111.609369,79.1093686 111.042969,77.5039159 111.042969,75.5664062 C111.042969,73.4960834 111.60351,71.8828183 112.724609,70.7265625 C113.845709,69.5703067 115.410146,68.9921875 117.417969,68.9921875 C118.410161,68.9921875 119.519525,69.1289049 120.746094,69.4023438 L120.746094,71.3359375 C119.4414,70.9531231 118.37891,70.7617188 117.558594,70.7617188 C116.3789,70.7617188 115.431644,71.2050737 114.716797,72.0917969 C114.00195,72.9785201 113.644531,74.1601489 113.644531,75.6367188 C113.644531,77.0664134 114.011715,78.2226518 114.746094,79.1054688 C115.480472,79.9882857 116.4414,80.4296875 117.628906,80.4296875 C118.683599,80.4296875 119.769526,80.1601589 120.886719,79.6210938 L120.886719,81.6132812 C119.394524,82.0664085 118.105474,82.2929688 117.019531,82.2929688 Z M125.609375,82 L125.609375,63.4960938 L127.917969,63.4960938 L127.917969,75.4492188 L133.308594,69.2734375 L135.792969,69.2734375 L130.648438,75.2148438 L136.859375,82 L133.90625,82 L127.917969,75.4726562 L127.917969,82 L125.609375,82 Z" id="Civic-Stack"></path>
                    <path d="M68.9222917,31.8122581 C58.1632083,31.8122581 49.1470417,28.6883871 46.6854167,24.4767742 C46.252625,25.2180645 46,25.9883871 46,26.7877419 L46,33.68 C46,39.0045161 56.2655833,43.3245161 68.9222917,43.3245161 C81.5868333,43.3245161 91.8563333,39.0045161 91.8563333,33.68 L91.8563333,26.7877419 C91.8563333,25.9883871 91.5997917,25.2180645 91.1630833,24.4767742 C88.7014583,28.6864516 79.693125,31.8122581 68.9222917,31.8122581 Z" id="Shape" fill-rule="nonzero"></path>
                    <path d="M68.9222917,46.0496774 C58.1632083,46.0496774 49.1470417,42.9219355 46.6854167,38.7180645 C46.252625,39.4554839 46,40.2258065 46,41.0232258 L46,47.9212903 C46,53.2477419 56.2655833,57.5658065 68.9222917,57.5658065 C81.5868333,57.5658065 91.8563333,53.2496774 91.8563333,47.9212903 L91.8563333,41.0232258 C91.8563333,40.2258065 91.5997917,39.4554839 91.1630833,38.72 C88.7014583,42.9219355 79.693125,46.0496774 68.9222917,46.0496774 Z" id="Shape" fill-rule="nonzero"></path>
                    <path d="M91.2296667,10.6922581 C90.77925,14.5941935 80.9836667,17.716129 68.9222917,17.716129 C56.8667917,17.716129 47.0712083,14.5941935 46.62275,10.6941935 C46.229125,11.4025806 46,12.1419355 46,12.9025806 L46,19.7948387 C46,25.1212903 56.2655833,29.4393548 68.9222917,29.4393548 C81.5868333,29.4393548 91.8563333,25.1232258 91.8563333,19.7948387 L91.8563333,12.9025806 C91.8563333,12.1419355 91.6232917,11.4025806 91.2296667,10.6922581 Z" id="Shape" fill-rule="nonzero"></path>
                    <path d="M68.9222917,15.5290323 C81.2656667,15.5290323 91.266875,12.263871 91.266875,8.23032258 C91.266875,4.20064516 81.2656667,0.933548387 68.9222917,0.933548387 C56.58675,0.935483871 46.581625,4.20258065 46.581625,8.23225806 C46.581625,12.263871 56.58675,15.5290323 68.9222917,15.5290323 Z" id="Shape" fill-rule="nonzero"></path>
                </g>
            </g>
        </g>
    </g>
</svg>