<?xml version="1.0" encoding="UTF-8"?>
<svg width="247px" height="100px" viewBox="0 0 247 100" version="1.1" xmlns="http://www.w3.org/2000/svg" xmlns:xlink="http://www.w3.org/1999/xlink">
    <!-- Generator: Sketch 46.2 (44496) - http://www.bohemiancoding.com/sketch -->
    <title>Page 1</title>
    <desc>Created with Sketch.</desc>
    <defs>
        <polygon id="path-1" points="34.4618001 45.0819672 0.606216007 45.0819672 0.606216007 0.169768992 34.4618001 0.169768992 34.4618001 45.0819672"></polygon>
        <polygon id="path-3" points="0.610335324 0.145081967 25.7436388 0.145081967 25.7436388 20.6582746 0.610335324 20.6582746 0.610335324 0.145081967"></polygon>
    </defs>
    <g id="Web" stroke="none" stroke-width="1" fill="none" fill-rule="evenodd">
        <g id="AboutUs" transform="translate(-597.000000, -5491.000000)">
            <g id="Page-1" transform="translate(597.000000, 5491.000000)">
                <path d="M114.875995,22.5242623 C117.248018,22.5242623 119.013245,21.3357377 119.013245,19.2972131 L119.013245,19.2562295 C119.013245,17.3562295 117.513955,16.1652459 114.932805,16.1652459 L110.089958,16.1652459 L110.089958,22.5242623 L114.875995,22.5242623 Z M109.032798,15.722623 C109.032798,15.4406557 109.278152,15.1972131 109.563025,15.1972131 L114.996202,15.1972131 C116.740022,15.1972131 118.139688,15.7406557 118.991838,16.5922951 C119.662032,17.2570492 120.067112,18.2054098 120.067112,19.2160656 L120.067112,19.2562295 C120.067112,21.6152459 118.303532,22.9709836 115.908455,23.2922951 L119.944435,28.5004918 C120.047352,28.6234426 120.109925,28.7463934 120.109925,28.8627869 C120.109925,29.1472131 119.842342,29.4086885 119.560762,29.4086885 C119.354928,29.4086885 119.214138,29.2881967 119.094755,29.127541 L114.734382,23.475082 L110.089958,23.475082 L110.089958,28.8832787 C110.089958,29.1693443 109.848722,29.4086885 109.563025,29.4086885 C109.278152,29.4086885 109.032798,29.1693443 109.032798,28.8832787 L109.032798,15.722623 Z" id="Fill-1" fill="#243841"></path>
                <path d="M123.700646,28.8038525 L123.700646,15.7227049 C123.700646,15.4407377 123.941883,15.1964754 124.228403,15.1964754 L133.39128,15.1964754 C133.654746,15.1964754 133.879516,15.4194262 133.879516,15.6817213 C133.879516,15.9440164 133.654746,16.1653279 133.39128,16.1653279 L124.75369,16.1653279 L124.75369,21.7169672 L132.480673,21.7169672 C132.742493,21.7169672 132.968086,21.9407377 132.968086,22.2005738 C132.968086,22.4669672 132.742493,22.6890984 132.480673,22.6890984 L124.75369,22.6890984 L124.75369,28.3612295 L133.494196,28.3612295 C133.75931,28.3612295 133.980786,28.5817213 133.980786,28.8456557 C133.980786,29.1071311 133.75931,29.330082 133.494196,29.330082 L124.228403,29.330082 C123.941883,29.330082 123.700646,29.087459 123.700646,28.8038525" id="Fill-3" fill="#243841"></path>
                <path d="M142.013391,28.3612295 C145.967861,28.3612295 148.460091,25.6759836 148.460091,22.3038525 L148.460091,22.2628689 C148.460091,18.9128689 145.967861,16.1653279 142.013391,16.1653279 L138.343794,16.1653279 L138.343794,28.3612295 L142.013391,28.3612295 Z M137.289104,15.7227049 C137.289104,15.4407377 137.533634,15.1964754 137.814391,15.1964754 L142.013391,15.1964754 C146.474211,15.1964754 149.556771,18.2456557 149.556771,22.2227049 L149.556771,22.2628689 C149.556771,26.2415574 146.474211,29.330082 142.013391,29.330082 L137.814391,29.330082 C137.533634,29.330082 137.289104,29.087459 137.289104,28.8038525 L137.289104,15.7227049 Z" id="Fill-5" fill="#243841"></path>
                <path d="M163.958765,28.3612295 C167.914881,28.3612295 170.408758,25.6743443 170.408758,22.3038525 L170.408758,22.2628689 C170.408758,18.9128689 167.914881,16.1653279 163.958765,16.1653279 L160.290815,16.1653279 L160.290815,28.3612295 L163.958765,28.3612295 Z M159.234478,15.7227049 C159.234478,15.4407377 159.475715,15.1964754 159.759765,15.1964754 L163.958765,15.1964754 C168.419585,15.1964754 171.500498,18.2456557 171.500498,22.2227049 L171.500498,22.2628689 C171.500498,26.2415574 168.419585,29.330082 163.958765,29.330082 L159.759765,29.330082 C159.475715,29.330082 159.234478,29.087459 159.234478,28.8038525 L159.234478,15.7227049 Z" id="Fill-7" fill="#243841"></path>
                <path d="M175.093113,28.8038525 L175.093113,15.7227049 C175.093113,15.4407377 175.337643,15.1964754 175.622516,15.1964754 L184.786216,15.1964754 C185.052153,15.1964754 185.27363,15.4194262 185.27363,15.6817213 C185.27363,15.9440164 185.052153,16.1653279 184.786216,16.1653279 L176.14945,16.1653279 L176.14945,21.7169672 L183.876433,21.7169672 C184.138253,21.7169672 184.363846,21.9407377 184.363846,22.2005738 C184.363846,22.4669672 184.138253,22.6890984 183.876433,22.6890984 L176.14945,22.6890984 L176.14945,28.3612295 L184.889133,28.3612295 C185.153423,28.3612295 185.376546,28.5817213 185.376546,28.8456557 C185.376546,29.1071311 185.153423,29.330082 184.889133,29.330082 L175.622516,29.330082 C175.337643,29.330082 175.093113,29.087459 175.093113,28.8038525" id="Fill-9" fill="#243841"></path>
                <path d="M108.742409,35.8214754 C108.742409,34.9681967 109.420012,34.2919672 110.276279,34.2919672 C111.131722,34.2919672 111.811795,34.9681967 111.811795,35.8214754 L111.811795,46.9001639 C111.811795,47.7534426 111.131722,48.4272131 110.276279,48.4272131 C109.420012,48.4272131 108.742409,47.7534426 108.742409,46.9001639 L108.742409,35.8214754 Z" id="Fill-11" fill="#243841"></path>
                <path d="M115.30454,35.8590984 C115.30454,35.0058197 115.982143,34.3328689 116.841703,34.3328689 L117.158687,34.3328689 C117.89557,34.3328689 118.336053,34.6902459 118.753483,35.2271311 L124.67325,42.9681148 L124.67325,35.8017213 C124.67325,34.9681148 125.354147,34.2918852 126.193123,34.2918852 C127.027983,34.2918852 127.708057,34.9681148 127.708057,35.8017213 L127.708057,46.8615574 C127.708057,47.7131967 127.027983,48.3877869 126.17254,48.3877869 L126.074563,48.3877869 C125.334387,48.3877869 124.897197,48.0320492 124.477297,47.497623 L118.336053,39.4754918 L118.336053,46.9213934 C118.336053,47.7533607 117.656803,48.4271311 116.81865,48.4271311 C115.982143,48.4271311 115.30454,47.7533607 115.30454,46.9213934 L115.30454,35.8590984 Z" id="Fill-13" fill="#243841"></path>
                <path d="M131.060835,35.8590984 C131.060835,35.0058197 131.735968,34.3328689 132.594705,34.3328689 L132.913335,34.3328689 C133.652688,34.3328689 134.092348,34.6902459 134.508131,35.2271311 L140.432838,42.9681148 L140.432838,35.8017213 C140.432838,34.9681148 141.109618,34.2918852 141.949418,34.2918852 C142.785101,34.2918852 143.465175,34.9681148 143.465175,35.8017213 L143.465175,46.8615574 C143.465175,47.7131967 142.785101,48.3877869 141.928011,48.3877869 L141.830035,48.3877869 C141.090681,48.3877869 140.651021,48.0320492 140.233591,47.497623 L134.092348,39.4754918 L134.092348,46.9213934 C134.092348,47.7533607 133.413098,48.4271311 132.575768,48.4271311 C131.735968,48.4271311 131.060835,47.7533607 131.060835,46.9213934 L131.060835,35.8590984 Z" id="Fill-15" fill="#243841"></path>
                <path d="M157.824026,41.4011475 L157.824026,41.3609836 C157.824026,38.977377 156.069502,36.9921311 153.597856,36.9921311 C151.122916,36.9921311 149.410382,38.9372131 149.410382,41.3208197 L149.410382,41.3609836 C149.410382,43.7429508 151.161612,45.7314754 153.634906,45.7314754 C156.109846,45.7314754 157.824026,43.7814754 157.824026,41.4011475 M146.199382,41.4011475 L146.199382,41.3609836 C146.199382,37.4109836 149.330519,34.174918 153.634906,34.174918 C157.945879,34.174918 161.035026,37.37 161.035026,41.3208197 L161.035026,41.3609836 C161.035026,45.3109836 157.903066,48.5495082 153.597856,48.5495082 C149.288529,48.5495082 146.199382,45.3503279 146.199382,41.4011475" id="Fill-17" fill="#243841"></path>
                <path d="M166.996453,47.3165574 L162.47306,36.5378689 C162.37179,36.2977049 162.294396,36.0591803 162.294396,35.8018033 C162.294396,34.9485246 162.971176,34.2919672 163.828266,34.2919672 C164.62443,34.2919672 165.143953,34.7493443 165.38519,35.364918 L168.874476,44.3583607 L172.404106,35.264918 C172.604176,34.7698361 173.142636,34.2919672 173.87705,34.2919672 C174.720143,34.2919672 175.395276,34.9280328 175.395276,35.76 C175.395276,36.0001639 175.317883,36.257541 175.23802,36.4370492 L170.67099,47.3165574 C170.35236,48.0739344 169.77191,48.5272131 168.932933,48.5272131 L168.73451,48.5272131 C167.898826,48.5272131 167.32167,48.0739344 166.996453,47.3165574" id="Fill-19" fill="#243841"></path>
                <path d="M184.212435,42.4913115 L182.277602,37.9077049 L180.345239,42.4913115 L184.212435,42.4913115 Z M175.577315,46.3462295 L180.443215,35.4052459 C180.784075,34.6486885 181.401575,34.1921311 182.236435,34.1921311 L182.417569,34.1921311 C183.255722,34.1921311 183.855109,34.6486885 184.193499,35.4052459 L189.059399,46.3462295 C189.159022,46.5593443 189.218302,46.7609836 189.218302,46.9609836 C189.218302,47.7757377 188.580219,48.427377 187.764295,48.427377 C187.045525,48.427377 186.566345,48.012623 186.287235,47.3757377 L185.349459,45.1937705 L179.208215,45.1937705 L178.226802,47.474918 C177.968275,48.0740984 177.450399,48.427377 176.812315,48.427377 C176.017799,48.427377 175.395359,47.7954098 175.395359,46.9995082 C175.395359,46.7814754 175.477692,46.5593443 175.577315,46.3462295 L175.577315,46.3462295 Z" id="Fill-21" fill="#243841"></path>
                <path d="M190.514476,41.4011475 L190.514476,41.3609836 C190.514476,37.4109836 193.507292,34.174918 197.794389,34.174918 C199.889772,34.174918 201.303436,34.7298361 202.461042,35.5814754 C202.782142,35.8216393 203.062076,36.2577049 203.062076,36.7954098 C203.062076,37.627377 202.382002,38.2839344 201.543849,38.2839344 C201.126419,38.2839344 200.848132,38.1240984 200.627479,37.9847541 C199.772036,37.3495082 198.871309,36.9921311 197.774629,36.9921311 C195.420719,36.9921311 193.727122,38.9372131 193.727122,41.3208197 L193.727122,41.3609836 C193.727122,43.7429508 195.383669,45.7314754 197.774629,45.7314754 C199.071379,45.7314754 199.930116,45.3314754 200.806142,44.6347541 C201.045732,44.4363934 201.366009,44.2970492 201.722512,44.2970492 C202.501386,44.2970492 203.158406,44.9355738 203.158406,45.7093443 C203.158406,46.1847541 202.922109,46.5593443 202.641352,46.8011475 C201.386592,47.8929508 199.907062,48.5495082 197.676652,48.5495082 C193.566572,48.5495082 190.514476,45.3937705 190.514476,41.4011475" id="Fill-23" fill="#243841"></path>
                <path d="M205.992237,35.8214754 C205.992237,34.9681967 206.669017,34.2919672 207.526107,34.2919672 C208.38649,34.2919672 209.062447,34.9681967 209.062447,35.8214754 L209.062447,46.9001639 C209.062447,47.7534426 208.38649,48.4272131 207.526107,48.4272131 C206.669017,48.4272131 205.992237,47.7534426 205.992237,46.9001639 L205.992237,35.8214754 Z" id="Fill-25" fill="#243841"></path>
                <path d="M218.519089,32.7229508 C218.519089,32.545082 218.617065,32.3459016 218.718335,32.1877049 L219.813369,30.4811475 C220.071072,30.0622951 220.450629,29.8040984 220.948745,29.8040984 C221.690569,29.8040984 222.645635,30.2598361 222.645635,30.7188525 C222.645635,30.9967213 222.485909,31.2122951 222.246319,31.4336066 L221.011319,32.5860656 C220.430869,33.1196721 219.953335,33.2393443 219.274909,33.2393443 C218.837719,33.2393443 218.519089,33.0418033 218.519089,32.7229508 M223.565299,41.4008197 L223.565299,41.3614754 C223.565299,38.9770492 221.805835,36.9918033 219.337482,36.9918033 C216.862542,36.9918033 215.148362,38.9377049 215.148362,41.3213115 L215.148362,41.3614754 C215.148362,43.7434426 216.901239,45.7319672 219.374532,45.7319672 C221.846179,45.7319672 223.565299,43.7819672 223.565299,41.4008197 M211.937362,41.4008197 L211.937362,41.3614754 C211.937362,37.4114754 215.068499,34.1745902 219.374532,34.1745902 C223.682212,34.1745902 226.773005,37.3696721 226.773005,41.3213115 L226.773005,41.3614754 C226.773005,45.3106557 223.642692,48.5491803 219.337482,48.5491803 C215.029802,48.5491803 211.937362,45.3508197 211.937362,41.4008197" id="Fill-27" fill="#243841"></path>
                <path d="M229.507048,35.8590984 C229.507048,35.0058197 230.187122,34.3328689 231.044212,34.3328689 L231.359548,34.3328689 C232.100548,34.3328689 232.540208,34.6902459 232.955992,35.2271311 L238.880698,42.9681148 L238.880698,35.8017213 C238.880698,34.9681148 239.559125,34.2918852 240.395632,34.2918852 C241.232962,34.2918852 241.913035,34.9681148 241.913035,35.8017213 L241.913035,46.8615574 C241.913035,47.7131967 241.232962,48.3877869 240.374225,48.3877869 L240.276248,48.3877869 C239.541835,48.3877869 239.100528,48.0320492 238.681452,47.497623 L232.540208,39.4754918 L232.540208,46.9213934 C232.540208,47.7533607 231.862605,48.4271311 231.021982,48.4271311 C230.187122,48.4271311 229.507048,47.7533607 229.507048,46.9213934 L229.507048,35.8590984 Z" id="Fill-29" fill="#243841"></path>
                <path d="M117.148148,65.1540164 C119.337391,65.1540164 120.615205,63.8507377 120.615205,62.1589344 L120.615205,62.097459 C120.615205,60.149918 119.251765,59.1040164 117.062521,59.1040164 L113.686031,59.1040164 L113.686031,65.1540164 L117.148148,65.1540164 Z M109.311661,57.3482787 C109.311661,56.1343443 110.276608,55.1720492 111.499258,55.1720492 L117.434668,55.1720492 C122.176245,55.1720492 125.044738,57.9720492 125.044738,62.0163115 L125.044738,62.0720492 C125.044738,66.6507377 121.467355,69.0269672 117.009828,69.0269672 L113.686031,69.0269672 L113.686031,72.9540164 C113.686031,74.1720492 112.719438,75.1310656 111.499258,75.1310656 C110.276608,75.1310656 109.311661,74.1720492 109.311661,72.9540164 L109.311661,57.3482787 Z" id="Fill-31" fill="#243841"></path>
                <path d="M143.955964,65.1251639 L143.955964,65.0694262 C143.955964,61.6784426 141.457147,58.8464754 137.936574,58.8464754 C134.41353,58.8464754 131.972347,61.6194262 131.972347,65.0145082 L131.972347,65.0694262 C131.972347,68.4628689 134.47281,71.287459 137.99503,71.287459 C141.513134,71.287459 143.955964,68.5194262 143.955964,65.1251639 M127.4012,65.1251639 L127.4012,65.0694262 C127.4012,59.4431967 131.858727,54.832541 137.99503,54.832541 C144.12804,54.832541 148.531227,59.3858197 148.531227,65.0145082 L148.531227,65.0694262 C148.531227,70.6931967 144.06876,75.3005738 137.936574,75.3005738 C131.803564,75.3005738 127.4012,70.7489344 127.4012,65.1251639" id="Fill-33" fill="#243841"></path>
                <path d="M152.416043,57.1798361 C152.416043,55.9634426 153.38099,55.0060656 154.604463,55.0060656 C155.822173,55.0060656 156.78959,55.9634426 156.78959,57.1798361 L156.78959,71.0052459 L164.885426,71.0052459 C165.98787,71.0052459 166.871306,71.8822951 166.871306,72.9839344 C166.871306,74.0855738 165.98787,74.9642623 164.885426,74.9642623 L154.604463,74.9642623 C153.38099,74.9642623 152.416043,74.0003279 152.416043,72.7872131 L152.416043,57.1798361 Z" id="Fill-35" fill="#243841"></path>
                <path d="M171.187055,53.0510656 C171.187055,52.7977869 171.325375,52.5166393 171.468635,52.2871311 L173.031322,49.8584426 C173.400998,49.2633607 173.940282,48.8969672 174.649172,48.8969672 C175.702215,48.8969672 177.063185,49.5469672 177.063185,50.1969672 C177.063185,50.5920492 176.835945,50.9027049 176.495085,51.215 L174.736445,52.8559836 C173.909818,53.6158197 173.228922,53.7854918 172.263152,53.7854918 C171.642358,53.7854918 171.187055,53.5043443 171.187055,53.0510656 L171.187055,53.0510656 Z M170.191645,57.1797541 C170.191645,55.9633607 171.158238,55.0059836 172.378418,55.0059836 C173.599422,55.0059836 174.564368,55.9633607 174.564368,57.1797541 L174.564368,72.9535246 C174.564368,74.172377 173.599422,75.1297541 172.378418,75.1297541 C171.158238,75.1297541 170.191645,74.172377 170.191645,72.9535246 L170.191645,57.1797541 Z" id="Fill-37" fill="#243841"></path>
                <path d="M184.165835,59.187377 L179.961071,59.187377 C178.852865,59.187377 177.942258,58.2840984 177.942258,57.18 C177.942258,56.0783607 178.852865,55.172623 179.961071,55.172623 L192.738381,55.1742623 C193.849881,55.1742623 194.756371,56.0783607 194.756371,57.18 C194.756371,58.2840984 193.849881,59.187377 192.738381,59.187377 L188.536911,59.187377 L188.536911,72.9537705 C188.536911,74.1718033 187.570318,75.1291803 186.349315,75.1291803 C185.127488,75.1291803 184.165835,74.1718033 184.165835,72.9537705 L184.165835,59.187377 Z" id="Fill-39" fill="#243841"></path>
                <path d="M198.13352,57.1798361 C198.13352,55.9634426 199.098467,55.0060656 200.320293,55.0060656 C201.53965,55.0060656 202.507067,55.9634426 202.507067,57.1798361 L202.507067,72.9536066 C202.507067,74.1716393 201.53965,75.1290164 200.320293,75.1290164 C199.098467,75.1290164 198.13352,74.1716393 198.13352,72.9536066 L198.13352,57.1798361 Z" id="Fill-41" fill="#243841"></path>
                <path d="M206.593599,65.1251639 L206.593599,65.0694262 C206.593599,59.4431967 210.853526,54.832541 216.961013,54.832541 C219.942303,54.832541 221.960293,55.6251639 223.606959,56.842377 C224.062263,57.180082 224.459109,57.8005738 224.459109,58.5677869 C224.459109,59.7522131 223.490869,60.6841803 222.299506,60.6841803 C221.705059,60.6841803 221.305743,60.4604098 220.993699,60.2612295 C219.771873,59.3587705 218.491589,58.8464754 216.930549,58.8464754 C213.580406,58.8464754 211.167216,61.6194262 211.167216,65.0145082 L211.167216,65.0694262 C211.167216,68.4628689 213.522773,71.287459 216.930549,71.287459 C218.779756,71.287459 219.999936,70.7235246 221.249756,69.732541 C221.588969,69.4505738 222.044273,69.2538525 222.558856,69.2538525 C223.661299,69.2538525 224.599076,70.1587705 224.599076,71.2612295 C224.599076,71.939918 224.258216,72.4751639 223.859723,72.8128689 C222.071443,74.3686066 219.969473,75.3005738 216.788936,75.3005738 C210.941623,75.3005738 206.593599,70.8087705 206.593599,65.1251639" id="Fill-43" fill="#243841"></path>
                <path d="M239.620216,66.6813115 L236.863696,60.1493443 L234.109646,66.6813115 L239.620216,66.6813115 Z M227.324556,72.1640984 L234.25373,56.5862295 C234.73291,55.5116393 235.616346,54.8616393 236.81265,54.8616393 L237.06212,54.8616393 C238.258423,54.8616393 239.10728,55.5116393 239.593046,56.5862295 L246.52222,72.1640984 C246.66548,72.4747541 246.74699,72.7583607 246.74699,73.0419672 C246.74699,74.2009836 245.8405,75.1296721 244.67466,75.1296721 C243.652903,75.1296721 242.97283,74.5419672 242.57269,73.6321311 L241.24136,70.5247541 L232.491796,70.5247541 L231.098716,73.7731148 C230.72904,74.6222951 229.99298,75.1296721 229.08402,75.1296721 C227.946996,75.1296721 227.069323,74.2296721 227.069323,73.0993443 C227.069323,72.7870492 227.180473,72.4747541 227.324556,72.1640984 L227.324556,72.1640984 Z" id="Fill-45" fill="#243841"></path>
                <path d="M108.277225,90.1347541 L108.277225,81.7552459 C108.277225,81.5781967 108.432012,81.4208197 108.616439,81.4208197 L114.485982,81.4208197 C114.652295,81.4208197 114.798025,81.5634426 114.798025,81.7314754 C114.798025,81.9011475 114.652295,82.0404918 114.485982,82.0404918 L108.952359,82.0404918 L108.952359,85.5978689 L113.903885,85.5978689 C114.068552,85.5978689 114.210165,85.7388525 114.210165,85.9085246 C114.210165,86.0765574 114.068552,86.217541 113.903885,86.217541 L108.952359,86.217541 L108.952359,89.8495082 L114.551849,89.8495082 C114.721455,89.8495082 114.864715,89.9921311 114.864715,90.165082 C114.864715,90.3298361 114.721455,90.4708197 114.551849,90.4708197 L108.616439,90.4708197 C108.432012,90.4708197 108.277225,90.3159016 108.277225,90.1347541" id="Fill-47" fill="#243841"></path>
                <path d="M116.97533,81.7187705 C116.97533,81.537623 117.129294,81.3810656 117.310427,81.3810656 L117.41746,81.3810656 C117.559074,81.3810656 117.662814,81.4613934 117.751734,81.5777869 L123.882274,89.3195902 L123.882274,81.6933607 C123.882274,81.5089344 124.025534,81.3679508 124.20749,81.3679508 C124.388624,81.3679508 124.53353,81.5089344 124.53353,81.6933607 L124.53353,90.2261475 C124.53353,90.3794262 124.413324,90.5113934 124.260184,90.5113934 L124.20749,90.5113934 C124.07658,90.5113934 123.973664,90.4179508 123.870747,90.295 L117.623294,82.4007377 L117.623294,90.2007377 C117.623294,90.3794262 117.48168,90.5236885 117.298077,90.5236885 C117.117767,90.5236885 116.97533,90.3794262 116.97533,90.2007377 L116.97533,81.7187705 Z" id="Fill-49" fill="#243841"></path>
                <path d="M137.279224,87.33 L134.891558,82.0947541 L132.487424,87.33 L137.279224,87.33 Z M130.550944,90.032459 L134.434608,81.6529508 C134.525998,81.4611475 134.656084,81.3316393 134.891558,81.3316393 L134.915434,81.3316393 C135.150084,81.3316393 135.278524,81.4611475 135.370738,81.6529508 L139.241228,90.0054098 C139.278278,90.0832787 139.290628,90.1480328 139.290628,90.2136066 C139.290628,90.38 139.149014,90.5234426 138.966234,90.5234426 C138.809801,90.5234426 138.692888,90.4054098 138.627021,90.2644262 L137.565744,87.9365574 L132.199258,87.9365574 L131.134688,90.2759016 C131.070468,90.4340984 130.967551,90.5234426 130.812764,90.5234426 C130.642334,90.5234426 130.499898,90.3939344 130.499898,90.2406557 C130.499898,90.1857377 130.512248,90.1062295 130.550944,90.032459 L130.550944,90.032459 Z" id="Fill-51" fill="#243841"></path>
                <path d="M141.378189,81.7187705 C141.378189,81.537623 141.533799,81.3810656 141.714109,81.3810656 L141.779976,81.3810656 C141.921589,81.3810656 142.027799,81.4613934 142.117543,81.5777869 L145.661993,86.7745082 L149.208089,81.5777869 C149.287953,81.4613934 149.400749,81.3810656 149.547303,81.3810656 L149.613169,81.3810656 C149.793479,81.3810656 149.949089,81.537623 149.949089,81.7187705 L149.949089,90.1859836 C149.949089,90.3704098 149.793479,90.5236885 149.613169,90.5236885 C149.431213,90.5236885 149.272309,90.3704098 149.272309,90.1859836 L149.272309,82.6122131 L145.936986,87.4482787 C145.856299,87.5638525 145.768203,87.6146721 145.647996,87.6146721 C145.531906,87.6146721 145.442986,87.5638525 145.364769,87.4482787 L142.027799,82.6122131 L142.027799,90.2007377 C142.027799,90.3794262 141.886186,90.5236885 141.703406,90.5236885 C141.519803,90.5236885 141.378189,90.3794262 141.378189,90.2007377 L141.378189,81.7187705 Z" id="Fill-53" fill="#243841"></path>
                <path d="M152.642789,90.1347541 L152.642789,81.7552459 C152.642789,81.5781967 152.800046,81.4208197 152.985296,81.4208197 L158.853192,81.4208197 C159.020329,81.4208197 159.161942,81.5634426 159.161942,81.7314754 C159.161942,81.9011475 159.020329,82.0404918 158.853192,82.0404918 L153.319569,82.0404918 L153.319569,85.5978689 L158.267802,85.5978689 C158.438232,85.5978689 158.581492,85.7388525 158.581492,85.9085246 C158.581492,86.0765574 158.438232,86.217541 158.267802,86.217541 L153.319569,86.217541 L153.319569,89.8495082 L158.917412,89.8495082 C159.086196,89.8495082 159.227809,89.9921311 159.227809,90.165082 C159.227809,90.3298361 159.086196,90.4708197 158.917412,90.4708197 L152.985296,90.4708197 C152.800046,90.4708197 152.642789,90.3159016 152.642789,90.1347541" id="Fill-55" fill="#243841"></path>
                <path d="M165.082862,86.1116393 C166.601088,86.1116393 167.729878,85.352623 167.729878,84.0460656 L167.729878,84.0190164 C167.729878,82.8042623 166.769872,82.0403279 165.123205,82.0403279 L162.017592,82.0403279 L162.017592,86.1116393 L165.082862,86.1116393 Z M161.342458,81.7559016 C161.342458,81.5780328 161.498068,81.4206557 161.680025,81.4206557 L165.158608,81.4206557 C166.279165,81.4206557 167.173305,81.7714754 167.718352,82.3140984 C168.148132,82.7403279 168.408305,83.3485246 168.408305,83.9936066 L168.408305,84.0190164 C168.408305,85.5337705 167.276222,86.4001639 165.742352,86.6067213 L168.327618,89.9411475 C168.393485,90.0181967 168.432182,90.0960656 168.432182,90.1698361 C168.432182,90.3542623 168.261752,90.5239344 168.083912,90.5239344 C167.953002,90.5239344 167.861612,90.4468852 167.784218,90.3411475 L164.993118,86.7214754 L162.017592,86.7214754 L162.017592,90.1862295 C162.017592,90.3698361 161.861982,90.5239344 161.680025,90.5239344 C161.498068,90.5239344 161.342458,90.3698361 161.342458,90.1862295 L161.342458,81.7559016 Z" id="Fill-57" fill="#243841"></path>
                <path d="M170.817214,81.7059016 C170.817214,81.5231148 170.972341,81.3698361 171.153733,81.3698361 C171.336767,81.3698361 171.488612,81.5231148 171.488612,81.7059016 L171.488612,90.1862295 C171.488612,90.3698361 171.336767,90.5239344 171.153733,90.5239344 C170.972341,90.5239344 170.817214,90.3698361 170.817214,90.1862295 L170.817214,81.7059016 Z" id="Fill-59" fill="#243841"></path>
                <path d="M173.882237,85.9708197 L173.882237,85.9454098 C173.882237,83.3855738 175.803897,81.2659016 178.42539,81.2659016 C179.935383,81.2659016 180.882217,81.7831148 181.763183,82.5322951 C181.830697,82.5962295 181.896563,82.6872131 181.896563,82.8044262 C181.896563,82.9822951 181.726133,83.1404918 181.543353,83.1404918 C181.452787,83.1404918 181.361397,83.1019672 181.308703,83.0478689 C180.555353,82.3659016 179.684267,81.872459 178.413863,81.872459 C176.232853,81.872459 174.583717,83.6462295 174.583717,85.9208197 L174.583717,85.9454098 C174.583717,88.2331148 176.2592,90.017541 178.42539,90.017541 C179.662037,90.017541 180.52983,89.5790164 181.388567,88.7659016 C181.442083,88.7118033 181.517007,88.6634426 181.624863,88.6634426 C181.790353,88.6634426 181.943493,88.8159016 181.943493,88.9839344 C181.943493,89.0880328 181.896563,89.1642623 181.842223,89.2142623 C180.920913,90.0708197 179.92221,90.6265574 178.399043,90.6265574 C175.803897,90.6265574 173.882237,88.5708197 173.882237,85.9708197" id="Fill-61" fill="#243841"></path>
                <path d="M190.019241,87.33 L187.629927,82.0947541 L185.227441,87.33 L190.019241,87.33 Z M183.290961,90.032459 L187.172977,81.6529508 C187.269307,81.4611475 187.397747,81.3316393 187.629927,81.3316393 L187.657097,81.3316393 C187.890101,81.3316393 188.020187,81.4611475 188.112401,81.6529508 L191.981244,90.0054098 C192.018294,90.0832787 192.033937,90.1480328 192.033937,90.2136066 C192.033937,90.38 191.889031,90.5234426 191.711191,90.5234426 C191.549817,90.5234426 191.437844,90.4054098 191.368684,90.2644262 L190.307407,87.9365574 L184.940921,87.9365574 L183.876351,90.2759016 C183.812131,90.4340984 183.707567,90.5234426 183.552781,90.5234426 C183.382351,90.5234426 183.239914,90.3939344 183.239914,90.2406557 C183.239914,90.1857377 183.255557,90.1062295 183.290961,90.032459 L183.290961,90.032459 Z" id="Fill-63" fill="#243841"></path>
                <path d="M198.012984,81.7059016 C198.012984,81.5231148 198.166947,81.3698361 198.350551,81.3698361 C198.534154,81.3698361 198.689764,81.5231148 198.689764,81.7059016 L198.689764,89.8501639 L203.764791,89.8501639 C203.933574,89.8501639 204.076834,89.9919672 204.076834,90.164918 C204.076834,90.3296721 203.933574,90.4706557 203.764791,90.4706557 L198.350551,90.4706557 C198.166947,90.4706557 198.012984,90.3157377 198.012984,90.1345902 L198.012984,81.7059016 Z" id="Fill-65" fill="#243841"></path>
                <path d="M212.204204,87.33 L209.813244,82.0947541 L207.414051,87.33 L212.204204,87.33 Z M205.475924,90.032459 L209.359588,81.6529508 C209.449331,81.4611475 209.579418,81.3316393 209.813244,81.3316393 L209.842061,81.3316393 C210.073418,81.3316393 210.203504,81.4611475 210.294071,81.6529508 L214.166208,90.0054098 C214.203258,90.0832787 214.213961,90.1480328 214.213961,90.2136066 C214.213961,90.38 214.073171,90.5234426 213.889568,90.5234426 C213.736428,90.5234426 213.616221,90.4054098 213.555294,90.2644262 L212.489078,87.9365574 L207.124238,87.9365574 L206.059668,90.2759016 C205.997094,90.4340984 205.889238,90.5234426 205.739391,90.5234426 C205.567314,90.5234426 205.426524,90.3939344 205.426524,90.2406557 C205.426524,90.1857377 205.433934,90.1062295 205.475924,90.032459 L205.475924,90.032459 Z" id="Fill-67" fill="#243841"></path>
                <path d="M217.65393,82.0404918 L214.745093,82.0404918 C214.573017,82.0404918 214.431403,81.9011475 214.431403,81.7314754 C214.431403,81.5634426 214.573017,81.4208197 214.745093,81.4208197 L221.238723,81.4208197 C221.40586,81.4208197 221.548297,81.5634426 221.548297,81.7314754 C221.548297,81.9011475 221.40586,82.0404918 221.238723,82.0404918 L218.329063,82.0404918 L218.329063,90.1863934 C218.329063,90.37 218.171807,90.5240984 217.993143,90.5240984 C217.80954,90.5240984 217.65393,90.37 217.65393,90.1863934 L217.65393,82.0404918 Z" id="Fill-69" fill="#243841"></path>
                <path d="M223.637587,81.7059016 C223.637587,81.5231148 223.791073,81.3698361 223.972465,81.3698361 C224.155499,81.3698361 224.308985,81.5231148 224.308985,81.7059016 L224.308985,90.1862295 C224.308985,90.3698361 224.155499,90.5239344 223.972465,90.5239344 C223.791073,90.5239344 223.637587,90.3698361 223.637587,90.1862295 L223.637587,81.7059016 Z" id="Fill-71" fill="#243841"></path>
                <path d="M227.101351,81.7187705 C227.101351,81.537623 227.258607,81.3810656 227.442211,81.3810656 L227.543481,81.3810656 C227.690034,81.3810656 227.791304,81.4613934 227.884341,81.5777869 L234.009941,89.3195902 L234.009941,81.6933607 C234.009941,81.5105738 234.152377,81.3695902 234.337627,81.3695902 C234.519584,81.3695902 234.661197,81.5105738 234.661197,81.6933607 L234.661197,90.2261475 C234.661197,90.3794262 234.543461,90.5113934 234.387851,90.5113934 L234.337627,90.5113934 C234.205894,90.5113934 234.102977,90.4179508 233.996767,90.295 L227.752607,82.4007377 L227.752607,90.2007377 C227.752607,90.3794262 227.609347,90.5236885 227.426567,90.5236885 C227.246257,90.5236885 227.101351,90.3794262 227.101351,90.2007377 L227.101351,81.7187705 Z" id="Fill-73" fill="#243841"></path>
                <path d="M243.516559,87.33 L241.125599,82.0947541 L238.719819,87.33 L243.516559,87.33 Z M236.783339,90.032459 L240.670296,81.6529508 C240.758392,81.4611475 240.890949,81.3316393 241.125599,81.3316393 L241.149476,81.3316393 C241.384126,81.3316393 241.512566,81.4611475 241.604779,81.6529508 L245.473622,90.0054098 C245.515612,90.0832787 245.526316,90.1480328 245.526316,90.2136066 C245.526316,90.38 245.383879,90.5234426 245.201922,90.5234426 C245.045489,90.5234426 244.930222,90.4054098 244.862709,90.2644262 L243.796492,87.9365574 L238.436592,87.9365574 L237.368729,90.2759016 C237.304509,90.4340984 237.203239,90.5234426 237.042689,90.5234426 C236.877199,90.5234426 236.735586,90.3939344 236.735586,90.2406557 C236.735586,90.1857377 236.749582,90.1062295 236.783339,90.032459 L236.783339,90.032459 Z" id="Fill-75" fill="#243841"></path>
                <path d="M3.03250133,32.4107377 C3.906058,29.9886066 5.311488,28.8648361 7.95356467,29.155 C18.2452313,30.2951639 28.6151147,30.9279508 38.7297647,33.2558197 C46.3497147,35.0115574 47.4908547,39.4689344 41.8543147,45.0320492 C35.4397247,51.3664754 27.4039913,55.462377 19.9380047,60.3320492 C15.7110113,63.0886066 11.2748913,65.5353279 7.13764133,68.4115574 C4.23374467,70.4287705 3.157648,69.4402459 2.307968,66.5402459 C-2.21789533,51.1033607 0.953584667,38.1689344 3.03250133,32.4107377" id="Fill-77" fill="#942784"></path>
                <path d="M50.8626517,50.4783607 C50.5333183,55.4701639 48.951695,58.7570492 47.370895,61.9808197 C42.3180983,72.2857377 37.0553517,82.4890164 32.0116117,92.7988525 C30.7115683,95.4496721 29.3876483,96.0709836 26.630305,94.6127869 C17.809935,89.9488525 10.958155,83.3791803 5.988515,74.7660656 C4.61190167,72.3808197 4.867135,70.8914754 7.342075,69.4570492 C18.4084983,63.037377 29.3810617,56.4562295 40.452425,50.0431148 C42.2094183,49.0267213 44.243875,48.3365574 46.239635,47.9103279 C49.211045,47.275082 51.1022417,48.3332787 50.8626517,50.4783607" id="Fill-79" fill="#E12185"></path>
                <g id="Group-83" transform="translate(31.286667, 54.772951)">
                    <mask id="mask-2" fill="white">
                        <use xlink:href="#path-1"></use>
                    </mask>
                    <g id="Clip-82"></g>
                    <path d="M2.90784867,43.0542623 C0.744952,42.3714754 -0.047918,41.3927869 1.19778533,39.117377 C6.64742867,29.1698361 11.956282,19.1460656 17.3861653,9.18704918 C18.805592,6.58540984 20.4810753,4.11655738 22.7172487,2.10262295 C26.1324353,-0.972786885 28.547272,-0.383442623 30.3758953,3.90836066 C31.7105187,7.04114754 32.136182,10.3936066 32.4358753,13.7042623 C33.225452,22.4181967 33.6955753,31.1591803 34.4365753,39.8780328 C34.633352,42.1878689 33.677462,43.0747541 31.617482,43.6452459 C26.6667787,45.014918 13.132002,46.2804918 2.90784867,43.0542623" id="Fill-81" fill="#E4202B" mask="url(#mask-2)"></path>
                </g>
                <path d="M65.8996823,70.7668033 C66.1796157,65.8487705 65.4312057,61.4413934 66.5888123,57.1413934 C67.7554757,52.8110656 70.352269,51.877459 73.5690323,54.8971311 C80.192749,61.1168033 84.7787157,68.9766393 90.2719957,76.1077869 C91.2402357,77.3659836 90.633439,78.520082 89.8364523,79.625 C84.8322323,86.5709016 78.3764757,91.7536885 70.6577257,95.4545082 C67.7670023,96.8422131 66.9864823,95.6209016 66.8835657,92.9315574 C66.590459,85.3545082 66.217489,77.7807377 65.8996823,70.7668033" id="Fill-84" fill="#F0881F"></path>
                <path d="M36.468315,30.2671311 C27.1901717,29.652377 17.901325,29.2195902 8.65940833,28.0892623 C5.92841167,27.7564754 5.583435,26.8204098 6.90570833,24.6827049 C12.351235,15.8728689 19.8221617,9.37204918 29.2723817,5.08516393 C30.8498883,4.37040984 31.985265,4.83516393 33.0144317,6.05483607 C37.004305,10.7827049 41.087215,15.4384426 44.967585,20.2556557 C46.6438917,22.340082 48.5894283,24.7892623 47.1839983,27.6048361 C45.7744517,30.4302459 42.6721317,30.1671311 39.960895,30.2597541 C38.7983483,30.299918 37.6333317,30.2671311 36.468315,30.2671311" id="Fill-86" fill="#673289"></path>
                <path d="M98.8391083,56.9477049 C98.114575,63.1690164 96.0068417,68.9386885 93.0420183,74.4362295 C92.2269183,75.9460656 91.4768617,75.9509836 90.514385,74.6206557 C85.4401817,67.6165574 80.4030283,60.5837705 77.1500383,52.4952459 C76.4271517,50.7009836 75.7849517,48.712459 77.317175,47.0140984 C79.0255917,45.1198361 81.2461217,45.7927869 83.109325,46.5591803 C87.7644517,48.4772131 92.3034883,50.6722951 96.899335,52.7419672 C98.781475,53.5886885 99.0144783,55.1657377 98.8391083,56.9477049" id="Fill-88" fill="#FDD413"></path>
                <g id="Group-92" transform="translate(32.933333, 0.674590)">
                    <mask id="mask-4" fill="white">
                        <use xlink:href="#path-3"></use>
                    </mask>
                    <g id="Clip-91"></g>
                    <path d="M25.325651,16.0014754 C24.774841,20.4801639 21.771321,21.7736066 17.683471,19.685082 C15.643251,18.642459 13.699361,17.2604918 12.014821,15.7063934 C8.51647767,12.4719672 5.24866767,8.99245902 1.83265767,5.66868852 C0.198341,4.0752459 -0.011609,2.90803279 2.53331433,2.24491803 C9.19819767,0.510491803 15.9083643,-0.542786885 22.8177777,0.662131148 C24.6702777,0.985901639 25.5660643,1.88918033 25.562771,3.72688525 C25.560301,5.13836066 26.1004077,9.69655738 25.325651,16.0014754" id="Fill-90" fill="#1A5FA9" mask="url(#mask-4)"></path>
                </g>
                <path d="M98.5259123,51.6758197 C97.3921823,52.2848361 95.4268857,50.8610656 93.980289,50.132377 C89.0114723,47.6381148 84.191679,44.8651639 80.338479,40.7848361 C77.2962623,37.5602459 77.705459,34.925 81.4508023,32.5979508 C84.8322323,30.4987705 88.7373023,30.0946721 92.535339,29.4159836 C94.503929,29.0651639 95.0975523,30.6356557 95.775979,32.0872951 C98.0154457,36.8864754 101.013202,50.3389344 98.5259123,51.6758197" id="Fill-93" fill="#5BB14B"></path>
                <path d="M67.5451963,20.8921311 C65.4629863,21.0667213 64.1563563,20.012623 63.2161097,18.277377 C60.9535897,14.0945902 60.5007563,9.47163934 59.921953,4.8904918 C59.6930663,3.07245902 60.6193163,2.20770492 62.4965163,2.72983607 C67.8794697,4.22819672 72.9742563,6.35770492 77.5001197,9.68885246 C78.224653,10.222459 78.9393063,10.6872131 78.585273,11.8667213 C77.713363,14.7757377 70.4309797,20.8044262 67.5451963,20.8921311" id="Fill-95" fill="#1C82C4"></path>
                <path d="M82.3716183,28.5685246 C79.9987717,28.3004918 75.8244717,29.4078689 73.9143383,25.7759016 C71.9144617,21.9693443 75.163335,19.0045902 77.1261617,16.1283607 C80.197195,11.6332787 80.7661183,11.6857377 84.6489583,15.5160656 C87.5018083,18.3291803 90.0236783,21.3914754 92.040845,24.8677049 C93.0576617,26.6193443 93.0296683,27.6340984 90.679875,28.0004918 C88.2485717,28.38 85.8304417,28.6734426 82.3716183,28.5685246" id="Fill-97" fill="#13AEB1"></path>
            </g>
        </g>
    </g>
</svg>